<svg xmlns="http://www.w3.org/2000/svg"  viewBox="0 0 100 100" width="100px" height="100px"><g id="Слой_2"><path d="M82.531,30.924c2.404-2.682,4.535-5.961,6.367-9.804c1.602-3.36,0.696-7.338-2.203-9.673 c-6.316-5.088-12.74-7.668-19.093-7.668c-9.104,0-15.697,5.175-19.913,10.106c-1.545-1.185-2.697-1.872-2.912-1.998 c-0.99-0.579-2.124-0.887-3.274-0.887c-2.3,0-4.45,1.233-5.612,3.218c-1.19,2.035-1.145,4.457-0.095,6.392 C19.422,26.435,8,41.372,8,58.5C8,80.449,26.486,97,51,97s43-16.551,43-38.5C94,48.122,89.88,38.343,82.531,30.924z" opacity=".35"/><path fill="#f2f2f2" d="M80.531,28.924c2.404-2.682,4.535-5.961,6.367-9.804c1.602-3.36,0.696-7.338-2.203-9.673 c-6.316-5.088-12.74-7.668-19.093-7.668c-9.104,0-15.697,5.175-19.913,10.106c-1.545-1.185-2.697-1.872-2.912-1.998 C41.787,9.307,40.653,9,39.503,8.999c-2.3,0-4.45,1.233-5.612,3.218c-1.19,2.035-1.145,4.457-0.095,6.392 C17.422,24.435,6,39.372,6,56.5C6,78.449,24.486,95,49,95s43-16.551,43-38.5C92,46.122,87.88,36.343,80.531,28.924z"/><path fill="#40396e" d="M49.002,34.5c-0.07,0-0.143-0.005-0.214-0.015c-0.82-0.117-1.391-0.877-1.273-1.697 c1.338-9.361-9.661-15.928-9.771-15.993c-0.715-0.419-0.955-1.337-0.537-2.052c0.419-0.716,1.336-0.956,2.05-0.539 c0.525,0.307,12.854,7.64,11.229,19.008C50.378,33.96,49.736,34.5,49.002,34.5z"/><path fill="#ef8630" d="M83,56.5C83,74.449,67.33,87,48,87S13,74.449,13,56.5S30.67,22,50,22S83,38.551,83,56.5z"/><circle cx="67.5" cy="72.5" r="3.5" fill="#e66f2e"/><circle cx="68.5" cy="62.5" r="2.5" fill="#e66f2e"/><circle cx="57.5" cy="73.5" r="2.5" fill="#e66f2e"/><path fill="#739f4d" d="M46.164,24.17c0,0,20.407,16.899,32.513-8.493C57.418-1.448,46.164,24.17,46.164,24.17z"/><path fill="#40396e" d="M71.017,32.028C69,22,56.815,24,48,24c-2.331,0-4.607,0.216-6.81,0.62c0.118,1.295,0.733,2.529,1.785,3.401 c0.328,0.272,8.153,6.659,17.805,6.659C63.8,34.68,67.382,34.056,71.017,32.028z" opacity=".35"/><path fill="#96c362" d="M46.164,24.17c0,0,20.407,16.899,32.513-8.493c-0.027-0.022-0.054-0.042-0.081-0.063L46.164,24.17 C45.867,24.755,46.164,24.17,46.164,24.17z"/><path fill="#40396e" d="M48,90c-21.663,0-38-14.402-38-33.5c0-8.911,3.548-17.432,9.99-23.991 c6.345-6.462,14.966-10.488,24.276-11.337l0.057-0.004c2.303-4.19,9.066-14.39,20.279-14.39c5.183,0,10.551,2.208,15.956,6.562 c1.088,0.875,1.428,2.367,0.825,3.629C78.83,22.326,75.696,26.362,72.05,29C80.944,35.743,86,45.648,86,56.5 C86,75.598,69.663,90,48,90z M64.603,9.778c-10.253,0-16.376,10.339-18.009,13.507c-0.238,0.464-0.7,0.77-1.22,0.81l-0.604,0.048 c-0.01,0.001-0.092,0.007-0.102,0.008l-0.151,0.012c-8.581,0.782-16.538,4.493-22.386,10.448C16.243,40.605,13,48.38,13,56.5 C13,73.888,28.047,87,48,87s35-13.112,35-30.5c0-10.561-5.271-20.153-14.459-26.318c-0.433-0.291-0.684-0.784-0.663-1.305 s0.31-0.993,0.763-1.248c3.935-2.216,7.311-6.237,10.036-11.952C73.818,11.763,69.083,9.778,64.603,9.778z"/></g></svg>