<svg xmlns="http://www.w3.org/2000/svg"  viewBox="0 0 100 100" width="100px" height="100px"><path d="M15.1,86.4c-2.2-2.2-3.8-5-4.5-8.1L10.5,78c-1.4-5.9,0.3-12.2,4.6-16.8l21.2-22.8c-0.6-2.5,4.3-6.7,5.8-8.9 c-0.6-1.9-5.2-2.5-5-4.9c0.4-4.3,3.8-7.8,8.1-8.1c0.7-0.1,1.5-0.1,2.2-0.1c1.4-1.7,3.3-3.1,5.7-4.2c3.1-1.5,6.7-1,9.4,1.1 c0.6-0.2,1.2-0.4,1.9-0.6c3.1-0.8,6.4,0,8.6,2.3c0.2,0.2,0.5,0.5,0.7,0.7c1.3-0.2,2.6-0.2,4-0.1c2.1,0.2,4.1,1.1,5.5,2.6 c1.5,1.5,2.4,3.4,2.6,5.5c0.1,1.6-1.7,4.4-1.9,5.8c0.4,0.3,2.5-0.9,2.8-0.5c2.6,2.6,1.3,6.5-0.3,9.9c0,0,2,0.2,1.9,0.3 c1.9,2.6,2.3,6.1,0.9,9.1c-1.1,2.4-2.6,4.3-4.2,5.7c0,0.7,0,1.4-0.1,2.2c-0.4,4.4-3.8,7.8-8.1,8.1c-2.6,0.2-4.9,0-6.9-0.8 c-2,1.4-4.4,1.8-6.7,1.4L40,86.4c-4.5,4.2-10.6,5.9-16.4,4.7C20.4,90.4,17.4,88.8,15.1,86.4L15.1,86.4z" opacity=".35"/><path fill="#f2f2f2" d="M15.1,83.6c-2.2-2.2-3.8-5-4.5-8.1l-0.1-0.4c-1.4-5.9,0.3-12.2,4.6-16.8l21.2-22.8c-0.6-2.5-0.2-5.2,1.4-7.3 c-0.6-1.9-0.8-4.1-0.6-6.4c0.4-4.3,3.8-7.8,8.1-8.1c0.7-0.1,1.5-0.1,2.2-0.1c1.4-1.7,3.3-3.1,5.7-4.2c3.1-1.5,6.7-1,9.4,1.1 c0.6-0.2,1.2-0.4,1.9-0.6c3.1-0.8,6.4,0,8.6,2.3c0.2,0.2,0.5,0.5,0.7,0.7c1.3-0.2,2.6-0.2,4-0.1c2.1,0.2,4.1,1.1,5.5,2.6 c1.5,1.5,2.4,3.4,2.6,5.5c0.1,1.6,0.1,3-0.1,4.4c0.4,0.3,0.7,0.6,1,0.9c2.6,2.6,3.3,6.7,1.7,10c0,0,0,0.1-0.1,0.1 c1.9,2.6,2.3,6.1,0.9,9.1c-1.1,2.4-2.6,4.3-4.2,5.7c0,0.7,0,1.4-0.1,2.2c-0.4,4.4-3.8,7.8-8.1,8.1c-2.6,0.2-4.9,0-6.9-0.8 c-2,1.4-4.4,1.8-6.7,1.4L40,83.6c-4.5,4.2-10.6,5.9-16.4,4.7C20.4,87.5,17.4,85.9,15.1,83.6L15.1,83.6z"/><rect width="17.4" height="44.2" x="33.5" y="34.2" fill="#739f4d" transform="rotate(45.001 42.176 56.31)"/><path fill="#96c362" d="M64.5,46.5c-8.1,7-16.1,14-24.2,21.1c-2.3,2-4.6,4.2-7,6.2c-0.3,0.3-0.6,0.5-1,0.7c-1.1,0.5-2.3-0.5-1.7-1.6 c0.9-1.8,2.6-3.1,3.9-4.5c1.4-1.5,2.8-3.1,4.3-4.6c0,0,23.5-23.7,23.5-23.7l-4-4c-1,1-2.1,2.1-3.1,3.1c-2.4,2.4-4.9,4.8-7.3,7.3 c-2.7,2.7-5.5,5.4-8.2,8.2c-2.7,2.7-5.4,5.4-8.2,8c-1,1-2,2-3.1,2.9c-0.8,0.7-2.8,3-4.1,2.3c-1.2-0.7,0.7-2.7,1.2-3.3 c2-2.8,4.4-5.3,6.7-7.9c2.2-2.5,4.4-5.1,6.6-7.6c2.4-2.8,4.9-5.6,7.3-8.4c1.7-1.9,3.4-3.9,5-5.8c0,0,0.7-0.8,0.7-0.8 c0,0-2.8-2.5-2.8-2.5L21.4,60.6L15.8,73l9.7,9.7c1.7-0.8,3.3-1.5,5-2.3c2.5-1.1,5.4-2,7.6-3.7c0.7-0.5,1.3-1.1,1.9-1.6 c9-8.6,18-17.2,27-25.8C66.2,48.4,65.4,47.4,64.5,46.5z"/><path fill="#96c362" d="M79.1,47.3c2.3-0.6,3.9-3.4,4.7-5.1c0.5-1.1-3.9-3.8-5.7-4c2.2-0.7,3.5-1.8,4.3-3.5c0.5-1.1,0.2-2.5-0.9-3.2 c-1.5-1-3.7-2.2-5.8-1.9c0.5-0.4,1.1-0.8,1.6-1.3c1.7-1.7,1.8-4.6,1.6-6.5c-0.1-1.2-1.1-2.2-2.3-2.3c-1.9-0.2-4.8-0.1-6.5,1.6 c-0.5,0.5-0.9,1-1.3,1.6c0.2-1.8-0.5-3.9-1.1-5.2c-0.5-1.1-1.8-1.7-3-1.4c-1.9,0.5-4.2,3.9-4.3,4.1c-0.2-1.7-0.4-2.9-1.2-4 c-0.7-1-3.2-1.2-4.4-0.7c-1.8,0.8-4.2,4.6-4.3,5.2c-1.7-1.1-6-0.5-7.7-0.3c-1.2,0.1,0.5,8.5,0.9,8.8c-1.4,0.7-1,6.5,0.1,8.6 c0.2,0.3,1.8,1.9,4.6,1.8c-0.9,2.7-0.8,6.2,1.6,8.6c2.3,2.3,5.5,2.5,8.3,1.7c0,0.1-0.1,1.7,1.6,4.1c1.4,2,9.5-0.6,10-0.1 c1.7,1.7,7.1,0.9,7.2-0.4C77.5,51.9,78.5,47.5,79.1,47.3z"/><path fill="none" stroke="#40396e" stroke-linecap="round" stroke-linejoin="round" stroke-miterlimit="10" stroke-width="3" d="M78.4,52.8c0.1-1.6,0.1-3.8-1-5.4c0.5,0,1-0.1,1.5-0.3c2.2-0.6,3.6-2.8,4.4-4.5c0.5-1.1,0.1-2.3-0.8-3 c-1.1-0.8-2.7-1.6-4.3-1.8c2.1-0.6,3.5-2.8,4.2-4.4c0.5-1,0.1-2.3-0.8-3c-1.4-0.9-3.4-2-5.4-1.8c0.5-0.3,1-0.7,1.5-1.2 c1.6-1.6,1.7-4.3,1.5-6.1c-0.1-1.1-1-2.1-2.2-2.2c-1.8-0.1-4.5,0-6.1,1.5c-0.5,0.5-0.9,1-1.2,1.5c0.2-1.7-0.4-3.6-1-4.9 c-0.5-1-1.6-1.6-2.8-1.3c-1.7,0.5-4.2,1.5-5.2,3.5c-0.1,0.2-0.2,0.4-0.2,0.6c-0.2-1.6-1.1-3.1-1.8-4.2c-0.7-1-1.9-1.3-3-0.8 c-1.6,0.8-3.9,2.2-4.5,4.4c-0.1,0.5-0.2,1-0.3,1.5c-1.6-1.1-3.8-1.1-5.4-1c-1.2,0.1-2.1,1-2.2,2.2c-0.1,1.8,0,4.5,1.5,6.1 c0.3,0.3,0.7,0.6,1.1,0.9c-1.3,0.7-2.3,1.7-3.1,2.6c-0.7,0.9-0.7,2.2,0,3c0.4,0.4,0.8,0.9,1.4,1.4L19.8,62.8c-2.8,3-3.9,7.1-3,10.9 l0.1,0.3c1,4,4,7,8.1,7.9c3.7,0.8,7.7-0.4,10.6-3.1l26.6-24.7c0.4,0.4,0.8,0.8,1.1,1.1c0.9,0.7,2.2,0.7,3,0c0.9-0.8,2-1.9,2.6-3.2 c0.3,0.5,0.7,1,1.2,1.4c1.6,1.6,4.3,1.7,6.1,1.5C77.4,54.9,78.3,54,78.4,52.8z"/><path fill="#72caaf" stroke="#40396e" stroke-linecap="round" stroke-linejoin="round" stroke-miterlimit="10" stroke-width="3" d="M77.4,47.4c0.5,0,1-0.1,1.5-0.3c2.2-0.6,3.6-2.8,4.4-4.5c0.5-1.1,0.1-2.3-0.8-3c-1.1-0.8-2.7-1.6-4.3-1.8 c2.1-0.6,3.5-2.8,4.2-4.4c0.5-1,0.1-2.3-0.8-3c-1.4-0.9-3.4-2-5.4-1.8c0.5-0.3,1-0.7,1.5-1.2c1.6-1.6,1.7-4.3,1.5-6.1 c-0.1-1.1-1-2.1-2.2-2.2c-1.8-0.1-4.5,0-6.1,1.5c-0.5,0.5-0.9,1-1.2,1.5c0.2-1.7-0.4-3.6-1-4.9c-0.5-1-1.6-1.6-2.8-1.3 c-1.7,0.5-4.2,1.5-5.2,3.5c-0.1,0.2-0.2,0.4-0.2,0.6c-0.2-1.6-1.1-3.1-1.8-4.2c-0.7-1-1.9-1.3-3-0.8c-1.6,0.8-3.9,2.2-4.5,4.4 c-0.1,0.5-0.2,1-0.3,1.5c-1.6-1.1-3.8-1.1-5.4-1c-1.2,0.1-2.1,1-2.2,2.2c-0.1,1.8,0,4.5,1.5,6.1c0.3,0.3,0.7,0.6,1.1,0.9 c-1.3,0.7-2.3,1.7-3.1,2.6c-0.7,0.9-0.7,2.2,0,3c1.2,1.4,3.1,3.2,5.4,3.2c1,0,1.9-0.2,2.7-0.5c-2,3.4-2.1,7.3,0.2,9.5 c2.1,2.1,5.7,2.2,9.1,0.4c-0.2,0.7-0.3,1.4-0.3,2.2c0,2.2,1.8,4.2,3.2,5.4c0.9,0.7,2.2,0.7,3,0c0.9-0.8,2-1.9,2.6-3.2 c0.3,0.5,0.7,1,1.2,1.4c1.6,1.6,4.3,1.7,6.1,1.5c1.2-0.1,2.1-1,2.2-2.2C78.5,51.3,78.4,49,77.4,47.4z" opacity=".35"/></svg>