<svg xmlns="http://www.w3.org/2000/svg"  viewBox="0 0 100 100" width="100px" height="100px"><path d="M37.5,98C31.71,98,27,93.29,27,87.5v-42 c0-8.305,6.522-12.208,10.026-14.305l0.732-0.441c1.186-0.722,1.867-1.254,2.241-1.586v-6.578c-1.248-1.352-2-3.152-2-5.089v-6 C38,7.364,41.364,4,45.5,4h13c4.136,0,7.5,3.364,7.5,7.5v6c0,1.937-0.752,3.737-2,5.089v6.578c0.375,0.334,1.062,0.87,2.262,1.6 l0.724,0.436C70.478,33.292,77,37.195,77,45.5v42C77,93.29,72.29,98,66.5,98H37.5z" opacity=".35"/><path fill="#f2f2f2" d="M35.5,96C29.71,96,25,91.29,25,85.5v-42c0-8.305,6.522-12.208,10.026-14.305l0.732-0.441 c1.186-0.722,1.867-1.254,2.241-1.586v-6.578c-1.248-1.352-2-3.152-2-5.089v-6C36,5.364,39.364,2,43.5,2h13 C60.636,2,64,5.364,64,9.5v6c0,1.937-0.752,3.737-2,5.089v6.578c0.375,0.334,1.062,0.87,2.262,1.6l0.724,0.436 C68.478,31.292,75,35.195,75,43.5v42C75,91.29,70.29,96,64.5,96H35.5z"/><path fill="#739f4d" d="M56,31.303L55.5,16.5h2v-8h-2h-11h-2v8h2l-0.299,14.211c-0.11,0-0.509,0.708-0.609,0.752 C37.573,34.101,31.5,38.46,31.5,45.5v40c0,2.209,1.791,4,4,4h27c3.3,0,6-2.7,6-6v-40c0-6.075-4.925-11-11-11L56,31.303z"/><rect width="14" height="7" x="43" y="8" fill="#ffe8d9"/><rect width="12" height="3" x="44" y="15" fill="#40396e" opacity=".35"/><rect width="37" height="35" x="31" y="45" fill="#ffe8d9"/><path fill="none" stroke="#40396e" stroke-linecap="round" stroke-linejoin="round" stroke-miterlimit="10" stroke-width="3" d="M55.5,16.5h1c0.552,0,1-0.448,1-1v-6c0-0.552-0.448-1-1-1h-1h-11h-1c-0.552,0-1,0.448-1,1v6c0,0.552,0.448,1,1,1h1v11.848 c0,2.447-3.291,4.698-5.381,5.97C35.886,36.286,31.5,38.5,31.5,43.5v42c0,2.209,1.791,4,4,4h29c2.209,0,4-1.791,4-4v-42 c0-5-4.386-7.214-7.619-9.182c-2.09-1.273-5.381-3.523-5.381-5.97L55.5,16.5z"/><circle cx="50" cy="58" r="7" fill="#ff7575"/><rect width="18" height="4" x="41" y="69" fill="#ff7575"/></svg>