<svg xmlns="http://www.w3.org/2000/svg"  viewBox="0 0 100 100" width="100px" height="100px"><path d="M59.7,99c-2.6,0-5.2-0.4-7.7-1.2c-2.5,0.8-5.1,1.2-7.7,1.2c-17.3,0-31.4-17.3-31.4-38.6	c0-12.9,5.1-24.6,13.4-31.7C22.6,25,20,20,19,14.5c-0.5-2.9,1-5.8,3.7-7.1C26.3,5.8,30.1,5,33.9,5C38,5,42,6,45.6,7.9	c2.1,1.1,4,2.5,5.6,4.1c0.1-0.1,0.2-0.2,0.3-0.4C52.7,10,54.7,9,56.7,9c1.4,0,2.7,0.4,3.8,1.3c2.9,2.1,3.5,6.2,1.4,9.1	c-0.6,0.8-1.1,1.6-1.5,2.5c17,0.5,30.7,17.6,30.7,38.6C91.2,81.7,77.1,99,59.7,99z" opacity=".35"/><path fill="#f2f2f2" d="M57.7,97c-2.6,0-5.2-0.4-7.7-1.2c-2.5,0.8-5.1,1.2-7.7,1.2c-17.3,0-31.4-17.3-31.4-38.6	c0-12.9,5.1-24.6,13.4-31.7C20.6,23,18,18,17,12.5c-0.5-2.9,1-5.8,3.7-7.1C24.3,3.8,28.1,3,31.9,3C36,3,40,4,43.6,5.9	c2.1,1.1,4,2.5,5.6,4.1c0.1-0.1,0.2-0.2,0.3-0.4C50.7,8,52.7,7,54.7,7c1.4,0,2.7,0.4,3.8,1.3c2.9,2.1,3.5,6.2,1.4,9.1	c-0.6,0.8-1.1,1.6-1.5,2.5c17,0.5,30.7,17.6,30.7,38.6C89.2,79.7,75.1,97,57.7,97z"/><ellipse cx="36.9" cy="18.5" fill="#739f4d" rx="7.8" ry="15.3" transform="rotate(-62.07 36.904 18.51)"/><path fill="#96c362" d="M50.3,25.7c0,0,0.1,0,0.1,0c-1.1-5.9-4.5-11.2-9.8-14c-5.3-2.8-11.5-2.7-17-0.3L50.3,25.7z"/><ellipse cx="36.9" cy="18.5" fill="none" stroke="#40396e" stroke-linecap="round" stroke-linejoin="round" stroke-miterlimit="10" stroke-width="3" rx="7.8" ry="15.3" transform="rotate(-62.07 36.904 18.51)"/><path fill="none" stroke="#40396e" stroke-linecap="round" stroke-linejoin="round" stroke-miterlimit="10" stroke-width="3" d="M51.3,34.4c-1.1-3.3-1.4-7-0.8-10.8c0.6-3.9,2.1-7.3,4.2-10.1"/><path fill="#707cc0" d="M57.7,26.3c-2.7,0-5.3,0.6-7.7,1.6c-2.4-1-5-1.6-7.7-1.6c-13.8,0-24.9,14.4-24.9,32.1	c0,17.7,11.2,32.1,24.9,32.1c2.7,0,5.3-0.6,7.7-1.6c2.4,1,5,1.6,7.7,1.6c13.8,0,24.9-14.4,24.9-32.1C82.7,40.7,71.5,26.3,57.7,26.3z"/><path fill="#40396e" d="M52.6,27.7c-1.2,0.3-2.4,0.6-3.5,1.1c0,0,0,0,0,0c5.7,4.2,10,15.7,10,28.9c0,3.5-0.3,6.9-0.8,10.1	c-0.1,0.8,0.4,1.6,1.3,1.8c0.1,0,0.2,0,0.3,0c0.7,0,1.4-0.5,1.5-1.3c0.6-3.4,0.9-7,0.9-10.6C62.1,44.5,58.3,33.3,52.6,27.7z" opacity=".35"/><path fill="none" stroke="#40396e" stroke-linecap="round" stroke-linejoin="round" stroke-miterlimit="10" stroke-width="3" d="M57.7,26.3c-2.7,0-5.3,0.6-7.7,1.6c-2.4-1-5-1.6-7.7-1.6c-13.8,0-24.9,14.4-24.9,32.1	c0,17.7,11.2,32.1,24.9,32.1c2.7,0,5.3-0.6,7.7-1.6c2.4,1,5,1.6,7.7,1.6c13.8,0,24.9-14.4,24.9-32.1C82.7,40.7,71.5,26.3,57.7,26.3z"/></svg>