<svg xmlns="http://www.w3.org/2000/svg"  viewBox="0 0 100 100" width="100px" height="100px"><path d="M45.8,93.3c-12.5,0-24.3-4.8-33.1-13.4c-1.2-1.2-2-2.9-2-4.6c0-1.7,0.7-3.4,1.9-4.6L27.2,56	c1.2-1.2,2.9-1.9,4.6-1.9c0.9,0,1.8,0.2,2.7,0.6c1.1,0.5,2.5,0.8,3.9,0.8c4,0,8.4-2,11.8-5.4c4.7-4.7,6.6-11.2,4.6-15.7	C53.6,32,54.1,29,56,27.2l14.6-14.6c1.2-1.2,2.8-1.9,4.5-1.9l0.2,0c1.7,0,3.3,0.8,4.5,2c18,18.5,17.8,48.5-0.4,66.8	C70.5,88.3,58.5,93.3,45.8,93.3L45.8,93.3z" opacity=".35"/><path fill="#f2f2f2" d="M43.8,91.3c-12.5,0-24.3-4.8-33.1-13.4c-1.2-1.2-2-2.9-2-4.6c0-1.7,0.7-3.4,1.9-4.6L25.2,54	c1.2-1.2,2.9-1.9,4.6-1.9c0.9,0,1.8,0.2,2.7,0.6c1.1,0.5,2.5,0.8,3.9,0.8c4,0,8.4-2,11.8-5.4c4.7-4.7,6.6-11.2,4.6-15.7	C51.6,30,52.1,27,54,25.2l14.6-14.6c1.2-1.2,2.8-1.9,4.5-1.9l0.2,0c1.7,0,3.3,0.8,4.5,2c18,18.5,17.8,48.5-0.4,66.8	C68.5,86.3,56.5,91.3,43.8,91.3L43.8,91.3z"/><path fill="#96c362" d="M58.6,29.7c3,6.8,0.9,16.1-5.9,22.9s-16.1,9-22.9,5.9L15.2,73.2c16,15.6,41.7,15.5,57.6-0.4s16-41.6,0.4-57.6 L58.6,29.7z"/><path fill="#ffe385" d="M57.8,31.4c2.6,6.4,0.5,15-5.9,21.3s-15,8.5-21.3,5.9L19.4,69.7c15.6,11.4,35.7,10.6,48.3-2s13.4-32.7,2-48.3 L57.8,31.4z"/><path fill="#f9b84f" d="M51.9,52.7c-6.4,6.4-15,8.5-21.3,5.9L29.1,60c12.1,5.5,23.2,5.1,29.6-1.3s6.9-17.6,1.4-29.7l-2.3,2.3 C60.4,37.7,58.3,46.3,51.9,52.7z"/><path fill="none" stroke="#40396e" stroke-linecap="round" stroke-linejoin="round" stroke-miterlimit="10" stroke-width="3" d="M58.6,29.7c3,6.8,0.9,16.1-5.9,22.9s-16.1,9-22.9,5.9L15.2,73.2c16,15.6,41.7,15.5,57.6-0.4s16-41.6,0.4-57.6 L58.6,29.7z"/></svg>