<svg xmlns="http://www.w3.org/2000/svg"  viewBox="0 0 100 100" width="100px" height="100px"><path fill="#52bfa1" d="M64.301,21.149c4.736-8.466,16.202-6.384,18.537,5.452c3.228,2.274,4.566,10.843,1.203,14.649 c1.985,6.442-0.12,12.729-4.628,15.332c-0.203,3.251-2.316,8.075-6.301,9.335c-0.5,5.259-7.047,6.753-7.047,6.753 s-4.314-2.627-5.205-7.79c-6.145-2.61-5.676-11.007-4.77-13.57c-3.111-4.74-2.509-13.183,0.661-17.88 C56.462,29.413,60.93,22.834,64.301,21.149z"/><path fill="#1f212b" d="M66.064,73.669c-0.182,0-0.362-0.05-0.521-0.146c-0.186-0.113-4.429-2.751-5.567-7.95 c-5.762-2.863-5.934-10.688-4.978-14.125c-2.863-4.847-2.539-13.162,0.739-18.299c-0.065-4.375,4.251-10.745,7.839-12.748 c2.305-3.91,6.22-5.929,10.292-5.282c4.819,0.766,8.577,4.935,9.873,10.918c1.596,1.343,2.788,4.005,3.148,7.082 c0.386,3.293-0.264,6.361-1.743,8.351c1.771,6.397-0.156,12.713-4.782,15.701c-0.406,3.664-2.674,7.96-6.347,9.477 c-0.979,5.394-7.446,6.932-7.731,6.996C66.214,73.661,66.139,73.669,66.064,73.669z M72.344,16.998c-2.89,0-5.51,1.671-7.17,4.64 c-0.099,0.175-0.246,0.316-0.426,0.406c-3.047,1.523-7.257,7.744-7,11.313c0.017,0.223-0.043,0.446-0.168,0.631 c-3.095,4.585-3.406,12.579-0.654,16.771c0.172,0.262,0.211,0.588,0.106,0.882c-0.685,1.938-1.372,9.942,4.218,12.316 c0.313,0.134,0.537,0.416,0.595,0.751c0.663,3.841,3.427,6.161,4.399,6.872c1.331-0.41,5.514-1.991,5.872-5.761 c0.038-0.399,0.311-0.738,0.694-0.858c3.572-1.129,5.428-5.617,5.604-8.443c0.021-0.334,0.208-0.636,0.498-0.804 c4.2-2.426,5.954-8.386,4.172-14.171c-0.103-0.333-0.024-0.695,0.207-0.957c1.36-1.54,1.963-4.244,1.612-7.235 c-0.315-2.696-1.353-5.025-2.643-5.934c-0.21-0.148-0.355-0.372-0.405-0.624c-1.258-6.379-5.113-9.193-8.301-9.7 C73.147,17.029,72.743,16.998,72.344,16.998z M64.301,21.149h0.01H64.301z"/><path fill="#52bfa1" d="M34.306,29.362c-1.852-6.267-16.607-8.81-19.344,2.333c-3.055,1.637-4.281,7.829-1.067,10.586 c-1.852,4.652-1.599,9.017,2.698,10.908c0.209,2.35,2.06,7.642,5.853,8.561c0.325,4.741,4.36,5.652,9.529,7.871 c0,0,9.403-4.075,8.13-9.258c4.079-2.003,0.271-7.928,0.067-9.834c2.931-3.42,2.22-9.092-0.816-12.493 C39.608,35.134,37.517,30.587,34.306,29.362z"/><path fill="#1f212b" d="M31.975,70.622c-0.135,0-0.269-0.027-0.395-0.081c-0.702-0.302-1.383-0.578-2.036-0.845 c-3.96-1.611-7.407-3.015-8.022-7.187c-3.639-1.366-5.437-6.075-5.852-8.653c-3.791-1.963-4.851-6.034-2.943-11.317 c-1.318-1.444-1.925-3.535-1.672-5.852c0.263-2.41,1.438-4.566,3.042-5.639c1.374-4.927,5.263-7.925,10.48-8.045 c4.811-0.133,9.229,2.273,10.53,5.614c3.222,1.525,5.342,5.817,5.268,9.072c3.187,3.851,3.556,9.534,0.87,13.099 c0.108,0.378,0.304,0.897,0.495,1.405c0.946,2.511,2.491,6.61-0.537,8.686c0.511,5.541-8.434,9.487-8.831,9.66 C32.245,70.595,32.11,70.622,31.975,70.622z M24.885,25c-0.088,0-0.174,0.001-0.262,0.003c-2.113,0.049-7.19,0.823-8.691,6.931 c-0.067,0.275-0.248,0.509-0.498,0.643c-1.22,0.653-2.18,2.393-2.391,4.328c-0.211,1.935,0.337,3.618,1.503,4.618 c0.324,0.278,0.436,0.731,0.277,1.129c-1.339,3.364-2.05,7.765,2.171,9.623c0.334,0.146,0.562,0.463,0.594,0.826 c0.198,2.225,1.948,6.916,5.093,7.678c0.424,0.103,0.732,0.468,0.763,0.903c0.227,3.322,2.386,4.344,6.854,6.162 c0.538,0.22,1.094,0.445,1.665,0.687c2.6-1.218,8.003-4.536,7.171-7.928c-0.112-0.456,0.108-0.929,0.529-1.136 c2.092-1.027,1.33-3.582,0.205-6.567c-0.351-0.932-0.628-1.667-0.691-2.263c-0.029-0.274,0.056-0.548,0.234-0.757 c2.688-3.136,1.756-8.311-0.802-11.176c-0.184-0.206-0.274-0.478-0.25-0.753c0.227-2.601-1.764-6.644-4.41-7.654 c-0.291-0.111-0.515-0.352-0.603-0.651C32.58,27.05,28.817,25,24.885,25z"/><path fill="#ef5390" d="M34,73.642V90h-4V73.748c0-17.97-1.076-32.792-2.765-47.992C32.302,39.267,33.679,57.533,34,73.642z"/><path fill="#1f212b" d="M34,91h-4c-0.553,0-1-0.447-1-1V73.747c0-16.155-0.825-30.475-2.759-47.881 c-0.056-0.501,0.271-0.966,0.762-1.083c0.498-0.119,0.991,0.15,1.169,0.622C32.398,36.677,34.568,51.999,35,73.622 c0,0.006,0,0.013,0,0.02V90C35,90.553,34.553,91,34,91z M31,89h2V73.651c-0.302-15.084-1.508-27.336-3.667-37.079 C30.49,49.418,31,61.015,31,73.747V89z"/><path fill="#ef5390" d="M64.235,73.642V90h4V73.748c0-17.97,1.076-32.792,2.765-47.992 C65.933,39.267,64.556,57.533,64.235,73.642z"/><path fill="#1f212b" d="M68.235,91h-4c-0.553,0-1-0.447-1-1V73.642c0-0.007,0-0.014,0-0.02 c0.424-21.323,2.657-37.095,6.828-48.218c0.178-0.471,0.67-0.742,1.169-0.622c0.49,0.117,0.817,0.582,0.762,1.083 c-1.934,17.407-2.759,31.726-2.759,47.881V90C69.235,90.553,68.788,91,68.235,91z M65.235,89h2V73.747 c0-12.733,0.51-24.33,1.667-37.177c-2.159,9.745-3.366,21.998-3.667,37.082V89z"/><path fill="#60be92" d="M51.717,13.628C46.597,4.806,33.238,6.36,30.03,18.255c-3.834,2.15-5.748,10.78-2.019,14.805 c-2.573,6.44-0.406,12.921,4.7,15.783c0.095,3.308,2.335,8.307,6.893,9.779c0.354,5.361,7.867,7.196,7.867,7.196 s5.106-2.455,6.357-7.65c7.224-2.348,7.04-10.892,6.101-13.537c3.803-4.657,3.468-13.254,0-18.174 C60.435,22.396,55.545,15.502,51.717,13.628z"/><path fill="#1f212b" d="M47.472,66.818c-0.079,0-0.159-0.01-0.237-0.028c-0.323-0.079-7.646-1.932-8.552-7.438 c-4.178-1.681-6.618-6.161-6.939-9.919c-5.142-3.201-7.144-9.838-4.876-16.176c-1.594-2.05-2.21-5.041-1.692-8.323 c0.513-3.252,2.027-6.009,3.999-7.325c1.698-5.791,6.014-9.8,11.342-10.503c4.814-0.638,9.353,1.568,11.913,5.764 c4.049,2.172,8.766,8.851,8.528,13.318c3.574,5.386,3.596,13.847,0.078,18.648c0.527,2.025,0.676,5.841-0.96,9.163 c-1.161,2.356-2.981,4.016-5.418,4.938c-1.543,5.225-6.533,7.678-6.752,7.783C47.769,66.785,47.621,66.818,47.472,66.818z M42.133,8.999c-0.447,0-0.899,0.03-1.355,0.09c-4.63,0.611-8.378,4.223-9.781,9.427c-0.07,0.26-0.242,0.48-0.477,0.612 c-1.578,0.885-2.932,3.343-3.369,6.118c-0.456,2.897,0.14,5.565,1.594,7.135c0.263,0.283,0.339,0.692,0.195,1.051 c-2.336,5.846-0.584,11.825,4.26,14.539c0.308,0.172,0.501,0.492,0.512,0.844c0.083,2.873,2.062,7.519,6.201,8.857 c0.39,0.126,0.663,0.477,0.69,0.886c0.261,3.961,5.346,5.766,6.751,6.189c1.07-0.611,4.553-2.87,5.502-6.813 c0.082-0.338,0.333-0.609,0.663-0.717c2.166-0.704,3.769-2.084,4.763-4.103c1.427-2.896,1.265-6.575,0.706-8.148 c-0.117-0.33-0.054-0.696,0.168-0.967c3.346-4.099,3.325-12.185-0.043-16.966c-0.144-0.204-0.206-0.453-0.175-0.7 c0.446-3.594-4.185-10.106-7.66-11.808c-0.178-0.087-0.326-0.225-0.426-0.396C48.97,10.886,45.71,8.999,42.133,8.999z"/><path fill="#ef5390" d="M49,65.642V90h-4V65.748c0-17.97-1.076-32.792-2.765-47.992C47.302,31.267,48.679,49.533,49,65.642z"/><path fill="#1f212b" d="M49,91h-4c-0.553,0-1-0.447-1-1V65.747c0-16.155-0.825-30.475-2.759-47.881 c-0.056-0.501,0.271-0.966,0.762-1.083c0.497-0.118,0.991,0.15,1.169,0.622C47.398,28.677,49.568,43.999,50,65.622 c0,0.006,0,0.013,0,0.02V90C50,90.553,49.553,91,49,91z M46,89h2V65.651c-0.302-15.084-1.508-27.336-3.667-37.079 C45.49,41.418,46,53.015,46,65.747V89z"/><path fill="#1f212b" d="M30.313,27.563c-0.003,0-0.007,0-0.01,0c-0.276-0.006-0.496-0.234-0.49-0.51 c0.063-3.05,1.362-5.384,4.087-7.329c0.168-1.578,0.674-3.017,1.505-4.281c0.151-0.232,0.464-0.295,0.692-0.144 c0.231,0.152,0.295,0.462,0.144,0.692c-0.779,1.187-1.239,2.549-1.367,4.051c-0.013,0.148-0.091,0.284-0.214,0.369 c-2.604,1.797-3.789,3.852-3.847,6.661C30.807,27.345,30.584,27.563,30.313,27.563z"/><path fill="#1f212b" d="M37.537,14.28c-0.141,0-0.281-0.06-0.38-0.175c-0.18-0.21-0.155-0.525,0.055-0.705 c1.337-1.144,2.564-1.601,2.616-1.62c0.257-0.093,0.545,0.038,0.641,0.297c0.096,0.259-0.037,0.546-0.296,0.642 c-0.011,0.004-1.119,0.421-2.311,1.44C37.768,14.24,37.652,14.28,37.537,14.28z"/><path fill="#1f212b" d="M74,60.75c-0.098,0-0.195-0.028-0.281-0.087c-0.229-0.155-0.287-0.467-0.132-0.694 c1.184-1.736,1.417-2.544,1.665-5.757c0.012-0.157,0.097-0.3,0.23-0.384c1.178-0.747,2.144-1.636,2.871-2.643 c0.161-0.224,0.475-0.271,0.698-0.112c0.224,0.162,0.274,0.475,0.112,0.698c-0.758,1.049-1.745,1.978-2.935,2.764 c-0.255,3.171-0.563,4.159-1.816,5.996C74.316,60.674,74.159,60.75,74,60.75z"/><path fill="#1f212b" d="M80.18,49.06c-0.046,0-0.093-0.006-0.14-0.02c-0.266-0.077-0.418-0.354-0.341-0.62 c0.867-2.978,0.203-6.09-0.506-8.176c-0.064-0.19-0.009-0.4,0.141-0.534c2.885-2.582,1.54-6.591,1.526-6.631 c-0.09-0.261,0.048-0.546,0.31-0.636c0.257-0.089,0.546,0.047,0.636,0.309c0.063,0.185,1.496,4.463-1.563,7.477 c0.714,2.215,1.314,5.388,0.418,8.47C80.596,48.918,80.396,49.06,80.18,49.06z"/><path fill="#1f212b" d="M44.5,53c-0.096,0-0.191-0.027-0.276-0.083c-4.481-2.97-7.243-6.434-8.209-10.296 c-0.066-0.268,0.096-0.539,0.364-0.606c0.264-0.07,0.539,0.096,0.606,0.364c0.902,3.612,3.524,6.877,7.791,9.704 c0.23,0.152,0.293,0.463,0.141,0.693C44.82,52.921,44.661,53,44.5,53z"/><path fill="#1f212b" d="M29.167,57.75c-0.089,0-0.178-0.023-0.258-0.072c-3.293-1.984-5.758-4.207-7.327-6.606 c-0.151-0.231-0.087-0.541,0.145-0.692c0.228-0.15,0.54-0.087,0.691,0.145c1.487,2.272,3.845,4.392,7.007,6.299 c0.237,0.143,0.313,0.449,0.17,0.686C29.501,57.664,29.336,57.75,29.167,57.75z"/><g><path fill="#1f212b" d="M29.167,46.75c-0.089,0-0.178-0.023-0.258-0.072c-3.293-1.986-5.759-4.208-7.327-6.607 c-0.151-0.231-0.087-0.541,0.145-0.692c0.228-0.15,0.54-0.087,0.691,0.145c1.486,2.272,3.844,4.391,7.007,6.298 c0.237,0.143,0.313,0.45,0.17,0.687C29.501,46.664,29.336,46.75,29.167,46.75z"/></g><g><path fill="#1f212b" d="M43.5,38c-0.097,0-0.193-0.027-0.278-0.085c-4.207-2.825-6.801-6.12-7.707-9.795 c-0.066-0.268,0.098-0.539,0.365-0.605c0.276-0.072,0.54,0.098,0.605,0.366c0.846,3.426,3.299,6.523,7.293,9.205 c0.229,0.154,0.291,0.464,0.137,0.694C43.818,37.922,43.66,38,43.5,38z"/></g><g><path fill="#1f212b" d="M47.5,37c-0.151,0-0.302-0.069-0.4-0.2c-0.165-0.221-0.12-0.534,0.101-0.7 c3.826-2.87,4.693-6.454,5.307-10.181c0.044-0.273,0.307-0.459,0.574-0.412c0.272,0.044,0.457,0.302,0.412,0.574 c-0.647,3.937-1.57,7.727-5.693,10.819C47.71,36.967,47.604,37,47.5,37z"/></g><g><path fill="#1f212b" d="M48.5,52c-0.165,0-0.327-0.082-0.422-0.232c-0.148-0.232-0.079-0.542,0.154-0.689 c4.53-2.875,5.554-6.453,6.276-10.173c0.053-0.271,0.319-0.449,0.587-0.396c0.271,0.053,0.448,0.315,0.396,0.586 c-0.767,3.944-1.857,7.739-6.724,10.827C48.685,51.975,48.592,52,48.5,52z"/></g><g><path fill="#1f212b" d="M69.5,51c-0.188,0-0.369-0.107-0.454-0.291c-0.115-0.25-0.006-0.548,0.244-0.664 c2.167-1,4.214-1.944,6.305-4.839c0.162-0.225,0.474-0.274,0.698-0.112c0.224,0.162,0.274,0.474,0.112,0.698 c-2.244,3.107-4.507,4.151-6.695,5.161C69.642,50.985,69.57,51,69.5,51z"/></g><g><path fill="#1f212b" d="M70.5,39c-0.188,0-0.369-0.107-0.454-0.291c-0.115-0.25-0.006-0.548,0.244-0.664 c1.935-0.893,3.914-2.002,5.295-4.056c0.155-0.229,0.467-0.289,0.694-0.136c0.229,0.154,0.29,0.465,0.136,0.694 c-1.519,2.259-3.64,3.453-5.705,4.406C70.642,38.985,70.57,39,70.5,39z"/></g></svg>