<svg xmlns="http://www.w3.org/2000/svg"  viewBox="0 0 100 100" width="100px" height="100px"><path d="M39.5,98C33.71,98,29,93.29,29,87.5v-30c0-9.143,5.006-18.177,8.545-24.356 C34.802,31.248,33,28.08,33,24.5v-7c0-4.283,2.642-8.05,6.415-9.662C40.948,5.515,43.58,4,46.5,4h10 c2.92,0,5.552,1.515,7.085,3.838C67.358,9.45,70,13.217,70,17.5v7c0,3.58-1.802,6.748-4.545,8.644C68.996,39.326,74,48.358,74,57.5 v30C74,93.29,69.29,98,63.5,98H39.5z" opacity=".35"/><path fill="#f2f2f2" d="M37.5,96C31.71,96,27,91.29,27,85.5v-30c0-9.143,5.006-18.177,8.545-24.356 C32.802,29.248,31,26.08,31,22.5v-7c0-4.283,2.642-8.05,6.415-9.662C38.948,3.515,41.58,2,44.5,2h10 c2.92,0,5.552,1.515,7.085,3.838C65.358,7.45,68,11.217,68,15.5v7c0,3.58-1.802,6.748-4.545,8.644C66.996,37.326,72,46.358,72,55.5 v30C72,91.29,67.29,96,61.5,96H37.5z"/><path fill="#d9eeff" d="M55.5,14h2v-3.5c0-1.105-0.895-2-2-2h0h-11h0c-1.105,0-2,0.895-2,2V15h2l0,14c-2.5,3-11,19-11,22 v34.5c0,2.209,1.791,4,4,4h25c2.209,0,4-1.791,4-4V55c0-6.075-7.5-18-11-26L55.5,14z"/><path fill="#40396e" d="M57,15H43v-5c0-1.105,0.895-2,2-2h10c1.105,0,2,0.895,2,2V15z"/><path fill="#70bfff" d="M36.091,44c-1.506,3.2-2.591,5.929-2.591,7v34.5c0,2.209,1.791,4,4,4h25c2.209,0,4-1.791,4-4V55 c0-2.762-1.556-6.737-3.576-11H36.091z"/><path fill="none" stroke="#40396e" stroke-linecap="round" stroke-linejoin="round" stroke-miterlimit="10" stroke-width="3" d="M61.5,89.5c2.209,0,4-1.791,4-4v-30c0-9-6.495-18.843-9.503-24.328c-0.985-1.796-1.497-3.807-1.497-5.855V14.5h1 c0.552,0,1-0.448,1-1v-3c0-1.105-0.895-2-2-2h0h-10h0c-1.105,0-2,0.895-2,2v3c0,0.552,0.448,1,1,1h1c0,4.273,0,9.038,0,10.82 c0,2.048-0.512,4.057-1.497,5.852C39.995,36.657,33.5,46.5,33.5,55.5v30c0,2.209,1.791,4,4,4H61.5z"/><path fill="none" stroke="#fff" stroke-linecap="round" stroke-linejoin="round" stroke-miterlimit="10" stroke-width="3" d="M40.5,82.5v-27c0-5.865,3.164-13.057,6-18"/><path fill="none" stroke="#40396e" stroke-linecap="round" stroke-linejoin="round" stroke-miterlimit="10" stroke-width="3" d="M57.5,26.5h-16c-2.209,0-4-1.791-4-4v-7c0-2.209,1.791-4,4-4h16c2.209,0,4,1.791,4,4v7C61.5,24.709,59.709,26.5,57.5,26.5z"/></svg>