<svg xmlns="http://www.w3.org/2000/svg"  viewBox="0 0 100 100" width="100px" height="100px"><g id="Слой_2"><path d="M77.648,8.352c-1.511-1.511-3.52-2.343-5.657-2.343c-2.137,0-4.146,0.832-5.657,2.343L8.352,66.335 c-3.119,3.119-3.119,8.194,0,11.314C17.607,86.903,29.911,92,43,92c27.019,0,49-21.981,49-49C92,29.912,86.903,17.607,77.648,8.352 z" opacity=".35"/><path fill="#f2f2f2" d="M75.648,6.352c-1.511-1.511-3.52-2.343-5.657-2.343c-2.137,0-4.146,0.832-5.657,2.343L6.352,64.335 c-3.119,3.119-3.119,8.194,0,11.314C15.607,84.903,27.911,90,41,90c27.019,0,49-21.981,49-49C90,27.912,84.903,15.607,75.648,6.352 z"/><path fill="#40396e" d="M69.991,9.009c-0.768,0-1.536,0.293-2.121,0.879L9.887,67.87c-1.172,1.172-1.172,3.071,0,4.243 C18.198,80.423,29.247,85,41,85c24.262,0,44-19.738,44-44c0-11.753-4.577-22.802-12.887-31.113 C71.527,9.302,70.759,9.009,69.991,9.009L69.991,9.009z"/><path fill="#407845" d="M12.009,69.991C19.428,77.411,29.678,82,41,82c22.644,0,41-18.356,41-41 c0-11.322-4.589-21.572-12.009-28.991L12.009,69.991z"/><path fill="#96c362" d="M41,76c19.33,0,35-15.67,35-35c0-9.665-3.918-18.415-10.251-24.749L16.251,65.749 C22.585,72.082,31.335,76,41,76z"/><path fill="#f4665c" d="M41,72c17.121,0,31-13.879,31-31c0-8.56-3.47-16.31-9.08-21.92L19.08,62.92C24.69,68.53,32.44,72,41,72z"/><path fill="#40396e" d="M60.725,55.661c1.112,1.112,0.609,2.412-0.504,3.525s-2.412,1.616-3.525,0.504s-1.511-5.539-1.511-5.539 S59.612,54.548,60.725,55.661z"/><path fill="#40396e" d="M60.733,55.649c1.113,1.112,0.61,2.412-0.502,3.525c-1.112,1.113-2.412,1.617-3.525,0.506 c-1.113-1.112-1.514-5.538-1.514-5.538S59.62,54.537,60.733,55.649z"/><path fill="#40396e" d="M60.741,55.637c1.114,1.111,0.612,2.412-0.499,3.525c-1.111,1.114-2.411,1.619-3.524,0.508 c-1.114-1.111-1.517-5.537-1.517-5.537S59.627,54.526,60.741,55.637z"/><path fill="#40396e" d="M64.78,43.439c1.52,0.405,1.736,1.783,1.33,3.303c-0.405,1.52-1.278,2.607-2.798,2.202 c-1.52-0.405-4.083-4.037-4.083-4.037S63.26,43.034,64.78,43.439z"/><path fill="#40396e" d="M62.18,30.856c1.519-0.409,2.394,0.676,2.803,2.195c0.409,1.519,0.197,2.897-1.322,3.306 c-1.519,0.409-5.554-1.455-5.554-1.455S60.661,31.265,62.18,30.856z"/><path fill="#40396e" d="M38.561,66.78c-0.405,1.52-1.783,1.736-3.303,1.33c-1.52-0.405-2.607-1.278-2.202-2.798 c0.405-1.52,4.037-4.083,4.037-4.083S38.966,65.26,38.561,66.78z"/><path fill="#40396e" d="M51.144,64.18c0.409,1.519-0.676,2.394-2.195,2.803c-1.519,0.409-2.897,0.197-3.306-1.322 c-0.409-1.519,1.455-5.554,1.455-5.554S50.735,62.661,51.144,64.18z"/></g></svg>