<svg xmlns="http://www.w3.org/2000/svg"  viewBox="0 0 100 100" width="100px" height="100px"><path fill="#50cc8d" d="M84.351,59.223c0.392-0.617,0.626-1.342,0.626-2.126c0-0.865-0.282-1.66-0.751-2.314 c-0.13-1.13-0.334-2.236-0.61-3.315c0.126-0.389,0.213-0.796,0.213-1.227c0-1.426-0.756-2.67-1.886-3.378 c-1.018-2.122-2.316-4.084-3.863-5.827c-0.035-2.179-1.815-3.936-4.013-3.936c-0.127,0-0.247,0.026-0.371,0.037 c-0.616-0.433-1.245-0.85-1.9-1.228c-1.783-1.028-2.898-2.904-2.898-4.955v-0.024c0-2.971-2.29-5.447-5.266-5.693l-4.192-0.348 c-2.559-0.212-4.948,1.291-5.852,3.682l-0.992,2.624c-0.568,1.501-1.756,2.666-3.243,3.288c-1.074,0.449-2.104,0.978-3.097,1.564 c-0.294-0.052-0.594-0.091-0.903-0.091c-2.833,0-5.128,2.269-5.162,5.08c-1.171,1.319-2.199,2.764-3.074,4.308 c-1.555,0.552-2.675,2.016-2.675,3.753c0,0.605,0.145,1.173,0.387,1.686c-0.486,1.701-0.783,3.48-0.897,5.308 c-0.399,0.621-0.638,1.355-0.638,2.147c0,0.868,0.285,1.667,0.758,2.322c0.273,2.34,0.876,4.587,1.763,6.697 c-0.135,0.4-0.224,0.82-0.224,1.265c0,1.918,1.36,3.518,3.172,3.906c0.783,1.065,1.638,2.073,2.576,3.004 c0.03,2.183,1.813,3.945,4.014,3.945c0.317,0,0.622-0.046,0.917-0.114c0.758,0.451,1.54,0.866,2.345,1.238 c0.642,1.358,2.02,2.304,3.628,2.304c0.704,0,1.357-0.196,1.933-0.513c1.095,0.219,2.205,0.393,3.345,0.463 c1.967,0.121,3.887,0.012,5.742-0.291c0.495,0.216,1.039,0.341,1.614,0.341c1.238,0,2.331-0.569,3.069-1.445 c0.471,0.193,0.984,0.302,1.525,0.302c1.965,0,3.595-1.405,3.945-3.259c0.131-0.09,0.26-0.183,0.389-0.275 c1.259-0.283,2.295-1.15,2.798-2.304c0.349-0.333,0.687-0.677,1.016-1.029c2.169-0.058,3.912-1.817,3.912-3.988 c0-0.314-0.045-0.616-0.114-0.91c1.419-0.618,2.411-2.022,2.411-3.661c0-0.607-0.146-1.177-0.39-1.692 C83.926,62.838,84.239,61.057,84.351,59.223z"/><path d="M64.878,83.929c-0.596,0-1.18-0.103-1.744-0.306c-1.883,0.284-3.772,0.374-5.682,0.255l-0.031-1.128l0.072-1.121 l0.103,0.007c1.834,0.116,3.67,0.019,5.487-0.278l0.327-0.054l0.304,0.133c1.17,0.511,2.551,0.179,3.374-0.798l0.528-0.626 l0.757,0.31c0.354,0.145,0.724,0.218,1.1,0.218c1.39,0,2.585-0.986,2.84-2.343l0.087-0.458l0.879-0.613l0.281-0.092 c0.897-0.202,1.65-0.821,2.015-1.658l0.091-0.208l0.164-0.157c0.334-0.317,0.656-0.646,0.971-0.982l0.32-0.343l0.47-0.013 c1.58-0.043,2.818-1.301,2.818-2.865c0-0.198-0.027-0.412-0.084-0.653l-0.213-0.912l0.859-0.375 c1.054-0.459,1.736-1.492,1.736-2.631c0-0.408-0.095-0.816-0.283-1.213l-0.18-0.382l0.116-0.406 c0.473-1.656,0.766-3.365,0.871-5.082l0.018-0.289l0.155-0.244c0.295-0.467,0.452-0.994,0.452-1.525 c0-0.592-0.187-1.165-0.541-1.66l-0.169-0.236l-0.034-0.29c-0.123-1.07-0.319-2.135-0.581-3.165l-0.081-0.315l0.1-0.31 c0.108-0.331,0.158-0.61,0.158-0.879c0-0.986-0.508-1.892-1.359-2.426l-0.275-0.173L80.93,47.35 c-0.977-2.036-2.218-3.909-3.69-5.567l-0.277-0.311l-0.007-0.416c-0.025-1.56-1.321-2.83-2.89-2.83l-0.679,0.07l-0.338-0.238 c-0.684-0.48-1.261-0.853-1.816-1.173c-2.133-1.231-3.46-3.503-3.46-5.928c0-2.392-1.86-4.401-4.234-4.597l-4.193-0.348 c-2.057-0.165-3.99,1.061-4.709,2.96l-0.991,2.624c-0.66,1.745-2.067,3.176-3.86,3.926c-0.974,0.407-1.969,0.91-2.959,1.495 l-0.357,0.212l-0.41-0.072c-0.287-0.051-0.505-0.074-0.708-0.074c-2.2,0-4.012,1.781-4.039,3.97l-0.005,0.419l-0.278,0.313 c-1.109,1.249-2.097,2.633-2.937,4.116l-0.207,0.365l-0.394,0.14c-1.153,0.409-1.927,1.492-1.927,2.694 c0,0.407,0.094,0.813,0.279,1.208l0.179,0.382l-0.116,0.405c-0.458,1.605-0.746,3.312-0.856,5.069l-0.018,0.292L34.877,56.7 c-0.301,0.467-0.46,1-0.46,1.539c0,0.111,0.007,0.221,0.019,0.328l0.13,1.116l-2.232,0.261l-0.13-1.116 c-0.023-0.193-0.035-0.39-0.035-0.589c0-0.871,0.227-1.727,0.659-2.494c0.122-1.683,0.395-3.323,0.813-4.885 c-0.215-0.573-0.323-1.164-0.323-1.762c0-2.006,1.196-3.823,3.017-4.648c0.805-1.375,1.729-2.669,2.752-3.857 c0.261-3.213,2.986-5.759,6.265-5.759c0.216,0,0.438,0.014,0.68,0.044c0.964-0.551,1.933-1.032,2.888-1.431 c1.243-0.52,2.175-1.461,2.624-2.648l0.992-2.625c1.07-2.825,3.941-4.66,6.995-4.405l4.193,0.348 c3.531,0.293,6.296,3.285,6.296,6.813c0,1.649,0.895,3.175,2.335,4.006c0.517,0.298,1.045,0.633,1.64,1.041 c2.68-0.036,4.916,2.006,5.181,4.607c1.433,1.664,2.657,3.517,3.644,5.515c1.34,0.965,2.131,2.489,2.131,4.14 c0,0.406-0.056,0.817-0.172,1.251c0.229,0.945,0.406,1.913,0.529,2.887c0.519,0.82,0.792,1.753,0.792,2.717 c0,0.859-0.223,1.706-0.647,2.468c-0.119,1.654-0.397,3.301-0.828,4.904c0.217,0.575,0.326,1.168,0.326,1.769 c0,1.736-0.882,3.332-2.307,4.27c0.007,0.101,0.01,0.201,0.01,0.301c0,2.627-1.948,4.771-4.518,5.076 c-0.198,0.205-0.398,0.407-0.603,0.605c-0.63,1.276-1.774,2.239-3.14,2.647c-0.644,2.144-2.634,3.65-4.921,3.65 c-0.409,0-0.814-0.048-1.21-0.145C67.327,83.467,66.13,83.929,64.878,83.929z"/><path d="M62.959,29.232l-2.224-0.32l0.16-1.111c1.069-7.45-2.051-11.691-2.082-11.733l-0.677-0.898l1.795-1.352l0.676,0.897 c0.152,0.202,3.713,5.04,2.512,13.405L62.959,29.232z"/><path fill="#fff" d="M58.025,55.579c3.864,11.794-2.564,24.487-14.358,28.35c-11.794,3.864-24.487-2.564-28.351-14.358 L58.025,55.579z"/><path d="M36.647,86.182c-3.654,0-7.283-0.858-10.636-2.557c-5.623-2.847-9.8-7.714-11.762-13.703l-0.35-1.069l44.845-14.692 l0.349,1.068c4.05,12.364-2.713,25.718-15.076,29.768C41.601,85.789,39.117,86.182,36.647,86.182z M16.761,70.28 c1.902,4.933,5.513,8.934,10.264,11.34c5.088,2.576,10.874,3.018,16.292,1.242c10.828-3.548,16.908-14.982,13.962-25.857 L16.761,70.28z"/><path fill="#b7eb7f" d="M19.587,68.172c1.284,3.922,3.799,7.085,6.965,9.241l10.118-14.837L19.587,68.172z"/><path d="M26.552,78.536c-0.218,0-0.438-0.063-0.631-0.195c-3.523-2.399-6.082-5.795-7.4-9.819 c-0.193-0.59,0.128-1.224,0.718-1.418l17.083-5.597c0.458-0.15,0.959,0.007,1.248,0.393c0.289,0.385,0.301,0.91,0.03,1.308 L27.481,78.046C27.264,78.365,26.911,78.536,26.552,78.536z M21.04,68.879c1.103,2.744,2.891,5.114,5.237,6.944l7.604-11.151 L21.04,68.879z"/><path fill="#b7eb7f" d="M36.671,62.576l16.357,7.41c1.792-3.954,2.185-8.556,0.727-13.006L36.671,62.576z"/><path d="M53.028,71.109c-0.156,0-0.313-0.032-0.463-0.1l-16.357-7.41c-0.422-0.191-0.684-0.622-0.658-1.085 c0.025-0.463,0.332-0.862,0.772-1.007l17.084-5.597c0.285-0.092,0.592-0.069,0.857,0.065c0.266,0.135,0.467,0.37,0.56,0.653 c1.487,4.537,1.213,9.445-0.771,13.82C53.863,70.863,53.455,71.109,53.028,71.109z M39.765,62.744l12.669,5.739 c1.219-3.237,1.416-6.744,0.566-10.075L39.765,62.744z"/><path fill="#b7eb7f" d="M26.553,77.413c4.452,3.032,10.201,4.053,15.715,2.246l-5.597-17.083L26.553,77.413z"/><path d="M36.666,81.683c-3.777,0-7.504-1.135-10.745-3.341c-0.246-0.168-0.416-0.427-0.471-0.72 c-0.056-0.293,0.008-0.596,0.176-0.842l10.118-14.837c0.241-0.353,0.656-0.54,1.086-0.48c0.424,0.061,0.776,0.356,0.91,0.763 l5.597,17.083c0.193,0.59-0.128,1.224-0.718,1.417C40.663,81.367,38.657,81.683,36.666,81.683z M28.135,77.087 c3.861,2.279,8.384,2.926,12.704,1.819l-4.525-13.812L28.135,77.087z"/><path fill="#b7eb7f" d="M42.268,79.659c4.985-1.633,8.753-5.246,10.76-9.674l-16.357-7.41L42.268,79.659z"/><path d="M42.268,80.783c-0.473,0-0.912-0.301-1.068-0.774l-5.597-17.083c-0.139-0.424-0.014-0.889,0.317-1.187 c0.332-0.297,0.807-0.369,1.214-0.187l16.357,7.41c0.271,0.123,0.482,0.349,0.588,0.628c0.104,0.279,0.095,0.588-0.029,0.86 c-2.21,4.876-6.378,8.622-11.434,10.277C42.502,80.765,42.383,80.783,42.268,80.783z M38.534,64.653l4.44,13.552 c3.637-1.471,6.667-4.198,8.533-7.676L38.534,64.653z"/><path d="M72.116,49.483l-1.005-2.01l1.005-0.502c1.608-0.804,1.626-2.351,1.626-2.366v-1.123h2.247v1.123 c0,0.121-0.032,2.958-2.868,4.376L72.116,49.483z"/><path d="M39.533,50.606l-1.005-2.01l1.005-0.503c1.607-0.803,1.626-2.35,1.626-2.365v-1.124h2.247v1.124 c0,0.12-0.033,2.958-2.868,4.376L39.533,50.606z"/><path d="M47.959,44.427l-0.503-1.005c-0.804-1.608-2.35-1.626-2.366-1.626h-1.124v-2.247h1.124c0.12,0,2.958,0.032,4.376,2.868 l0.503,1.005L47.959,44.427z"/><path d="M39.67,57.289c-0.136,0-0.277-0.005-0.42-0.015l-1.121-0.081l0.163-2.242l1.121,0.082c1.743,0.13,2.578-1.159,2.613-1.213 l0.59-0.941l1.902,1.145l-0.568,0.954C43.893,55.077,42.543,57.289,39.67,57.289z"/><g><path d="M75.624,53.918c-0.136,0-0.277-0.005-0.42-0.015l-1.121-0.082l0.164-2.241l1.12,0.081 c1.745,0.128,2.579-1.158,2.613-1.213l0.59-0.941l1.902,1.146l-0.567,0.954C79.847,51.706,78.497,53.918,75.624,53.918z"/></g><g><path d="M79.026,62.802l-2.242-0.163l0.081-1.121c0.128-1.751-1.158-2.578-1.213-2.613l-0.941-0.59l1.146-1.903l0.954,0.568 c0.103,0.06,2.526,1.539,2.296,4.701L79.026,62.802z"/></g><g><path d="M58.774,78.779l-0.277-1.089c-0.03-0.117-0.698-2.874,1.701-4.947l0.85-0.735l1.47,1.7l-0.85,0.735 c-1.359,1.175-0.996,2.679-0.992,2.693l0.277,1.089L58.774,78.779z"/></g><g><path d="M69.583,77.874l-1.47-1.7l0.85-0.735c1.358-1.175,0.995-2.678,0.992-2.693l-0.277-1.09l2.178-0.554l0.277,1.089 c0.03,0.117,0.698,2.874-1.701,4.947L69.583,77.874z"/></g><g><path d="M64.853,69.478c-0.356,0-0.735-0.037-1.137-0.122l-1.099-0.233l0.465-2.198l1.1,0.232 c1.753,0.372,2.735-0.827,2.744-0.839l0.7-0.88l1.759,1.399l-0.7,0.88C68.619,67.799,67.253,69.478,64.853,69.478z"/></g><g><path d="M70.307,62.236l-0.68-0.878c-0.074-0.095-1.785-2.359-0.412-5.216l0.487-1.013l2.025,0.974l-0.487,1.012 c-0.761,1.582,0.133,2.825,0.171,2.877l0.659,0.894L70.307,62.236z"/></g><g><path d="M52.011,51.863l-0.76-0.827c-1.188-1.291-2.672-0.922-2.736-0.906l-1.074,0.281l-0.601-2.137l1.066-0.307 c0.116-0.035,2.851-0.785,4.997,1.548l0.761,0.827L52.011,51.863z"/></g><g><path d="M64.37,51.863l-0.761-0.827c-1.188-1.291-2.672-0.922-2.735-0.906L59.8,50.411l-0.601-2.137l1.067-0.307 c0.114-0.035,2.851-0.785,4.997,1.548l0.761,0.827L64.37,51.863z"/></g><g><path d="M62.746,35.618c-0.852,0-1.861-0.215-2.89-0.913l-0.93-0.63l1.261-1.86l0.93,0.63c1.487,1.009,2.846,0.268,2.859,0.261 l0.98-0.549l1.099,1.96l-0.979,0.549C65.012,35.101,64.066,35.618,62.746,35.618z"/></g><g><path d="M53.96,44.189l-1.521-1.654l0.828-0.761c1.292-1.189,0.922-2.672,0.905-2.735l-0.281-1.074l2.137-0.601l0.307,1.066 c0.033,0.116,0.785,2.852-1.548,4.997L53.96,44.189z"/></g><g><path d="M69.711,43.9l-1.017-0.477c-0.109-0.051-2.664-1.287-2.741-4.457l-0.027-1.123l2.246-0.054l0.028,1.123 c0.044,1.796,1.437,2.471,1.451,2.477l1.016,0.478L69.711,43.9z"/></g></svg>