<svg xmlns="http://www.w3.org/2000/svg"  viewBox="0 0 100 100" width="100px" height="100px"><path d="M28.5,92.4c-1.1,0-2.3-0.1-3.4-0.2c-4.3-0.4-8.6-1.3-13.3-2.7c-2-0.6-3.8-1.9-5-3.7c-2.6-3.8-1.9-8.8,1.5-11.6	l11.5-9.4c5.6-4.6,10.3-10.2,14-16.6l0.1-0.2l4.6-7.5c3.3-5.8,7.7-10.6,12.8-14.3c-0.3-1-0.3-2.1,0-3.3l0.1-0.4l0.2-0.4	c1-2.5,3.4-4.2,6-4.2c0.1,0,0.4,0,0.4,0c4.4,0,12-1.1,14.8-4.3l0.1-0.1c2-2.1,4.5-3.2,7.2-3.2c0.7,0,1.4,0.1,2.1,0.2	c1.9-0.8,4-1.2,6.1-1.2c1.3,0,2.6,0.2,3.9,0.5c1.7,0.4,3.1,1.5,4,3c0.9,1.5,1.1,3.2,0.7,4.9c-0.7,2.9-3.3,4.9-6.3,4.9c0,0,0,0,0,0	c-0.5,0-1-0.1-1.5-0.2c-0.4,1.2-0.9,2.4-1.8,3.5c-0.1,0.1-0.2,0.3-0.4,0.4c-2.9,3.2-3.3,11.2-2.8,15.5c0.2,1.8-0.4,3.6-1.6,5	c-1.2,1.3-2.9,2.1-4.7,2.2c-3.3,8.6-11,18.1-19.2,28.2C50.8,87,39.8,92.4,28.5,92.4z" opacity=".35"/><path fill="#f2f2f2" d="M26.5,90.4c-1.1,0-2.3-0.1-3.4-0.2c-4.3-0.4-8.6-1.3-13.3-2.7c-2-0.6-3.8-1.9-5-3.7c-2.6-3.8-1.9-8.8,1.5-11.6	l11.5-9.4c5.6-4.6,10.3-10.2,14-16.6l0.1-0.2l4.6-7.5c3.3-5.8,7.7-10.6,12.8-14.3c-0.3-1-0.3-2.1,0-3.3l0.1-0.4l0.2-0.4	c1-2.5,3.4-4.2,6-4.2c0.1,0,0.4,0,0.4,0c4.4,0,12-1.1,14.8-4.3l0.1-0.1c2-2.1,4.5-3.2,7.2-3.2c0.7,0,1.4,0.1,2.1,0.2	c1.9-0.8,4-1.2,6.1-1.2c1.3,0,2.6,0.2,3.9,0.5c1.7,0.4,3.1,1.5,4,3c0.9,1.5,1.1,3.2,0.7,4.9c-0.7,2.9-3.3,4.9-6.3,4.9c0,0,0,0,0,0	c-0.5,0-1-0.1-1.5-0.2c-0.4,1.2-0.9,2.4-1.8,3.5c-0.1,0.1-0.2,0.3-0.4,0.4c-2.9,3.2-3.3,11.2-2.8,15.5c0.2,1.8-0.4,3.6-1.6,5	c-1.2,1.3-2.9,2.1-4.7,2.2c-3.3,8.6-11,18.1-19.2,28.2C48.8,85,37.8,90.4,26.5,90.4z"/><path fill="#739f4d" d="M72.2,26.2c0.4,6.5-0.8,13.5-2.5,18.2C67,52,59.7,61.1,51.4,71.4C44.8,79.6,35,84.9,23.7,83.8	c-4-0.4-8-1.2-12.1-2.4c-0.6-0.2-1.1-0.6-1.5-1.1l0,0c-0.7-1-0.6-2.3,0.3-3l11.5-9.4c6.2-5.1,11.5-11.3,15.5-18.4L42,42	c4.7-8.3,12.3-15,21.7-17.5l7.6-1.7L72.2,26.2z"/><path fill="#407845" stroke="#739f4d" stroke-miterlimit="10" d="M75.5,40.8c0,0-0.6-15,5.5-21.6l0,0c-0.2-3.2-1.7-4.6-4.5-4c0,0,0,0,0,0c-6.1,6.7-20.9,7.5-20.9,7.5	c5.2,3.7,11.1,4.8,15,3.6C69.6,30.2,71.3,36,75.5,40.8z"/><ellipse cx="26.7" cy="74.6" fill="#96c362" rx="5.7" ry="5.6" transform="rotate(-41.619 26.684 74.602)"/><ellipse cx="38" cy="67.1" fill="#96c362" rx="5.5" ry="6" transform="rotate(-39.177 38.027 67.087)"/><ellipse cx="46.6" cy="58.8" fill="#96c362" rx="5.6" ry="6" transform="rotate(-47.772 46.595 58.824)"/><path fill="none" stroke="#40396e" stroke-linecap="round" stroke-linejoin="round" stroke-miterlimit="10" stroke-width="3" d="M51.4,71.4C59.7,61.1,67,52,69.7,44.4c0.9-2.6,1.7-5.8,2.1-9.3c0.9,1.9,2.1,3.9,3.6,5.6c0,0-1.6-13.9,4.5-20.6	l0,0c2.6-3.4-1.5-7.1-4.5-4c0,0,0,0,0,0c-6.1,6.7-19.9,6.4-19.9,6.4c1.7,1.2,3.5,2.2,5.3,2.8c-8.1,3-14.6,9.1-18.8,16.5l-4.6,7.5	c-4,7-9.3,13.3-15.5,18.4l-11.5,9.4c-0.8,0.7-1,2-0.3,3c0.4,0.5,0.9,0.9,1.5,1.1c4.1,1.2,8.1,2.1,12.1,2.4	C35,84.9,44.8,79.6,51.4,71.4z"/><ellipse cx="53.6" cy="47.9" fill="#96c362" rx="5.3" ry="6.1" transform="rotate(-45.001 53.604 47.909)"/><ellipse cx="61.2" cy="37.2" fill="#96c362" rx="5.9" ry="6.1" transform="rotate(-45.001 61.21 37.208)"/><path fill="none" stroke="#40396e" stroke-linecap="round" stroke-miterlimit="10" stroke-width="3" d="M80.2,16.2c1.6-1.3,3.7-2.1,5.9-2.1c0.8,0,1.6,0.1,2.3,0.3"/><ellipse cx="24.5" cy="73.1" fill="#f2f2f2" rx="2" ry="1.7" transform="rotate(-65.864 24.543 73.058)"/><ellipse cx="36.1" cy="65.2" fill="#f2f2f2" rx="2" ry="1.7" transform="rotate(-60 36.121 65.22)"/><ellipse cx="45.2" cy="57.2" fill="#f2f2f2" rx="2" ry="1.7" transform="rotate(-70.962 45.201 57.153)"/><ellipse cx="51" cy="46.4" fill="#f2f2f2" rx="2" ry="1.7" transform="rotate(-70.962 51.001 46.417)"/><ellipse cx="59.5" cy="36" fill="#f2f2f2" rx="2" ry="1.7" transform="rotate(-70.962 59.455 36.013)"/></svg>