<svg xmlns="http://www.w3.org/2000/svg"  viewBox="0 0 100 100" width="100px" height="100px"><path d="M35.5,98C29.159,98,24,92.841,24,86.5v-23c0-2.674,1.128-5.163,3-6.924v-3.152 c-1.872-1.761-3-4.25-3-6.924v-6.747c0-11.231,5.937-19.879,15-22.738V10.5C39,6.916,41.916,4,45.5,4h13c3.584,0,6.5,2.916,6.5,6.5 v6.515c9.063,2.859,15,11.507,15,22.738V46.5c0,2.674-1.128,5.163-3,6.924v3.152c1.872,1.761,3,4.25,3,6.924v23 C80,92.841,74.841,98,68.5,98H35.5z" opacity=".35"/><path fill="#f2f2f2" d="M33.5,96C27.159,96,22,90.841,22,84.5v-23c0-2.674,1.128-5.163,3-6.924v-3.152 c-1.872-1.761-3-4.25-3-6.924v-6.747c0-11.231,5.937-19.879,15-22.738V8.5C37,4.916,39.916,2,43.5,2h13C60.084,2,63,4.916,63,8.5 v6.515c9.063,2.859,15,11.507,15,22.738V44.5c0,2.674-1.128,5.163-3,6.924v3.152c1.872,1.761,3,4.25,3,6.924v23 C78,90.841,72.841,96,66.5,96H33.5z"/><path fill="#70bfff" d="M68.5,47.5c1.657,0,3-1.343,3-3v-6.747c0-9.529-5.724-17.253-15.253-17.253H55.5v-5h2v-7h-15v7h2v5 h-0.747c-9.528,0-15.253,7.724-15.253,17.253V44.5c0,1.657,1.343,3,3,3v11c-1.657,0-3,1.343-3,3v23c0,2.761,2.239,5,5,5h33 c2.761,0,5-2.239,5-5v-23c0-1.657-1.343-3-3-3V47.5z"/><rect width="38" height="3" x="31" y="46" fill="#40396e" opacity=".35"/><path fill="#d9eeff" d="M43.753,20.5c-8.238,0-13.624,5.778-14.934,13.5h42.362c-1.31-7.722-6.696-13.5-14.934-13.5H55.5v-5 h2v-7h-15v7h2v5H43.753z"/><rect width="38" height="3" x="31" y="57" fill="#40396e" opacity=".35"/><polygon fill="#40396e" points="55,17 45,17 43,9 57,9"/><path fill="none" stroke="#40396e" stroke-linecap="round" stroke-linejoin="round" stroke-miterlimit="10" stroke-width="3" d="M68.5,47.5c1.657,0,3-1.343,3-3v-6.747c0-9.529-5.724-17.253-15.253-17.253H55.5v-5h1v-7h-13v7h1v5h-0.747 c-9.528,0-15.253,7.724-15.253,17.253V44.5c0,1.657,1.343,3,3,3v11c-1.657,0-3,1.343-3,3v23c0,2.761,2.239,5,5,5h33 c2.761,0,5-2.239,5-5v-23c0-1.657-1.343-3-3-3V47.5z"/></svg>