<svg xmlns="http://www.w3.org/2000/svg"  viewBox="0 0 100 100" width="100px" height="100px"><g id="Слой_2"><path d="M92.423,28.826c-1.019-0.895-10.298-8.747-22.068-8.747c-0.566,0-1.13,0.018-1.691,0.055 C65.177,10.785,57.412,4.74,56.408,3.987c-1.375-1.031-3.08-1.599-4.799-1.599c-1.72,0-3.425,0.568-4.801,1.601 c-1,0.75-8.755,6.788-12.248,16.126c-0.464-0.025-0.929-0.038-1.396-0.038c-11.771-0.001-21.052,7.855-22.071,8.751 C8.199,31.37,7.529,35.619,9.5,38.93c0.246,0.414,2.142,3.545,4.926,6.717c-0.13,0.939-0.196,1.892-0.196,2.853 c0,5.876,2.449,11.233,6.427,14.426C21.469,68.849,26.362,72.597,31,75c1.177,3.789,1.796,8.153,4.757,10.21 C37.483,92.763,43.245,98,50.231,98c1.01,0,2.014-0.117,3-0.349c0.986,0.232,1.99,0.349,3,0.349 c6.989,0,12.754-5.243,14.477-12.802c3.127-2.196,5.473-5.658,6.581-9.735c4.24-2.781,7.101-7.809,7.625-13.525 c3.368-3.262,5.318-8.101,5.318-13.438c0-1.287-0.116-2.553-0.346-3.786c2.352-2.836,3.922-5.431,4.131-5.781 C95.99,35.621,95.32,31.37,92.423,28.826z" opacity=".35"/><path fill="#f2f2f2" d="M90.423,26.826c-1.019-0.895-10.298-8.747-22.068-8.747c-0.566,0-1.13,0.018-1.691,0.055 C63.177,8.785,55.412,2.74,54.408,1.987c-1.375-1.031-3.08-1.599-4.799-1.599c-1.72,0-3.425,0.568-4.801,1.601 c-1,0.75-8.755,6.788-12.248,16.126c-0.464-0.025-0.929-0.038-1.396-0.038c-11.771-0.001-21.052,7.855-22.071,8.751 C6.199,29.37,5.529,33.619,7.5,36.93c0.246,0.414,2.142,3.545,4.926,6.717c-0.13,0.939-0.196,1.892-0.196,2.853 c0,5.876,2.449,11.233,6.427,14.426c0.811,5.923,4.089,10.881,8.727,13.284c1.177,3.789,3.411,6.943,6.372,9 C35.483,90.763,41.245,96,48.231,96c1.01,0,2.014-0.117,3-0.349c0.986,0.232,1.99,0.349,3,0.349 c6.989,0,12.754-5.243,14.477-12.802c3.127-2.196,5.473-5.658,6.581-9.735c4.24-2.781,7.101-7.809,7.625-13.525 c3.368-3.262,5.318-8.101,5.318-13.438c0-1.287-0.116-2.553-0.346-3.786c2.352-2.836,3.922-5.431,4.131-5.781 C93.99,33.621,93.32,29.37,90.423,26.826z"/><path fill="#689f38" d="M61,26c-0.562,11.814-12.985,21.673-12.985,21.673s-11.39-8.306-10.828-20.111 C37.751,15.75,49.984,6.329,49.984,6.329S61.56,14.184,61,26z"/><path fill="#96c362" d="M50.913,42.736c0,0-19.726,3.139-26.913,0.264c-5-2-9.857-10.163-9.857-10.163S37.478,12.331,50.913,42.736z"/><path fill="#96c362" d="M48.143,42.736c0,0,19.726,3.139,26.913,0.264c5-2,9.857-10.163,9.857-10.163S61.578,12.331,48.143,42.736z"/><g><path fill="#d84178" d="M73,37c-1.691,0-3.242,0.814-4.451,2.168C67.553,35.567,65.001,33,62,33c-2.403,0-4.522,1.645-5.782,4.148 C55.054,34.093,52.709,32,50,32s-5.054,2.093-6.218,5.148C42.522,34.645,40.403,33,38,33c-3.001,0-5.553,2.567-6.549,6.168 C30.242,37.814,28.691,37,27,37c-3.866,0-7,4.253-7,9.5s3.134,9.5,7,9.5c3.001,0,5.553-2.567,6.549-6.168 C34.758,51.186,36.309,52,38,52c2.709,0,5.054-2.093,6.218-5.148C45.478,49.355,47.597,51,50,51s4.522-1.645,5.782-4.148 C56.946,49.907,59.291,52,62,52c1.691,0,3.242-0.814,4.451-2.168C67.447,53.433,69.999,56,73,56c3.866,0,7-4.253,7-9.5 S76.866,37,73,37z"/><path fill="#d84178" d="M60.5,58.31c-1.701,0-3.262,0.788-4.5,2.097c-1.238-1.309-2.799-2.097-4.5-2.097 c-1.939,0-3.697,1.022-5,2.678c-1.303-1.656-3.061-2.678-5-2.678c-4.015,0-7.269,4.354-7.269,9.726 c0,5.372,3.255,9.726,7.269,9.726c1.939,0,3.697-1.022,5-2.678c1.303,1.656,3.061,2.678,5,2.678c1.701,0,3.262-0.788,4.5-2.097 c1.238,1.309,2.799,2.097,4.5,2.097c4.015,0,7.269-4.355,7.269-9.726C67.769,62.664,64.515,58.31,60.5,58.31z"/><path fill="#d84178" d="M54,69c-1.075,0-2.09,0.339-3,0.927C50.09,69.339,49.075,69,48,69c-3.866,0-7,4.253-7,9.5s3.134,9.5,7,9.5 c1.075,0,2.09-0.339,3-0.927C51.91,87.661,52.925,88,54,88c3.866,0,7-4.253,7-9.5S57.866,69,54,69z"/><path fill="#40396e" d="M46.5,81.495c1.558,0.825,3.262,1.267,5,1.267c1.558,0,3.082-0.348,4.5-1.01 c1.343,0.628,2.783,0.962,4.255,0.997C60.727,81.469,61,80.029,61,78.5c0-0.26-0.014-0.515-0.029-0.77 c-0.157,0.014-0.312,0.032-0.471,0.032c-1.701,0-3.262-0.788-4.5-2.097c-1.238,1.309-2.799,2.097-4.5,2.097 c-1.939,0-3.697-1.022-5-2.678c-1.303,1.656-3.061,2.678-5,2.678c-0.159,0-0.315-0.018-0.471-0.032 C41.014,77.985,41,78.24,41,78.5c0,1.528,0.272,2.967,0.745,4.246C43.397,82.707,45.016,82.281,46.5,81.495z" opacity=".35"/><path fill="#d84178" d="M75,46H26l0.232,12c0,0.012-0.001,0.024-0.001,0.036c0,5.372,3.255,9.726,7.269,9.726 c2.355,0,4.442-1.505,5.77-3.827c1.192,1.145,2.65,1.827,4.23,1.827c2.493,0,4.69-1.68,6-4.239c1.31,2.558,3.507,4.239,6,4.239 c2.201,0,4.17-1.314,5.503-3.383c1.193,3.188,3.651,5.383,6.497,5.383c4.015,0,7.269-4.355,7.269-9.726 c0-0.012-0.001-0.024-0.001-0.036L75,46z"/><path fill="#40396e" d="M43.5,70.762c2.154,0,4.207-0.649,6-1.842c1.793,1.193,3.846,1.842,6,1.842c1.586,0,3.12-0.352,4.538-1.019 c1.936,1.77,4.31,2.832,6.827,2.987c0.575-1.392,0.904-2.992,0.904-4.695c0-0.098-0.009-0.194-0.011-0.291 c-0.086,0.004-0.171,0.017-0.258,0.017c-2.846,0-5.304-2.194-6.497-5.383c-1.333,2.068-3.302,3.383-5.503,3.383 c-2.493,0-4.69-1.68-6-4.239c-1.31,2.558-3.507,4.239-6,4.239c-1.58,0-3.038-0.682-4.23-1.827 c-1.186,2.074-2.98,3.488-5.027,3.768c-0.003,0.111-0.013,0.22-0.013,0.333c0,1.663,0.313,3.227,0.863,4.595 c1.9-0.295,3.7-1.103,5.262-2.356C41.375,70.596,42.433,70.762,43.5,70.762z" opacity=".35"/><path fill="#40396e" d="M74.768,58l0.045-2.333C74.234,55.877,73.628,56,73,56c-3.001,0-5.553-2.567-6.549-6.168 C65.242,51.186,63.691,52,62,52c-2.709,0-5.054-2.093-6.218-5.148C54.522,49.355,52.403,51,50,51s-4.522-1.645-5.782-4.148 C43.054,49.907,40.709,52,38,52c-1.691,0-3.242-0.814-4.451-2.168C32.553,53.433,30.001,56,27,56 c-0.274,0-0.542-0.027-0.808-0.068L26.232,58c0,0.012-0.001,0.024-0.001,0.036c0,1.025,0.12,2.011,0.34,2.939 C26.714,60.98,26.855,61,27,61c3.298,0,6.35-1.607,8.551-4.296C36.349,56.9,37.168,57,38,57c2.477,0,4.797-0.871,6.728-2.437 C46.334,55.497,48.127,56,50,56s3.666-0.503,5.272-1.437C57.203,56.129,59.523,57,62,57c0.832,0,1.651-0.1,2.449-0.296 C66.65,59.393,69.702,61,73,61c0.493,0,0.974-0.044,1.45-0.11c0.207-0.903,0.319-1.86,0.319-2.854 C74.769,58.024,74.768,58.012,74.768,58z" opacity=".35"/></g><g><path fill="#40396e" d="M54,90.151c-1.029,0-2.035-0.204-3-0.608c-0.965,0.404-1.971,0.608-3,0.608 c-4.909,0-8.979-4.758-9.454-10.814c-3.479-1.369-6.064-5.077-6.677-9.591c-4.657-0.964-8.138-5.976-8.138-12.06l-0.005-0.262 c-3.715-1.696-6.226-6.152-6.226-11.273c0-1.552,0.238-3.097,0.693-4.526c-3.388-3.225-5.903-7.364-6.197-7.856 c-0.618-1.037-0.408-2.365,0.499-3.159c0.338-0.299,8.487-7.382,18.438-7.382c1.86,0,3.675,0.252,5.419,0.751 C37.915,13.613,47.449,6.36,47.879,6.039c0.854-0.645,2.141-0.646,3.001,0.002c0.429,0.321,10.015,7.61,11.534,18.026 c1.833-0.556,3.746-0.837,5.709-0.837c9.926,0,18.096,7.078,18.439,7.379c0.905,0.795,1.114,2.123,0.498,3.158l0,0 c-0.103,0.173-2.379,3.968-5.499,7.162c0.616,1.619,0.938,3.403,0.938,5.222c0,4.538-2.063,8.711-5.217,10.718l-0.016,0.802 c0.001,5.587-2.923,10.327-7.099,11.778c-0.535,4.654-3.149,8.489-6.714,9.889C62.979,85.394,58.909,90.151,54,90.151z M51,86.384 c0.242,0,0.485,0.059,0.705,0.176c0.737,0.393,1.509,0.592,2.295,0.592c3.558,0,6.474-4.008,6.5-8.934 c0.004-0.692,0.48-1.291,1.153-1.451c3.068-0.729,5.425-4.325,5.605-8.55c0.029-0.693,0.53-1.275,1.211-1.409 c3.307-0.646,5.8-4.566,5.8-9.121l0.032-1.732c0.011-0.562,0.336-1.072,0.842-1.318c2.606-1.272,4.357-4.682,4.357-8.484 c0-1.756-0.371-3.459-1.072-4.925c-0.28-0.588-0.15-1.288,0.322-1.736c2.688-2.548,4.833-5.815,5.512-6.897 c-1.539-1.261-8.25-6.362-16.138-6.362c-2.249,0-4.416,0.433-6.439,1.285c-0.454,0.19-0.972,0.146-1.387-0.115 c-0.416-0.265-0.675-0.715-0.695-1.206c-0.37-9.204-8.517-16.161-10.226-17.522c-1.708,1.361-9.789,8.268-10.222,17.408 c-0.023,0.484-0.279,0.929-0.688,1.19c-0.409,0.263-0.919,0.312-1.369,0.131c-1.943-0.779-4.018-1.174-6.166-1.174 c-7.801,0-14.606,5.128-16.137,6.368c0.735,1.172,3.176,4.883,6.134,7.467c0.482,0.422,0.644,1.103,0.402,1.695 c-0.544,1.338-0.833,2.857-0.833,4.394c0,4.207,2.16,7.905,5.137,8.794c0.625,0.187,1.058,0.756,1.07,1.408l0.024,1.26 c0,5.019,2.95,9.156,6.576,9.296c0.775,0.03,1.399,0.646,1.44,1.421c0.216,4.168,2.571,7.716,5.6,8.437 c0.673,0.16,1.149,0.76,1.153,1.451c0.026,4.926,2.942,8.934,6.5,8.934c0.786,0,1.558-0.199,2.295-0.592 C50.515,86.442,50.758,86.384,51,86.384z M85.772,33h0.01H85.772z M14.476,32.861C14.476,32.862,14.476,32.862,14.476,32.861 C14.476,32.862,14.476,32.862,14.476,32.861z"/></g></g></svg>