<svg xmlns="http://www.w3.org/2000/svg"  viewBox="0 0 100 100" width="100px" height="100px"><g id="Слой_2"><path d="M96.075,34.158c-0.893-1.489-2.312-2.541-3.996-2.963c-3.354-0.839-6.656-1.264-9.816-1.264 c-1.931,0-3.834,0.159-5.69,0.473c-1.714-2.141-3.688-3.852-5.91-5.12c0.103-5.35-1.313-9.952-4.23-13.718 C61.098,4.677,52.937,3.78,52.024,3.701c-0.233-0.02-0.464-0.03-0.695-0.03c-2.031,0-3.968,0.763-5.454,2.148 c-0.283,0.264-0.544,0.546-0.784,0.844c-4.582,0.036-8.039,1.307-8.694,1.565c-2.969,1.169-4.944,4.022-5.062,7.155 c-7.553,2.196-12.733,6.771-13.405,7.385c-1.654,1.512-2.602,3.665-2.601,5.906C15.33,30.915,18.345,31.489,20,33 c0.215,0.197-0.474,3.006,1.754,4.469c-0.879,3.206-0.822,6.46,0.189,9.398c-0.91,2.927-1.04,5.909-0.389,8.659 c-2.897,4.218-3.998,9.173-3.041,13.669c-3.641,6.561-3.034,14.24,1.759,19.033c2.651,2.651,6.29,4.111,10.246,4.111 c3.467,0,6.965-1.097,10.064-3.128c0.641,0.08,1.292,0.12,1.951,0.12c3.714,0,7.485-1.281,10.73-3.589 c1.359,0.394,2.791,0.597,4.255,0.597c3.939,0,7.992-1.464,11.378-4.067c4.355-0.363,8.687-2.436,12.064-5.813 c3.105-3.105,5.132-7.039,5.709-11.079c0.689-4.82-0.748-9.416-3.942-12.609c-0.298-0.298-0.608-0.581-0.93-0.849 c-0.228-3.277-1.471-6.301-3.594-8.651c1.265-0.239,2.575-0.358,3.927-0.358c2.14,0,4.426,0.3,6.793,0.892 c0.534,0.13,1.056,0.194,1.577,0.194c2.989,0,5.582-2.025,6.306-4.924C97.227,37.394,96.968,35.647,96.075,34.158z" opacity=".35"/><path fill="#f2f2f2" d="M94.075,32.158c-0.893-1.489-2.312-2.541-3.996-2.963c-3.354-0.839-6.656-1.264-9.816-1.264 c-1.931,0-3.834,0.159-5.69,0.473c-1.714-2.141-3.688-3.852-5.91-5.12c0.103-5.35-1.313-9.952-4.23-13.718 C59.098,2.677,50.937,1.78,50.024,1.701c-0.233-0.02-0.464-0.03-0.695-0.03c-2.031,0-3.968,0.763-5.454,2.148 c-0.283,0.264-0.544,0.546-0.784,0.844c-4.582,0.036-8.039,1.307-8.694,1.565c-2.969,1.169-4.944,4.022-5.062,7.155 c-7.553,2.196-12.733,6.771-13.405,7.385c-1.654,1.512-2.602,3.665-2.601,5.906c0.001,2.241,0.951,4.394,2.606,5.905 c0.215,0.197,1.591,1.428,3.819,2.891c-0.879,3.206-0.822,6.46,0.189,9.398c-0.91,2.927-1.04,5.909-0.389,8.659 c-2.897,4.218-3.998,9.173-3.041,13.669c-3.641,6.561-3.034,14.24,1.759,19.033c2.651,2.651,6.29,4.111,10.246,4.111 c3.467,0,6.965-1.097,10.064-3.128c0.641,0.08,1.292,0.12,1.951,0.12c3.714,0,7.485-1.281,10.73-3.589 c1.359,0.394,2.791,0.597,4.255,0.597c3.939,0,7.992-1.464,11.378-4.067c4.355-0.363,8.687-2.436,12.064-5.813 c3.105-3.105,5.132-7.039,5.709-11.079c0.689-4.82-0.748-9.416-3.942-12.609c-0.298-0.298-0.608-0.581-0.93-0.849 c-0.228-3.277-1.471-6.301-3.594-8.651c1.265-0.239,2.575-0.358,3.927-0.358c2.14,0,4.426,0.3,6.793,0.892 c0.534,0.13,1.056,0.194,1.577,0.194c2.989,0,5.582-2.025,6.306-4.924C95.227,35.394,94.968,33.647,94.075,32.158z"/><ellipse cx="53" cy="60.5" fill="#707cc0" rx="10" ry="7.5" transform="rotate(-45.001 53 60.5)"/><ellipse cx="44" cy="49.5" fill="#707cc0" rx="10" ry="7.5" transform="rotate(-45.001 44 49.5)"/><path fill="#707cc0" d="M37.071,65.429C40,68.358,39.905,74.095,36,78s-10.142,4.5-13.071,1.571S20.095,69.905,24,66 S34.142,62.5,37.071,65.429z"/><path fill="#40396e" d="M24,66c-0.765,0.765-0.709,2.79-1.231,3.649c0.014,0.014,0.025,0.03,0.038,0.043 c1.705,1.705,4.085,2.643,6.702,2.643c0.217,0,0.435-0.006,0.653-0.019c0.075,2.458,0.973,4.704,2.644,6.376 c0.218,0.218,0.448,0.423,0.687,0.615C34.122,78.871,35.428,78.572,36,78c3.905-3.905,4-9.642,1.071-12.571 C34.142,62.5,27.905,62.095,24,66z" opacity=".35"/><path fill="#40396e" d="M70.501,36c-0.534,0-1.051-0.285-1.321-0.789c-6.23-11.569-17.573-6.565-18.055-6.348 c-0.747,0.343-1.642,0.014-1.986-0.738c-0.346-0.752-0.019-1.641,0.732-1.987c0.144-0.065,14.37-6.428,21.949,7.651 c0.394,0.729,0.12,1.639-0.609,2.031C70.985,35.942,70.741,36,70.501,36z"/><path fill="#40396e" d="M54.499,51c-0.197,0-0.397-0.039-0.59-0.121c-0.762-0.326-1.114-1.208-0.788-1.97 c0.095-0.222,9.797-22.105,34.743-15.864c0.804,0.201,1.292,1.016,1.091,1.819c-0.2,0.803-1.009,1.291-1.819,1.091 c-22.492-5.624-30.91,13.326-31.257,14.136C55.635,50.659,55.081,51,54.499,51z"/><path fill="#707cc0" d="M39.071,53.429c2.929,2.929,2.137,8.469-1.768,12.374s-9.445,4.697-12.374,1.768S22.095,57.905,26,54 S36.142,50.5,39.071,53.429z"/><path fill="#9aa2e6" d="M51,63c2.929,2.929,1.905,9.095-2,13s-11.142,3.5-14.071,0.571s-2.137-8.469,1.768-12.374 S48.071,60.071,51,63z"/><path fill="#40396e" d="M41.466,61.182c0.053-0.019,0.107-0.036,0.161-0.054C41.573,61.146,41.52,61.164,41.466,61.182z" opacity=".35"/><path fill="#40396e" d="M40.042,61.778c0.324-0.161,0.663-0.306,1.008-0.44C40.712,61.467,40.376,61.612,40.042,61.778z" opacity=".35"/><path fill="#40396e" d="M41.05,61.338c0.139-0.053,0.277-0.109,0.417-0.156C41.326,61.232,41.188,61.284,41.05,61.338z" opacity=".35"/><path fill="#40396e" d="M40.042,61.778c-0.001,0.001-0.003,0.001-0.004,0.002c1.3-3.099,1.044-6.34-0.967-8.351 C36.142,50.5,29.905,48.095,26,52c-0.23,0.23,0.249,3.662,0.041,3.902c1.686,1.566,3.965,2.433,6.467,2.433 c0.256,0,0.513-0.009,0.771-0.026c-0.409,2.845,0.225,5.594,1.918,7.689c0.435-0.626,0.93-1.232,1.499-1.802 C37.724,63.169,38.866,62.364,40.042,61.778z" opacity=".35"/><path fill="#40396e" d="M50,62c-1.828-1.828-5.338-1.891-8.373-0.871c2.81-0.898,5.629-0.515,7.444,1.3 c2.929,2.929,2.137,8.469-1.768,12.374c-0.05,0.05-0.104,0.094-0.155,0.143c0,0,0,0,0,0.001C47.2,74.898,48.95,75.05,49,75 C52.905,71.095,52.929,64.929,50,62z" opacity=".35"/><ellipse cx="45" cy="57.5" fill="#707cc0" rx="10" ry="7.5" transform="rotate(-45.001 45 57.5)"/><path fill="#9aa2e6" d="M42.071,39.429c2.929,2.929,2.137,8.469-1.768,12.374s-9.445,4.697-12.374,1.768S23.095,42.905,27,39 S39.142,36.5,42.071,39.429z"/><path fill="#707cc0" d="M64.071,59.429C67,62.358,66.905,68.095,63,72s-10.142,4.5-13.071,1.571s-2.137-8.469,1.768-12.374 C55.602,57.291,61.142,56.5,64.071,59.429z"/><path fill="#707cc0" d="M42.071,29.429c2.929,2.929,2.137,8.469-1.768,12.374s-9.445,4.697-12.374,1.768S23.095,32.905,27,29 S39.142,26.5,42.071,29.429z"/><path fill="#707cc0" d="M75,53c2.929,2.929,1.209,10.898-2.697,14.803s-9.445,4.697-12.374,1.768s-2.137-8.469,1.768-12.374 C65.602,53.291,72.071,50.071,75,53z"/><ellipse cx="46" cy="38.5" fill="#707cc0" rx="10" ry="7.5" transform="rotate(-45.001 46 38.5)"/><path fill="#9aa2e6" d="M69.071,45.429c2.929,2.929,2.137,8.469-1.768,12.374s-9.445,4.697-12.374,1.768s-2.137-8.469,1.768-12.374 c1.88-1.88,4.139-6.828,6.303-7.197C65.331,39.602,67.552,43.91,69.071,45.429z"/><path fill="#707cc0" d="M63,37c2.335,3.421,1.209,8.898-2.697,12.803s-9.445,4.697-12.374,1.768s-2.137-8.469,1.768-12.374 S57.929,29.571,63,37z"/><path fill="#40396e" d="M56,32c0.011-1.792-1.725,0.633-2.929-0.571c-2.328-2.328-6.306-2.298-9.801-0.229 c-0.288-0.655-0.683-1.255-1.199-1.771C39.142,26.5,31.905,26.095,28,30c-0.729,0.729,0.347,2.713-0.161,3.529 c1.865,0.693,3.934,1.241,6.145,1.475c-0.295,0.973-0.52,2.094-0.641,3.387c-0.124,1.33,0.645,2.582,1.888,3.071 c0.317,0.125,3.205,1.218,7.061,1.218c1.039,0,2.056-0.082,3.043-0.243c-0.002,0.061-0.004,0.123-0.005,0.185 c-0.014,0.849,0.333,1.665,0.954,2.244c0.558,0.52,1.289,0.805,2.045,0.805c0.087,0,0.174-0.004,0.261-0.011 c0.275-0.024,6.788-0.648,10.889-5.945c0.707-0.913,1.294-1.9,1.767-2.957C59.51,35.575,58.349,31.301,56,32z" opacity=".35"/><g><path fill="#739f4d" d="M51.187,14.648c-6.535-5.254-14.858-1.978-14.858-1.978c0.589,6.297,4,7,4,7c-10.714-2.491-20,6-20,6 s9.286,8.491,20,6c0,0-3.411,0.703-4,7c0,0,8.323,3.276,14.858-1.978c-1.167,1.185-2.814,3.32-2.858,5.978c0,0,13.649-1.189,11-17 c2.649-15.811-11-17-11-17C48.373,11.328,50.02,13.463,51.187,14.648z"/></g><g><path fill="#96c362" d="M48.329,8.671C48.373,11.328,45.833,9.815,47,11c-6.535-5.254-10.671,1.671-10.671,1.671 C36.919,18.968,35,18,35,18c-10.714-2.491-14.671,7.671-14.671,7.671s0.092,0.084,0.263,0.228 c3.108-0.112,12.221-0.237,38.78,0.081c-0.016-0.105-0.026-0.203-0.043-0.31C61.978,9.86,48.329,8.671,48.329,8.671z"/></g><g><path fill="#40396e" d="M27.508,84.336c-2.654,0-4.971-0.914-6.7-2.644c-3.595-3.594-3.51-9.737,0.157-14.73 c-1.718-3.926-0.655-9.024,2.809-13.023c0.138-0.159,0.279-0.317,0.423-0.471c-1.418-2.796-1.374-6.364,0.145-9.735 c-1.778-3.227-1.519-7.562,0.718-11.403c-4.036-1.983-6.63-4.332-6.752-4.443c-0.619-0.564-0.976-1.371-0.978-2.211 c0-0.846,0.356-1.653,0.978-2.22c0.294-0.269,6.852-6.189,15.684-7.119c-0.316-1.03-0.533-2.162-0.647-3.386 c-0.125-1.322,0.652-2.586,1.89-3.071c0.118-0.047,3.104-1.218,7.06-1.218c1.042,0,2.06,0.079,3.043,0.237 c-0.002-0.06-0.004-0.12-0.005-0.18c-0.016-0.844,0.332-1.662,0.953-2.242c0.625-0.581,1.46-0.869,2.31-0.795 c0.693,0.062,6.872,0.762,10.886,5.945c2.781,3.59,3.753,8.313,2.889,14.044c0.448,2.982,0.394,5.721-0.161,8.164 c0.231,0.127,0.438,0.252,0.635,0.384c-0.001-0.002-0.002-0.002-0.002-0.002c0.003,0,0.062,0.038,0.111,0.072 c0.021,0.015,0.109,0.078,0.13,0.095c0.397,0.273,0.771,0.581,1.112,0.924c1.463,1.463,2.356,3.42,2.581,5.605 c1.708,0.379,3.217,1.193,4.419,2.394c2.052,2.052,2.96,5.074,2.535,8.272c0.921,0.432,1.747,1.01,2.465,1.729 c2.1,2.1,2.998,5.071,2.528,8.366c-0.426,2.976-1.951,5.905-4.296,8.251c-2.938,2.938-6.743,4.562-10.41,4.394 c-0.219,0.201-0.458,0.41-0.729,0.636l-0.15,0.119c-2.59,2.1-5.659,3.263-8.627,3.263c-1.9,0-3.642-0.475-5.111-1.385 c-0.016,0.016-0.03,0.03-0.034,0.034l-0.126,0.117c-2.773,2.686-6.312,4.228-9.71,4.228c-1.093,0-2.139-0.159-3.121-0.475 c-0.017,0.015-0.033,0.028-0.05,0.042c-0.014,0.011-0.085,0.067-0.099,0.078c-0.308,0.256-0.672,0.532-1.052,0.797 C32.824,83.426,30.091,84.336,27.508,84.336z M42.292,11.661c-3.365,0-5.932,0.998-5.958,1.008 c0.156,1.721,0.548,3.184,1.157,4.35c0.242,0.464,0.226,1.02-0.043,1.468c-0.27,0.448-0.753,0.724-1.276,0.728 c-8.762,0.06-15.556,6.194-15.841,6.455c0.121,0.114,3.044,2.76,7.537,4.646c0.429,0.18,0.749,0.547,0.869,0.995 s0.025,0.927-0.256,1.296c-0.254,0.335-0.461,0.631-0.643,0.923c-2.01,3.227-2.229,6.861-0.558,9.26 c0.32,0.459,0.357,1.059,0.098,1.554c-1.597,3.048-1.624,6.303-0.069,8.496c0.438,0.616,0.348,1.462-0.21,1.973 c-0.139,0.127-0.273,0.257-0.406,0.39c-0.216,0.216-0.438,0.453-0.649,0.699c-2.907,3.356-3.716,7.566-2.015,10.481 c0.317,0.544,0.261,1.228-0.141,1.713l-0.322,0.4c-2.954,3.825-3.227,8.488-0.638,11.077c1.154,1.154,2.738,1.765,4.579,1.765 c1.978,0,4.104-0.72,5.986-2.028c0.31-0.214,0.605-0.439,0.881-0.668c0.011-0.009,0.08-0.063,0.091-0.071 c0.193-0.163,0.401-0.348,0.594-0.528c0.44-0.413,1.082-0.52,1.633-0.28c0.857,0.379,1.811,0.57,2.834,0.57 c2.625,0,5.403-1.233,7.622-3.384c0.021-0.02,0.07-0.063,0.091-0.082l0.044-0.042c0.295-0.295,0.541-0.562,0.776-0.841 c0.26-0.309,0.634-0.499,1.036-0.529c0.399-0.033,0.8,0.104,1.103,0.371c1.122,0.989,2.612,1.513,4.31,1.513 c2.282,0,4.681-0.926,6.755-2.606l0.136-0.107c0.334-0.278,0.631-0.544,0.903-0.817l0.079-0.08 c0.324-0.335,0.783-0.502,1.251-0.446c2.917,0.354,6.179-0.981,8.672-3.475c1.889-1.89,3.112-4.217,3.446-6.554 c0.334-2.338-0.263-4.405-1.679-5.821c-0.681-0.68-1.515-1.172-2.479-1.462c-0.765-0.229-1.215-1.018-1.025-1.792 c0.654-2.682,0.109-5.141-1.496-6.746c-1.011-1.01-2.314-1.591-3.875-1.729c-0.785-0.069-1.383-0.734-1.368-1.522 c0.036-1.893-0.588-3.579-1.757-4.749c-0.214-0.213-0.456-0.412-0.765-0.627c-0.029-0.017-0.104-0.07-0.132-0.089 c-0.188-0.125-0.389-0.241-0.591-0.344c-0.246-0.121-0.457-0.211-0.671-0.289c-0.753-0.275-1.157-1.095-0.916-1.859 c0.745-2.369,0.87-5.167,0.371-8.314c-0.024-0.156-0.024-0.314,0-0.471c0.791-4.985,0.03-9.014-2.261-11.972 c-3.292-4.252-8.561-4.774-8.783-4.794c0.015,0.589,0.104,1.185,0.269,1.772c0.149,0.527-0.002,1.094-0.393,1.478 c-0.393,0.384-0.961,0.521-1.485,0.365C45.346,11.871,43.857,11.661,42.292,11.661z"/></g><g><path fill="#40396e" d="M43.135,40.926c-0.021-0.042-0.04-0.085-0.062-0.126C43.096,40.841,43.114,40.884,43.135,40.926z" opacity=".35"/><path fill="#40396e" d="M42.716,40.218c-0.034-0.049-0.063-0.101-0.098-0.149C42.653,40.118,42.682,40.169,42.716,40.218z" opacity=".35"/><path fill="#40396e" d="M54.929,59.571c-0.185-0.185-0.357-0.385-0.518-0.598c-0.072-0.096-0.131-0.199-0.197-0.299 c-0.946-1.421-1.403-3.343-1.316-5.361c-1.917,0.088-3.694-0.465-4.97-1.741c-1.204-1.204-1.769-2.852-1.758-4.643 c-1.005,0.299-2.005,0.424-2.959,0.388c-0.359,0.974-0.865,1.939-1.525,2.856c0.59,0.104,1.197,0.161,1.82,0.161 c0.071,0,0.142-0.001,0.214-0.002c0.444,1.279,1.149,2.423,2.087,3.362c1.189,1.19,2.712,2.005,4.416,2.388 c0.22,2.178,1.104,4.132,2.584,5.612c0.713,0.713,1.546,1.29,2.465,1.72c-0.435,3.214,0.484,6.228,2.535,8.28 c0.724,0.724,1.575,1.301,2.509,1.735C61.008,72.965,63.375,72.625,64,72c0.218-0.218,0.415-0.443,0.603-0.671 c-1.804,0.018-3.463-0.547-4.674-1.758c-1.992-1.992-2.252-5.189-0.992-8.26C57.394,61.197,55.989,60.631,54.929,59.571z" opacity=".35"/><path fill="#40396e" d="M43.453,41.68c-0.008-0.022-0.015-0.043-0.022-0.065C43.438,41.637,43.445,41.659,43.453,41.68z" opacity=".35"/></g></g></svg>