<svg xmlns="http://www.w3.org/2000/svg"  viewBox="0 0 100 100" width="100px" height="100px"><g id="Слой_2"><path d="M94.549,60.237c-4.697-4.523-9.413-7.706-14.096-9.523C80.811,49.523,81,48.273,81,47c0-2.301-0.623-4.535-1.757-6.486 C80.377,38.558,81,36.314,81,34c0-4.597-2.384-8.674-6.04-10.989C74.987,22.675,75,22.338,75,22 c0-6.739-5.154-12.297-11.727-12.938C55,8,54.775,3,50,3s-9.324,2.086-13.273,6.062C30.154,9.703,25,15.261,25,22 c0,0.554,0.036,1.106,0.107,1.652c-2.431,1.846-4.151,4.512-4.81,7.557c-0.239-0.123-0.479-0.244-0.719-0.364 C18.472,30.292,17.236,30,16.002,30c-2.649,0-5.121,1.306-6.612,3.495c-2.244,3.293-1.703,7.786,1.259,10.452 c6.285,5.657,7.53,14.151,8.847,23.143c1.06,7.232,2.155,14.71,6.176,20.795C30.545,95.26,38.73,99,49.999,99 C70.6,99,75.13,84.651,77.564,76.943c0.381-1.208,1.352-4.283,2-5.228c0.046-0.002,0.101-0.004,0.165-0.004 c0.785,0,2.64,0.22,6.242,1.694C86.938,73.8,87.956,74,88.999,74c2.716,0,5.222-1.358,6.704-3.633 C97.795,67.156,97.31,62.896,94.549,60.237z" opacity=".35"/><path fill="#f2f2f2" d="M92.549,58.237c-4.697-4.523-9.413-7.706-14.096-9.523C78.811,47.523,79,46.273,79,45 c0-2.301-0.623-4.535-1.757-6.486C78.377,36.558,79,34.314,79,32c0-4.597-2.384-8.674-6.04-10.989C72.987,20.675,73,20.338,73,20 c0-6.739-5.154-12.297-11.727-12.938C57.324,3.086,52.775,1,48,1s-9.324,2.086-13.273,6.062C28.154,7.703,23,13.261,23,20 c0,0.554,0.036,1.106,0.107,1.652c-2.431,1.846-4.151,4.512-4.81,7.557c-0.239-0.123-0.479-0.244-0.719-0.364 C16.472,28.292,15.236,28,14.002,28c-2.649,0-5.121,1.306-6.612,3.495c-2.244,3.293-1.703,7.786,1.259,10.452 c6.285,5.657,7.53,14.151,8.847,23.143c1.06,7.232,2.155,14.71,6.176,20.795C28.545,93.26,36.73,97,47.999,97 C68.6,97,73.13,82.651,75.564,74.943c0.381-1.208,1.352-4.283,2-5.228c0.046-0.002,0.101-0.004,0.165-0.004 c0.785,0,2.64,0.22,6.242,1.694C84.938,71.8,85.956,72,86.999,72c2.716,0,5.222-1.358,6.704-3.633 C95.795,65.156,95.31,60.896,92.549,58.237z"/><path fill="#f9b84f" d="M47.701,7c-6.507,0-17.904,16.338-20.703,34.629c-0.874,0.227-1.498,0.798-1.498,1.473 c0,0.578,0.462,1.079,1.143,1.354c-0.178,1.748-0.281,3.506-0.281,5.264C26.362,70.982,35.916,84,47.701,84 s21.34-13.018,21.34-34.281S59.487,7,47.701,7z"/><circle cx="49" cy="19" r="5" fill="#ffe385"/><circle cx="61" cy="20" r="5" fill="#ffe385"/><circle cx="37" cy="20" r="5" fill="#ffe385"/><path fill="#ffe385" d="M51,37h-3c-2.761,0-5-2.239-5-5v0c0-2.761,2.239-5,5-5h3c2.761,0,5,2.239,5,5v0C56,34.761,53.761,37,51,37z"/><path fill="#ffe385" d="M67,37h-3c-2.761,0-5-2.239-5-5v0c0-2.761,2.239-5,5-5h3c2.761,0,5,2.239,5,5v0C72,34.761,69.761,37,67,37z"/><path fill="#ffe385" d="M35,37h-3c-2.761,0-5-2.239-5-5v0c0-2.761,2.239-5,5-5h3c2.761,0,5,2.239,5,5v0C40,34.761,37.761,37,35,37z"/><path fill="#ffe385" d="M51,50h-3c-2.761,0-5-2.239-5-5v0c0-2.761,2.239-5,5-5h3c2.761,0,5,2.239,5,5v0C56,47.761,53.761,50,51,50z"/><path fill="#ffe385" d="M67,50h-3c-2.761,0-5-2.239-5-5v0c0-2.761,2.239-5,5-5h3c2.761,0,5,2.239,5,5v0C72,47.761,69.761,50,67,50z"/><path fill="#ffe385" d="M35,50h-3c-2.761,0-5-2.239-5-5v0c0-2.761,2.239-5,5-5h3c2.761,0,5,2.239,5,5v0C40,47.761,37.761,50,35,50z"/><path fill="#ffe385" d="M51,64h-3c-2.761,0-5-2.239-5-5v0c0-2.761,2.239-5,5-5h3c2.761,0,5,2.239,5,5v0C56,61.761,53.761,64,51,64z"/><path fill="#ffe385" d="M51,77h-3c-2.761,0-5-2.239-5-5v0c0-2.761,2.239-5,5-5h3c2.761,0,5,2.239,5,5v0C56,74.761,53.761,77,51,77z"/><path fill="#ffe385" d="M67,64h-3c-2.761,0-5-2.239-5-5v0c0-2.761,2.239-5,5-5h3c2.761,0,5,2.239,5,5v0C72,61.761,69.761,64,67,64z"/><path fill="#ffe385" d="M35,64h-3c-2.761,0-5-2.239-5-5v0c0-2.761,2.239-5,5-5h3c2.761,0,5,2.239,5,5v0C40,61.761,37.761,64,35,64z"/><path fill="#739f4d" d="M88,64C60.999,38,49,76,49,76s-6-26-34-40c20,18,1.301,53,33.999,53C79,89,59.501,52.342,88,64z"/><path fill="#96c362" d="M49,76c0,0-6-26-34-40c20,18,1.301,53,33.999,53C49,89,49,76,49,76z"/><path fill="#40396e" d="M48.999,92c-21.508,0-23.566-14.049-25.557-27.635c-1.388-9.476-2.823-19.272-10.449-26.135 c-1.111-1-1.313-2.686-0.472-3.92c0.822-1.205,2.518-1.646,3.82-0.994c3.496,1.748,6.854,3.784,9.999,6.062 c0.315-0.317,0.656-0.606,1.02-0.866C25.279,37.032,24,34.618,24,32c0-3.796,2.657-6.983,6.21-7.798 C29.428,22.948,29,21.494,29,20c0-4.411,3.589-8,8-8c0.312,0,0.624,0.019,0.936,0.057C41.262,8.09,45.072,6,49,6 s7.738,2.09,11.064,6.057C60.376,12.019,60.688,12,61,12c4.411,0,8,3.589,8,8c0,1.434-0.394,2.83-1.116,4.049 C71.881,24.489,75,27.888,75,32c0,2.641-1.298,5.044-3.357,6.515C73.7,39.985,75,42.384,75,45c0,2.892-1.538,5.509-3.996,6.926 c6.099,0.261,12.513,3.593,19.076,9.913l0,0c1.036,0.997,1.218,2.595,0.434,3.798c-0.768,1.179-2.335,1.674-3.646,1.143 c-3.354-1.373-6.092-2.068-8.14-2.068c-3.818,0-4.934,2.394-6.933,8.727C69.323,81.271,65.937,92,48.999,92z M15,36 c8.431,7.587,9.945,17.928,11.41,27.928C28.382,77.382,30.084,89,48.999,89c14.738,0,17.5-8.747,19.936-16.465 c1.834-5.809,3.417-10.824,9.794-10.824c2.439,0,5.559,0.771,9.271,2.289c-6.239-6.009-12.195-9.067-17.705-9.091 c-0.267-0.001-0.528-0.073-0.758-0.21c-0.215-0.127-0.443-0.238-0.679-0.332c-0.598-0.236-0.979-0.827-0.946-1.469 c0.031-0.638,0.056-1.28,0.068-1.922c0.013-0.596,0.376-1.127,0.927-1.354C70.757,48.856,72,46.999,72,45 c0-2.223-1.51-4.194-3.671-4.795c-0.574-0.159-0.999-0.644-1.084-1.233l-0.066-0.459c-0.116-0.758,0.357-1.481,1.099-1.678 C70.469,36.255,72,34.267,72,32c0-2.757-2.243-5-5-5h-1.441c-0.637,0-1.205-0.402-1.415-1.004l-0.233-0.654 c-0.209-0.576-0.047-1.222,0.411-1.63C65.388,22.758,66,21.405,66,20c0-2.757-2.243-5-5-5c-0.394,0-0.79,0.049-1.178,0.146 c-0.576,0.146-1.181-0.063-1.546-0.531C55.406,10.941,52.199,9,49,9s-6.406,1.941-9.276,5.615 c-0.365,0.466-0.969,0.677-1.546,0.531C37.79,15.049,37.394,15,37,15c-2.757,0-5,2.243-5,5c0,1.405,0.612,2.758,1.679,3.712 c0.458,0.408,0.62,1.054,0.411,1.63l-0.233,0.654C33.646,26.598,33.078,27,32.441,27H32c-2.757,0-5,2.243-5,5 c0,1.982,1.175,3.777,2.992,4.573c0.623,0.272,0.984,0.93,0.881,1.602c-0.062,0.399-0.119,0.794-0.173,1.184 c-0.069,0.5-0.385,0.931-0.84,1.148c-0.817,0.391-1.516,0.997-2.019,1.754c-0.229,0.345-0.59,0.579-0.997,0.648 c-0.409,0.072-0.826-0.032-1.156-0.282C22.36,40.111,18.765,37.882,15,36z M88,64C88,64,87.999,64,88,64L88,64L88,64z"/></g></svg>