<svg xmlns="http://www.w3.org/2000/svg"  viewBox="0 0 256 256" width="128px" height="128px"><polygon fill="#A4D4A0" points="180.292,38 156.292,182 164.772,182 188.772,38"/><polygon fill="#419B46" points="195.251,38 171.251,182 180.292,182 204.292,38"/><polygon fill="#65BC49" points="188.772,38 164.772,182 171.251,182 195.251,38"/><polygon fill="#419B46" points="116,38 140,182 131.52,182 107.52,38"/><polygon fill="#A4D4A0" points="101.04,38 125.04,182 116,182 92,38"/><polygon fill="#65BC49" points="107.52,38 131.52,182 125.04,182 101.04,38"/><polygon fill="#419B46" points="75.708,38 99.708,182 91.228,182 67.228,38"/><polygon fill="#A4D4A0" points="60.748,38 84.748,182 75.708,182 51.708,38"/><polygon fill="#65BC49" points="67.228,38 91.228,182 84.748,182 60.748,38"/><path fill="#1C2D6B" d="M140,185h-24c-1.466,0-2.718-1.06-2.959-2.507l-24-144c-0.145-0.87,0.1-1.759,0.67-2.432S91.118,35,92,35 h24c1.466,0,2.718,1.06,2.959,2.507l24,144c0.145,0.87-0.1,1.759-0.67,2.432S140.882,185,140,185z M118.542,179h17.917l-23-138 H95.542L118.542,179z"/><path fill="#1C2D6B" d="M99.708,185h-24c-1.466,0-2.718-1.06-2.959-2.507l-24-144c-0.145-0.87,0.1-1.759,0.67-2.432 S50.826,35,51.708,35h24c1.466,0,2.718,1.06,2.959,2.507l24,144c0.145,0.87-0.1,1.759-0.67,2.432S100.59,185,99.708,185z M78.25,179h17.917l-23-138H55.25L78.25,179z"/><path fill="#1C2D6B" d="M180.292,185h-24c-0.882,0-1.719-0.388-2.289-1.061s-0.815-1.563-0.67-2.432l24-144 c0.241-1.447,1.493-2.507,2.959-2.507h24c0.882,0,1.719,0.388,2.289,1.061s0.815,1.563,0.67,2.432l-24,144 C183.01,183.94,181.758,185,180.292,185z M159.833,179h17.917l23-138h-17.917L159.833,179z"/><g><polygon fill="#A4D4A0" points="140,38 116,182 124.48,182 148.48,38"/><polygon fill="#419B46" points="154.96,38 130.96,182 140,182 164,38"/><polygon fill="#65BC49" points="148.48,38 124.48,182 130.96,182 154.96,38"/></g><g><path fill="#1C2D6B" d="M140,185h-24c-0.882,0-1.719-0.388-2.289-1.061s-0.815-1.563-0.67-2.432l24-144 C137.282,36.06,138.534,35,140,35h24c0.882,0,1.719,0.388,2.289,1.061s0.815,1.563,0.67,2.432l-24,144 C142.719,183.94,141.467,185,140,185z M119.542,179h17.917l23-138h-17.917L119.542,179z"/></g><g><path fill="#D3BA2A" d="M115.187,143.257l24.656-8.218c1.065-0.355,2.098-0.77,3.117-1.211c-0.339,0.441-0.684,0.856-1.039,1.211 l-8.219,8.218c-5.221,5.22-8.742,19.878-8.742,36.387l0,0c0,21.183,5.724,38.356,12.785,38.356h-10.43 c-21.183,0-38.356-17.172-38.356-38.356l0,0C88.96,163.135,99.524,148.477,115.187,143.257z"/><path fill="#EDE49D" d="M157.381,188.947L157.381,188.947c1.938-23.252,3.081-47.017,3.442-70.933 c2.116-3.617,3.655-7.606,4.502-11.841L166.96,98h30v3.731c0,29.401-3.606,58.692-10.737,87.216v0 c-4.269,17.075-19.61,29.053-37.21,29.053h-4.035C150.844,218,155.958,206.022,157.381,188.947z"/><path fill="#EEE045" d="M124.96,179.644L124.96,179.644c0-16.51,3.522-31.167,8.742-36.387l8.219-8.218 c0.355-0.355,0.699-0.77,1.039-1.211c7.553-3.272,13.785-8.842,17.863-15.814c-0.361,23.916-1.504,47.681-3.442,70.933v0 C155.958,206.022,150.844,218,144.977,218h-7.232C130.684,218,124.96,200.828,124.96,179.644z"/></g><g><path fill="#1C2D6B" d="M149.012,221h-21.697c-22.804,0-41.355-18.552-41.355-41.355c0-17.829,11.364-33.596,28.278-39.234 l24.656-8.218c12.007-4.002,21.007-14.197,23.489-26.607l1.635-8.173C164.299,96.009,165.53,95,166.96,95h30c1.657,0,3,1.343,3,3 v3.731c0,29.619-3.643,59.208-10.826,87.943C184.522,208.119,168.024,221,149.012,221z M169.419,101l-1.152,5.762 c-2.903,14.516-13.431,26.442-27.475,31.123l-24.656,8.218c-14.46,4.82-24.176,18.299-24.176,33.542 c0,19.495,15.86,35.355,35.355,35.355h21.697c16.253,0,30.358-11.013,34.3-26.781c7.065-28.26,10.647-57.359,10.647-86.488V101 H169.419z"/></g><g><path fill="#D3BA2A" d="M140.813,143.257l-24.656-8.218c-1.065-0.355-2.098-0.77-3.117-1.211c0.339,0.441,0.684,0.856,1.039,1.211 l8.219,8.218c5.221,5.22,8.742,19.878,8.742,36.387l0,0c0,21.183-5.724,38.356-12.785,38.356h10.43 c21.183,0,38.356-17.172,38.356-38.356l0,0C167.04,163.135,156.476,148.477,140.813,143.257z"/><path fill="#EDE49D" d="M98.619,188.947L98.619,188.947c-1.938-23.252-3.081-47.017-3.442-70.933 c-2.116-3.617-3.655-7.606-4.502-11.841L89.04,98h-30v3.731c0,29.401,3.606,58.692,10.737,87.216v0 C74.046,206.022,89.387,218,106.988,218h4.035C105.156,218,100.042,206.022,98.619,188.947z"/><path fill="#EEE045" d="M131.04,179.644L131.04,179.644c0-16.51-3.522-31.167-8.742-36.387l-8.219-8.218 c-0.355-0.355-0.699-0.77-1.039-1.211c-7.553-3.272-13.785-8.842-17.863-15.814c0.361,23.916,1.504,47.681,3.442,70.933v0 c1.423,17.075,6.537,29.053,12.403,29.053h7.232C125.316,218,131.04,200.828,131.04,179.644z"/></g><g><path fill="#1C2D6B" d="M128.685,221h-21.697c-19.012,0-35.51-12.881-40.121-31.326c-7.184-28.735-10.826-58.324-10.826-87.943V98 c0-1.657,1.343-3,3-3h30c1.43,0,2.661,1.009,2.942,2.412l1.635,8.173c2.481,12.41,11.482,22.605,23.489,26.607l24.656,8.218 c16.914,5.638,28.278,21.405,28.278,39.234C170.04,202.448,151.489,221,128.685,221z M62.04,101v0.731 c0,29.129,3.582,58.228,10.647,86.488C76.63,203.987,90.734,215,106.988,215h21.697c19.495,0,35.355-15.86,35.355-35.355 c0-15.242-9.715-28.722-24.176-33.542l-24.656-8.218c-14.044-4.682-24.572-16.607-27.476-31.123L86.581,101H62.04z"/></g><g><path fill="#1C2D6B" d="M118.255,221h-7.232c-6.16,0-13.439-8.355-15.393-31.804c-0.138-1.651,1.089-3.101,2.741-3.239 c1.643-0.135,3.101,1.089,3.239,2.741c1.549,18.587,6.896,26.302,9.414,26.302h7.232c3.321,0,9.785-12.479,9.785-35.355 c0-1.657,1.343-3,3-3s3,1.343,3,3C134.04,200.196,128.618,221,118.255,221z"/></g></svg>