<svg xmlns="http://www.w3.org/2000/svg"  viewBox="0 0 100 100" width="100px" height="100px"><path d="M37.8,96.7c-8.1,0-15.7-3.1-21.4-8.7c-5.7-5.6-8.9-13.2-8.9-21.3c0-8.3,3.3-16.1,9.3-22l7.3-7.2	c6-5.9,14.6-9.2,23.7-9.2c0.8,0,1.5,0,2.2,0.1c0.2-3.3,0.9-6.5,1.9-9.5c1-2.8,2.5-6.3,5.7-9.9c1.2-1.4,3-2.2,4.9-2.2	c0.2,0,0.3,0,0.5,0c1.7,0.1,3.3,0.9,4.5,2.2c0.3-0.3,0.6-0.6,1-0.8c1.2-0.9,2.6-1.4,4.1-1.4c0.6,0,1.1,0.1,1.7,0.2	c2,0.5,3.6,2,4.4,3.9c0.2,0.5,0.4,1.1,0.6,1.6c1.8-0.7,3.9-1.4,6.3-1.7c0.3-0.1,0.7-0.1,1-0.1c1.7,0,3.3,0.7,4.6,1.9	c1.5,1.4,2.2,3.5,1.9,5.5c-0.3,2.5-1,4.6-1.7,6.5c0.5,0.2,1,0.3,1.5,0.5c1.9,0.7,3.4,2.3,4,4.3c0.6,2,0.2,4.1-1.1,5.8	c-0.6,0.8-1.3,1.6-1.9,2.2c0.3,0.2,0.6,0.5,0.9,0.7c1.6,1.3,2.5,3.3,2.4,5.4c-0.1,2.1-1.2,4-3,5.1c-4.1,2.6-8,3.7-10.9,4.3	c-2.2,0.4-4.4,0.7-6.6,0.8c0.3,1.4,0.4,2.7,0.4,3.8c-0.1,8.8-3.5,17.2-9.5,23c-0.2,0.2-7,6.9-7.2,7.1C54,93.5,46.1,96.7,37.8,96.7z" opacity=".35"/><path fill="#f2f2f2" d="M35.8,94.7c-8.1,0-15.7-3.1-21.4-8.7c-5.7-5.6-8.9-13.2-8.9-21.3c0-8.3,3.3-16.1,9.3-22l7.3-7.2	c6-5.9,14.6-9.2,23.7-9.2c0.8,0,1.5,0,2.2,0.1c0.2-3.3,0.9-6.5,1.9-9.5c1-2.8,2.5-6.3,5.7-9.9c1.2-1.4,3-2.2,4.9-2.2	c0.2,0,0.3,0,0.5,0c1.7,0.1,3.3,0.9,4.5,2.2c0.3-0.3,0.6-0.6,1-0.8c1.2-0.9,2.6-1.4,4.1-1.4c0.6,0,1.1,0.1,1.7,0.2	c2,0.5,3.6,2,4.4,3.9c0.2,0.5,0.4,1.1,0.6,1.6c1.8-0.7,3.9-1.4,6.3-1.7c0.3-0.1,0.7-0.1,1-0.1c1.7,0,3.3,0.7,4.6,1.9	c1.5,1.4,2.2,3.5,1.9,5.5c-0.3,2.5-1,4.6-1.7,6.5c0.5,0.2,1,0.3,1.5,0.5c1.9,0.7,3.4,2.3,4,4.3c0.6,2,0.2,4.1-1.1,5.8	c-0.6,0.8-1.3,1.6-1.9,2.2c0.3,0.2,0.6,0.5,0.9,0.7c1.6,1.3,2.5,3.3,2.4,5.4c-0.1,2.1-1.2,4-3,5.1c-4.1,2.6-8,3.7-10.9,4.3	c-2.2,0.4-4.4,0.7-6.6,0.8c0.3,1.4,0.4,2.7,0.4,3.8c-0.1,8.8-3.5,17.2-9.5,23c-0.2,0.2-7,6.9-7.2,7.1C52,91.5,44.1,94.7,35.8,94.7z"/><path fill="#96c362" d="M59.3,40.8c0.5-3.7,1.8-6.6,3.3-9.3c1.5-2.7,3.4-5.1,5.5-7.2c2.1-2.1,4.4-4,7.1-5.6c2.7-1.6,5.6-2.9,9.3-3.5 c-0.5,3.7-1.8,6.6-3.3,9.3c-1.5,2.7-3.4,5.1-5.5,7.2c-2.1,2.1-4.4,4-7.1,5.6C65.8,38.9,62.9,40.2,59.3,40.8z"/><path fill="#739f4d" d="M87.9,30.6c-2.1,2.8-4.5,4.6-7,6.1c-2.5,1.5-5.1,2.6-7.8,3.4c-2.7,0.8-5.5,1.2-8.4,1.3 c-2.9,0-5.9-0.2-9.2-1.4c2.1-2.8,4.5-4.6,7-6.1c2.5-1.5,5.1-2.6,7.8-3.4c2.7-0.8,5.5-1.2,8.4-1.3C81.6,29.1,84.6,29.4,87.9,30.6z"/><path fill="#739f4d" d="M60.2,45.2c-1.3-3.3-1.5-6.3-1.5-9.3c0-2.9,0.5-5.8,1.2-8.5c0.7-2.7,1.8-5.4,3.2-8c1.5-2.5,3.3-5,6-7.2 c1.3,3.3,1.6,6.3,1.6,9.3c0,2.9-0.5,5.8-1.2,8.5c-0.7,2.7-1.8,5.4-3.3,8C64.7,40.5,62.9,43,60.2,45.2z"/><path fill="#96c362" d="M87.6,42.4c-2.9,1.9-5.8,2.8-8.7,3.4c-2.9,0.6-5.7,0.7-8.5,0.6c-2.8-0.2-5.6-0.7-8.4-1.6 c-2.8-0.9-5.5-2.2-8.2-4.4c2.9-1.9,5.8-2.8,8.7-3.4c2.9-0.6,5.7-0.7,8.5-0.6c2.8,0.2,5.6,0.7,8.4,1.6C82.1,39,84.9,40.2,87.6,42.4z"/><path fill="#96c362" d="M59.4,11.9c1.9,2.8,2.8,5.5,3.4,8.2c0.6,2.7,0.7,5.4,0.6,8c-0.2,2.7-0.7,5.3-1.6,7.9c-0.9,2.6-2.2,5.2-4.4,7.7 c-1.9-2.8-2.8-5.5-3.4-8.2c-0.6-2.7-0.7-5.4-0.6-8c0.2-2.7,0.7-5.3,1.6-7.9C56,17,57.2,14.4,59.4,11.9z"/><path fill="#d47f56" d="M52.7,80c0.2-0.2,6.7-6.6,6.9-6.8c4.6-4.5,7.1-11,7.2-17.5c0-3.4-2.5-10.5-5.4-13.5c-1.3-1.3-3.1-3-3.1-3 s-4.6-4.9-12.9-4.9c-6.8,0-13.6,2.4-18.2,7c-0.3,0.3-6.6,6.5-6.9,6.8c-9.2,9-9.3,23.5-0.4,32.4C28.9,89.2,43.6,89,52.7,80"/><path fill="#40396e" d="M57.2,73c0.2,0.2,0.7,0.8,1.1,2.2c0.3,0.8,1.1,1.2,1.9,0.9c0.8-0.3,1.2-1.1,0.9-1.9c-0.1-0.4-0.3-0.7-0.4-1 c0.2,0,0.4,0.1,0.7,0.1c0.8,0.1,1.6-0.4,1.7-1.3c0.1-0.8-0.4-1.6-1.3-1.7c-0.9-0.1-1.5-0.2-2.1-0.3c-0.2-2.3-0.7-6-1.8-8.7 c3.5,0.4,6.5,1.2,7.9,2.1c0.7,0.5,1.6,0.3,2.1-0.4c0.2-0.3,0.3-0.7,0.2-1c0.5-0.3,0.8-0.8,0.7-1.4c-0.3-3.2-1.1-8.8-3.3-11.1l0,0 c-2.3-2.3-8.2-3.1-11.3-3.4c-0.3-3.2-1-9.4-3.4-11.8c-1.2-1.2-3.4-2.1-6.6-2.8c-0.8-0.2-1.6,0.4-1.8,1.2c-0.2,0.8,0.4,1.6,1.2,1.8 c3.5,0.7,4.7,1.6,5.1,1.9c1.1,1.1,2,4.6,2.5,8.9c-2.8-1.2-6.6-1.7-8.9-1.9c-0.2-2.5-0.7-6.9-2.1-9.8c-0.4-0.8-1.2-1.1-2-0.7 c-0.8,0.4-1.1,1.2-0.7,2c0.7,1.5,1.3,4.1,1.6,7c-3.5-1.5-8.6-1.9-10.4-2c-0.1,0-0.1,0-0.2,0c-0.5-0.3-1.1-0.6-1.8-0.9 c-0.8-0.3-1.6,0.1-1.9,0.9c-0.3,0.8,0.1,1.6,0.9,1.9c1.1,0.4,1.6,0.8,1.9,1.1c1,1,1.9,4.2,2.4,8.2c-3.5-1.5-8.6-1.9-10.4-2 c-0.1,0-0.1,0-0.2,0c-0.4-0.2-0.7-0.4-1.2-0.6c-0.8-0.3-1.6,0-2,0.8c-0.3,0.8,0,1.6,0.8,2c0.8,0.4,1.2,0.7,1.4,0.9 c1,1,1.9,4.2,2.4,8.1c-2.2-0.9-5.1-1.4-7.4-1.7c-0.8-0.1-1.6,0.5-1.7,1.3c-0.1,0.8,0.5,1.6,1.3,1.7c4.8,0.6,7.4,1.6,8.2,2.4l0,0 c1.1,1.1,2,4.6,2.5,8.9c-3.4-1.5-8.4-1.9-10.2-2c-0.8,0-1.5,0.6-1.6,1.4c0,0.4,0.1,0.9,0.4,1.1c0.3,0.3,0.6,0.4,1,0.4 c5,0.3,9.4,1.4,10.7,2.6l0,0c1.2,1.2,2.2,5.3,2.6,10.2c0.1,0.8,0.8,1.4,1.6,1.4c0.8-0.1,1.4-0.8,1.4-1.6c-0.2-2.1-0.6-6.6-2-9.7 c4,0.4,7.3,1.4,8.4,2.4l0,0c0.8,0.8,1.8,3.4,2.4,8.2c0.1,0.8,0.8,1.4,1.7,1.3c0.8-0.1,1.4-0.8,1.3-1.7c-0.3-2.3-0.7-5.1-1.6-7.3 c4,0.5,7.3,1.4,8.3,2.4c0.2,0.2,0.6,0.8,1,1.8c0.3,0.8,1.2,1.2,1.9,0.9s1.2-1.2,0.9-1.9c-0.3-0.9-0.7-1.6-1.1-2.2c0,0,0,0,0,0 c-0.1-1.8-0.5-6.7-1.9-10.2C52.9,71,56.1,72,57.2,73L57.2,73z M26.7,73.7c-0.2-2.2-0.6-5.9-1.6-8.7c3.9,0.5,7.1,1.4,8.1,2.4 c1,1,1.9,4.2,2.4,8.1C32.7,74.4,29,73.9,26.7,73.7z M51.5,49L51.5,49c1,1,1.9,4.2,2.4,8.2c-2.8-1.2-6.5-1.7-8.8-1.8 c-0.2-2.2-0.6-5.9-1.6-8.7C47.4,47,50.5,47.9,51.5,49z M35.9,64.5c-0.2-2.2-0.6-5.9-1.6-8.7c3.9,0.5,7,1.4,8.1,2.4l0,0 c1,1,1.9,4.2,2.4,8.1C41.9,65.2,38.2,64.7,35.9,64.5z M39.6,45.6c1.1,1.1,2,4.6,2.5,8.9c-2.8-1.2-6.6-1.7-8.9-1.9 c-0.2-2.4-0.7-6.6-1.9-9.5C35.2,43.6,38.5,44.5,39.6,45.6L39.6,45.6z M30.4,54.8c1.1,1.1,2,4.6,2.5,8.9c-2.8-1.2-6.6-1.7-8.9-1.9 c-0.2-2.4-0.7-6.6-1.9-9.5C26,52.8,29.3,53.7,30.4,54.8L30.4,54.8z M36.7,67.6c4,0.4,7.3,1.4,8.4,2.4l0,0c1,1.1,2,4.4,2.4,8.5 c-2.8-1.2-6.6-1.6-8.9-1.8C38.4,74.3,37.9,70.4,36.7,67.6z M45.9,58.4c4,0.4,7.3,1.4,8.4,2.4l0,0c1,1.1,2,4.4,2.4,8.5 c-2.8-1.2-6.6-1.6-8.9-1.8C47.6,65.1,47.1,61.2,45.9,58.4z M63.5,51.6c1,1,1.9,4.3,2.4,8.5c-2.8-1.2-6.7-1.6-8.9-1.8 c-0.2-2.4-0.7-6.3-1.9-9.1C59.2,49.6,62.5,50.6,63.5,51.6L63.5,51.6z" opacity=".35"/><path fill="none" stroke="#40396e" stroke-linecap="round" stroke-linejoin="round" stroke-miterlimit="10" stroke-width="3" d="M68.2,55.4c0-2.7-1.5-7.6-3.6-11.2c2.1,0.5,4.3,0.9,6.4,1c2.8,0.2,5.7,0,8.5-0.6c2.9-0.6,5.8-1.5,8.7-3.4 c-2.7-2.2-5.5-3.5-8.2-4.4c-0.3-0.1-0.7-0.2-1-0.3c0.7-0.4,1.5-0.8,2.2-1.2c2.5-1.5,4.9-3.3,7-6.1C85,28,82,27.8,79.1,27.8 c-0.1,0-0.3,0-0.4,0c0.9-1.2,1.8-2.5,2.6-3.8c1.4-2.5,2.6-5.3,3.1-8.7c-3.4,0.5-6.2,1.8-8.7,3.3c-1.3,0.8-2.6,1.7-3.7,2.6 c0-0.2,0-0.4,0-0.6c0-2.9-0.3-6-1.6-9.3c-2.7,2.2-4.5,4.7-6,7.2c-0.2,0.3-0.4,0.7-0.6,1.1c0,0,0,0,0-0.1c-0.6-2.7-1.5-5.4-3.4-8.2 C58.2,13.8,57,16.4,56,19c-0.9,2.6-1.4,5.2-1.6,7.9c-0.2,2.7,0,5.3,0.6,8c0,0,0,0.1,0,0.1c-2.3-1.2-5.4-2.2-9.3-2.2 c-7.2,0-14.3,2.6-19.2,7.4c-0.3,0.3-6.9,6.9-7.3,7.2c-9.6,9.5-9.8,24.8-0.4,34c9.4,9.3,24.9,9.1,34.5-0.4c0.2-0.2,7.1-7,7.3-7.2 C65.5,69.1,68.1,62.3,68.2,55.4z"/></svg>