<svg xmlns="http://www.w3.org/2000/svg"  viewBox="0 0 100 100" width="100px" height="100px"><g id="Слой_2"><path d="M81.371,46.098c-1.286-2.304-2.55-3.977-3.22-7.356c-1.91-9.631-7.141-17.479-14.12-21.781 c0.604-0.391,1.145-0.886,1.6-1.471c1.066-1.371,1.534-3.075,1.318-4.798c-0.405-3.244-3.173-5.693-6.44-5.693 c-0.283,0-0.569,0.019-0.849,0.056c-3.359,0.419-5.797,1.597-7.537,2.925C48.078,4.083,42.828,2,36.814,2 c-3.506,0-7.303,0.716-11.286,2.127l-1.116,0.395c-2.854,1.012-4.618,3.819-4.293,6.826l0.127,1.176 c0.912,8.47,4.145,13.709,7.612,16.938c-1.065,2.246-1.924,4.666-2.539,7.168c-1.03,4.193-2.316,5.631-3.621,7.682 C17.97,50.171,16,56.979,16,64c0,19.85,15.701,36,35,36s35-16.15,35-36C86,57.713,84.399,51.523,81.371,46.098z" opacity=".35"/><path fill="#f2f2f2" d="M79.371,44.098c-1.286-2.304-2.55-3.977-3.22-7.356c-1.91-9.631-7.141-17.479-14.12-21.781 c0.604-0.391,1.145-0.886,1.6-1.471c1.066-1.371,1.534-3.075,1.318-4.798c-0.405-3.244-3.173-5.693-6.44-5.693 c-0.283,0-0.569,0.019-0.849,0.056c-3.359,0.419-5.797,1.597-7.537,2.925C46.078,2.083,40.828,0,34.814,0 c-3.506,0-7.303,0.716-11.286,2.127l-1.116,0.395c-2.854,1.012-4.618,3.819-4.293,6.826l0.127,1.176 c0.912,8.47,4.145,13.709,7.612,16.938c-1.065,2.246-1.924,4.666-2.539,7.168c-1.03,4.193-2.316,5.631-3.621,7.682 C15.97,48.171,14,54.979,14,62c0,19.85,15.701,36,35,36s35-16.15,35-36C84,55.713,82.399,49.523,79.371,44.098z"/><path fill="#739f4d" d="M50.099,23.667c0,0-2.044-21.743-23.899-14C28.609,32.039,50.099,23.667,50.099,23.667z"/><path fill="#739f4d" d="M49.099,25.667c0,0-2.044-21.743-23.899-14C27.609,34.039,49.099,25.667,49.099,25.667z"/><path fill="#96c362" d="M50.099,23.667c0,0-2.044-21.743-23.899-14c0.003,0.029,0.007,0.056,0.01,0.084L50.099,23.667 C50.613,23.499,50.099,23.667,50.099,23.667z"/><path fill="#96c362" d="M51.099,23.667c0,0-2.044-21.743-23.899-14c0.003,0.029,0.007,0.056,0.01,0.084L51.099,23.667 C51.613,23.499,51.099,23.667,51.099,23.667z"/><path fill="#ffe8d9" d="M72.386,47.996c-1.871-3.353-3.334-5.93-4.082-9.696C66.042,26.898,58.482,19.364,49.5,19.364 c-8.52,0-15.759,6.377-18.413,17.175c-0.961,3.912-2.478,6.669-4.64,10.067C23.637,51.023,22,56.312,22,62 c0,15.464,12.088,28,27,28s27-12.536,27-28C76,56.898,74.684,52.115,72.386,47.996z"/><path fill="#739f4d" d="M49.5,24.364c6.545,0,12.131,5.992,13.9,14.909c0.887,4.472,2.57,7.487,4.518,10.977l0.102,0.182 C69.969,53.927,71,57.927,71,62c0,12.682-9.869,23-22,23S27,74.682,27,62c0-4.546,1.268-8.941,3.665-12.709 c2.515-3.952,4.185-7.11,5.278-11.559C37.969,29.486,43.164,24.364,49.5,24.364 M49.5,19.364c-8.52,0-15.759,6.377-18.413,17.175 c-0.961,3.912-2.478,6.669-4.64,10.067C23.637,51.023,22,56.312,22,62c0,15.464,12.088,28,27,28s27-12.536,27-28 c0-5.102-1.316-9.885-3.614-14.004c-1.871-3.353-3.334-5.93-4.082-9.696C66.042,26.898,58.482,19.364,49.5,19.364L49.5,19.364z"/><path fill="#40396e" d="M49,93c-16.542,0-30-13.906-30-31c0-6.069,1.7-11.949,4.916-17.005c1.959-3.079,3.434-5.817,4.258-9.173 c0.89-3.62,2.33-6.962,4.202-9.771c-3.925-2.155-8.146-6.659-9.159-16.063L23.09,8.81c-0.075-0.69,0.335-1.342,0.991-1.574 l1.117-0.396C28.643,5.619,31.878,5,34.814,5c9.903,0,14.463,6.793,16.423,11.443c9.665,0.899,17.638,9.314,20.01,21.272 c0.665,3.353,1.843,5.433,3.208,7.841l0.551,0.979C77.619,51.217,79,56.565,79,62C79,79.094,65.542,93,49,93z M26.2,9.668 c0.806,7.476,3.835,12.324,9.005,14.41c0.437,0.176,0.765,0.547,0.888,1.001c0.122,0.454,0.024,0.94-0.266,1.312 c-2.146,2.755-3.785,6.264-4.739,10.148c-0.922,3.752-2.522,6.738-4.64,10.067C23.538,51.179,22,56.502,22,62 c0,15.439,12.112,28,27,28s27-12.561,27-28c0-4.925-1.25-9.767-3.614-14.003c0,0,0-0.001,0-0.001l-0.542-0.961 c-1.43-2.524-2.78-4.909-3.54-8.735c-2.177-10.975-9.479-18.579-18.17-18.924c-0.603-0.024-1.133-0.407-1.345-0.972 C47.007,13.658,43.136,8,34.816,8C32.222,8,29.322,8.562,26.2,9.668L26.2,9.668z"/><path fill="#d47f56" d="M59,62c0,7.732-4.477,12-10,12s-10-4.268-10-12s4.477-16,10-16S59,54.268,59,62z"/><path fill="#40396e" d="M51.496,18.995c-0.734,0-1.374-0.536-1.481-1.283c-0.02-0.142-0.47-3.494,1.66-6.282 c1.45-1.898,3.684-3.049,6.639-3.418c0.818-0.103,1.571,0.48,1.674,1.302c0.103,0.822-0.48,1.572-1.302,1.675 c-2.113,0.265-3.664,1.018-4.609,2.238c-1.371,1.772-1.093,4.048-1.09,4.07c0.106,0.818-0.467,1.573-1.284,1.685 C51.633,18.991,51.564,18.995,51.496,18.995z"/><circle cx="50.5" cy="61.5" r="2.5" fill="#ffb789"/><circle cx="53.5" cy="66.5" r="1.5" fill="#ffb789"/><circle cx="47.5" cy="66.5" r="1.5" fill="#ffb789"/></g></svg>