<svg xmlns="http://www.w3.org/2000/svg"  viewBox="0 0 100 100" width="100px" height="100px"><path d="M52,95.4c-2.7,0-5.3-1.3-6.9-3.5l-0.4-0.5c-1.9-2.6-4.6-4.6-7.9-5.7c-17.6-5.9-29.5-21.6-29.5-39	C7.3,24.4,26.1,8.2,52,8.2s44.7,16.2,44.7,38.5c0,17.4-11.9,33.1-29.5,39c-3.3,1.1-6.1,3.1-7.9,5.7l-0.4,0.5	C57.3,94.1,54.7,95.4,52,95.4z" opacity=".35"/><path fill="#f2f2f2" d="M50,93.4c-2.7,0-5.3-1.3-6.9-3.5l-0.4-0.5c-1.9-2.6-4.6-4.6-7.9-5.7c-17.6-5.9-29.5-21.6-29.5-39	C5.3,22.4,24.1,6.2,50,6.2s44.7,16.2,44.7,38.5c0,17.4-11.9,33.1-29.5,39c-3.3,1.1-6.1,3.1-7.9,5.7l-0.4,0.5	C55.3,92.1,52.7,93.4,50,93.4z"/><path fill="#ef8630" d="M88.2,45c0-19.3-17.1-32-38.2-32S11.8,25.7,11.8,45c0,15.1,10.4,27.9,25.1,32.8c4.5,1.5,8.4,4.2,11.1,8	l0.4,0.5c0.8,1.1,2.4,1.1,3.2,0l0.4-0.5c2.7-3.8,6.7-6.5,11.1-8C77.7,73,88.2,60.1,88.2,45z"/><path fill="#40396e" d="M81.9,45c0-19.3-14.3-32-31.9-32S18,25.7,18,45c0,15.1,8.7,27.9,21,32.8c3.7,1.5,7,4.2,9.3,8l0.3,0.5	c0.7,1.1,2,1.1,2.7,0l0.3-0.5c2.3-3.8,5.6-6.5,9.3-8C73.2,73,81.9,60.1,81.9,45z" opacity=".35"/><path fill="#ef8630" d="M78.1,45c0-19.3-12.6-32-28.1-32S21.8,25.7,21.8,45c0,15.1,7.7,27.9,18.5,32.8c3.3,1.5,6.2,4.2,8.2,8l0.3,0.5	c0.6,1.1,1.8,1.1,2.4,0l0.3-0.5c2-3.8,4.9-6.5,8.2-8C70.4,73,78.1,60.1,78.1,45z"/><path fill="#40396e" d="M71.1,45c0-19.3-9.5-32-21.1-32S28.8,25.7,28.8,45c0,28.4,18.5,37.1,20,40.9l0.2,0.5c0.4,1.1,1.3,1.1,1.8,0	l0.2-0.5C52.6,82.1,71.1,73.2,71.1,45z" opacity=".35"/><path fill="#ef8630" d="M67.1,45c0-19.3-7.7-32-17.1-32S32.9,25.7,32.9,45c0,15.1,4.7,27.9,11.2,32.8c2,1.5,3.8,4.2,5,8l0.2,0.5	c0.4,1.1,1.1,1.1,1.4,0l0.2-0.5c1.2-3.8,3-6.5,5-8C62.4,73,67.1,60.1,67.1,45z"/><path fill="#40396e" d="M62,46.7c0-18.5-5.4-30.7-12-30.7S38,28.2,38,46.7c0,14.5,3.3,26.8,7.9,31.5c1.4,1.4,2.6,4.1,3.5,7.7l0.1,0.5	c0.2,1.1,0.8,1.1,1,0l0.1-0.5c0.9-3.7,2.1-6.3,3.5-7.7C58.7,73.6,62,61.2,62,46.7z" opacity=".35"/><path fill="#ef8630" d="M58.2,46.7c0-18.5-3.6-30.7-8-30.7s-8,12.1-8,30.7c0,14.5,2.2,26.8,5.3,31.5c0.9,1.4,1.8,4.1,2.3,7.7l0.1,0.5	c0.2,1.1,0.5,1.1,0.7,0l0.1-0.5c0.6-3.7,1.4-6.3,2.3-7.7C56,73.6,58.2,61.2,58.2,46.7z"/><path fill="#40396e" d="M52,46.7c0-18.5-0.9-30.7-2.1-30.7s-2.1,12.1-2.1,30.7c0,14.5,0.6,26.8,1.3,31.5c0.2,1.4,0.5,4.1,0.6,7.7l0,0.5	c0,1.1,0.1,1.1,0.2,0l0-0.5c0.1-3.7,0.4-6.3,0.6-7.7C51.5,73.6,52,61.2,52,46.7z" opacity=".35"/><path fill="#f9b84f" d="M50,12.7c-9.3,0-17.8,2.5-24.5,6.9c3.8,4.4,13.3,7.5,24.5,7.5c11.1,0,20.6-3.1,24.4-7.4c0,0,0,0,0-0.1	C67.9,15.2,59.3,12.7,50,12.7z"/><path fill="none" stroke="#40396e" stroke-linecap="round" stroke-linejoin="round" stroke-miterlimit="10" stroke-width="3" d="M88.2,44.7c0-19.3-17.1-32-38.2-32s-38.2,12.7-38.2,32c0,15.1,10.4,27.9,25.1,32.8c4.5,1.5,8.4,4.2,11.1,8	l0.4,0.5c0.8,1.1,2.4,1.1,3.2,0l0.4-0.5c2.7-3.8,6.7-6.5,11.1-8C77.8,72.6,88.2,59.8,88.2,44.7z"/></svg>