<svg xmlns="http://www.w3.org/2000/svg"  viewBox="0 0 512 512" width="128px" height="128px"><path fill="#eb9b50" d="M236.74,88.92a151.526,151.526,0,0,0-16.97-2.43L94.45,154.91S47.2,183.27,47.2,278.02c0,99.19,71.4,232.39,248.29,212.21Z"/><path fill="#739937" d="M236.74,88.92c-.81-21.02-.34-44.41,4.71-54.24a8.3,8.3,0,0,1,8.81-4.33l15,2.59a8.3,8.3,0,0,1,6.84,9.26l3.23,56.36a145.179,145.179,0,0,0-35.67,30.43S237.55,110.16,236.74,88.92Z"/><path fill="#f4b567" d="M275.33,98.56A120.031,120.031,0,0,1,335,81.54c42.89-.86,88.27,15.75,118.99,56.16,65.37,85.99,69.54,335.52-97.92,355.95-22.5,2.74-42.67,1.35-60.58-3.42-134.16-35.77-141.76-261.36-55.83-361.24A145.179,145.179,0,0,1,275.33,98.56Z"/><path fill="#bc7942" d="M77.2,278.02c0-94.75,47.25-123.11,47.25-123.11L237.375,93.257l-.635-4.337a151.526,151.526,0,0,0-16.97-2.43L94.45,154.91S47.2,183.27,47.2,278.02c0,95.4,66.072,222.244,228.512,213.834C135.09,484.165,77.2,367.321,77.2,278.02Z"/><path fill="#4ca987" d="M219.77,86.49a31.992,31.992,0,0,1-2.1,10.88c-7.65,20.08-31.5,60.94-98.23,57.33a194.526,194.526,0,0,0-24.99.21c-34.85,2.6-57.94,14.66-71.55,24.84a4.321,4.321,0,0,1-6.82-4.27C29.88,100.84,98.02-34.21,189.25,37.13c6.33,4.95,20.16,19.3,27.58,35.38A32.122,32.122,0,0,1,219.77,86.49Z"/><path fill="#3a8264" d="M153.029,18.727C80.319,1.775,27.984,111.1,16.08,175.48a4.321,4.321,0,0,0,6.82,4.27,116.664,116.664,0,0,1,25.267-14.237C60.984,110.314,99.444,31.454,153.029,18.727Z"/><path fill="#284268" d="M224.85,318.363a6,6,0,0,0-11.936,1.244c.563,5.395,1.308,10.811,2.214,16.1a6,6,0,0,0,11.828-2.027C226.094,328.648,225.385,323.5,224.85,318.363Z"/><path fill="#284268" d="M233.814,205.906a6,6,0,0,0-7.715,3.534c-9.521,25.607-14.554,54.54-14.554,83.672a6,6,0,0,0,12,0c0-27.719,4.773-55.207,13.8-79.491A6,6,0,0,0,233.814,205.906Z"/><path fill="#284268" d="M458.764,134.07c-29.037-38.2-74.171-59.532-123.881-58.53a126.093,126.093,0,0,0-54.1,13.255l-2.658-46.456a14.286,14.286,0,0,0-11.845-15.317l-15-2.587a14.238,14.238,0,0,0-15.17,7.51c-5,9.739-6.029,30.1-5.627,49.786-1.486-.219-3.168-.448-5.042-.674A37.954,37.954,0,0,0,222.276,70c-7.7-16.7-22.073-31.923-29.328-37.6-26.982-21.1-54.123-26.7-80.668-16.64-31.34,11.873-54.4,43.261-68.233,67.5-15.767,27.637-28.429,61.7-33.87,91.124a10.312,10.312,0,0,0,16.317,10.166c10.684-7.992,26.868-16.756,49.76-21.209C62.085,179.609,42.883,212.194,41.31,270.315a6,6,0,0,0,12,.337c.72-25.31,5.43-58.538,22.148-85.8,8.948-14.592,17.987-21.875,21.031-24.074a190.58,190.58,0,0,1,22.635-.088c71.478,3.842,96.656-41.5,104.159-61.188h0a37.687,37.687,0,0,0,1.792-6.378c2.3.288,4.253.575,5.829.828.689,14.559,1.914,27.313,2.521,33.106a207.26,207.26,0,0,0-25.474,39.125c-20.635,40.65-31.494,90.661-30.576,140.821.948,51.79,14.626,99.087,38.514,133.178,14.293,20.4,31.789,35.783,52.021,45.986-26.57.686-51.391-2.357-74.059-9.11a186.613,186.613,0,0,1-71.628-39.672c-22.3-19.9-40.429-46.063-52.42-75.651a229.114,229.114,0,0,1-12.173-40.488,5.981,5.981,0,0,0-5.869-4.784h0a6,6,0,0,0-5.892,7.171,241.1,241.1,0,0,0,12.816,42.608c12.676,31.28,31.885,58.978,55.551,80.1a198.536,198.536,0,0,0,76.192,42.22c21.7,6.464,45.2,9.707,70.2,9.707A312.984,312.984,0,0,0,295,496.315a155.115,155.115,0,0,0,38.74,4.725,190.642,190.642,0,0,0,23.053-1.438c57.49-7.011,100.642-40.93,124.791-98.091,17.364-41.1,23.976-92.744,18.618-145.415C495.161,206.559,480.058,162.082,458.764,134.07Zm-406.3-.947a6,6,0,0,0,8.379,1.336c42.774-31.011,87.89-40.157,118.206-42.369a243.563,243.563,0,0,1,34-.111,25.563,25.563,0,0,1-.989,3.251,82.817,82.817,0,0,1-25.118,35.013c-17.084,13.739-39.688,19.948-67.181,18.467-47.3-2.56-78.443,10.932-96.983,23.738,10.494-50.9,45.457-127.165,93.747-145.46a59.857,59.857,0,0,1,21.348-4c15.647,0,31.61,6.305,47.677,18.868,5.375,4.2,18.759,17.84,25.821,33.166a25.821,25.821,0,0,1,1.686,4.9,256.241,256.241,0,0,0-34.433.159C146.641,82.367,99.017,91.964,53.8,124.744A6,6,0,0,0,52.468,133.123Zm194.316-95.7a2.3,2.3,0,0,1,2.454-1.163l15,2.588a2.31,2.31,0,0,1,1.916,2.574,6.021,6.021,0,0,0-.04,1.115l3.023,52.814a146.584,146.584,0,0,0-24.756,19.777c-.593-7.106-1.255-16.4-1.634-26.182C241.374,53.639,244.687,41.511,246.784,37.424ZM470.529,396.841C454.923,433.78,422.27,479.527,355.34,487.69a176.533,176.533,0,0,1-21.354,1.333c-45.4,0-82.553-19.019-108.274-55.725-22.531-32.156-35.438-77.085-36.343-126.512-.883-48.233,9.515-96.237,29.279-135.169,27.032-53.252,69.943-83.128,118.021-84.095,44.587,0,86.455,19.494,112.542,53.81,20,26.3,34.229,68.576,39.051,115.978C493.42,308.012,487.123,357.565,470.529,396.841Z"/></svg>