<svg xmlns="http://www.w3.org/2000/svg"  viewBox="0 0 256 256" width="128px" height="128px"><g id="Layer_73"><path fill="#f5c84c" d="M206.444,217.882c-4.498-0.837-8.043-4.31-8.898-8.716c-0.043-0.221-0.352-0.221-0.395,0 c-0.855,4.406-4.4,7.879-8.898,8.716c-0.226,0.042-0.226,0.345,0,0.387c4.498,0.838,8.043,4.311,8.898,8.717 c0.043,0.221,0.352,0.221,0.395,0c0.855-4.406,4.4-7.879,8.898-8.717C206.67,218.227,206.67,217.924,206.444,217.882z"/><path fill="#fc657e" d="M209.879,21.362c-3.215-0.599-5.749-3.081-6.36-6.23c-0.031-0.158-0.251-0.158-0.282,0 c-0.611,3.149-3.145,5.632-6.36,6.23c-0.161,0.03-0.161,0.246,0,0.276c3.215,0.599,5.749,3.081,6.36,6.23 c0.031,0.158,0.251,0.158,0.282,0c0.611-3.149,3.145-5.632,6.36-6.23C210.04,21.608,210.04,21.392,209.879,21.362z"/><path fill="#70d6f9" d="M58.155,116.302h-2.329v-2.33c0-1.744-1.413-3.157-3.157-3.157s-3.157,1.413-3.157,3.157v2.33h-2.33 c-1.744,0-3.157,1.414-3.157,3.158c0,1.744,1.413,3.157,3.157,3.157h2.33v2.33c0,1.744,1.413,3.158,3.157,3.158 s3.157-1.414,3.157-3.158v-2.33h2.329c1.744,0,3.157-1.414,3.157-3.157C61.313,117.715,59.899,116.302,58.155,116.302z"/><path fill="#87d147" d="M188.461,237c-1.865,0-3.377,1.512-3.377,3.377c0,1.865,1.512,3.377,3.377,3.377s3.377-1.512,3.377-3.377 C191.838,238.512,190.326,237,188.461,237z"/><path fill="#f5c84c" d="M68.461,135c-1.865,0-3.377,1.512-3.377,3.377c0,1.865,1.512,3.377,3.377,3.377s3.377-1.512,3.377-3.377 C71.838,136.512,70.326,135,68.461,135z"/><path fill="#70d6f9" d="M231.868,143.959l-27.891-44.273c-0.501-0.844-1.592-1.121-2.435-0.62l-24.266,14.423 c-0.843,0.501-1.121,1.591-0.62,2.435l24.221,38.271l-36.672,8.557c-2.676,0.625-5.462,0.6-8.126-0.07 c-1.18-0.297-2.325-0.718-3.416-1.256l-9.205-4.54c-4.661-2.298-7.612-7.044-7.612-12.241v-6.726 c-5.594,3.045-11.993,4.778-18.777,4.778h0c-0.544,0-1.083-0.026-1.622-0.048l5.641,18.641c0.915,3.022,3.349,5.399,6.435,6.065 c3.156,0.681,5.691,3.021,6.625,6.107l15.272,50.467c0.706,2.333-0.613,4.798-2.947,5.504l-22.832,6.91 c-2.334,0.706-4.799-0.613-5.505-2.947l-1.317-4.353l16.189-5.259c1.979-0.658,3.198-2.756,2.6-4.754 c-0.619-2.067-2.818-3.2-4.85-2.524l4.703-1.563c2.1-0.698,3.237-2.966,2.539-5.066l-0.037-0.112 c-0.698-2.1-2.966-3.237-5.067-2.539l4.892-1.626c2.1-0.698,3.237-2.967,2.539-5.066l0,0c-0.698-2.1-2.966-3.236-5.066-2.539 l-4.892,1.626c2.1-0.698,3.237-2.966,2.539-5.066s-2.966-3.237-5.067-2.539l-20.228,6.605l-0.222-0.734h0l-2.555-8.443h0 l-1.971-6.514c-0.934-3.086-0.122-6.438,2.127-8.755c2.199-2.266,2.907-5.593,1.993-8.615l-7.544-24.931v4.018 c0,5.197-2.952,9.943-7.613,12.242l-10.846,5.348l-30.685,7.724c-6.617,1.666-13.153,5.542-15.762,14.253l-8.32,38.353 c1.459-1.186,3.142-2.144,5.035-2.767l42.503-12.65c0.931-0.31,1.937,0.194,2.246,1.126l8.904,26.788 c0.309,0.931-0.195,1.937-1.126,2.247l-21.133,6.291v6.187c0,2.051,1.663,3.714,3.714,3.714h102.072 c2.051,0,3.714-1.663,3.714-3.714l0-47.015c0-1.991,1.304-3.753,3.206-4.343c35.132-10.891,36.385-10.936,42.413-13.418 C233.877,178.375,240.501,159.097,231.868,143.959z"/><path fill="#f9c1a8" d="M143.46,156.887c-4.662-2.298-7.613-7.045-7.613-12.242v-6.726c-5.594,3.045-11.993,4.778-18.777,4.778h0 c-0.544,0-1.082-0.026-1.622-0.048l5.641,18.641c0.915,3.022,3.349,5.399,6.435,6.065c2.092,0.452,3.899,1.642,5.159,3.285 c5.316-2.985,9.682-7.482,12.48-12.913L143.46,156.887z"/><path fill="#f9c1a8" d="M106.985,165.558l-7.544-24.931v4.018c0,5.197-2.952,9.944-7.613,12.242l-1.703,0.84 c3.423,6.641,9.185,11.891,16.171,14.673C107.429,170.346,107.683,167.865,106.985,165.558z"/><path fill="#70d6f9" d="M84.902,235.061l-8.904-26.788c-0.31-0.932-1.315-1.436-2.246-1.126l-42.503,12.65 c-8.377,2.76-12.904,11.814-10.085,20.171c2.791,8.275,11.736,12.747,20.03,10.015l42.582-12.676 C84.708,236.998,85.211,235.992,84.902,235.061z"/><path fill="#f9c1a8" d="M197.734,94.659c-1.747-2.939-2.644-6.305-2.591-9.724l0.104-6.787c0.037-2.383-0.385-4.75-1.25-6.97 c-1.236-3.17-3.032-8.058-3.967-11.907c-0.149-0.612-0.709-1.029-1.339-0.996c-3.28,0.176-5.721,3.107-5.285,6.363 c0.316,2.355,0.927,5.226,1.927,8.719l-12.341-20.518c-1.131-1.902-3.59-2.528-5.492-1.397h0 c-1.902,1.131-2.528,3.59-1.397,5.492l-2.634-4.432c-1.131-1.902-3.59-2.528-5.492-1.397c-1.902,1.131-2.528,3.59-1.397,5.492 l2.634,4.432c-1.131-1.902-3.59-2.528-5.492-1.397l-0.101,0.061c-1.902,1.13-2.528,3.589-1.397,5.492l2.532,4.261 c-1.094-1.841-3.498-2.424-5.319-1.267c-1.76,1.119-2.212,3.503-1.147,5.295l9.564,15.844c2.052,3.453,4.724,6.499,7.88,8.983 l1.953,1.538c3.156,2.485,5.827,5.53,7.88,8.983l2.496,4.2l22.601-13.433L197.734,94.659z"/><path fill="#f9c1a8" d="M140.327,200.533L140.327,200.533c-0.698-2.101-2.966-3.237-5.067-2.539l-4.892,1.626 c2.1-0.698,3.237-2.966,2.539-5.066s-2.966-3.237-5.067-2.539l-22.761,7.433c0.822-0.537,1.589-1.056,2.311-1.562l-2.555-8.443 c-1.767,1.017-3.489,1.954-4.879,2.687c-2.107,1.112-3.975,2.625-5.507,4.451l-4.364,5.2c-2.198,2.619-5.079,4.576-8.324,5.655 l-5.441,1.808l8.293,24.95l4.637-1.541c3.812-1.267,7.824-1.82,11.837-1.633l2.483,0.116c4.013,0.188,8.026-0.366,11.838-1.633 l17.601-5.718c1.979-0.658,3.198-2.756,2.6-4.754c-0.619-2.067-2.818-3.2-4.85-2.524l4.703-1.563 c2.1-0.698,3.237-2.966,2.539-5.066l-0.037-0.112c-0.698-2.1-2.966-3.237-5.067-2.539l4.892-1.626 C139.889,204.901,141.025,202.633,140.327,200.533z"/><path fill="#87d147" d="M149.42,223.929l-15.272-50.467c-0.934-3.086-3.469-5.426-6.625-6.107 c-3.086-0.666-5.521-3.043-6.435-6.065l-8.143-26.908c-0.314-1.037-1.409-1.624-2.446-1.31l-10.347,3.131 c-1.037,0.314-1.624,1.409-1.31,2.446l8.143,26.908c0.914,3.022,0.207,6.35-1.993,8.615c-2.249,2.317-3.061,5.669-2.127,8.755 l1.971,6.514h0l2.555,8.443h0l0.222,0.734l20.228-6.605c2.1-0.698,4.368,0.438,5.067,2.539s-0.439,4.369-2.539,5.066 l4.892-1.626c2.1-0.698,4.368,0.438,5.066,2.539l0,0c0.698,2.1-0.439,4.368-2.539,5.066l-4.892,1.626 c2.1-0.698,4.369,0.438,5.067,2.539l0.037,0.112c0.698,2.1-0.439,4.369-2.539,5.066l-4.703,1.563 c2.033-0.676,4.232,0.458,4.85,2.524c0.598,1.998-0.621,4.096-2.6,4.754l-16.189,5.259l1.317,4.353 c0.706,2.334,3.171,3.653,5.505,2.947l22.832-6.91C148.807,228.727,150.127,226.262,149.42,223.929z"/><path fill="#fc657e" d="M147.385,217.204l-11.433-37.782l-31.283,9.467l0.168,0.554h0l2.555,8.443h0l0.222,0.734l20.228-6.605 c2.1-0.698,4.368,0.438,5.067,2.539s-0.439,4.369-2.539,5.066l4.892-1.626c2.1-0.698,4.368,0.438,5.066,2.539l0,0 c0.698,2.1-0.439,4.368-2.539,5.066l-4.892,1.626c2.1-0.698,4.369,0.438,5.067,2.539l0.037,0.112 c0.698,2.1-0.439,4.369-2.539,5.066l-4.703,1.563c2.033-0.676,4.232,0.458,4.85,2.524c0.173,0.577,0.179,1.159,0.074,1.715 L147.385,217.204z"/><path fill="#fcdd86" d="M199.642,42.4c0.629-0.613,0.282-1.682-0.587-1.808l-3.913-0.568c-0.345-0.05-0.644-0.267-0.798-0.58 l-1.75-3.545c-0.389-0.788-1.512-0.788-1.901,0l-1.75,3.545c-0.154,0.313-0.453,0.53-0.798,0.58l-3.913,0.568 c-0.869,0.126-1.217,1.195-0.587,1.808l2.831,2.76c0.25,0.244,0.364,0.595,0.305,0.938l-0.668,3.897 c-0.149,0.866,0.76,1.526,1.538,1.118l3.5-1.84c0.309-0.163,0.678-0.163,0.987,0l3.5,1.84c0.778,0.409,1.687-0.251,1.538-1.118 l-0.668-3.897c-0.059-0.344,0.055-0.695,0.305-0.938L199.642,42.4z"/><path fill="#fcdd86" d="M188.31,11.531c0.629-0.613,0.282-1.682-0.588-1.808l-5.756-0.836c-0.345-0.05-0.644-0.267-0.798-0.58 l-2.574-5.216c-0.389-0.788-1.512-0.788-1.901,0l-2.574,5.216c-0.154,0.313-0.453,0.529-0.798,0.58l-5.756,0.836 c-0.869,0.126-1.217,1.195-0.588,1.808l4.165,4.06c0.25,0.244,0.364,0.594,0.305,0.938l-0.983,5.733 c-0.149,0.866,0.76,1.526,1.538,1.118l5.148-2.707c0.309-0.162,0.678-0.162,0.987,0l5.148,2.707 c0.778,0.409,1.687-0.252,1.538-1.118l-0.983-5.733c-0.059-0.344,0.055-0.694,0.305-0.938L188.31,11.531z"/><path fill="#f9c1a8" d="M148.29,73.473c-1.065-1.792-0.613-4.177,1.147-5.295c1.821-1.157,4.225-0.575,5.319,1.267l-2.532-4.261 c-0.002-0.004-0.003-0.008-0.005-0.012c-14.908-0.993-22.908-7.021-26.07-10.121c-0.907-0.89-2.372-0.796-3.162,0.199 c-14.431,18.148-35.721,15.587-42.879,14.089c-1.301-0.272-2.549,0.708-2.55,2.037v31.811c0,15.136,8.63,28.347,21.209,34.977 c-0.037-0.873,0.51-1.695,1.385-1.96l10.347-3.131c1.037-0.314,2.132,0.272,2.446,1.31l2.504,8.275 c0.538,0.022,1.076,0.042,1.619,0.042h0c21.731,0,39.512-17.78,39.512-39.512V87.208L148.29,73.473z"/><path fill="#fc657e" d="M125.107,108.5H109.18c-2.77,0-5.036,2.267-5.036,5.037v2.963c0,7.15,5.85,13,13,13s13-5.85,13-13v-2.963 C130.143,110.767,127.877,108.5,125.107,108.5z"/><path fill="#edf4fc" d="M125.107,108.5H109.18c-2.77,0-5.036,2.267-5.036,5.037v2.963h26v-2.963 C130.143,110.767,127.877,108.5,125.107,108.5z"/><path fill="#414344" d="M147.988,25.461c-4.21,0-8.147,1.189-11.529,3.218c-3.951-6.594-11.15-11.047-19.355-11.047h-11.59 c-22.431,0-40.784,18.353-40.784,40.784V76.69c2.822-2.258,6.397-3.617,10.293-3.617c0.863,0,1.708,0.073,2.535,0.201v-1.898 c0.001-1.329,1.249-2.31,2.55-2.037c7.158,1.498,28.447,4.059,42.879-14.089c0.791-0.995,2.255-1.088,3.162-0.199 c3.162,3.1,11.162,9.128,26.07,10.121c-1.121-1.901-0.496-4.352,1.403-5.48l0.101-0.061c1.902-1.13,4.361-0.505,5.492,1.397 l-2.634-4.432c-1.131-1.902-0.505-4.361,1.397-5.492c1.902-1.13,4.361-0.505,5.492,1.397l2.634,4.432 c-1.131-1.902-0.505-4.361,1.397-5.492h0c0.958-0.569,2.057-0.691,3.057-0.431v-2.98 C170.557,35.617,160.401,25.461,147.988,25.461z"/><path fill="#f9c1a8" d="M167.687,99.838l-1.953-1.538c-3.156-2.485-5.828-5.53-7.88-8.983l-1.273-2.109v15.979 c0,0.891-0.041,1.773-0.1,2.65c0.86,0.138,1.736,0.23,2.635,0.23c4.202,0,8.025-1.584,10.937-4.17 C169.298,101.174,168.51,100.486,167.687,99.838z"/><path fill="#f9c1a8" d="M77.557,103.187V73.274c-0.827-0.128-1.672-0.201-2.535-0.201c-9.111,0-16.496,7.386-16.496,16.496 c0,9.111,7.386,16.497,16.496,16.497c0.899,0,1.775-0.092,2.635-0.23v-0.001C77.598,104.959,77.557,104.077,77.557,103.187z"/><path d="M151.872,62.641c-14.089-1.063-21.459-6.91-23.974-9.375c-0.936-0.918-2.219-1.395-3.527-1.317 c-1.307,0.081-2.525,0.718-3.342,1.746C107.704,70.45,88.33,68.506,80.62,66.892c-1.371-0.288-2.779,0.055-3.867,0.938 c-1.076,0.873-1.694,2.165-1.696,3.573v31.784c0,15.379,8.453,29.529,22.061,36.93c0.379,0.206,0.789,0.305,1.192,0.304 c0.887,0,1.746-0.472,2.199-1.306c0.66-1.213,0.211-2.731-1.002-3.391c-11.997-6.524-19.449-18.991-19.449-32.537V71.88 c7.225,1.427,29.494,3.939,44.634-14.761c3.757,3.572,12.036,9.394,26.804,10.508c1.384,0.104,2.577-0.928,2.682-2.305 C154.28,63.945,153.248,62.745,151.872,62.641z"/><path d="M156.58,85.156c-1.381,0-2.5,1.119-2.5,2.5v15.53c0,20.408-16.604,37.012-37.011,37.012 c-0.302,0-0.603-0.007-0.903-0.017c-1.366-0.043-2.535,1.038-2.581,2.417c-0.045,1.38,1.037,2.535,2.417,2.581 c0.354,0.012,0.71,0.019,1.067,0.019c23.166,0,42.011-18.847,42.011-42.012v-15.53C159.08,86.275,157.961,85.156,156.58,85.156z"/><path d="M147.987,22.961c-3.696,0-7.355,0.839-10.71,2.443c-4.708-6.388-12.238-10.271-20.174-10.271h-11.59 c-23.867,0-43.284,19.417-43.284,43.283v17.85c0,1.381,1.119,2.5,2.5,2.5s2.5-1.119,2.5-2.5v-17.85 c0-21.109,17.174-38.283,38.284-38.283h11.59c6.982,0,13.577,3.768,17.21,9.832c0.341,0.568,0.894,0.979,1.537,1.14 c0.643,0.162,1.324,0.06,1.894-0.281c3.122-1.872,6.664-2.862,10.243-2.862c11.066,0,20.07,9.004,20.07,20.07v2.177 c0,1.381,1.119,2.5,2.5,2.5s2.5-1.119,2.5-2.5v-2.177C173.058,34.207,161.812,22.961,147.987,22.961z"/><path d="M171.351,100.885c-0.863-1.078-2.436-1.253-3.514-0.389c-2.509,2.009-5.523,3.07-8.721,3.07 c-0.478,0-0.972-0.031-1.513-0.097c-1.36-0.157-2.616,0.813-2.78,2.185s0.813,2.615,2.185,2.78 c0.74,0.089,1.43,0.132,2.108,0.132c4.346,0,8.441-1.441,11.846-4.168C172.04,103.535,172.214,101.962,171.351,100.885z"/><path d="M79.373,105.642c-0.168-1.37-1.407-2.345-2.786-2.178c-0.563,0.069-1.075,0.103-1.565,0.103 c-7.718,0-13.997-6.278-13.997-13.996s6.279-13.997,13.997-13.997c0.504,0,1.031,0.031,1.568,0.093 c1.373,0.149,2.61-0.83,2.767-2.201c0.156-1.372-0.829-2.61-2.201-2.768c-0.724-0.082-1.442-0.124-2.135-0.124 c-10.475,0-18.997,8.522-18.997,18.997s8.522,18.996,18.997,18.996c0.696,0,1.407-0.046,2.174-0.14 C78.566,108.259,79.541,107.012,79.373,105.642z"/><path d="M146.083,156.033c-1.213-0.657-2.732-0.203-3.387,1.014c-2.485,4.608-6.197,8.455-10.735,11.124 c-1.19,0.7-1.587,2.232-0.888,3.423c0.466,0.792,1.301,1.232,2.157,1.232c0.431,0,0.867-0.111,1.266-0.345 c5.325-3.133,9.683-7.649,12.601-13.062C147.752,158.205,147.298,156.688,146.083,156.033z"/><path d="M106.685,169.858c-5.96-2.516-10.946-7.028-14.038-12.708c-0.66-1.213-2.178-1.66-3.391-1 c-1.213,0.66-1.661,2.178-1,3.391c3.631,6.67,9.486,11.97,16.485,14.925c0.317,0.134,0.647,0.197,0.971,0.197 c0.975,0,1.901-0.574,2.304-1.529C108.553,171.862,107.957,170.396,106.685,169.858z"/><path d="M125.107,106H109.18c-4.155,0-7.536,3.381-7.536,7.536v2.964c0,8.547,6.953,15.5,15.5,15.5s15.5-6.953,15.5-15.5 v-2.964C132.644,109.381,129.263,106,125.107,106z M127.644,116.5c0,5.79-4.71,10.5-10.5,10.5s-10.5-4.71-10.5-10.5v-2.964 c0-1.398,1.138-2.536,2.536-2.536h15.927c1.399,0,2.537,1.138,2.537,2.536V116.5z"/><path d="M129.562,114h-24.854c-1.381,0-2.5,1.119-2.5,2.5s1.119,2.5,2.5,2.5h24.854c1.381,0,2.5-1.119,2.5-2.5 S130.943,114,129.562,114z"/><path d="M202.288,40.542c-0.421-1.298-1.521-2.227-2.874-2.424l-3.163-0.46l-1.415-2.865c-0.604-1.225-1.826-1.985-3.19-1.985 c-0.001,0-0.001,0-0.002,0c-1.364,0-2.588,0.76-3.193,1.984l-1.414,2.866l-3.166,0.46c-1.35,0.197-2.45,1.126-2.872,2.424 c-0.421,1.298-0.076,2.695,0.901,3.648l2.289,2.231l-0.54,3.151c-0.23,1.345,0.312,2.679,1.415,3.48 c1.105,0.803,2.54,0.909,3.75,0.272l2.83-1.487l2.831,1.488c0.524,0.275,1.093,0.411,1.658,0.411 c0.735,0,1.466-0.23,2.091-0.685c1.104-0.802,1.646-2.136,1.415-3.48l-0.541-3.151l2.29-2.231 C202.364,43.238,202.71,41.84,202.288,40.542z M195.061,43.375c-0.834,0.817-1.215,1.993-1.019,3.146l0.175,1.021l-0.917-0.482 c-1.037-0.546-2.275-0.546-3.313,0l-0.918,0.482l0.174-1.018c0.2-1.155-0.182-2.334-1.022-3.155l-0.742-0.724l1.022-0.148 c1.159-0.167,2.162-0.895,2.685-1.948l0.458-0.929l0.457,0.927c0.519,1.053,1.521,1.782,2.682,1.949l1.025,0.149 L195.061,43.375z"/><path d="M190.956,9.673c-0.422-1.298-1.522-2.227-2.874-2.424l-5.007-0.728l-2.239-4.536C180.232,0.761,179.01,0,177.646,0 c-0.001,0-0.001,0-0.002,0c-1.364,0-2.588,0.76-3.193,1.984l-2.239,4.537l-5.008,0.728c-1.351,0.197-2.451,1.126-2.872,2.424 c-0.422,1.298-0.076,2.696,0.9,3.648l3.624,3.532L168,21.84c-0.23,1.345,0.312,2.679,1.415,3.48 c1.104,0.804,2.541,0.906,3.75,0.272l4.479-2.354l4.479,2.355c0.524,0.275,1.093,0.411,1.658,0.411 c0.735,0,1.466-0.23,2.09-0.684c1.104-0.803,1.646-2.137,1.416-3.481c0-0.001,0-0.001,0-0.001l-0.855-4.986l3.623-3.531 C191.032,12.368,191.377,10.971,190.956,9.673z M182.397,13.802c-0.837,0.817-1.219,1.994-1.021,3.15l0.49,2.857l-2.566-1.35 c-1.036-0.545-2.274-0.546-3.313,0l-2.566,1.35l0.491-2.86c0.196-1.152-0.187-2.329-1.025-3.148l-2.076-2.023l2.873-0.417 c1.158-0.17,2.158-0.898,2.677-1.947l1.283-2.6l1.283,2.6c0.518,1.049,1.518,1.776,2.68,1.947l2.869,0.417L182.397,13.802z"/><path d="M141.789,95.053l-9.642-9.641c-0.977-0.977-2.558-0.977-3.536,0c-0.976,0.977-0.976,2.56,0,3.535l9.642,9.641 c0.488,0.488,1.128,0.732,1.768,0.732s1.279-0.244,1.768-0.732C142.766,97.611,142.766,96.028,141.789,95.053z"/><path d="M141.789,85.412c-0.977-0.977-2.559-0.977-3.535,0l-9.642,9.641c-0.977,0.976-0.977,2.559,0,3.535 c0.489,0.488,1.128,0.732,1.768,0.732s1.279-0.244,1.768-0.732l9.642-9.641C142.766,87.972,142.766,86.389,141.789,85.412z"/><path d="M105.079,95.053l-9.642-9.641c-0.977-0.977-2.559-0.977-3.536,0c-0.976,0.977-0.976,2.56,0,3.535l9.642,9.641 c0.488,0.488,1.128,0.732,1.768,0.732s1.28-0.244,1.768-0.732C106.055,97.611,106.055,96.028,105.079,95.053z"/><path d="M105.079,85.412c-0.977-0.977-2.56-0.977-3.536,0l-9.642,9.641c-0.977,0.976-0.977,2.559,0,3.535 c0.488,0.488,1.128,0.732,1.768,0.732s1.28-0.244,1.768-0.732l9.642-9.641C106.055,87.972,106.055,86.389,105.079,85.412z"/><path d="M87.274,234.272l-8.903-26.786c-0.36-1.085-1.121-1.964-2.143-2.477c-1.022-0.513-2.181-0.595-3.19-0.259 l-42.572,12.673c-4.689,1.544-8.487,4.827-10.695,9.242c-2.208,4.416-2.555,9.424-0.977,14.102 c2.583,7.661,9.795,12.522,17.453,12.522c1.88,0,3.788-0.294,5.66-0.91l42.658-12.7 C86.803,238.937,88.018,236.51,87.274,234.272z M40.412,247.609c-6.964,2.293-14.535-1.491-16.879-8.439 c-1.149-3.406-0.896-7.053,0.711-10.268s4.373-5.605,7.718-6.708l41.884-12.468l8.447,25.414L40.412,247.609z"/><path d="M202.355,97.54l-2.472-4.158c-1.512-2.543-2.286-5.45-2.24-8.408l0.104-6.787c0.041-2.729-0.437-5.392-1.421-7.916 c-1.042-2.671-2.929-7.728-3.867-11.588c-0.432-1.782-2.088-3.002-3.901-2.902c-2.263,0.121-4.389,1.19-5.833,2.935 c-0.711,0.857-1.23,1.847-1.538,2.897l-6.045-10.051c-0.889-1.494-2.306-2.553-3.99-2.981c-1.685-0.428-3.436-0.175-4.928,0.713 c-0.473,0.281-0.902,0.614-1.282,0.993c-0.862-0.999-2.007-1.71-3.313-2.043c-1.686-0.428-3.435-0.175-4.929,0.713 c-2.746,1.633-3.854,4.984-2.77,7.877c-0.509,0.15-1.007,0.365-1.483,0.647l-0.104,0.062c-1.494,0.889-2.553,2.306-2.981,3.989 c-0.329,1.293-0.257,2.624,0.195,3.849c-0.508,0.163-0.999,0.394-1.463,0.688c-2.847,1.811-3.723,5.705-1.945,8.697 l9.555,15.829c2.22,3.733,5.073,6.986,8.483,9.671l1.953,1.537c2.928,2.305,5.375,5.096,7.277,8.296l2.079,3.497 c0.467,0.786,1.298,1.223,2.15,1.223c0.435,0,0.875-0.113,1.275-0.352c1.188-0.705,1.577-2.239,0.871-3.426l-2.078-3.497 c-2.217-3.729-5.07-6.983-8.482-9.67l-1.954-1.538c-2.925-2.302-5.373-5.093-7.285-8.311l-9.555-15.829 c-0.396-0.666-0.241-1.54,0.338-1.908c0.409-0.26,0.808-0.216,1.009-0.171c0.2,0.048,0.574,0.19,0.82,0.604 c0.706,1.187,2.241,1.575,3.427,0.872c1.187-0.706,1.577-2.24,0.872-3.427c-0.001-0.001-0.002-0.003-0.003-0.004l-2.529-4.257 c-0.425-0.715-0.189-1.641,0.522-2.063l0.104-0.062c0.712-0.423,1.638-0.192,2.064,0.521l0.001,0.003 c0.706,1.188,2.24,1.574,3.427,0.872c1.187-0.706,1.577-2.24,0.872-3.427c-0.002-0.003-0.004-0.006-0.005-0.008l-2.629-4.423 c-0.425-0.714-0.188-1.642,0.525-2.065c0.347-0.206,0.753-0.264,1.142-0.166c0.391,0.1,0.719,0.345,0.924,0.691l2.634,4.431 c0.706,1.187,2.24,1.575,3.427,0.872c1.187-0.706,1.577-2.24,0.872-3.427l-0.002-0.003c-0.204-0.346-0.263-0.75-0.163-1.139 c0.099-0.39,0.344-0.718,0.69-0.923c0.716-0.428,1.642-0.188,2.072,0.535l12.341,20.519c0.646,1.076,1.99,1.505,3.14,1.005 c1.15-0.5,1.752-1.775,1.406-2.981c-0.913-3.189-1.536-6.003-1.853-8.362c-0.116-0.871,0.129-1.724,0.69-2.402 c0.355-0.429,0.805-0.747,1.31-0.937c0.996,3.715,2.578,8.027,3.784,11.119c0.748,1.918,1.111,3.945,1.079,6.023l-0.104,6.787 c-0.06,3.883,0.958,7.7,2.941,11.039l2.472,4.158c0.707,1.188,2.24,1.574,3.427,0.872 C202.67,100.261,203.061,98.727,202.355,97.54z"/><path d="M234.04,142.721c-0.019-0.032-0.037-0.063-0.057-0.095l-27.856-44.217c-0.583-0.982-1.515-1.679-2.623-1.961 c-1.106-0.279-2.258-0.114-3.239,0.469l-24.267,14.423c-2.026,1.206-2.695,3.836-1.453,5.921l22.339,35.299l-33.246,7.758 c-2.275,0.531-4.678,0.51-6.948-0.061c-1.003-0.252-1.985-0.613-2.92-1.073l-9.205-4.539c-3.835-1.892-6.218-5.724-6.218-10 v-6.051c0-1.381-1.119-2.5-2.5-2.5s-2.5,1.119-2.5,2.5v6.051c0,6.194,3.451,11.744,9.007,14.484l9.206,4.54 c1.251,0.615,2.566,1.1,3.911,1.438c3.04,0.764,6.257,0.791,9.304,0.08l36.671-8.557c0.788-0.184,1.438-0.738,1.745-1.487 s0.231-1.601-0.201-2.284l-23.796-37.601l23.021-13.683l27.509,43.669c7.866,13.857,1.744,31.42-12.912,37.454 c-3.846,1.584-5.763,2.169-16.4,5.413c-5.643,1.721-13.72,4.184-25.802,7.929c-2.97,0.921-4.965,3.626-4.965,6.73v47.015 c0,0.67-0.545,1.215-1.215,1.215H66.357c-0.669,0-1.214-0.545-1.214-1.215v-5.41c0-1.381-1.119-2.5-2.5-2.5s-2.5,1.119-2.5,2.5 v5.41c0,3.427,2.788,6.215,6.214,6.215h102.071c3.427,0,6.215-2.788,6.215-6.215v-47.015c0-0.887,0.595-1.69,1.446-1.955 c12.071-3.741,20.141-6.203,25.778-7.922c10.83-3.303,12.781-3.897,16.847-5.572C236.24,180.106,243.4,159.135,234.04,142.721z"/><path d="M99.44,138.521c-1.381,0-2.5,1.119-2.5,2.5v3.625c0,4.276-2.383,8.108-6.218,9.999l-10.608,5.23l-30.428,7.659 c-9.162,2.306-15.066,7.676-17.547,15.961c-0.019,0.062-0.035,0.124-0.048,0.187l-8.251,38.032 c-0.292,1.35,0.564,2.681,1.913,2.974c0.179,0.038,0.357,0.058,0.533,0.058c1.151-0.001,2.187-0.8,2.441-1.971l8.229-37.936 c1.982-6.518,6.546-10.593,13.95-12.455l30.686-7.725c0.171-0.044,0.337-0.104,0.495-0.183l10.846-5.348 c5.556-2.739,9.007-8.289,9.007-14.483v-3.625C101.94,139.64,100.821,138.521,99.44,138.521z"/><path d="M209.224,162.113l-6-9c-0.766-1.148-2.319-1.459-3.467-0.693c-1.148,0.766-1.459,2.318-0.693,3.467l6,9 C206.898,167.641,211.058,164.865,209.224,162.113z"/><path d="M142.699,199.744c-1.008-3.031-4.044-4.826-7.104-4.389c-0.037-0.529-0.141-1.063-0.316-1.591 c-0.548-1.649-1.706-2.986-3.26-3.765c-1.556-0.778-3.319-0.905-4.955-0.361l-17.799,5.812l-2.037-6.731 c-0.221-0.729-0.763-1.318-1.472-1.6c-0.709-0.28-1.507-0.224-2.168,0.157c-1.915,1.103-3.666,2.045-4.798,2.642 c-2.397,1.265-4.502,2.966-6.256,5.055l-4.364,5.199c-1.901,2.266-4.39,3.957-7.197,4.891l-4.962,1.649 c-1.31,0.436-2.02,1.851-1.584,3.16c0.436,1.311,1.852,2.021,3.161,1.584l4.963-1.649c3.686-1.226,6.954-3.446,9.45-6.42 l4.363-5.199c1.336-1.592,2.938-2.886,4.759-3.847c0.595-0.314,1.356-0.721,2.222-1.194l1.123,3.71 c-0.246,0.164-0.496,0.329-0.752,0.497c-1.051,0.685-1.431,2.042-0.89,3.174c0.542,1.131,1.839,1.682,3.031,1.297l22.774-7.437 c0.382-0.127,0.791-0.098,1.15,0.082c0.359,0.181,0.628,0.49,0.755,0.873c0.262,0.788-0.166,1.643-0.955,1.905 c-1.31,0.436-2.019,1.851-1.583,3.161c0.436,1.309,1.849,2.019,3.162,1.583l0.009-0.003l4.881-1.622 c0.789-0.265,1.646,0.166,1.907,0.955c0.127,0.382,0.098,0.79-0.083,1.149c-0.181,0.36-0.49,0.629-0.871,0.756l-4.883,1.622 c-0.004,0.001-0.007,0.003-0.011,0.004c-1.31,0.436-2.019,1.851-1.583,3.16c0.436,1.311,1.853,2.021,3.16,1.584h0.001 c0.789-0.259,1.644,0.168,1.903,0.95l0.039,0.117c0.262,0.788-0.166,1.643-0.954,1.905l-4.697,1.561 c-0.003,0.001-0.005,0.002-0.007,0.003c-1.311,0.436-2.02,1.851-1.584,3.16s1.852,2.021,3.161,1.584 c0.457-0.151,0.833-0.015,1.018,0.081c0.183,0.096,0.511,0.324,0.65,0.789c0.197,0.657-0.258,1.419-0.978,1.658l-17.618,5.724 c-3.532,1.175-7.207,1.683-10.932,1.508l-2.483-0.116c-4.338-0.208-8.623,0.389-12.742,1.758l-4.256,1.415 c-1.311,0.436-2.02,1.851-1.584,3.161c0.349,1.048,1.325,1.712,2.372,1.712c0.262,0,0.527-0.042,0.789-0.129l4.256-1.415 c3.534-1.174,7.211-1.686,10.931-1.508l2.483,0.116c4.337,0.201,8.625-0.389,12.727-1.752l17.617-5.723 c3.288-1.092,5.175-4.611,4.206-7.844c-0.157-0.527-0.378-1.022-0.655-1.479c2.688-1.485,4.028-4.729,3.026-7.742l-0.039-0.117 c-0.175-0.526-0.411-1.015-0.697-1.461c1.161-0.63,2.101-1.597,2.705-2.802C143.121,203.157,143.248,201.394,142.699,199.744z"/><path d="M151.812,223.205l-15.271-50.467c-1.196-3.956-4.45-6.955-8.49-7.826c-2.148-0.464-3.899-2.129-4.57-4.346 l-8.143-26.909c-0.345-1.141-1.114-2.078-2.165-2.641c-1.051-0.563-2.259-0.683-3.398-0.337l-10.349,3.131 c-2.353,0.714-3.689,3.209-2.978,5.564l8.144,26.908c0.671,2.216,0.137,4.572-1.394,6.149c-2.879,2.965-3.924,7.265-2.727,11.22 l4.526,14.959c0.4,1.321,1.795,2.067,3.117,1.668c1.322-0.399,2.069-1.795,1.669-3.117l-4.527-14.958 c-0.671-2.217-0.085-4.627,1.529-6.289c2.795-2.88,3.789-7.126,2.592-11.081l-7.988-26.394l9.318-2.819l7.986,26.393 c1.197,3.956,4.378,6.938,8.302,7.785c2.264,0.489,4.088,2.17,4.759,4.387l15.271,50.468c0.148,0.489,0.097,1.007-0.145,1.458 s-0.645,0.781-1.133,0.93l-22.833,6.909c-1.011,0.306-2.082-0.269-2.388-1.278l-0.976-3.226c-0.4-1.323-1.797-2.071-3.117-1.669 c-1.321,0.399-2.069,1.795-1.669,3.116l0.977,3.227c0.903,2.984,3.654,4.912,6.623,4.912c0.662,0,1.334-0.096,1.999-0.297 l22.833-6.909c1.768-0.535,3.222-1.728,4.093-3.355C152.163,226.842,152.349,224.972,151.812,223.205z"/><path d="M149.217,216.65c-0.399-1.323-1.798-2.071-3.116-1.669l-10.706,3.239c-1.322,0.399-2.069,1.795-1.669,3.116 c0.326,1.081,1.318,1.777,2.392,1.777c0.24,0,0.483-0.035,0.725-0.108l10.706-3.239 C148.87,219.367,149.617,217.972,149.217,216.65z"/><path d="M137.53,178.945c-0.399-1.323-1.799-2.07-3.116-1.669l-29.577,8.95c-1.321,0.399-2.069,1.795-1.669,3.116 c0.327,1.081,1.319,1.777,2.392,1.777c0.24,0,0.484-0.035,0.725-0.108l29.576-8.95 C137.184,181.662,137.931,180.267,137.53,178.945z"/></g></svg>