<svg xmlns="http://www.w3.org/2000/svg"  viewBox="0 0 100 100" width="100px" height="100px"><path d="M34.291,94.754c-12.544,0-22.749-10.293-22.749-22.944c0-7.533,3.096-14.45,8.081-18.053	c2.399-1.733,5.192-2.69,8.105-2.78c0.194-2.405,0.329-5.084,0.352-7.971c-5.812,3.266-11.98,3.588-14.162,3.588	c-0.436,0-0.707-0.012-0.778-0.015c-3.544-0.17-6.445-2.938-6.777-6.442c-0.832-8.751,1.21-15.899,6.07-21.243	c7.487-8.233,18.538-8.471,19.774-8.471h0.752l0.152,0.042c0.303,0.031,0.602,0.082,0.895,0.152	c10.269,2.418,20.409,8.213,30.194,17.25c1.962-1.579,4.289-2.615,6.869-3.025c0.801-0.127,1.631-0.191,2.47-0.191	c5.416,0,11.328,2.679,15.815,7.166c8.868,8.869,8.859,23.305-0.018,32.182c-4.299,4.299-10.012,6.669-16.089,6.674	c-6.091,0-11.8-2.364-16.092-6.656c-0.775-0.775-1.493-1.589-2.152-2.431c1.313,3.056,2.038,6.567,2.038,10.224	C57.041,84.462,46.836,94.754,34.291,94.754z M42.005,51.052c2.503,0.267,4.889,1.184,6.974,2.691	c1.063,0.768,2.039,1.688,2.918,2.734c-1.611-3.562-2.239-7.313-1.693-10.748c0.479-3.015,1.808-5.685,3.854-7.834	c-4.155-3.777-8.323-6.823-12.478-9.121C42.535,37.045,42.468,44.697,42.005,51.052z" opacity=".35"/><path fill="#f2f2f2" d="M32.101,92.564c-12.544,0-22.749-10.293-22.749-22.944c0-7.533,3.096-14.45,8.081-18.053	c2.399-1.733,5.192-2.69,8.105-2.78c0.194-2.405,0.329-5.084,0.352-7.971c-5.812,3.266-11.98,3.588-14.162,3.588	c-0.436,0-0.707-0.012-0.778-0.015c-3.544-0.17-6.445-2.938-6.777-6.442c-0.832-8.751,1.21-15.899,6.07-21.243	c7.487-8.233,18.538-8.471,19.774-8.471h0.752l0.152,0.042c0.303,0.031,0.602,0.082,0.895,0.152	c10.269,2.418,20.409,8.213,30.194,17.25c1.962-1.579,4.289-2.615,6.869-3.025c0.801-0.127,1.631-0.191,2.47-0.191	c5.416,0,11.328,2.679,15.815,7.166c8.868,8.869,8.859,23.305-0.018,32.182c-4.299,4.299-10.012,6.669-16.089,6.674	c-6.091,0-11.8-2.364-16.092-6.656c-0.775-0.775-1.493-1.589-2.152-2.431c1.313,3.056,2.038,6.567,2.038,10.224	C54.851,82.271,44.645,92.564,32.101,92.564z M39.814,48.862c2.503,0.267,4.889,1.184,6.974,2.691	c1.063,0.768,2.039,1.688,2.918,2.734c-1.611-3.562-2.239-7.313-1.693-10.748c0.479-3.015,1.808-5.685,3.854-7.834	c-4.155-3.777-8.323-6.823-12.478-9.121C40.344,34.855,40.277,42.506,39.814,48.862z"/><path fill="#d84178" d="M47.73,69.838c0,8.63-6.998,15.627-15.63,15.627s-15.63-6.996-15.63-15.627 c0-7.628,4.578-15.62,12.413-13.062c2.117,0.691,4.397,0.688,6.513-0.003C43.203,54.223,47.73,62.213,47.73,69.838z"/><path fill="#d84178" d="M82.106,34.694c6.104,6.104,6.104,16,0,22.103c-6.104,6.104-16,6.104-22.103,0 c-5.394-5.394-7.811-14.284-0.461-18.015c1.986-1.008,3.596-2.622,4.604-4.608C67.862,26.852,76.713,29.302,82.106,34.694z"/><path fill="#96c362" d="M30.017,15.354c0,0-20.839,0-18.755,21.922C11.261,37.276,33.143,38.32,30.017,15.354z"/><path fill="none" stroke="#40396e" stroke-linecap="round" stroke-linejoin="round" stroke-miterlimit="10" stroke-width="3" d="M47.73,69.62c0,8.739-6.998,15.824-15.63,15.824s-15.63-7.085-15.63-15.824c0-7.724,4.578-15.817,12.413-13.227 c2.117,0.7,4.397,0.697,6.513-0.003C43.203,53.808,47.73,61.899,47.73,69.62z"/><path fill="none" stroke="#40396e" stroke-linecap="round" stroke-linejoin="round" stroke-miterlimit="10" stroke-width="3" d="M82.129,34.663c6.101,6.101,6.094,16.001-0.017,22.112c-6.111,6.111-16.011,6.119-22.112,0.017 c-5.392-5.392-7.802-14.284-0.447-18.022c1.987-1.01,3.599-2.626,4.609-4.613C67.885,26.829,76.739,29.272,82.129,34.663z"/><path fill="none" stroke="#40396e" stroke-linecap="round" stroke-linejoin="round" stroke-miterlimit="10" stroke-width="3" d="M31.771,56.91c1.169-7.793,2.66-24.246-1.605-41.556C45.4,18.941,56.91,30.312,62.511,36.208"/><polygon fill="#739f4d" points="11.782,36.758 29.496,15.918 30.538,23.212 27.412,30.506 20.118,35.716 12.824,37.8"/><path fill="none" stroke="#40396e" stroke-linecap="round" stroke-linejoin="round" stroke-miterlimit="10" stroke-width="3" d="M30.017,15.354c0,0-20.839,0-18.755,21.922C11.261,37.276,33.143,38.32,30.017,15.354z"/><path fill="#f4a3be" d="M27.774,67.418c-0.707,1.705-2.364,2.579-3.701,1.952c-1.336-0.627-1.846-2.517-1.139-4.221 c0.707-1.705,2.364-2.579,3.701-1.952S28.481,65.713,27.774,67.418z"/><path fill="#f4a3be" d="M65.07,45.704c0.649,1.75,0.068,3.557-1.297,4.036c-1.366,0.479-2.999-0.552-3.648-2.302 c-0.649-1.75-0.068-3.557,1.297-4.036C62.788,42.924,64.421,43.954,65.07,45.704z"/></svg>