<svg xmlns="http://www.w3.org/2000/svg"  viewBox="0 0 100 100" width="100px" height="100px"><path d="M53.9,96c-1.9,0-3.3-0.8-4.3-1.3c-2.3-1.4-4.4-2.4-6.3-3.1c-6.1-2-8.1-2.8-9.3-3.4	c-14.5-6.8-22.2-18.8-22.2-34.6c0-10.8,4.2-20.5,11.5-26.9c-1.8-3.1-3.2-6.8-3.9-11c-0.5-3,1-5.9,3.8-7.1c4.8-2.1,9.3-3.2,13.5-3.2	c3.4,0,6.7,0.7,9.6,2.1c2.2,1.1,4.3,2.6,6.1,4.4C56,6.9,60.9,4,61.7,3.5c1-0.6,2.1-0.9,3.3-0.9c2.3,0,4.4,1.2,5.6,3.2	c1.8,3.1,0.8,7.1-2.3,8.9c-1.2,0.7-3.4,2.4-5.1,4.5C80.4,20,92.3,33.3,92.3,52.2c0,16.4-7.2,28.2-22.1,35.8L70,88.1	c-2.3,1.1-4.6,2.1-6.7,2.9l-0.8,0.4c-0.7,0.3-1.5,0.7-2.1,0.9C59,94.6,56.6,96,53.9,96z" opacity=".35"/><path fill="#f2f2f2" d="M51.9,94c-1.9,0-3.3-0.8-4.3-1.3c-2.3-1.4-4.4-2.4-6.3-3.1c-6.1-2-8.1-2.8-9.3-3.4C17.4,79.4,9.7,67.4,9.7,51.7	c0-10.8,4.2-20.5,11.5-26.9c-1.8-3.1-3.2-6.8-3.9-11c-0.5-3,1-5.9,3.8-7.1c4.8-2.1,9.3-3.2,13.5-3.2c3.4,0,6.7,0.7,9.6,2.1	c2.2,1.1,4.3,2.6,6.1,4.4C54,4.9,58.9,2,59.7,1.5c1-0.6,2.1-0.9,3.3-0.9c2.3,0,4.4,1.2,5.6,3.2c1.8,3.1,0.8,7.1-2.3,8.9	c-1.2,0.7-3.4,2.4-5.1,4.5C78.4,18,90.3,31.3,90.3,50.2c0,16.4-7.2,28.2-22.1,35.8L68,86.1c-2.3,1.1-4.6,2.1-6.7,2.9l-0.8,0.4	c-0.7,0.3-1.5,0.7-2.1,0.9C57,92.6,54.6,94,51.9,94z"/><path fill="#ff7575" d="M59.6,23.7c-0.4,0-0.9,0-1.3,0c-1.6,0.2-3.4,0.6-5.4,1.3c-3.6-0.7-8.1-1.3-12.1-1.3c-12,0-24.6,10.5-24.6,28	c0,13.3,6.2,22.9,18.6,28.7c1.2,0.6,5,1.9,8.5,3c2.7,0.9,5.3,2.2,7.7,3.7c0.4,0.2,0.7,0.4,0.9,0.4c0.6,0,0.9-0.4,1.1-0.9	c0.8-1.5,2.8-2.3,5.8-3.6c1.9-0.8,3.9-1.7,6.4-2.8c13.5-6.9,18.6-17.1,18.6-30C83.8,34.4,74,23.7,59.6,23.7z"/><path fill="#40396e" d="M51,24.8c-1.6-11.4,10.7-18.7,11.2-19c0.7-0.4,1.6-0.2,2.1,0.5c0.4,0.7,0.2,1.6-0.5,2.1	c-0.1,0.1-11.1,6.6-9.8,16c0.1,0.8-0.5,1.6-1.3,1.7c-0.1,0-0.1,0-0.2,0C51.7,26.1,51.1,25.6,51,24.8z"/><path fill="#739f4d" d="M50,24.8c0,0-3.5-21.7-25-11.5C29,35.6,50,24.8,50,24.8z"/><path fill="#96c362" d="M50,24.8c0,0-3.5-21.7-25-11.5c0,0,0,0.1,0,0.1L50,24.8C50.5,24.5,50,24.8,50,24.8z"/><path fill="none" stroke="#40396e" stroke-linecap="round" stroke-linejoin="round" stroke-miterlimit="10" stroke-width="3" d="M59.6,23.7c-0.4,0-0.9,0-1.3,0c-1.6,0.2-3.4,0.6-5.4,1.3c-0.5-0.1-1.1-0.2-1.7-0.3	c-1.4-5.3-7.5-20.9-27.5-12.1c1.3,6.9,4,11.1,7.3,13.4c-8.2,4-14.7,13-14.7,25.6c0,13.3,6.2,22.9,18.6,28.7c1.2,0.6,5,1.9,8.5,3	c2.7,0.9,5.3,2.2,7.7,3.7c0.4,0.2,0.7,0.4,0.9,0.4c0.6,0,0.9-0.4,1.1-0.9c0.8-1.5,2.8-2.3,5.8-3.6c1.9-0.8,3.9-1.7,6.4-2.8	c13.5-6.9,18.6-17.1,18.6-30C83.8,34.4,74,23.7,59.6,23.7z"/><path fill="none" stroke="#40396e" stroke-linecap="round" stroke-linejoin="round" stroke-miterlimit="10" stroke-width="3" d="M37.5,59.4c-0.4-2-0.6-4-0.6-6.1c0-12.5,6.9-23.3,17.1-28.8" opacity=".35"/></svg>