<svg xmlns="http://www.w3.org/2000/svg"  viewBox="0 0 100 100" width="100px" height="100px"><path d="M43.5,97c-3.6,0-6.5-2.9-6.5-6.5v-9.3c-1.9-0.9-3.6-2-5.3-3.5c-4.2-0.7-8.3-2.6-11.4-5.6	c-8.6-8.1-11-19.5-6.2-29.7c0.3-0.7,0.7-1.3,1.2-1.8c0.3-5.9,2.9-11.7,7.2-16.2c0.7-0.8,1.6-1.4,2.5-1.8c1.5-2.8,3.4-5.3,5.7-7.5	c2.4-2.3,5.6-3.5,8.9-3.5c0.2,0,0.3,0,0.5,0c0.9-0.8,1.8-1.6,2.8-2.3c2.6-1.9,5.8-2.9,9.1-2.9c3.3,0,6.5,1,9.1,2.9	c0.9,0.7,1.8,1.4,2.7,2.2c3,0,5.9,1,8.2,2.9c2.7,2.2,5,4.9,6.7,8c1,0.4,2,1.1,2.8,1.9c4.3,4.4,6.8,10.2,7.2,16.1	c0.5,0.5,0.9,1.1,1.2,1.8c4.9,10.3,2.5,21.7-6.2,29.8c-3,2.8-7,4.8-11.1,5.5c-1.7,1.5-3.5,2.8-5.5,3.7v9.3c0,3.6-2.9,6.5-6.5,6.5	H43.5z" opacity=".35"/><path fill="#f2f2f2" d="M41.5,95c-3.6,0-6.5-2.9-6.5-6.5v-9.3c-1.9-0.9-3.6-2-5.3-3.5c-4.2-0.7-8.3-2.6-11.4-5.6	c-8.6-8.1-11-19.5-6.2-29.7c0.3-0.7,0.7-1.3,1.2-1.8c0.3-5.9,2.9-11.7,7.2-16.2c0.7-0.8,1.6-1.4,2.5-1.8c1.5-2.8,3.4-5.3,5.7-7.5	c2.4-2.3,5.6-3.5,8.9-3.5c0.2,0,0.3,0,0.5,0C39.1,8.8,40,8.1,41,7.4c2.6-1.9,5.8-2.9,9.1-2.9c3.3,0,6.5,1,9.1,2.9	C60,8,60.9,8.8,61.8,9.6c3,0,5.9,1,8.2,2.9c2.7,2.2,5,4.9,6.7,8c1,0.4,2,1.1,2.8,1.9c4.3,4.4,6.8,10.2,7.2,16.1	c0.5,0.5,0.9,1.1,1.2,1.8c4.9,10.3,2.5,21.7-6.2,29.8c-3,2.8-7,4.8-11.1,5.5c-1.7,1.5-3.5,2.8-5.5,3.7v9.3c0,3.6-2.9,6.5-6.5,6.5	H41.5z"/><path fill="#96c362" d="M81.9,43.1c-0.4-0.9-1.4-0.4-2,0c1-5.9-1-11.8-5.1-16.1c-0.7-0.7-1.7-0.8-2.5-0.4c-1.3-3.5-3.6-6.6-6.4-9	c-1.8-1.5-4.3-1.8-6.5-1c-1.2-1.5-2.6-2.8-4.2-3.9c-3.1-2.3-7.3-2.3-10.4,0c-1.6,1.2-3.1,2.6-4.4,4.2c-0.1,0-0.1,0-0.2-0.1	c-2.4-1-5.2-0.5-7.1,1.2c-2.6,2.4-4.5,5.3-5.6,8.6c-0.8-0.4-1.7-0.2-2.4,0.4C21,31.3,19,37.3,20.1,43.2c-0.6-0.4-1.7-0.9-2.1,0	c-3.2,6.8-2.3,15.5,4.8,22.2c2.2,2.1,5,3.4,8,3.9c0.6,0.1,1.3,0.2,1.9,0.2c2.3,2.6,5.4,4.5,8.8,4.8v14.2h17V74.3	c3.5-0.3,6.6-2.3,9-5c0.5,0,1.1-0.1,1.6-0.2c3-0.5,5.9-1.8,8.1-3.9C84.3,58.6,85.2,49.9,81.9,43.1z"/><path fill="#40396e" d="M83.3,42.4c-0.3-0.7-0.9-1.1-1.6-1.3c0,0,0,0-0.1,0c0.3-5.5-1.8-11-5.8-15.2c-0.7-0.7-1.7-1.1-2.6-1.1	c-1.4-3.3-3.6-6.2-6.4-8.4c-1.9-1.6-4.5-2.1-6.9-1.6c-1.1-1.3-2.4-2.4-3.8-3.4c-3.6-2.6-8.6-2.6-12.2,0c-1.4,1.1-2.8,2.3-4,3.6	c-2.7-0.8-5.6-0.1-7.8,1.8c-2.4,2.2-4.3,5-5.6,8c-0.9,0-1.8,0.4-2.5,1.1c-4.1,4.2-6.2,9.8-5.8,15.4c0,0-0.1,0-0.1,0	c-0.7,0.2-1.3,0.6-1.6,1.3c-3.8,8.2-1.9,17.4,5.1,23.9c2.4,2.3,5.6,3.8,8.8,4.3c0.5,0.1,0.9,0.1,1.4,0.2c2.8,2.9,6.4,4.9,10.7,4.9	c1.1,0,2.2-0.1,3.2-0.3c1.7-0.3,3.2-1.3,4.2-2.6c1.1,1.4,2.6,2.3,4.3,2.6c1,0.2,2,0.3,3,0.3c4.3,0,8.1-2.1,10.9-5.1	c0.4,0,0.7-0.1,1.1-0.1c3.3-0.5,6.5-2,8.9-4.3C85.3,59.8,87.2,50.7,83.3,42.4z M78.5,42.2c-0.9,0.7-1.9,1.7-3.2,2.8	c-0.1-1-0.3-2-0.6-3c-0.8-3.1-2.2-6-4.2-8.5c-0.3-0.4-0.8-0.8-1.2-1.1c0.9-1.7,2.1-3.2,3.6-4.5c0.2-0.1,0.5-0.1,0.7,0.1	C77.5,31.9,79.2,37.2,78.5,42.2z M70.2,56.9c-0.8-0.4-1.6-0.7-2.5-0.7h0c-0.7,0-1.4,0-2.1,0.1c-1.3-4.5-3.8-8.6-7.2-11.8	c1.2-3.7,3.5-7,6.5-9.5c0.5-0.4,1.1-0.6,1.7-0.5c0.6,0.1,1.2,0.4,1.6,0.9c1.7,2.2,3,4.6,3.7,7.4C73.1,47.5,72.5,52.6,70.2,56.9z M50,63.9c-0.1-0.2-0.3-0.4-0.4-0.5c-3.4-3.4-7.6-5.7-12.2-6.7c1.4-4.7,4.3-8.8,8.3-11.7c2.5-1.9,6.1-1.9,8.6,0	c4,2.9,6.9,7,8.3,11.7c-4.5,1-8.7,3.2-12,6.5C50.4,63.5,50.2,63.7,50,63.9z M29.8,56.9c-2.3-4.3-2.9-9.4-1.7-14.1	c0.7-2.7,1.9-5.2,3.7-7.4c0.8-1,2.3-1.2,3.3-0.4c3.1,2.5,5.4,5.8,6.6,9.5c-3.4,3.2-5.9,7.3-7.2,11.8c-0.7-0.1-1.4-0.1-2.1-0.1h0	C31.4,56.2,30.5,56.5,29.8,56.9z M47.7,25.5c1.5-0.8,3.2-0.8,4.7,0c3.8,2.1,6.8,5.3,8.6,9.2c-2.2,2.2-3.9,4.9-5,7.8	c-3.5-2.5-8.3-2.5-11.9,0c-1.1-2.9-2.8-5.6-5-7.8C40.9,30.8,43.9,27.5,47.7,25.5z M64.9,18.7c2.4,2,4.3,4.5,5.6,7.4	c-1.7,1.6-3,3.4-4.1,5.4c-1.1,0-2.3,0.3-3.2,1c-2.1-4.1-5.4-7.5-9.5-9.7c-0.1-0.1-0.2-0.1-0.3-0.1c1.7-1.9,3.7-3.4,5.9-4.6	C61.2,17.2,63.4,17.4,64.9,18.7z M45.7,13.8c2.5-1.9,6.1-1.9,8.6,0c0.9,0.7,1.8,1.4,2.6,2.3c-2.6,1.5-4.9,3.5-6.7,5.8	c-0.2,0-0.5,0-0.7,0c-1.8-2.3-4.1-4.2-6.7-5.6C43.8,15.4,44.7,14.5,45.7,13.8z M34.3,19c1.5-1.4,3.7-1.7,5.4-1	c2.5,1.1,4.8,2.7,6.7,4.7c0,0-0.1,0-0.1,0.1c-4.1,2.2-7.4,5.6-9.5,9.7c-1-0.7-2.1-1.1-3.2-1c-1-2.1-2.4-3.9-4.2-5.5	C30.5,23.4,32.2,21,34.3,19z M26.3,28c0.2-0.2,0.6-0.2,0.7-0.1c1.5,1.3,2.7,2.8,3.6,4.5c-0.4,0.3-0.9,0.6-1.2,1.1	c-2,2.5-3.4,5.4-4.2,8.5c-0.3,1-0.5,2.1-0.6,3.2c-1.2-1.1-2.3-2.1-3.1-2.8C20.7,37.3,22.5,31.9,26.3,28z M23.8,64.3	c-7-6.5-7-14.5-4.7-19.9c0.1,0.1,0.2,0.1,0.3,0.2c0.9,0.8,2.3,2,3.8,3.4l1.3,1.2c0.2,3.5,1.3,7,3.1,10.1c-0.5,1.1-0.6,2.3-0.3,3.5	c0.4,1.6,1.1,3.3,2.1,4.8C27.3,66.9,25.4,65.8,23.8,64.3z M45.3,72.6c-0.8,0.2-1.7,0.3-2.6,0.3c-6.2,0-11-5.5-12.5-11	c-0.2-0.6,0-1.3,0.4-1.8c0.4-0.6,1.1-0.9,1.7-0.9h0c5.7,0,11.1,2.2,15.1,6.3c0.6,0.6,0.9,1.3,1.1,2c-0.1,0.6-0.1,1.2,0,1.7	c0,0.1-0.1,0.3-0.1,0.4C48,71.2,46.8,72.3,45.3,72.6z M57.4,72.9c-0.8,0-1.6-0.1-2.4-0.2c-1.5-0.3-2.8-1.4-3.2-3	c0-0.2-0.1-0.3-0.1-0.5c0.1-0.6,0.1-1.2,0-1.7c0.2-0.8,0.5-1.6,1.2-2.2c4-4,9.3-6.2,14.9-6.2h0c0.7,0,1.3,0.3,1.7,0.9	c0.4,0.5,0.5,1.2,0.4,1.8C68.3,67.4,63.6,72.9,57.4,72.9z M76.2,64.2c-1.5,1.4-3.4,2.5-5.4,3.1c0.9-1.5,1.5-3,1.9-4.6	c0.3-1.2,0.2-2.4-0.3-3.5c1.8-3.2,2.9-6.7,3.1-10.3l1.2-1.1c1.6-1.4,2.9-2.6,3.8-3.3c0.1-0.1,0.2-0.1,0.3-0.2	C83.2,49.7,83.2,57.7,76.2,64.2z" opacity=".35"/><path fill="none" stroke="#40396e" stroke-linecap="round" stroke-linejoin="round" stroke-miterlimit="10" stroke-width="3" d="M81.9,43.1c-0.4-0.9-1.4-0.4-2,0c1-5.9-1-11.8-5.1-16.1c-0.7-0.7-1.7-0.8-2.5-0.4c-1.3-3.5-3.6-6.6-6.4-9	c-1.8-1.5-4.3-1.8-6.5-1c-1.2-1.5-2.6-2.8-4.2-3.9c-3.1-2.3-7.3-2.3-10.4,0c-1.6,1.2-3.1,2.6-4.4,4.2c-0.1,0-0.1,0-0.2-0.1	c-2.4-1-5.2-0.5-7.1,1.2c-2.6,2.4-4.5,5.3-5.6,8.6c-0.8-0.4-1.7-0.2-2.4,0.4C21,31.3,19,37.3,20.1,43.2c-0.6-0.4-1.7-0.9-2.1,0	c-3.2,6.8-2.3,15.5,4.8,22.2c2.2,2.1,5,3.4,8,3.9c0.6,0.1,1.3,0.2,1.9,0.2c2.3,2.6,5.4,4.5,8.8,4.8v14.2h17V74.3	c3.5-0.3,6.6-2.3,9-5c0.5,0,1.1-0.1,1.6-0.2c3-0.5,5.9-1.8,8.1-3.9C84.3,58.6,85.2,49.9,81.9,43.1z"/></svg>