<svg xmlns="http://www.w3.org/2000/svg"  viewBox="0 0 100 100" width="100px" height="100px"><g id="Слой_2"><path d="M97.391,51.891c0-3.52-1.932-6.634-5.173-8.535C91.057,41.265,87,41,86.608,38.564 c0.239-0.403,0.45-0.822,0.63-1.255C89.601,35.35,91,32.516,91,29.5c0-0.382-0.021-0.76-0.064-1.134 c0.92-1.547,1.538-3.222,1.816-4.948c0.615-3.821-0.513-7.493-3.095-10.075c-2.101-2.101-4.96-3.258-8.051-3.258 c-2.406,0-4.81,0.69-6.974,1.979C74.259,12.021,73.881,12,73.5,12c-3.648,0-6.974,2.046-8.863,5.281 c-0.008,0.005-0.016,0.009-0.024,0.013C63.57,15.037,60.953,18.084,59,17c-1.901-3.241-3.98-10-7.5-10 c-1.865,0-3.65,0.557-5.196,1.585c-0.959-0.178-1.919-0.269-2.859-0.269c-5.019,0-9.185,2.571-10.872,6.711 c-1.388,3.406-0.821,7.353,1.515,10.587c-0.052,0.81,0.002,1.628,0.165,2.44c0.446,2.228,1.667,4.171,3.461,5.586 c0.146,0.376,0.314,0.738,0.505,1.088c-1.657,1.078-3.161,2.398-4.453,3.93l-0.08,0.094c-0.088,0.104-0.171,0.212-0.25,0.323 l-0.071,0.1L6.702,76.64c-2.262,2.994-2.667,6.933-1.052,10.31c1.662,3.478,5.203,5.725,9.019,5.725 c1.645,0,3.227-0.397,4.704-1.18c0.021-0.011,0.042-0.022,0.062-0.034L59.242,69.62C62.353,67.88,66.209,62.865,68,60 c1.07,1.4,1.12,5.041,2.745,5.673c1.417,1.795,3.362,3.018,5.592,3.464c0.599,0.12,1.212,0.181,1.823,0.181 c0.208,0,0.416-0.007,0.622-0.02c2.043,1.482,4.352,2.274,6.716,2.274c1.338,0,2.639-0.254,3.867-0.755 c3.447-1.405,5.89-4.631,6.534-8.63c0.261-1.622,0.224-3.364-0.095-5.098C96.833,55.543,97.391,53.757,97.391,51.891z" opacity=".35"/><path fill="#f2f2f2" d="M95.391,49.891c0-3.52-1.932-6.634-5.173-8.535c-1.161-2.091-3.12-3.757-5.609-4.791 c0.239-0.403,0.45-0.822,0.63-1.255C87.601,33.35,89,30.516,89,27.5c0-0.382-0.021-0.76-0.064-1.134 c0.92-1.547,1.538-3.222,1.816-4.948c0.615-3.821-0.513-7.493-3.095-10.075c-2.101-2.101-4.96-3.258-8.051-3.258 c-2.406,0-4.81,0.69-6.974,1.979C72.259,10.021,71.881,10,71.5,10c-3.648,0-6.974,2.046-8.863,5.281 c-0.008,0.005-0.016,0.009-0.024,0.013c-1.043-2.258-2.625-4.038-4.578-5.122C56.134,6.932,53.02,5,49.5,5 c-1.865,0-3.65,0.557-5.196,1.585c-0.959-0.178-1.919-0.269-2.859-0.269c-5.019,0-9.185,2.571-10.872,6.711 c-1.388,3.406-0.821,7.353,1.515,10.587c-0.052,0.81,0.002,1.628,0.165,2.44c0.446,2.228,1.667,4.171,3.461,5.586 c0.146,0.376,0.314,0.738,0.505,1.088c-1.657,1.078-3.161,2.398-4.453,3.93l-0.08,0.094c-0.088,0.104-0.171,0.212-0.25,0.323 l-0.071,0.1L4.702,74.64c-2.262,2.994-2.667,6.933-1.052,10.31c1.662,3.478,5.203,5.725,9.019,5.725 c1.645,0,3.227-0.397,4.704-1.18c0.021-0.011,0.042-0.022,0.062-0.034L57.242,67.62c3.112-1.739,5.631-4.178,7.422-7.043 c1.07,1.4,2.457,2.464,4.082,3.097c1.417,1.795,3.362,3.018,5.592,3.464c0.599,0.12,1.212,0.181,1.823,0.181 c0.208,0,0.416-0.007,0.622-0.02c2.043,1.482,4.352,2.274,6.716,2.274c1.338,0,2.639-0.254,3.867-0.755 c3.447-1.405,5.89-4.631,6.534-8.63c0.261-1.622,0.224-3.364-0.095-5.098C94.833,53.543,95.391,51.757,95.391,49.891z"/><path fill="#40396e" d="M89.391,50.891c0-2.189-1.588-3.967-4.085-4.864c-0.494-2.449-3.083-4.232-6.643-4.576 c-0.12-0.458-0.315-0.894-0.585-1.3c-0.577-0.866-1.418-1.475-2.446-1.788c0.097-0.235,0.176-0.477,0.235-0.726 c2.202-0.708,3.795-2.387,4.086-4.452C81.795,32.225,83,30.503,83,28.5c0-0.758-0.172-1.481-0.492-2.14 c1.224-1.394,2.036-3.053,2.307-4.737c0.357-2.217-0.26-4.311-1.694-5.745c-1.157-1.157-2.76-1.794-4.515-1.794 c-2.077,0-4.218,0.87-5.966,2.407C71.981,16.172,71.258,16,70.5,16c-2.374,0-4.352,1.692-5.137,4.133 c-1.509,0.361-2.775,1.431-3.548,2.914c-0.492,0.069-0.962,0.212-1.402,0.42c-0.308-0.449-0.699-0.838-1.173-1.154 c-0.397-0.264-0.835-0.46-1.3-0.581c-0.342-3.562-2.126-6.153-4.576-6.647C52.467,12.588,50.689,11,48.5,11 c-1.534,0-2.879,0.786-3.855,2.152c-1.381-0.547-2.831-0.836-4.2-0.836c-2.99,0-5.324,1.345-6.242,3.598 c-0.752,1.845-0.391,3.975,0.991,5.844c0.383,0.518,0.839,1.008,1.354,1.46c-0.445,0.898-0.59,1.869-0.393,2.853 c0.307,1.533,1.355,2.71,2.922,3.393c0.011,0.202,0.037,0.404,0.078,0.607c0.446,2.226,2.448,3.705,5.332,4.011 c0.239,0.509,0.573,0.963,0.993,1.356c-4.219,0.236-8.149,2.189-10.891,5.441l-0.079,0.094l-0.071,0.1L7.728,78.606 c-1.163,1.505-1.382,3.482-0.567,5.187c0.837,1.75,2.606,2.881,4.508,2.881c0.819,0,1.614-0.201,2.361-0.597l39.807-21.841 c5.593-3.127,8.547-9.28,7.785-15.362c0.593,0.041,1.145,0.111,1.627,0.191c0.074,2.766,1.194,4.949,3.055,5.833 c0.305,2.817,1.768,4.886,4.015,5.336c0.198,0.04,0.399,0.065,0.601,0.076c0.679,1.557,1.853,2.614,3.399,2.924 c0.276,0.055,0.559,0.083,0.84,0.083c0.704,0,1.383-0.163,2.02-0.477c1.509,1.707,3.419,2.731,5.317,2.731 c0.687,0,1.353-0.129,1.98-0.385c1.845-0.752,3.116-2.5,3.485-4.795c0.283-1.755,0.026-3.756-0.724-5.648 C88.605,53.77,89.391,52.425,89.391,50.891z"/><path fill="#739f4d" d="M56.885,30.358c1.531-2.298,1.841-4.782,0.692-5.547c-0.711-0.474-1.815-0.175-2.916,0.664 C54.87,24.742,55,23.905,55,23c0-2.761-1.119-5-2.5-5c-0.566,0-1.082,0.39-1.501,1.025C50.999,19.016,51,19.008,51,19 c0-2.761-1.119-5-2.5-5c-1.12,0-2.056,1.482-2.375,3.512c-0.673-0.601-1.52-1.137-2.499-1.536c-2.941-1.199-5.916-0.72-6.646,1.07 c-0.73,1.79,1.063,4.213,4.003,5.412c0.197,0.08,0.392,0.134,0.588,0.199c-1.644,0.725-2.676,1.824-2.475,2.825 c0.247,1.236,2.285,1.88,4.697,1.573c-1.178,0.697-1.864,1.596-1.697,2.427c0.271,1.354,2.686,2.012,5.394,1.469 c0.077-0.015,0.146-0.039,0.222-0.056c-0.482,0.511-0.721,1.062-0.616,1.587c0.271,1.354,2.686,2.012,5.394,1.469 c0.352-0.071,2.106,6.648,0.178,10.356l2.662,1.385C57.963,40.631,56.433,31.036,56.885,30.358z"/><path fill="#739f4d" d="M54.698,44.06l1.385,2.662c3.708-1.928,10.427-0.174,10.356,0.178c-0.542,2.708,0.116,5.122,1.469,5.394 c0.525,0.105,1.076-0.134,1.587-0.616c-0.017,0.076-0.041,0.145-0.056,0.222c-0.542,2.708,0.116,5.122,1.469,5.394 c0.832,0.167,1.73-0.52,2.427-1.697c-0.307,2.412,0.337,4.45,1.573,4.697c1.001,0.201,2.1-0.831,2.825-2.475 c0.065,0.196,0.119,0.392,0.199,0.588c1.199,2.941,3.622,4.733,5.412,4.003c1.79-0.73,2.269-3.705,1.07-6.646 c-0.399-0.978-0.934-1.825-1.536-2.499c2.029-0.318,3.512-1.255,3.512-2.375c0-1.381-2.239-2.5-5-2.5 c-0.008,0-0.016,0.001-0.025,0.001c0.634-0.419,1.025-0.935,1.025-1.501c0-1.381-2.239-2.5-5-2.5c-0.905,0-1.742,0.13-2.475,0.34 c0.839-1.101,1.138-2.205,0.664-2.916c-0.766-1.149-3.249-0.839-5.547,0.692C69.355,42.958,59.76,41.428,54.698,44.06z"/><path fill="#96c362" d="M77.834,26.19c0.728-0.337,1.442-0.809,2.081-1.447C82.076,22.581,82.562,19.562,81,18 c-1.562-1.562-4.581-1.076-6.743,1.086c-0.638,0.638-1.111,1.353-1.448,2.081C72.435,19.896,71.543,19,70.5,19 c-1.381,0-2.5,1.567-2.5,3.5c0,0.542,0.096,1.05,0.253,1.508C67.802,23.386,67.183,23,66.5,23c-1.381,0-2.5,1.567-2.5,3.5 c0,0.081,0.013,0.156,0.017,0.235C63.595,26.281,63.073,26,62.5,26c-1.381,0-2.5,1.567-2.5,3.5c0,0.185,0.019,0.362,0.039,0.539 L60,30c0.021,0.062,0.032,0.127,0.05,0.19c0.029,0.201,0.074,0.393,0.126,0.58c0.555,3.642-2.888,8.421-5.714,11.647l-6.023,6.023 l2.121,2.121l6.461-6.461C64.001,38.287,69,39,69,39l-0.039-0.039C69.138,38.981,69.315,39,69.5,39c1.933,0,3.5-1.119,3.5-2.5 c0-0.683-0.386-1.302-1.008-1.753C72.45,34.904,72.958,35,73.5,35c1.933,0,3.5-1.119,3.5-2.5c0-0.573-0.281-1.095-0.735-1.517 C76.344,30.987,76.419,31,76.5,31c1.933,0,3.5-1.119,3.5-2.5C80,27.457,79.104,26.565,77.834,26.19z"/><path fill="#ef8630" d="M55.514,42.466c-5.038-5.542-13.804-5.378-18.631,0.348L10.13,80.404c-1.366,1.693,0.571,4.042,2.493,3.023 l39.77-21.821C59.351,57.717,60.876,48.363,55.514,42.466L55.514,42.466z"/><path fill="#e66f2e" d="M32.352,49.18l4.734,4.734c0.39,0.391,0.902,0.586,1.414,0.586s1.024-0.195,1.414-0.586 c0.781-0.781,0.781-2.047,0-2.828l-5.21-5.21L32.352,49.18z"/><path fill="#e66f2e" d="M50.414,52.586c-0.78-0.781-2.048-0.781-2.828,0c-0.781,0.781-0.781,2.047,0,2.828l5.653,5.653 c1.151-0.769,2.126-1.695,2.923-2.733L50.414,52.586z"/><path fill="#e66f2e" d="M21.414,75.586c-0.78-0.781-2.048-0.781-2.828,0c-0.781,0.781-0.781,2.047,0,2.828l1.124,1.124l3.652-2.004 L21.414,75.586z"/><path fill="#e66f2e" d="M21.586,68.414C21.976,68.805,22.488,69,23,69s1.024-0.195,1.414-0.586c0.781-0.781,0.781-2.047,0-2.828 l-2.184-2.184l-2.352,3.305L21.586,68.414z"/><path fill="#e66f2e" d="M34.491,58.666c-0.737-0.824-2.002-0.894-2.824-0.156c-0.823,0.736-0.894,2.001-0.157,2.824l7.04,7.868 l3.601-1.976L34.491,58.666z"/></g></svg>