<svg xmlns="http://www.w3.org/2000/svg"  viewBox="0 0 100 100" width="100px" height="100px"><path d="M23.953,92.975c-2.815,0-5.457-1.173-7.249-3.219c-2.736-3.124-2.929-7.649-0.48-11.26 c0.228-0.336,0.462-0.673,0.697-1.009c0.562-0.807,1.051-1.507,1.405-2.16c2.727-5.021,1.987-7.313,0.867-10.781l-0.134-0.414 c-2.194-6.358-2.071-20.681,5.171-32.337c8.553-13.763,18.761-20.742,30.342-20.742c5.557,0,11.364,1.66,17.263,4.934 c18.457,10.25,22.738,28.599,11.453,49.081c-9.625,17.479-26.366,19.5-38.122,19.5c0,0-1.139-0.012-1.25-0.012 c-4.256,0-8.723,3.044-11.679,5.058c-1.316,0.898-2.454,1.674-3.585,2.24C27.186,92.588,25.562,92.975,23.953,92.975z" opacity=".35"/><path fill="#f2f2f2" d="M21.953,90.975c-2.815,0-5.457-1.173-7.249-3.219c-2.736-3.124-2.929-7.649-0.48-11.26 c0.228-0.336,0.462-0.673,0.697-1.009c0.562-0.807,1.051-1.507,1.405-2.16c2.727-5.021,1.987-7.313,0.867-10.781l-0.134-0.414 c-2.194-6.358-2.071-20.681,5.171-32.337C30.783,16.033,40.991,9.054,52.572,9.054c5.557,0,11.364,1.66,17.263,4.934 c18.457,10.25,22.738,28.599,11.453,49.081c-9.625,17.479-26.366,19.5-38.122,19.5c0,0-1.139-0.012-1.25-0.012 c-4.256,0-8.723,3.044-11.679,5.058c-1.316,0.898-2.454,1.674-3.585,2.24C25.186,90.588,23.562,90.975,21.953,90.975z"/><path fill="#739f4d" d="M66.679,19.671c-16.508-9.166-28.969-2.472-38.927,13.555c-6.007,9.668-6.236,21.898-4.507,26.908 c1.463,4.563,3.401,9.648-2.982,19.22c-3.19,3.19,0.289,6.284,3.48,4.688c3.136-1.568,10.299-8.307,18.709-7.975 c10.845,0.076,25.04-1.423,33.143-16.134C84.365,44.017,83.188,28.839,66.679,19.671z"/><path fill="#96c362" d="M20.717,81.248c1.348-1.343,2.537-2.523,2.987-2.965C31.716,70.417,50.067,49.29,60.148,22.2 c-3.585,27.126-22.234,50.546-38.251,60.882C19.643,84.536,18.49,83.467,20.717,81.248z"/><path fill="#40396e" d="M21.953,85.975c-1.345,0-2.619-0.521-3.488-1.514c-1.252-1.43-1.291-3.407-0.103-5.16 c0.216-0.319,0.437-0.635,0.657-0.951c0.625-0.896,1.215-1.742,1.701-2.639c3.748-6.902,2.469-10.867,1.231-14.701l-0.136-0.419 c-1.842-5.337-1.645-18.008,4.661-28.157C37.76,14.278,51.528,9.545,67.408,18.36l0,0c15.963,8.866,19.426,24.282,9.501,42.297 c-8.34,15.144-22.784,16.995-34.468,16.91c-5.982-0.226-11.425,3.467-15.02,5.917c-1.171,0.798-2.183,1.487-3.008,1.9 C23.618,85.782,22.772,85.975,21.953,85.975z M52.602,17.072c-8.753,0-16.54,5.624-23.575,16.945 c-6,9.657-5.803,21.456-4.363,25.627l0.144,0.445c1.298,4.02,2.912,9.022-1.449,17.054c-0.566,1.043-1.232,2-1.878,2.923 c-0.213,0.306-0.426,0.611-0.635,0.919c-0.286,0.422-0.539,1.024-0.123,1.5c0.42,0.48,1.361,0.709,2.351,0.216 c0.645-0.323,1.579-0.959,2.66-1.696c3.92-2.671,9.82-6.697,16.779-6.437c11.468,0.096,24.237-1.683,31.771-15.358 c5.293-9.608,11.246-27.352-8.331-38.227C61.262,18.379,56.819,17.072,52.602,17.072z"/><path fill="#96c362" d="M38.287,68.638L34.6,68.706c-0.256-13.675-6.256-25.657-6.256-25.657 C28.672,43.375,38.003,53.492,38.287,68.638z"/><path fill="#96c362" d="M46.335,54.15c-1.32-11.649-5.88-22.121-5.88-22.121c0.289,0.284,8.068,8.684,9.545,21.704 L46.335,54.15z"/><path fill="#96c362" d="M47.003,56.897l-2.71-2.5c9.639-10.446,29.403-10.432,30.13-10.422 C74.424,43.975,55.517,47.669,47.003,56.897z"/><path fill="#96c362" d="M36.253,70.793l-1.737-3.252c10.445-5.577,29.706-4.768,30.373-4.698 C64.887,62.843,45.687,65.758,36.253,70.793z"/></svg>