<svg xmlns="http://www.w3.org/2000/svg"  viewBox="0 0 480.039 480.039" width="120px" height="120px"><path fill="#befa91" d="M222.03,374.969h-0.01c-5.69-63.86-41.17-73.98-44.07-106.06c-1.53-16.91,4.67-34.46,14.7-46.39	c16.56-19.71,32.48-10.95,54.45-27.62c33.53-25.43,22.08-66.56,48.29-74.42c19.73-5.91,31.56,13.68,55.66,5.44	c15.93-5.45,17.19-16.58,33.24-23.5c35.49-15.32,73.73,15.17,66.8,53.14c-3.14,17.19-13.7,20.92-15.42,37.67	c-2.61,25.34,19.14,32.46,17.82,53.01c-1.77,27.3-44.41,25.4-61.66,63.8c-11.29,25.15,0.82,38.7-14.66,59.26	c-9.37,12.45-25.08,22.45-41.89,24.76C303.3,398.459,285.68,366.129,222.03,374.969z"/><path fill="#daffbf" d="M389.4,100.53c33.116-10.245,49.104,38.65,16.762,51.125c-17.893,6.902-18.608,18.618-35.112,24.265	c-24.1,8.24-35.93-11.35-55.66-5.44c-26.21,7.86-14.76,48.99-48.29,74.42c-21.97,16.67-37.89,7.91-54.45,27.62	c-7.99,9.51-13.55,22.58-14.71,36.06c-9.58-13.79-18.59-24.17-19.99-39.67c-1.53-16.91,4.67-34.46,14.7-46.39	c16.56-19.71,32.48-10.95,54.45-27.62c33.53-25.43,22.08-66.56,48.29-74.42c19.73-5.91,31.56,13.68,55.66,5.44	C368.551,119.932,368.477,107.003,389.4,100.53z"/><path fill="#befa91" d="M144.51,348.039c-44.21-46.43-78.38-32.41-100.62-55.71c-11.72-12.28-17.79-29.88-17.38-45.46	c0.69-25.73,18.6-28.78,25.42-55.51c10.41-40.78-24.15-65.84-8.53-88.3c11.76-16.91,33.21-8.94,46.95-30.4	c9.07-14.18,3.13-23.67,11.38-39.08c18.23-34.08,67.15-34.03,85.35,0c8.25,15.41,2.31,24.9,11.39,39.08	c13.73,21.46,35.18,13.49,46.94,30.4c15.62,22.46-18.94,47.52-8.53,88.3c6.82,26.73,24.73,29.78,25.42,55.51	c0.41,15.58-5.65,33.18-17.38,45.46C222.63,315.679,188.82,301.489,144.51,348.039z"/><path fill="#9ceb63" d="M256.49,303.379c-12.409,13.008-27.135,17.101-41.514,21.238c-3.546,1.02-7.322-0.525-9.157-3.726	c-1.753-3.058-3.556-5.914-5.359-8.622c17.9-5.77,32.76-7.69,44.46-19.94c11.73-12.28,17.79-29.88,17.38-45.46	c-0.61-22.74-14.67-27.77-22.64-47.09c1.94-1.083,3.861-2.299,5.728-3.623c3.818-2.708,9.187-1.561,11.501,2.508	c6.981,12.277,20.721,22.379,21.401,47.776C278.84,267.229,270.69,288.509,256.49,303.379z"/><path fill="#daffbf" d="M110.354,21.848c28.658-28.764,72.444,12.253,46.735,43.681c-1.988,2.43-3.787,5.113-5.358,8.051	c-8.25,15.41-2.31,24.9-11.38,39.08c-13.74,21.46-35.19,13.49-46.95,30.4c-15.62,22.46,18.94,47.52,8.53,88.3	c-5.455,21.381-22.191,31.198-25.268,50.935c-2.391,15.337-21.552,21.79-32.772,10.035c-11.72-12.28-17.79-29.88-17.38-45.46	c0.69-25.73,18.6-28.78,25.42-55.51c10.41-40.78-24.15-65.84-8.53-88.3c11.76-16.91,33.21-8.94,46.95-30.4	c9.07-14.18,3.13-23.67,11.38-39.08C104.158,29.041,107.076,25.138,110.354,21.848z"/><path d="M250.709,297.854c12.571-13.167,20.075-32.784,19.585-51.195c-0.773-28.975-19.357-32.545-25.665-57.274 c-4.669-18.295,0.872-32.86,6.229-46.945c5.508-14.477,11.203-29.447,1.123-43.947c-7.035-10.119-16.67-13.242-25.17-15.997 c-8.5-2.755-15.84-5.134-21.607-14.147c-7.591-11.861-2.023-21.648-11.066-38.547c-21.27-39.743-78.204-39.728-99.466,0 c-9.061,16.934-3.436,26.623-11.065,38.548C77.839,77.362,70.499,79.742,62,82.496c-8.5,2.755-18.135,5.878-25.17,15.997 c-10.081,14.5-4.386,29.47,1.122,43.948c5.358,14.084,10.899,28.649,6.23,46.944c-6.3,24.698-24.893,28.318-25.665,57.274 c-0.491,18.41,7.013,38.027,19.584,51.196c13.722,14.373,30.877,16.379,49.465,22.568c4.193,1.395,8.722-0.872,10.118-5.063 c1.396-4.192-0.872-8.722-5.063-10.118c-18.531-6.17-32.681-7.683-42.947-18.437c-9.734-10.196-15.544-25.417-15.162-39.72 c0.588-22.04,17.969-25.506,25.175-53.745c10.762-42.179-21.376-68.95-9.72-85.714c9.202-13.236,31.896-6.866,47.117-30.654 c10.266-16.042,4.508-26.192,11.696-39.622c15.233-28.465,56.03-28.441,71.251,0c7.154,13.365,1.471,23.642,11.697,39.622 c15.119,23.627,38.001,17.543,47.117,30.653c11.66,16.774-20.486,43.522-9.72,85.714c7.258,28.44,24.581,31.465,25.175,53.744 c0.381,14.304-5.43,29.524-15.163,39.721c-17.507,18.337-47.847,10.287-86.627,42.733v-53.764 c3.458-22.741,14.929-44.317,37.36-50.207c4.273-1.122,6.828-5.496,5.706-9.769c-1.12-4.273-5.49-6.828-9.769-5.707 c-13.063,3.429-24.516,11.015-33.298,22.97v-71.661c6.462-6.797,14.759-11.049,24.4-11.337c4.416-0.133,7.889-3.821,7.756-8.237 c-0.133-4.436-3.84-7.889-8.236-7.756c-8.483,0.255-16.616,2.626-23.92,6.98v-27.011c0-4.418-3.582-8-8-8s-8,3.582-8,8v27.143 c-7.627-4.597-15.861-6.863-24.13-7.111c-4.408-0.134-8.104,3.339-8.236,7.756c-0.133,4.416,3.34,8.104,7.756,8.237 c9.677,0.289,18.07,4.579,24.61,11.558v71.721c-8.829-12.146-20.384-19.806-33.507-23.251c-4.275-1.123-8.647,1.434-9.769,5.707 c-1.122,4.273,1.433,8.647,5.706,9.769c23.113,6.068,33.959,28.048,37.556,51.524c0.022,0.145,0.014-5.443,0.014,194.948 c0,4.418,3.582,8,8,8s8-3.582,8-8V351.282C194.437,308.86,226.288,323.435,250.709,297.854z"/><path d="M451.73,218.57c-4.937-7.447-9.2-13.879-8.103-24.523c1.444-14.008,11.894-18.201,15.337-37.056 c8.094-44.339-36.466-79.779-77.842-61.92c-17.587,7.59-19.283,18.703-32.657,23.278c-10.124,3.463-17.35,0.755-25.717-2.38 c-8.368-3.136-17.853-6.688-29.657-3.149c-19.521,5.854-22.916,25.092-28.94,42.614c-1.436,4.178,0.788,8.729,4.967,10.165 c4.18,1.436,8.729-0.788,10.166-4.967c5.859-17.054,7.773-29.299,18.403-32.486c15.441-4.631,29.235,14.482,55.956,5.342 c18.113-6.195,19.74-17.65,33.819-23.727c29.645-12.794,61.556,12.626,55.762,44.356c-2.724,14.921-13.567,19.417-15.513,38.289 c-2.875,27.903,18.819,37.386,17.791,53.321c-1.316,20.385-43.126,21.308-60.966,61.029c-12.008,26.735-0.358,39.936-13.756,57.732 c-8.606,11.432-22.628,19.726-36.594,21.646c-25.127,3.45-43.813-21.887-94.389-20.662l32.939-41.408 c16.846-15.894,39.561-25.986,61.015-16.524c4.044,1.782,8.766-0.048,10.548-4.092c1.783-4.042-0.049-8.765-4.091-10.548 c-12.334-5.438-26.079-6.673-40.528-2.709l44.629-56.105c9.322-1.336,18.516,0.477,26.307,6.297 c3.523,2.633,8.541,1.934,11.196-1.62c2.646-3.54,1.92-8.553-1.62-11.197c-6.826-5.1-14.69-8.313-23.186-9.441l16.702-20.997 c2.751-3.458,2.177-8.49-1.28-11.241c-3.458-2.75-8.49-2.178-11.241,1.28l-16.702,20.996c-2.928-7.805-7.742-14.826-14.417-20.469 c-3.374-2.854-8.422-2.432-11.274,0.942c-2.854,3.374-2.431,8.421,0.942,11.274c7.406,6.262,11.255,14.813,12.052,24.214 L170.41,427.002c-4.189,5.264-0.367,12.98,6.256,12.98c2.354,0,4.687-1.035,6.266-3.02l43.335-54.478 c55.22-6.613,72.068,19.989,103.013,19.989c18.665,0,41.013-10.734,54.285-28.361c17.435-23.161,5.11-37.516,15.568-60.8 c7.735-17.224,21.139-25.173,34.101-32.86c13.322-7.901,27.099-16.071,28.236-33.693C462.263,234.46,456.668,226.018,451.73,218.57 z"/></svg>