<svg xmlns="http://www.w3.org/2000/svg"  viewBox="0 0 48 48" width="96px" height="96px" baseProfile="basic"><path fill="#bf360c" d="M29.448,32.434l5.1,6.566l-0.297,4.143C34.177,44.189,33.306,45,32.257,45H15.961	c-1.049,0-1.92-0.811-1.995-1.857L13.67,39l5.099-6.6c-0.034-0.471-6.011-7.4-6.011-7.4c0.263-4.74,3.57-8.849,8.273-10.045	l2.968-0.755l3.113,0.768c4.729,1.167,8.069,5.278,8.346,10.032C35.458,25,29.483,31.951,29.448,32.434z"/><path fill="#5d4037" d="M27.109,6l-3,1l-3-1V3c0-0.6,0.4-1,1-1h4c0.6,0,1,0.4,1,1V6z"/><path fill="#ffa726" d="M27.109,6h-3h-3c0,0-0.5,2.162-0.5,4.5s0.5,4.5,0.5,4.5h3h3c0,0,0.5-2.162,0.5-4.5S27.109,6,27.109,6	z"/><polygon fill="#5d4037" points="13.53,37 24,36 34.69,37 34.55,39 13.67,39"/><path fill="#5d4037" d="M35.45,26.43L35.41,27L24,28l-11.19-1l-0.04-0.6c-0.03-0.47-0.04-0.94,0-1.4h22.69	C35.49,25.47,35.48,25.95,35.45,26.43z"/><polygon fill="#ffa726" points="35.41,27 34.69,37 13.53,37 12.81,27"/><path fill="#e65100" d="M30.109,29v2h-12v-2H30.109z"/><path fill="#e65100" d="M28.109,33v2h-8v-2H28.109z"/></svg>