<svg xmlns="http://www.w3.org/2000/svg"  viewBox="0 0 100 100" width="100px" height="100px"><path d="M52,94.9c-4.2,0-8.4-1.2-12-3.4c-1.7,0.4-3.4,0.5-5.2,0.5C20.6,92,9.1,80.5,9.1,66.3	c0-16.6,13.7-23.6,21.9-27.8l1.1-0.5c1.8-0.9,4.6-2.4,5.8-3.3V15.6c0-2.5,1.4-4.7,3.6-5.8c0.9-0.5,1.9-0.7,2.9-0.7	c1.4,0,2.7,0.4,3.8,1.2l1.1,0.8l0.1-0.1c1.2-1.2,2.9-1.9,4.6-1.9c1.7,0,3.2,0.6,4.5,1.8L64,16c1.3,1.2,2,3,2,4.7v13.1	c1.3,0.8,3.4,1.9,4.3,2.4c0.5,0.3,1.1,0.6,1.6,0.8c9.2,4.8,23,12.1,23,29.3C94.9,80.5,83.4,92,69.2,92c-1.7,0-3.4-0.2-5.2-0.5	C60.4,93.7,56.2,94.9,52,94.9z" opacity=".35"/><path fill="#f2f2f2" d="M50,92.9c-4.2,0-8.4-1.2-12-3.4c-1.7,0.4-3.4,0.5-5.2,0.5C18.6,90,7.1,78.5,7.1,64.3	c0-16.6,13.7-23.6,21.9-27.8l1.1-0.5c1.8-0.9,4.6-2.4,5.8-3.3V13.6c0-2.5,1.4-4.7,3.6-5.8c0.9-0.5,1.9-0.7,2.9-0.7	c1.4,0,2.7,0.4,3.8,1.2l1.1,0.8L47.4,9c1.2-1.2,2.9-1.9,4.6-1.9c1.7,0,3.2,0.6,4.5,1.8L62,14c1.3,1.2,2,3,2,4.7v13.1	c1.3,0.8,3.4,1.9,4.3,2.4c0.5,0.3,1.1,0.6,1.6,0.8c9.2,4.8,23,12.1,23,29.3C92.9,78.5,81.4,90,67.2,90c-1.7,0-3.4-0.2-5.2-0.5	C58.4,91.7,54.2,92.9,50,92.9z"/><path fill="#ffe8d9" stroke="#40396e" stroke-linecap="round" stroke-linejoin="round" stroke-miterlimit="10" stroke-width="3" d="M50,86.4c-3.9,0-7.8-1.4-10.8-4c-2.1,0.7-4.3,1.1-6.4,1.1c-10.6,0-19.2-8.6-19.2-19.2	c0-12.6,10.2-17.8,18.4-22c5.3-2.7,10.4-5.1,10.4-8.5V13.6l5.6,4l4-4l5.5,5.2v15.1c-0.1,2.3,4.8,4.6,9.4,7	c8.2,4.4,19.5,10.3,19.5,23.5c0,10.6-8.6,19.2-19.2,19.2c-2,0-4.4-0.4-6.4-1.1C57.8,85,53.9,86.4,50,86.4z"/><path fill="none" stroke="#40396e" stroke-linecap="round" stroke-linejoin="round" stroke-miterlimit="10" stroke-width="3" d="M68.7,55.5c0.6,2.2,0.9,4.6,0.9,7.1c0,13.2-8.8,23.9-19.6,23.9S30.4,75.7,30.4,62.5" opacity=".35"/></svg>