<svg xmlns="http://www.w3.org/2000/svg"  viewBox="0 0 64 64" width="128px" height="128px"><path fill="#c5e4fa" d="M36,11V5h-8v6c0,2.493-0.58,4.924-1.686,7.16l-3.721,6.536c-1.709,3.453-2.598,6.254-2.598,10.106 l0,26.247c0,1.104,0.895,2,2,2h20c1.104,0,2-0.895,2-2V34.802c0-3.852-0.889-6.653-2.598-10.106l-3.721-6.537 C36.571,15.923,36,13.495,36,11z"/><path fill="#e3f2ff" d="M33.002,11V5H28v6c0,2.493-0.362,4.924-1.054,7.16l-4.326,6.536 c-1.069,3.453-2.624,6.254-2.624,10.106l0,26.247c0,1.104,0.56,2,1.25,2H36.75c0.691,0,1.25-0.895,1.25-2V34.802 c0-3.852-0.556-6.653-1.624-10.106l-2.326-6.537C33.359,15.923,33.002,13.495,33.002,11z"/><path fill="#faefde" d="M20,33l24,0l0,16l-24,0L20,33z"/><path fill="#ed7899" d="M20,36l0-3l24,0l0,3L20,36z"/><path fill="#ed7899" d="M20,49l0-3l24,0l0,3L20,49z"/><path fill="#c5e4fa" d="M43,63H21c-0.552,0-1-0.448-1-1v0c0-2.761,2.239-5,5-5h14c2.761,0,5,2.239,5,5v0 C44,62.552,43.552,63,43,63z"/><path fill="#8d6c9f" d="M42,64H22c-1.654,0-3-1.346-3-3V35c0-3.763,0.781-6.876,2.697-10.748l3.748-6.588 C26.468,15.592,27,13.333,27,11V7h2v4c0,2.643-0.602,5.201-1.789,7.602l-3.748,6.588C21.722,28.713,21,31.57,21,35v26 c0,0.551,0.448,1,1,1h20c0.552,0,1-0.449,1-1V35c0-3.418-0.725-6.275-2.5-9.86l-3.693-6.486C35.599,16.212,35,13.655,35,11V7h2v4 c0,2.345,0.529,4.604,1.572,6.716l3.693,6.485C44.216,28.135,45,31.249,45,35v26C45,62.654,43.654,64,42,64z"/><path fill="#f283a5" d="M36,7h-8V3c0-1.105,0.895-2,2-2h4c1.105,0,2,0.895,2,2V7z"/><path fill="#ed7899" d="M36,7h-3V1h1c1.105,0,2,0.895,2,2V7z"/><rect width="24" height="2" x="20" y="48" fill="#8d6c9f"/><rect width="24" height="2" x="20" y="32" fill="#8d6c9f"/><path fill="#8d6c9f" d="M29,59c-0.553,0-1-0.448-1-1v-2c0-0.552,0.447-1,1-1s1,0.448,1,1v2C30,58.552,29.553,59,29,59z"/><path fill="#8d6c9f" d="M24,59c-0.553,0-1-0.448-1-1v-2c0-0.552,0.447-1,1-1s1,0.448,1,1v2C25,58.552,24.553,59,24,59z"/><path fill="#8d6c9f" d="M35,59c-0.553,0-1-0.448-1-1v-2c0-0.552,0.447-1,1-1s1,0.448,1,1v2C36,58.552,35.553,59,35,59z"/><path fill="#8d6c9f" d="M40,59c-0.553,0-1-0.448-1-1v-2c0-0.552,0.447-1,1-1s1,0.448,1,1v2C41,58.552,40.553,59,40,59z"/><path fill="#8d6c9f" d="M38,42H26c-0.553,0-1-0.448-1-1s0.447-1,1-1h12c0.553,0,1,0.448,1,1S38.553,42,38,42z"/><path fill="#8d6c9f" d="M37,8H27V3c0-1.654,1.346-3,3-3h4c1.654,0,3,1.346,3,3V8z M29,6h6V3c0-0.551-0.448-1-1-1h-4 c-0.552,0-1,0.449-1,1V6z"/></svg>