<svg xmlns="http://www.w3.org/2000/svg"  viewBox="0 0 480.011 480.011" width="120px" height="120px"><path fill="#befa91" d="M432.75,87.001c-2.88-15.27-15.52-26.76-31-28.05c-46.817-3.898-91.966,8.225-129.431,33.131	C234.311,36.136,169.081,3.074,86.88,8.571c-15.94,1.07-29.04,13.11-31.47,28.91c-9.53,61.92,8.82,123.86,49.59,170.61	l96.919-36.682c-0.098,0.191-3.227-6.362,41.001,84.602l115.89-5.24C416.15,215.641,444.87,151.261,432.75,87.001z"/><path fill="#daffbf" d="M401.35,78.861c-57.279,1.33-136.04,37.707-175.5,114.68l30.09,61.88l-13.02,0.59l-41.07-84.47	c40.401-78.81,121.351-120.068,200.31-112.553C414.576,60.169,413.819,78.571,401.35,78.861z"/><circle cx="150.71" cy="246.801" r="106.21" fill="#fe4f60" transform="rotate(-45.001 150.708 246.804)"/><circle cx="313.71" cy="300.801" r="106.21" fill="#fe4f60"/><path fill="#9ceb63" d="M389.6,226.501c-37.426-38.212-96.158-41.958-137.71-12.06c-13.655-43.122-54.214-73.85-101.18-73.85	c-28.09,0-53.62,10.9-72.61,28.71c-0.058-0.117-0.198-0.349-1.92-3.65c-3.519-7.031-1.134-15.059,4.83-19.22	c37.52-26.22,84.69-28.11,123.07-9.53c13.768-19.691,30.42-36.914,49.404-51.106c5.156-3.855,12.501-2.684,16.242,2.556	c0.88,1.232,1.744,2.477,2.593,3.731c-20.8,13.83-39.229,31.599-54.259,52.749c16.926,11.106,31.494,26.896,41.49,46.42	c41.61-20.64,91.64-15.82,128.64,12.71c0.02,0.02,0.05,0.04,0.07,0.06C395.196,209.428,396.181,219.921,389.6,226.501z"/><path fill="#daffbf" d="M105.28,133.291c-8.39,3.36-16.54,7.74-24.27,13.14c-5.92,4.13-8.32,12.09-4.89,19.09	c-21.308-41.476-27.539-88.549-20.568-128.91c4.041-23.397,38.729-18.706,36.524,4.935C89.215,72.235,97.549,112.683,105.28,133.291	z"/><path fill="#ff6d7a" d="M156.488,172.929c-38.515,9.752-70.097,41.659-79.628,80.256	c-4.541,18.39-31.815,15.442-32.321-3.493c-1.61-60.248,47.711-110.117,108.024-109.085	C171.704,140.935,175.045,168.23,156.488,172.929z"/><path fill="#ff6d7a" d="M317.934,222.12c-46.566,14.117-79.291,61.492-76.544,110.107c0.9,15.932-21.642,20.653-27.221,5.703	c-25.615-68.649,24.561-143.293,99.475-143.339C329.851,194.582,333.445,217.418,317.934,222.12z"/><circle cx="159.71" cy="365.801" r="106.21" fill="#fe4f60" transform="rotate(-45.001 159.707 365.805)"/><path fill="#e84857" d="M268.017,396.704c-1.969-0.941-3.905-1.942-5.807-3.002c20.122-73.917-42.543-144.127-118-132.98	c-31.215,4.162-60.698,24.121-76.63,52.19c-2.51-3.16-4.85-6.46-7-9.89c-1.73-2.78-1.67-6.33,0.26-8.97	c27.855-38.391,75.877-57.492,121.97-48.27c10.896,2.179,15.191,4.022,19.23,5.37c8.02-17.95,20.23-33.63,35.4-45.77	c4.2-3.37,10.51-1.7,12.44,3.33c0.73,1.88,1.4,3.79,2.01,5.73c-16.041,11.386-28.627,27.75-35.26,43.23	c48.777,25.784,73.876,80.456,62.672,133.386C278.225,396.147,272.711,398.946,268.017,396.704z"/><path fill="#ff6d7a" d="M165.488,291.929c-38.515,9.752-70.097,41.659-79.628,80.256	c-4.541,18.39-31.815,15.442-32.321-3.493c-1.61-60.248,47.711-110.117,108.024-109.085	C180.704,259.935,184.045,287.23,165.488,291.929z"/><path d="M372.972,94.23c-28.931,15.478-53.446,36.345-72.866,62.023c-2.665,3.524-1.969,8.541,1.555,11.206 c3.518,2.661,8.536,1.975,11.207-1.555c18.014-23.82,40.775-43.188,67.652-57.566c3.896-2.084,5.364-6.932,3.28-10.828 C381.716,93.614,376.867,92.147,372.972,94.23z"/><path d="M125.498,53.37c-3.688-2.434-8.65-1.418-11.084,2.269c-2.434,3.687-1.418,8.65,2.269,11.084 c21.029,13.884,39.519,30.977,54.955,50.806c1.577,2.026,3.935,3.086,6.318,3.086c6.572,0,10.424-7.626,6.307-12.915 C167.755,86.495,147.984,68.215,125.498,53.37z"/><path d="M136.577,308.355c-3.124-3.125-8.189-3.125-11.313,0l-1.343,1.343l-1.343-1.343c-3.124-3.125-8.189-3.125-11.313,0 c-3.125,3.124-3.125,8.189,0,11.313l1.343,1.343l-1.343,1.343c-3.125,3.124-3.125,8.189,0,11.313c3.124,3.124,8.189,3.125,11.313,0 l1.343-1.343l1.343,1.343c3.124,3.124,8.189,3.125,11.313,0c3.125-3.124,3.125-8.189,0-11.313l-1.343-1.343l1.343-1.343 C139.701,316.544,139.701,311.479,136.577,308.355z"/><path d="M313.713,186.592c-34.215,0-66.339,15.151-88.136,41.569c-2.812,3.408-2.329,8.45,1.08,11.262 c3.407,2.812,8.45,2.329,11.262-1.079c18.746-22.721,46.373-35.752,75.794-35.752c54.153,0,98.209,44.057,98.209,98.21 s-44.057,98.21-98.209,98.21c-14.651,0-29.14-3.285-42.262-9.537c15.026-71.303-39.559-137.882-111.738-137.882 c-37.928,0-71.592,18.589-92.374,47.13c-9.727-15.523-14.836-33.261-14.836-51.921c0-54.153,44.057-98.21,98.21-98.21 c31.742,0,61.688,15.468,80.105,41.378c2.56,3.601,7.553,4.445,11.156,1.885c3.601-2.56,4.445-7.554,1.885-11.156 c-6.726-9.462-14.776-17.724-23.797-24.61c39.999-61.161,108.683-95.192,181.023-89.162c11.81,0.984,21.6,9.847,23.808,21.552 c6.208,32.913,1.377,65.939-13.971,95.506c-2.036,3.921-0.507,8.75,3.414,10.786c3.915,2.032,8.747,0.514,10.786-3.415 c17.015-32.776,22.372-69.376,15.493-105.843c-3.537-18.752-19.246-32.952-38.202-34.532 c-78.232-6.519-152.495,30.239-195.719,96.315c-39.304-22.107-88.94-19.512-126.01,9.347 c-17.567-36.71-23.598-77.488-17.372-117.951C65.161,26.677,75.3,17.366,87.419,16.555c57.71-3.863,115.346,12.301,156.736,53.872 c3.118,3.131,8.183,3.142,11.314,0.025c3.131-3.117,3.142-8.183,0.025-11.314C211.007,14.457,149.091-3.61,86.35,0.591 C66.817,1.898,50.477,16.899,47.499,36.26c-6.954,45.192,0.273,90.817,20.834,131.521 c-38.527,40.148-42.308,101.619-10.216,145.882c-8.059,15.64-12.613,33.367-12.613,52.139c0,62.975,51.234,114.21,114.21,114.21 c30.066,0,58.45-11.586,79.923-32.625c3.156-3.092,3.208-8.157,0.116-11.313s-8.157-3.208-11.313-0.116 c-18.465,18.09-42.872,28.053-68.726,28.053c-54.153,0-98.21-44.057-98.21-98.21s44.057-98.21,98.21-98.21 c54.153,0,98.209,44.057,98.209,98.21c0,14.642-3.352,25.115-3.599,26.609c-0.563,3.415,1.145,6.707,4.001,8.294 c16.849,9.36,36.001,14.307,55.388,14.307c62.975,0,114.209-51.234,114.209-114.21S376.688,186.592,313.713,186.592z"/><path d="M265.263,268.668c3.124,3.124,8.189,3.125,11.313,0l1.343-1.343l1.343,1.343c3.124,3.124,8.189,3.125,11.313,0 c3.125-3.124,3.125-8.189,0-11.313l-1.343-1.343l1.343-1.343c3.125-3.124,3.125-8.189,0-11.313c-3.124-3.125-8.189-3.125-11.313,0 l-1.343,1.343l-1.343-1.343c-3.124-3.125-8.189-3.125-11.313,0c-3.125,3.124-3.125,8.189,0,11.313l1.343,1.343l-1.343,1.343 C262.139,260.479,262.139,265.544,265.263,268.668z"/><path d="M127.577,189.355c-3.124-3.125-8.189-3.125-11.313,0l-1.343,1.343l-1.343-1.343c-3.124-3.125-8.189-3.125-11.313,0 c-3.125,3.124-3.125,8.189,0,11.313l1.343,1.343l-1.343,1.343c-3.125,3.124-3.125,8.189,0,11.313c3.124,3.124,8.189,3.125,11.313,0 l1.343-1.343l1.343,1.343c3.124,3.124,8.189,3.125,11.313,0c3.125-3.124,3.125-8.189,0-11.313l-1.343-1.343l1.343-1.343 C130.701,197.544,130.701,192.479,127.577,189.355z"/></svg>