<svg xmlns="http://www.w3.org/2000/svg"  viewBox="0 0 100 100" width="100px" height="100px"><path d="M38.655,96.522c-5.18,0-10.043-1.257-14.489-3.741C22.76,93.576,21.163,94,19.5,94 c-2.768,0-5.393-1.204-7.202-3.304c-2.878-3.341-2.979-8.254-0.44-11.803C3.397,57.737,19.076,35.654,28.594,24.8 c0.417-4.264,2.772-7.192,4.893-9.332c4.206-4.207,10.601-6.61,17.56-6.61c5.445,0,13.266,1.481,22.05,7.709 c-0.062-0.365-0.092-0.74-0.089-1.122C73.041,11.889,75.953,9,79.5,9C84.59,9,90,12.68,90,19.5c0,3.56-1.934,6.652-4.352,9.128 C97.735,44.435,97.09,62.1,88.887,70.375c-2.504,2.526-5.389,4.01-8.595,4.424C72.333,82.952,56.759,96.521,38.655,96.522 L38.655,96.522z" opacity=".35"/><path fill="#f2f2f2" d="M36.655,94.522c-5.18,0-10.043-1.257-14.489-3.741C20.76,91.576,19.163,92,17.5,92 c-2.768,0-5.393-1.204-7.202-3.304c-2.878-3.341-2.979-8.254-0.44-11.803C1.397,55.737,17.076,33.654,26.594,22.8 c0.417-4.264,2.772-7.192,4.893-9.332c4.206-4.207,10.601-6.61,17.56-6.61c5.445,0,13.266,1.481,22.05,7.709 c-0.062-0.365-0.092-0.74-0.089-1.122C71.041,9.889,73.953,7,77.5,7C82.59,7,88,10.68,88,17.5c0,3.56-1.934,6.652-4.352,9.128 C95.735,42.435,95.09,60.1,86.887,68.375c-2.504,2.526-5.389,4.01-8.595,4.424C70.333,80.952,54.759,94.521,36.655,94.522 L36.655,94.522z"/><path fill="#b06947" d="M34.641,23.641c0,0-30.888,31.505-16.954,54.43l-2.308,2.308c-1.172,1.171-1.172,3.071,0,4.242 c0.586,0.586,1.354,0.879,2.121,0.879s1.535-0.293,2.121-0.879l2.029-2.029c23.496,19.138,54.709-17.233,54.709-17.233 L34.641,23.641z"/><path fill="#ffc571" d="M76.385,64.919c-5.182,0-13.214-5.464-24.554-16.703c-21.954-21.759-18.08-25.668-14.662-29.117 c2.032-2.032,15.422-12.892,36.031,7.717c12.7,12.7,14.328,29.548,8.005,35.928C79.714,64.248,78.228,64.919,76.385,64.919z"/><path fill="none" stroke="#40396e" stroke-linecap="round" stroke-linejoin="round" stroke-miterlimit="10" stroke-width="3" d="M74.261,25.755C57.636,9.13,41.927,12.219,36.104,18.043c-1.921,1.938-3.436,3.972-2.998,7.228 c-6.593,7.185-26.06,30.843-16.568,50.679c0.626,1.308,0.408,2.862-0.618,3.887l-0.43,0.43c-1.129,1.129-1.31,2.976-0.268,4.186 c0.602,0.698,1.439,1.047,2.277,1.047c0.768,0,1.535-0.293,2.121-0.879h0c1.109-1.109,2.855-1.323,4.164-0.459 C44.833,98.048,69.772,72.478,75.439,66.37c2.993,0.301,5.101-0.825,6.831-2.571v0C88.935,57.076,88.211,39.705,74.261,25.755z"/><path fill="none" stroke="#40396e" stroke-linecap="round" stroke-linejoin="round" stroke-miterlimit="10" stroke-width="3" d="M74.261,25.755c0,0,7.239-4.255,7.239-8.255s-4-4-4-4"/></svg>