<svg xmlns="http://www.w3.org/2000/svg"  viewBox="0 0 480.012 480.012" width="120px" height="120px"><path fill="#ffdfba" d="M457.433,124.105c-12.61,2.71-25.11,5.88-37.47,9.51c25.111,63.722-7.246,136.027-72.33,158.73	c-197.24,68.79-131.445,184.129-317.83,176.97c-14.222-0.549-24.309-13.894-21.26-27.57c2.02-9.09,9.38-16.05,18.58-17.49	c175.703-27.437,128.162-258.413,191.37-327.56c32.96-36.07,82.77-47.582,126.42-33.483c2.36-12.13,4.3-24.358,5.8-36.637	c1.49-12.17,14.19-19.55,25.45-14.69l9.78,4.23c17.05,7.36,27.08,25.36,24.06,43.68c-0.64,3.86-1.4,7.72-2.29,11.57	c3.8-1.26,7.63-2.38,11.47-3.37c17.92-4.61,36.67,3.81,45.51,20.08l5.08,9.34C475.623,108.205,469.433,121.525,457.433,124.105z"/><path fill="#befa91" d="M469.773,97.415c5.85,10.79-0.34,24.11-12.34,26.69c-12.61,2.71-25.11,5.88-37.47,9.51	c-7.909-20.093-21.007-37.621-38.57-51.2c0.292-0.295,16.88-9.029,37.79-14.42c17.92-4.61,36.67,3.81,45.51,20.08L469.773,97.415z"/><path fill="#befa91" d="M385.943,16.115c17.05,7.36,27.08,25.36,24.06,43.68c-0.64,3.86-1.4,7.72-2.29,11.57	c-8.93,2.94-17.72,6.61-26.31,11.04c-0.282,0.285-13.103-11.669-36.49-19.193c2.36-12.13,4.3-24.357,5.8-36.637	c1.49-12.17,14.19-19.55,25.45-14.69L385.943,16.115z"/><path fill="#ffebd2" d="M307.259,57.404c26.258-0.071,31.581,37.473,6.381,44.852c-20.511,6.006-39.69,17.524-55.147,34.439	c-63.218,69.157-15.661,300.122-191.37,327.56l-33.259,4.509c-15.946,2.162-28.741-11.682-25.321-27.019	c2.02-9.09,9.38-16.05,18.58-17.49c175.732-27.441,128.139-258.389,191.37-327.56C242.605,70.308,275.021,57.492,307.259,57.404z"/><path fill="#daffbf" d="M469.858,97.574c2.443,4.62-3.697,8.95-7.351,5.213c-7.367-7.535-19.975-15.511-38.324-10.791	c-8.359,2.155-16.383,4.862-24.24,8.12c-5.525-6.527-11.643-12.36-18.55-17.7c0.17-0.172,16.84-9.019,37.79-14.42	c17.92-4.61,36.67,3.81,45.51,20.08C464.693,88.075,469.83,97.521,469.858,97.574z"/><path fill="#daffbf" d="M386.212,16.233c6.425,2.828,4.713,12.41-2.285,12.972c-9.757,0.783-14.295,7.852-15.215,15.371	c-1.11,9.05-2.45,18.06-4.03,27.04c-6.38-3.43-13-6.222-19.77-8.403c2.36-12.13,4.3-24.358,5.8-36.637	c1.49-12.17,14.19-19.55,25.45-14.69C376.163,11.885,386.123,16.193,386.212,16.233z"/><path d="M436.319,183.514c0.177-4.415-3.259-8.136-7.674-8.313c-4.395-0.176-8.137,3.259-8.313,7.674 c-0.577,14.413-3.921,28.477-9.688,41.45c-6.888-9.268-14.083-18.363-21.488-27.146c-2.85-3.379-7.896-3.807-11.273-0.959 c-3.378,2.848-3.807,7.896-0.959,11.273c8.789,10.424,17.275,21.297,25.281,32.381c-13.943,21.475-34.47,36.984-57.211,44.916 c-60.632,21.148-97.267,46.966-123.597,72.019c-7.532-8.426-15.349-16.683-23.339-24.606c-3.136-3.111-8.201-3.09-11.313,0.048 c-3.111,3.137-3.09,8.202,0.048,11.313c7.977,7.91,15.772,16.164,23.276,24.585c-50.795,53.342-62.33,97.695-179.955,93.174 c-4.353-0.167-8.377-2.244-11.042-5.697c-6.899-8.942-1.483-21.784,9.287-23.466c33.418-5.22,60.942-17.695,83.174-37.808 c5.217,4.784,10.4,9.722,15.417,14.696c3.136,3.108,8.201,3.091,11.313-0.048c3.111-3.138,3.09-8.203-0.048-11.314 c-5.017-4.974-10.197-9.911-15.41-14.704c36.861-41.278,50.235-100.292,60.863-154.499c0.85-4.335-1.976-8.54-6.312-9.39 c-4.333-0.851-8.54,1.976-9.39,6.312C149.98,317.142,125.579,400.777,25.891,416.35c-12.529,1.958-22.402,11.246-25.153,23.663 c-4.139,18.681,9.655,36.563,28.762,37.298c37.119,1.425,77.333-1.181,110.112-18.643c38.59-20.558,59.071-57.778,86.743-84.372 c0.199-0.191,0.396-0.38,0.575-0.581c25.681-25.823,60.802-52.008,123.334-73.818c27.637-9.641,52.325-29.055,68.143-55.753 c0.251-0.363,0.474-0.741,0.66-1.135C429.475,225.022,435.477,204.586,436.319,183.514z"/><path d="M346.153,173.933c1.563,1.568,3.614,2.353,5.666,2.353c7.087,0,10.675-8.622,5.666-13.647 c-8.583-8.612-17.479-16.975-26.645-25.049c-3.315-2.92-8.371-2.601-11.291,0.715c-2.921,3.315-2.601,8.371,0.715,11.291 C329.064,157.348,337.674,165.427,346.153,173.933z"/><path d="M281.936,118.79c3.55,2.598,8.56,1.851,11.181-1.73c2.61-3.565,1.835-8.571-1.729-11.181 c-1.125-0.823-2.259-1.646-3.402-2.472c-3.586-2.587-8.584-1.775-11.169,1.807c-2.585,3.583-1.775,8.583,1.808,11.168 C279.738,117.186,280.843,117.989,281.936,118.79z"/><path d="M267.734,236.381c-3.081,3.167-3.013,8.231,0.154,11.313c0.534,0.52,1.069,1.044,1.606,1.572 c3.151,3.098,8.216,3.053,11.313-0.097c3.098-3.151,3.054-8.216-0.097-11.313c-0.557-0.547-1.111-1.09-1.665-1.628 C275.881,233.145,270.815,233.215,267.734,236.381z"/><path d="M476.798,93.599l-5.079-9.345c-10.68-19.653-33.106-29.522-54.535-24.001c-12.023,3.097-23.765,7.403-34.976,12.814 c-8.789-6.255-18.243-11.331-28.173-15.156c1.822-10.061,3.383-20.239,4.622-30.358c0.849-6.919,8.01-11.054,14.337-8.319 l9.778,4.224c7.039,3.042,12.819,8.475,16.276,15.301c1.995,3.94,6.809,5.519,10.751,3.522c3.942-1.996,5.519-6.81,3.522-10.751 c-5.144-10.155-13.739-18.238-24.204-22.76l-9.778-4.224c-16.14-6.97-34.417,3.532-36.563,21.062 c-1.121,9.153-2.504,18.359-4.118,27.474c-44.088-10.83-92.834,1.848-126.073,38.221c-18.314,20.041-27.31,51.602-33.693,79.832 c-0.65,2.856,0.335,5.953,2.694,7.913c3.846,3.193,25.521,15.52,57.454,42.476c3.39,2.861,8.435,2.41,11.273-0.953 c2.85-3.376,2.423-8.423-0.953-11.273c-16.991-14.343-35.011-27.782-53.615-40.032c5.828-24.705,13.936-51.065,28.651-67.168 c30.791-33.695,77.032-44.263,117.365-31.537c0.409,0.175,0.841,0.312,1.288,0.419c30.46,10.02,56.819,33.436,69.474,65.566 c1.208,3.064,4.206,5.07,7.438,5.07c2.815,0,12.856-4.033,39.152-9.689C476.354,128.217,485.208,109.079,476.798,93.599z M455.748,116.282c-10.427,2.243-20.883,4.842-31.191,7.715c-6.875-14.952-16.457-28.257-28.552-39.628 c8.165-3.512,16.587-6.411,25.171-8.622c14.311-3.689,29.315,2.954,36.484,16.147l5.079,9.344 C466.035,107.304,462.56,114.817,455.748,116.282z"/></svg>