<svg xmlns="http://www.w3.org/2000/svg"  viewBox="0 0 512 512" width="128px" height="128px"><path fill="#c14744" d="M262.95,104.1c-1.24,0-2.48.01-3.73.04L132.51,147.96v.06C97.73,179.57,81.49,226.28,81.49,276.3c0,96.36,73.74,176.54,183.67,174.49,0,0,24.95.04,40.24-7.84L417.08,204.56C398.89,144.89,339.4,103.97,262.95,104.1Z"/><path fill="#a53f3f" d="M121.49,276.3a226.765,226.765,0,0,1,4.987-48.511,127.542,127.542,0,0,1,83.561-93.235l83.036-28.289A202.879,202.879,0,0,0,262.95,104.1c-1.24,0-2.48.01-3.73.04L132.51,147.96v.06C97.73,179.57,81.49,226.28,81.49,276.3c0,96.36,73.74,176.54,183.67,174.49a133.584,133.584,0,0,0,14.757-1.012C184.089,440.128,121.49,365.083,121.49,276.3Z"/><path fill="#937051" d="M262.4,73.77l.55,30.33c-1.24,0-2.48.01-3.73.04a28.851,28.851,0,0,1-2.2,6.02l-.01-.01L237.63,73.04Z"/><path fill="#4ca987" d="M257.01,110.15l.01.01s-56.58,31.56-119.88,37.51c-1.55.14-3.09.24-4.63.29-60.94,2.09-114.68-66.84-115.5-67.9.29.18,13.24,7.79,77.6-18.41C159.31,35.33,255.73,109.17,257.01,110.15Z"/><path fill="#cc9869" d="M417.08,204.56A131.494,131.494,0,0,1,495,324.52c0,72.62-59.15,131.5-132.11,131.5a131.857,131.857,0,0,1-132.11-131.5c0-72.62,59.15-131.5,132.11-131.5A132.049,132.049,0,0,1,417.08,204.56Z"/><path fill="#de3c44" d="M461.42,311.69c13.26,20.98,8.41,58.85-14.31,66.24a11.676,11.676,0,0,0-3.36-3.7l-65.77-45.06a13.629,13.629,0,0,0,.63-7.57l70.16-14.43.68-.14C453.57,306.2,459.18,308.14,461.42,311.69Z"/><path fill="#ad2a34" d="M424.81,245.12c31.28,6.21,49.53,55.35,23.96,62.05L378.61,321.6a13.682,13.682,0,0,0-5.07-8.14l39.63-62.91a11.691,11.691,0,0,1,3.45-3.41A11.52,11.52,0,0,1,424.81,245.12Z"/><path fill="#ad2a34" d="M447.11,377.93a11.974,11.974,0,0,1,1.67,8.08c-6.97,34.14-53.51,45.4-64.41,29.57l-14.43-78.43a13.76,13.76,0,0,0,8.04-7.98l65.77,45.06A11.676,11.676,0,0,1,447.11,377.93Z"/><path fill="#de3c44" d="M348.41,226.33c26.33-17.93,73.84.92,68.21,20.81a11.691,11.691,0,0,0-3.45,3.41l-39.63,62.91a13.845,13.845,0,0,0-11.77-2.49l-17.6-72.56a10.161,10.161,0,0,1-.26-2.84C344.03,232.03,345.7,228.18,348.41,226.33Z"/><path fill="#de3c44" d="M384.37,415.58c.81,4.11-1.15,9.76-4.77,11.88-19.02,11.16-76.77-4.12-70.26-23.75a11.69,11.69,0,0,0,3.66-3.29l44.82-64.44v-.01a13.838,13.838,0,0,0,12.12,1.18Z"/><path fill="#7f3d32" d="M378.61,321.6a13.629,13.629,0,0,1-.63,7.57,13.79,13.79,0,0,1-26.69-4.87,13.581,13.581,0,0,1,.94-4.99,13.813,13.813,0,0,1,26.38,2.29Z"/><path fill="#ad2a34" d="M344.17,238.41l17.6,72.56a13.785,13.785,0,0,0-9.54,8.34l-68.27-43.98c-3.38-2.5-5.65-7.96-4.5-11.99,8.72-30.53,56-46.65,64.45-27.77A10.161,10.161,0,0,0,344.17,238.41Z"/><path fill="#ad2a34" d="M357.82,335.97v.01L313,400.42a11.69,11.69,0,0,1-3.66,3.29,11.537,11.537,0,0,1-8.22,1.62c-30.97-7.58-51.44-52-30.56-63.16l81.85-12.43A13.838,13.838,0,0,0,357.82,335.97Z"/><path fill="#de3c44" d="M352.41,329.74l-81.85,12.43-4.28.65c-4.15.65-9.31-1.77-11.76-5.18-11.82-16.45,2.65-70.09,29.44-62.31l68.27,43.98a13.744,13.744,0,0,0,.18,10.43Z"/><path fill="#243a54" d="M101.431,91.967c-6.187,0-10.822-1.057-14.586-3.325A6,6,0,0,0,80.65,98.919c5.714,3.444,12.317,5.048,20.781,5.048a6,6,0,0,0,0-12Z"/><path fill="#243a54" d="M113.737,242.875a6.091,6.091,0,0,0,1.035.09,6,6,0,0,0,5.9-4.973c.724-4.162,1.592-8.391,2.579-12.569a6,6,0,1,0-11.678-2.76c-1.042,4.41-1.959,8.876-2.723,13.272A6,6,0,0,0,113.737,242.875Z"/><path fill="#243a54" d="M118.646,252.948a6,6,0,0,0-11.943-1.162c-5.353,55.037,13.585,87.947,14.393,89.321a6,6,0,0,0,10.342-6.087C131.26,334.717,113.667,304.141,118.646,252.948Z"/><path fill="#243a54" d="M360.419,259.737a6,6,0,0,0,5.935,5.172,6.092,6.092,0,0,0,.837-.058,6,6,0,0,0,5.113-6.772l-.485-3.478a6,6,0,1,0-11.885,1.658Z"/><path fill="#243a54" d="M380.634,267.1a6,6,0,0,0,8.056-2.664l1.579-3.138a6,6,0,0,0-10.721-5.393l-1.578,3.138A6,6,0,0,0,380.634,267.1Z"/><path fill="#243a54" d="M432.494,279.508a5.961,5.961,0,0,0,2.8-.7l4.451-2.353a6,6,0,1,0-5.609-10.607l-4.451,2.353a6,6,0,0,0,2.81,11.305Z"/><path fill="#243a54" d="M437.078,285.473a6,6,0,1,0,2.785,11.672l4.952-1.182a6,6,0,0,0-2.785-11.672Z"/><path fill="#243a54" d="M409.415,291.457a6,6,0,0,0,5.928,5.123,6.063,6.063,0,0,0,.886-.065l3.392-.5a6,6,0,0,0-1.757-11.871l-3.392.5A6,6,0,0,0,409.415,291.457Z"/><path fill="#243a54" d="M425.982,239.235a14.089,14.089,0,0,0-3.567-.222c-1.464-5.324-5.326-10.428-11.332-14.756-16.421-11.836-46.342-16.305-66.047-2.884a14.5,14.5,0,0,0-3.378,3.282c-4.289-2.45-9.825-3.544-16.238-3.086-19.772,1.411-45.172,17.154-51.733,40.126a15.571,15.571,0,0,0-.137,7.435c-6.529,1.5-12.546,5.907-17.571,13.019-5.644,7.988-9.689,19.061-11.1,30.381-.871,7-1.409,20.02,4.769,28.614a19.159,19.159,0,0,0,8.394,6.406,29.227,29.227,0,0,0-1.685,14.975c2.38,18.873,19.625,42.833,43.335,48.635a13.976,13.976,0,0,0,3.319.386c.187,0,.375-.012.562-.019,1.048,3.329,3.368,7.032,7.936,10.729,7.785,6.3,20.928,11.439,35.159,13.747a93.864,93.864,0,0,0,14.583,1.213c7.232,0,15.308-1.016,21.38-4.576a15.369,15.369,0,0,0,5.858-6.507,33.885,33.885,0,0,0,13.3,2.486,49.408,49.408,0,0,0,9.813-1.028c18.073-3.674,38.393-17.584,43.05-40.375a15.96,15.96,0,0,0-.012-6.106c7.341-4.193,13.121-11.469,16.578-21.045,6.058-16.786,4.157-37.515-4.729-51.584a14.776,14.776,0,0,0-3.814-3.979c2.885-4.186,4.366-9.587,4.178-15.833C466.269,269.007,449.335,243.869,425.982,239.235Zm-7.738,14.508a6.084,6.084,0,0,1,2.21-1.91l-3.06,3.606a6,6,0,0,0,9.148,7.765l3.3-3.892a5.989,5.989,0,0,0,1.108-5.788c13.5,6.628,23.533,22.889,23.912,35.506.076,2.53.3,10.217-7.557,12.315l-64.942,13.36a19.734,19.734,0,0,0-1.28-1.972l23.179-36.8a6,6,0,0,0,10.878,4.655l1.506-2.353a6,6,0,0,0-8.892-7.846Zm-66.453-22.452c.147-.1.3-.19.449-.287a5.965,5.965,0,0,0,.147,2.159l1.3,5.049a6,6,0,0,0,11.621-2.992l-1.3-5.049a5.974,5.974,0,0,0-2.344-3.4,47.668,47.668,0,0,1,15.526-1.6,6,6,0,0,0-4.964,5.151l-.658,5.109a6,6,0,1,0,11.9,1.534l.658-5.11a6,6,0,0,0-4.039-6.453,54.666,54.666,0,0,1,18.837,5.468,6,6,0,0,0-6.686,3.674l-1.93,4.843a6,6,0,1,0,11.147,4.441l1.93-4.843a5.994,5.994,0,0,0-1.063-6.171c.6.381,1.184.769,1.744,1.172,2.232,1.609,6.966,5.544,6.984,9.894a16.613,16.613,0,0,0-2.961,3.463l-36.7,58.264a19.725,19.725,0,0,0-4.985-.978L350,237C349.531,235.052,350.628,232.084,351.791,231.291ZM372.879,324.3a7.8,7.8,0,1,1-7.8-7.732A7.773,7.773,0,0,1,372.879,324.3Zm-87.653-59.308c4.974-17.417,25.24-30.324,41.048-31.452,3.419-.247,9.242-.055,11.664,3.6a15.923,15.923,0,0,0,.4,2.693L354.753,307.5a19.86,19.86,0,0,0-4.283,3.536l-63.058-40.613C285.859,269.168,284.851,266.3,285.226,264.991ZM259.4,334.139c-5.6-7.8-3.517-31.052,6.385-45.066,4.761-6.738,10.062-9.469,15.76-8.159l63.885,41.146a19.7,19.7,0,0,0-.137,2.239c0,.152.02.3.023.451L265.35,336.89C263.543,337.173,260.6,335.81,259.4,334.139ZM308.067,397c-1.154,1.665-4.143,2.837-5.519,2.5-17.895-4.379-32.429-23.794-34.281-38.48-.554-4.391-.2-10.111,4.359-13.1l76.757-11.653c.163.211.316.43.487.635Zm68.5,25.284c-11.45,6.718-44.233,1.38-57.5-9.36-2.6-2.105-3.989-4.049-4.174-5.8a16.546,16.546,0,0,0,3.035-3.274l5.759-8.279-.58,1.167a6,6,0,1,0,10.746,5.34l2.319-4.669a6,6,0,0,0-8.246-7.933l32.085-46.128a19.783,19.783,0,0,0,5.078.682h.023l13.379,72.7C378.873,418.7,377.693,421.626,376.564,422.288ZM442.9,384.814c-3.56,17.419-19.482,28.13-33.684,31.017-8.469,1.722-15.962.578-19.218-2.827L376.622,340.3a19.969,19.969,0,0,0,3.045-2.7l45.6,31.244a6,6,0,0,0-3.052,10.667l4.09,3.233a5.995,5.995,0,0,0,9.342-6.787l4.75,3.255C441.925,380.241,443.237,383.175,442.9,384.814Zm17.035-28.824c-1.8,5-5.145,11.194-11.108,14.629a15.538,15.538,0,0,0-1.686-1.333l-62.4-42.758c0-.021.007-.041.01-.062l37.21-7.656a6,6,0,0,0,4.324,10.147,5.918,5.918,0,0,0,.825-.057l3.116-.428a6,6,0,0,0,1.168-11.6l10.316-2.123a5.99,5.99,0,0,0,5.538,8.282c.1,0,.2,0,.305-.008l4.663-.233a6,6,0,0,0,5.644-5.208C463.434,328.46,464.352,343.76,459.938,355.99Z"/><path fill="#243a54" d="M358.937,370.673a6,6,0,0,0,5.883-4.853l.96-4.922A6,6,0,0,0,354,358.6l-.959,4.921a6,6,0,0,0,4.741,7.037A5.922,5.922,0,0,0,358.937,370.673Z"/><path fill="#243a54" d="M329.858,313.732l-3.776-.985a6,6,0,0,0-3.03,11.611l3.776.986a6,6,0,0,0,3.03-11.612Z"/><path fill="#243a54" d="M328.629,343.239,325.3,345.2a6,6,0,1,0,6.082,10.344l3.327-1.956a6,6,0,1,0-6.082-10.344Z"/><path fill="#243a54" d="M337.068,287.693a6,6,0,0,0-.49,8.472l2.818,3.164a6,6,0,0,0,8.961-7.982l-2.818-3.164A6,6,0,0,0,337.068,287.693Z"/><path fill="#243a54" d="M396.239,294.9,393,297.341a6,6,0,0,0,7.222,9.584l3.239-2.441a6,6,0,0,0-7.222-9.584Z"/><path fill="#243a54" d="M366.894,284.472l-.112,3.838a6,6,0,0,0,5.822,6.172c.06,0,.119,0,.179,0a6,6,0,0,0,5.994-5.824l.112-3.838a6,6,0,1,0-12-.351Z"/><path fill="#243a54" d="M390.53,364.374a6,6,0,0,0,5.044-9.241l-2.629-4.1a6,6,0,0,0-10.1,6.481l2.629,4.1A6,6,0,0,0,390.53,364.374Z"/><path fill="#243a54" d="M411.009,325.517l-4.128-1.147a6,6,0,0,0-3.212,11.563l4.128,1.146a6,6,0,0,0,3.212-11.562Z"/><path fill="#243a54" d="M296.628,274.172l4.724,2.049a6,6,0,1,0,4.774-11.01l-4.724-2.049a6,6,0,0,0-4.774,11.01Z"/><path fill="#243a54" d="M310.03,260.626a6,6,0,0,0,8.515-8.455l-3.582-3.606a6,6,0,1,0-8.514,8.455Z"/><path fill="#243a54" d="M324.485,248.44a6,6,0,1,0,10.35-6.074l-2.6-4.433a6,6,0,0,0-10.35,6.074Z"/><path fill="#243a54" d="M328.2,273.626l-3.006-1.73a6,6,0,0,0-5.987,10.4l3.006,1.73a6,6,0,0,0,5.987-10.4Z"/><path fill="#243a54" d="M330.812,266.8l1.488,3.128a6,6,0,1,0,10.837-5.153l-1.488-3.128a6,6,0,0,0-10.837,5.153Z"/><path fill="#243a54" d="M276.59,321.481l-4.988,1.284a6,6,0,1,0,2.991,11.621l4.988-1.283a6,6,0,0,0-2.991-11.622Z"/><path fill="#243a54" d="M271.761,314.838l5.049.646a5.886,5.886,0,0,0,.769.05,6,6,0,0,0,.755-11.952l-5.048-.647a6,6,0,0,0-1.525,11.9Z"/><path fill="#243a54" d="M285.123,285.856l-4.786-1.9a6,6,0,0,0-4.426,11.154l4.786,1.9a6,6,0,0,0,4.426-11.155Z"/><path fill="#243a54" d="M301.158,316.547l-3.437.48a6,6,0,0,0,.823,11.944,6.12,6.12,0,0,0,.838-.059l3.437-.48a6,6,0,1,0-1.661-11.885Z"/><path fill="#243a54" d="M307.465,300.4l-3.1-1.553a6,6,0,1,0-5.375,10.728l3.1,1.554a6,6,0,1,0,5.375-10.729Z"/><path fill="#243a54" d="M308.707,379.82a6,6,0,0,0-8.435.923l-3.219,4.01a6,6,0,1,0,9.357,7.512l3.219-4.01A6,6,0,0,0,308.707,379.82Z"/><path fill="#243a54" d="M299.083,367.646a6,6,0,0,0-8.175-2.273l-4.429,2.5a6,6,0,1,0,5.9,10.447l4.428-2.5A6,6,0,0,0,299.083,367.646Z"/><path fill="#243a54" d="M288.81,358.714a6,6,0,0,0-3.129-11.586l-4.973,1.343a6,6,0,0,0,1.561,11.8,6.07,6.07,0,0,0,1.568-.209Z"/><path fill="#243a54" d="M314.2,361.7l-2.462,2.441a6,6,0,0,0,8.45,8.521l2.461-2.44A6,6,0,0,0,314.2,361.7Z"/><path fill="#243a54" d="M307.173,357.527a6.143,6.143,0,0,0,1.065-.094l3.416-.613a6,6,0,0,0-2.117-11.812l-3.416.612a6,6,0,0,0,1.052,11.907Z"/><path fill="#243a54" d="M372.57,401.583a6,6,0,1,0-11.827,2.031l.882,5.138a6,6,0,0,0,5.906,4.985,6.008,6.008,0,0,0,5.921-7.016Z"/><path fill="#243a54" d="M349.905,395.766a6,6,0,0,0-7.119,4.617l-1.075,5.038a6,6,0,1,0,11.737,2.5l1.074-5.038A6,6,0,0,0,349.905,395.766Z"/><path fill="#243a54" d="M362.171,389.416a6,6,0,0,0,5.65-6.33l-.2-3.507a6,6,0,1,0-11.98.68l.2,3.507a6,6,0,0,0,5.985,5.66C361.94,389.426,362.056,389.423,362.171,389.416Z"/><path fill="#243a54" d="M348.244,381.834l1.83-3a6,6,0,1,0-10.243-6.252l-1.83,3a6,6,0,1,0,10.243,6.252Z"/><path fill="#243a54" d="M402.63,395.6a6,6,0,1,0-11.563,3.2l1.392,5.023a6,6,0,1,0,11.564-3.2Z"/><path fill="#243a54" d="M417.5,385.019a6,6,0,1,0-9.548,7.269l3.12,4.1a6,6,0,0,0,9.548-7.27Z"/><path fill="#243a54" d="M395.283,383.365a6,6,0,0,0,3.317-7.809l-1.315-3.257a6,6,0,1,0-11.127,4.492l1.315,3.257a5.991,5.991,0,0,0,7.81,3.317Z"/><path fill="#243a54" d="M412.958,368.856a6,6,0,0,0-1.711-8.31l-2.934-1.932a6,6,0,1,0-6.6,10.022l2.933,1.931a5.995,5.995,0,0,0,8.311-1.711Z"/><path fill="#243a54" d="M448.068,346.827l-3.9-2.563a6,6,0,0,0-6.59,10.029l3.9,2.563a6,6,0,1,0,6.59-10.029Z"/><path fill="#243a54" d="M452.243,329.2l-4.52-.922a6,6,0,1,0-2.4,11.758l4.52.922a6,6,0,0,0,2.4-11.758Z"/><path fill="#243a54" d="M429.294,334.218l-2.807-1.419a6,6,0,1,0-5.413,10.709l2.807,1.419a6,6,0,1,0,5.413-10.709Z"/><path fill="#243a54" d="M422.012,200.277c-9.9-30.368-29.978-56.006-58.2-74.266-26.886-17.4-59.549-26.94-94.971-27.834L268.4,73.665a6,6,0,0,0-5.821-5.889l-24.767-.734a6,6,0,0,0-5.5,8.775l8.2,15.693a354.924,354.924,0,0,0-37.7-20.964C158.149,49.3,120.984,44.442,92.348,56.1,36.1,78.994,20.877,75.068,19.764,74.724a6,6,0,0,0-7.512,8.993c2.168,2.807,48.972,62.534,106.473,69.612C90.748,184.061,75.487,227.157,75.487,276.3c0,49.654,18.782,95.434,52.885,128.9,34.007,33.378,81.021,51.626,132.765,51.626,1.356,0,2.72-.012,4.082-.038,1.7,0,24.157-.171,40.242-7.238a137.791,137.791,0,0,0,57.43,12.468c76.153,0,138.109-61.681,138.109-137.5C501,269.755,468.668,222.371,422.012,200.277ZM256.5,79.6l.31,17.2-9.12-17.459ZM30.858,86.88c12.274-1.218,32.614-6.073,66.015-19.668,45.965-18.712,110.685,17.227,140.414,36.55-32.675,1.69-91.128.391-116.153-9.071a6,6,0,1,0-4.243,11.225c20.688,7.821,61,10.48,94.031,10.48,7.039,0,13.74-.122,19.858-.339-22.011,9.5-57.089,22.154-94.2,25.643C91.551,145.934,48.948,106.4,30.858,86.88ZM362.891,450.018a126.165,126.165,0,0,1-123.713-101.1,6,6,0,0,0-5.873-4.854h-.018a6,6,0,0,0-5.876,7.182,137.9,137.9,0,0,0,63.423,90.526,126.72,126.72,0,0,1-25.664,3.015h0c-.039,0-.081,0-.122,0-50.092.943-95.676-16.162-128.27-48.153C104.992,365.44,87.487,322.7,87.487,276.3c0-50.352,16.891-93.741,47.591-122.464.874-.055,1.747-.1,2.623-.184,42.282-3.974,81.15-18.891,103.261-28.892-2.1,2.673-3.987,4.654-5.208,5.226a6,6,0,0,0,3.679,11.422c7.565-2.379,17.53-17.37,22.578-27.926a5.965,5.965,0,0,0,.756-1.623c4.614,2.285,11.725,7.166,17.657,17.133a6,6,0,1,0,10.312-6.136,60.794,60.794,0,0,0-9.2-11.932c28.167,2.561,54.04,11.113,75.761,25.167,22.769,14.731,39.735,34.652,49.645,58.109a138.1,138.1,0,0,0-44.048-7.172c-71.732,0-130.86,54.728-137.486,124.444a6.006,6.006,0,0,0,5.963,6.6h.012a6.016,6.016,0,0,0,5.968-5.486c6.062-63.62,60.053-113.556,125.543-113.556,69.537,0,126.109,56.3,126.109,125.5S432.428,450.018,362.891,450.018Z"/></svg>