<svg xmlns="http://www.w3.org/2000/svg"  viewBox="0 0 100 100" width="100px" height="100px"><path d="M27.5,88.3c-3,0-18.2-0.2-22.9-3.8c-1.5-1.1-2.4-2.8-2.5-4.6C2,78.2,2.6,76.4,3.9,75c1.2-1.3,2.3-4.1,3.4-7.1	c2.5-6.5,5.5-14.5,13.9-20c1.2-0.8,2.8-1.6,4.4-2.2c-2.6-5.8-2.9-12.6-1-19.6c0.8-2.8,3.3-4.7,6.2-4.7c0.2,0,0.3,0,0.5,0	c7.9,0.6,14.7,2.7,20,6.1c3-4.3,7.3-7.5,12.8-9.5c8-2.9,15.4-4.4,22-4.4c4.3,0,7.2,0.7,8.7,1.1c0.4,0.1,0.7,0.2,1.1,0.3	c2.2,0.9,3.7,2.9,3.9,5.2c0.1,1.2,0.9,11.8-10.8,29.4c-0.6,0.9-1.3,1.8-2,2.6c11.7,17.5,10.9,28.2,10.8,29.3	c-0.3,2.3-1.8,4.3-3.9,5.2c-0.4,0.2-0.9,0.3-1.3,0.4c-1.5,0.4-4.4,1.1-8.5,1.1c-6.5,0-13.9-1.5-22-4.4c-2.2-0.8-4.3-1.8-6.2-3.1	c-1.5,1.3-3.3,2.4-5.2,3.5C44.7,87.6,34.8,88.3,27.5,88.3z" opacity=".35"/><path fill="#f2f2f2" d="M25.6,86.3c-3,0-18.2-0.2-22.9-3.8c-1.5-1.1-2.4-2.8-2.5-4.6c-0.1-1.8,0.5-3.6,1.8-4.9C3.1,71.8,4.2,69,5.3,66	c2.5-6.5,5.5-14.5,13.9-20c1.2-0.8,2.8-1.6,4.4-2.2c-2.6-5.8-2.9-12.6-1-19.6c0.8-2.8,3.3-4.7,6.2-4.7c0.2,0,0.3,0,0.5,0	c7.9,0.6,14.7,2.7,20,6.1c3-4.3,7.3-7.5,12.8-9.5c8-2.9,15.4-4.4,22-4.4c4.3,0,7.2,0.7,8.7,1.1c0.4,0.1,0.7,0.2,1.1,0.3	c2.2,0.9,3.7,2.9,3.9,5.2C98,19.5,98.8,30.1,87,47.7c-0.6,0.9-1.3,1.8-2,2.6C96.8,67.9,96,78.5,95.8,79.7c-0.3,2.3-1.8,4.3-3.9,5.2	c-0.4,0.2-0.9,0.3-1.3,0.4c-1.5,0.4-4.4,1.1-8.5,1.1c-6.5,0-13.9-1.5-22-4.4c-2.2-0.8-4.3-1.8-6.2-3.1c-1.5,1.3-3.3,2.4-5.2,3.5	C42.8,85.7,32.8,86.3,25.6,86.3z"/><path fill="#96c362" d="M91.5,19L91.5,19c-0.2-0.1-9.2-3.5-27.2,3c-11.5,4.2-13.4,14-13.2,20.7c0.1,4.3,3.1,8.1,7.3,9.3	c0,0,0.1,0,0.1,0c6.5,1.8,16.5,2.3,23.3-7.9C92.5,28,91.5,19,91.5,19z"/><path fill="#96c362" d="M89.5,79L89.5,79c-0.2,0.1-9.2,3.5-27.2-3c-11.5-4.2-13.4-14-13.2-20.7c0.1-4.3,3.1-8.1,7.3-9.3	c0,0,0.1,0,0.1,0c6.5-1.8,16.5-2.3,23.3,7.9C90.5,70,89.5,79,89.5,79z"/><path fill="#96c362" d="M52.8,50.6C58,46,54.2,27.7,28.9,25.8C22.8,47.5,45.1,57.3,52.8,50.6z"/><path fill="#96c362" d="M50.6,54c8.4,10,4.1,17.8-4.9,22.8s-36,3.1-39.1,0.7c5.4-5.6,5.4-19.1,16.2-26.2C27.2,48.4,41.7,43.5,50.6,54z"/><path fill="#558b2f" d="M53.7,48.9c-1.2-0.5-1.5-2.1-1.4-3.2c0.1-1.2,0.7-2.1,1-3.1c0.4-1,0.6-2,0.6-3c0-1-0.2-2-0.8-3l0.1-0.1	c0.7,0.8,1.2,1.9,1.4,3c0.1,1.1,0,2.3-0.3,3.3c-0.2,1.1-0.5,2.1-0.7,3c-0.3,0.9-0.4,1.7,0,2.8L53.7,48.9z"/><path fill="#558b2f" d="M52.2,50.8c-1.4,0.7-2.7,1.1-4,1.7c-1.3,0.5-2.7,0.9-4,1.5c-2.6,1.2-5,2.8-7.3,4.6l-0.1-0.1	c1.9-2.3,4.2-4.3,6.7-5.9c1.3-0.8,2.6-1.6,4.1-1.9c1.5-0.3,3.1-0.4,4.6,0L52.2,50.8z"/><path fill="#558b2f" stroke="#40396e" stroke-linecap="round" stroke-linejoin="round" stroke-miterlimit="10" stroke-width="3" d="M32.2,30.5c3.5,6.9,9,12.5,16.1,17.1"/><path fill="#558b2f" stroke="#40396e" stroke-linecap="round" stroke-linejoin="round" stroke-miterlimit="10" stroke-width="3" d="M38.9,33.2c0.2,2.7-0.2,4.6-0.5,5.8"/><path fill="#558b2f" stroke="#40396e" stroke-linecap="round" stroke-linejoin="round" stroke-miterlimit="10" stroke-width="3" d="M40.4,41.3c-1.1,0.8-2.5,1-4,0.8"/><path fill="none" stroke="#40396e" stroke-linecap="round" stroke-linejoin="round" stroke-miterlimit="10" stroke-width="3" d="M85,23.1c-11.9,5.6-23.6,13.1-27.8,22.2"/><line x1="70.6" x2="69.3" y1="26.8" y2="32" fill="none" stroke="#40396e" stroke-linecap="round" stroke-linejoin="round" stroke-miterlimit="10" stroke-width="3"/><line x1="62.5" x2="78.6" y1="38.4" y2="37.5" fill="none" stroke="#40396e" stroke-linecap="round" stroke-linejoin="round" stroke-miterlimit="10" stroke-width="3"/><path fill="none" stroke="#40396e" stroke-linecap="round" stroke-linejoin="round" stroke-miterlimit="10" stroke-width="3" d="M53.1,49.7c11.7,5.3,23.6,15.5,30.7,26"/><path fill="none" stroke="#40396e" stroke-linecap="round" stroke-linejoin="round" stroke-miterlimit="10" stroke-width="3" d="M60.4,53.7C60,59.6,61,65,63.8,69.6"/><path fill="none" stroke="#40396e" stroke-linecap="round" stroke-linejoin="round" stroke-miterlimit="10" stroke-width="3" d="M68,58.2c1.9-0.7,4.8-0.2,8.2,1.2"/><path fill="none" stroke="#40396e" stroke-linecap="round" stroke-linejoin="round" stroke-miterlimit="10" stroke-width="3" d="M46,53.2c-9.9,3.7-20,11.1-30.1,19.9"/><path fill="none" stroke="#40396e" stroke-linecap="round" stroke-linejoin="round" stroke-miterlimit="10" stroke-width="3" d="M37.2,59.8c1.3,3.9-0.3,8.4-2.2,13"/><path fill="none" stroke="#40396e" stroke-linecap="round" stroke-linejoin="round" stroke-miterlimit="10" stroke-width="3" d="M27.3,63.2c-1.9-1.1-5.8-1.5-8.7-0.4"/><path fill="#40396e" d="M77.3,48.7c-6.8-6.3-15.2-5.8-21-4.2c-0.2-3.3-1.6-6.9-4.1-9.9c-0.5-0.6-1.4-0.7-2.1-0.2	c-0.6,0.5-0.7,1.4-0.2,2.1c2.3,2.9,3.6,6.3,3.4,9.2c-1.9,1.1-3.4,2.7-4.5,4.6c-5.2-4.1-11.1-4.5-15.4-4c-0.8,0.1-1.4,0.8-1.3,1.6	c0.1,0.8,0.8,1.4,1.6,1.3c3.9-0.4,9.5,0,14,4c-0.1,0.6-0.2,1.3-0.2,1.9c-0.1,4.4,0.6,10.6,4.7,15.7c0.3,0.4,0.7,0.5,1.1,0.5	c0.3,0,0.7-0.1,0.9-0.3c0.6-0.5,0.7-1.4,0.2-2.1c-3.6-4.3-4.2-9.9-4.1-13.7c0.1-3.7,2.6-6.9,6.1-7.9l0.2,0	c5.2-1.4,12.6-1.9,18.5,3.5c0.6,0.6,1.5,0.5,2.1-0.1C77.9,50.2,77.9,49.3,77.3,48.7z" opacity=".35"/><path fill="none" stroke="#40396e" stroke-linecap="round" stroke-linejoin="round" stroke-miterlimit="10" stroke-width="3" d="M76.3,49.8c1.9-1.3,3.8-3.2,5.4-5.7C92.5,28,91.5,19,91.5,19l0,0c-0.2-0.1-9.1-3.5-27.2,3	c-8.1,2.9-11.5,8.7-12.7,14.2c-3.7-5-10.8-9.5-22.8-10.4c-2.8,10,0.4,17.4,5.4,21.9c-5,0.4-9.4,2.2-11.5,3.6	C11.9,58.4,11.9,71.8,6.5,77.5c3.2,2.4,30.2,4.2,39.1-0.7c3.4-1.9,6.2-4.2,7.8-6.9c2,2.4,4.8,4.6,8.8,6c18,6.5,27,3.1,27.2,3l0,0	c0,0,1-9-9.8-25.1C78.6,52.2,77.5,50.9,76.3,49.8z"/><path fill="#407845" d="M54.9,48.7c3.3-1.1,9-6-1.6-12.1C44.3,48.4,51.7,49.7,54.9,48.7z"/><path fill="#407845" d="M53.9,50.1c1.3,3.1-3.7,11.5-16.2,7.4C41.4,46.5,52.3,46.2,53.9,50.1z"/></svg>