<svg xmlns="http://www.w3.org/2000/svg"  viewBox="0 0 100 100" width="100px" height="100px"><g id="Слой_2"><path d="M84.67,42.774c4.485-9.237,3.222-19.409,3.038-20.694c-0.501-3.498-3.293-6.289-6.791-6.787 c-0.207-0.03-2.112-0.29-4.847-0.29c-4.135,0-9.78,0.579-15.168,3.023c-8.248-7.92-19.93-8.915-21.385-9.009 C39.345,9.006,39.172,9,38.999,9c-2.783,0-5.322,1.411-6.792,3.774c-1.561,2.509-1.614,5.658-0.14,8.218l1.647,2.86 c-3.746,1.079-7.197,3.185-10.31,6.298c-5.847,5.846-11.11,15.884-13.735,26.198c-3.381,13.285-1.58,24.264,5.071,30.914 C19.211,91.733,25.454,94,33.295,94c14.495,0,30.987-7.833,38.557-15.406c2.702-2.702,4.665-5.734,5.841-8.984l4.695,2.703 c1.212,0.698,2.592,1.067,3.992,1.067c1.495,0,2.956-0.417,4.225-1.207c2.509-1.56,3.949-4.361,3.758-7.309 C94.264,63.323,93.212,51.019,84.67,42.774z" opacity=".35"/><path fill="#f2f2f2" d="M82.67,40.774c4.485-9.237,3.222-19.409,3.038-20.694c-0.501-3.498-3.293-6.289-6.791-6.787 c-0.207-0.03-2.112-0.29-4.847-0.29c-4.135,0-9.78,0.579-15.168,3.023c-8.248-7.92-19.93-8.915-21.385-9.009 C37.345,7.006,37.172,7,36.999,7c-2.783,0-5.322,1.411-6.792,3.774c-1.561,2.509-1.614,5.658-0.14,8.218l1.647,2.86 c-3.746,1.079-7.197,3.185-10.31,6.298c-5.847,5.846-11.11,15.884-13.735,26.198c-3.381,13.285-1.58,24.264,5.071,30.914 C17.211,89.733,23.454,92,31.295,92c14.495,0,30.987-7.833,38.557-15.406c2.702-2.702,4.665-5.734,5.841-8.984l4.695,2.703 c1.212,0.698,2.592,1.067,3.992,1.067c1.495,0,2.956-0.417,4.225-1.207c2.509-1.56,3.949-4.361,3.758-7.309 C92.264,61.323,91.212,49.019,82.67,40.774z"/><path fill="#40396e" d="M76.157,40.948c6.305-8.594,4.68-20.609,4.601-21.161c-0.189-1.32-1.226-2.357-2.546-2.545 c-0.069-0.01-1.712-0.24-4.142-0.24c-3.911,0-10.695,0.62-16.268,4.324c-6.834-9.317-19.996-10.281-20.609-10.32 C37.129,11.002,37.064,11,36.999,11c-1.032,0-1.997,0.532-2.547,1.415c-0.584,0.939-0.604,2.123-0.053,3.082l5.545,9.631 c-0.712-0.083-1.416-0.124-2.112-0.124c-4.785,0-9.123,1.912-12.894,5.682c-5.169,5.168-10.046,14.547-12.425,23.895 c-2.929,11.507-1.593,20.792,3.761,26.145c3.499,3.5,8.553,5.274,15.02,5.274c13.024,0,28.319-7.236,35.02-13.94 c3.891-3.891,5.8-8.423,5.675-13.351l10.893,6.272c0.464,0.267,0.981,0.4,1.497,0.4c0.55,0,1.1-0.151,1.585-0.453 c0.939-0.584,1.481-1.637,1.409-2.741C87.332,61.53,86.304,47.55,76.157,40.948z"/><path fill="#689f38" d="M72.095,41.093c-7.595,7.595-20.886,5.697-20.886,5.697s-1.893-13.294,5.697-20.883 c7.595-7.592,20.883-5.694,20.883-5.694S79.689,33.495,72.095,41.093z"/><path fill="#96c362" d="M56,47L37,14C37,14,68,16,56,47z"/><path fill="#96c362" d="M51.381,43.381l33,19C84.381,62.381,82.381,31.381,51.381,43.381z"/><path fill="#de5147" d="M64.194,69.939c-9.226,9.23-35.544,18.92-45.798,8.666c-10.256-10.254-0.565-36.57,8.664-45.798 c9.23-9.23,20.692-4.065,30.946,6.191C68.259,49.248,73.424,60.709,64.194,69.939z"/><path fill="#f9b84f" d="M36.196,36.147c1.112-1.112,2.412-0.609,3.525,0.504s1.616,2.412,0.504,3.525s-5.539,1.511-5.539,1.511 S35.084,37.259,36.196,36.147z"/><path fill="#f9b84f" d="M31.196,52.147c1.112-1.112,2.412-0.609,3.525,0.504s1.616,2.412,0.504,3.525s-5.539,1.511-5.539,1.511 S30.084,53.259,31.196,52.147z"/><path fill="#f9b84f" d="M40.696,61.647c1.112-1.112,2.412-0.609,3.525,0.504s1.616,2.412,0.504,3.525s-5.539,1.511-5.539,1.511 S39.584,62.759,40.696,61.647z"/><path fill="#f9b84f" d="M24.696,67.647c1.112-1.112,2.412-0.609,3.525,0.504s1.616,2.412,0.504,3.525s-5.539,1.511-5.539,1.511 S23.584,68.759,24.696,67.647z"/><path fill="#f9b84f" d="M47.196,46.147c1.112-1.112,2.412-0.609,3.525,0.504s1.616,2.412,0.504,3.525s-5.539,1.511-5.539,1.511 S46.084,47.259,47.196,46.147z"/><path fill="#f9b84f" d="M56.196,57.147c1.112-1.112,2.412-0.609,3.525,0.504s1.616,2.412,0.504,3.525s-5.539,1.511-5.539,1.511 S55.084,58.259,56.196,57.147z"/></g></svg>