<svg xmlns="http://www.w3.org/2000/svg"  viewBox="0 0 100 100" width="100px" height="100px"><g id="Слой_2"><path d="M73.496,31.83l-3.031-4.294C69.506,26.178,69,24.583,69,22.922v-0.637c1.3-2.007,2-4.353,2-6.785 C71,8.607,65.393,3,58.5,3h-13C38.607,3,33,8.607,33,15.5c0,2.432,0.7,4.778,2,6.785v0.637c0,1.661-0.506,3.256-1.464,4.614 l-3.031,4.294C25.595,38.785,23,46.961,23,55.474V82c0,9.374,7.626,17,17,17h24c9.374,0,17-7.626,17-17V55.474 C81,46.961,78.405,38.785,73.496,31.83z" opacity=".35"/><path fill="#f2f2f2" d="M71.496,29.83l-3.031-4.294C67.506,24.178,67,22.583,67,20.922v-0.637c1.3-2.007,2-4.353,2-6.785 C69,6.607,63.393,1,56.5,1h-13C36.607,1,31,6.607,31,13.5c0,2.432,0.7,4.778,2,6.785v0.637c0,1.661-0.506,3.256-1.464,4.614 l-3.031,4.294C23.595,36.785,21,44.961,21,53.474V80c0,9.374,7.626,17,17,17h24c9.374,0,17-7.626,17-17V53.474 C79,44.961,76.405,36.785,71.496,29.83z"/><path fill="#d9eeff" d="M59,20.922V15H41v5.922c0,3.304-1.023,6.527-2.929,9.227l-3.031,4.294C31.11,40.011,29,46.659,29,53.474V80 c0,4.971,4.029,9,9,9h24c4.971,0,9-4.029,9-9V53.474c0-6.815-2.11-13.463-6.04-19.031l-3.031-4.294 C60.023,27.449,59,24.226,59,20.922z"/><path fill="#70bfff" d="M56.5,18h-13c-2.485,0-4.5-2.015-4.5-4.5v0c0-2.485,2.015-4.5,4.5-4.5h13c2.485,0,4.5,2.015,4.5,4.5v0 C61,15.985,58.985,18,56.5,18z"/><path fill="#40396e" d="M56.5,9c2.485,0,4.5,2.015,4.5,4.5c0,1.56-0.795,2.933-2,3.74v3.682c0,3.304,1.023,6.527,2.929,9.227 l3.031,4.294C68.89,40.011,71,46.659,71,53.474V80c0,4.971-4.029,9-9,9H38c-4.971,0-9-4.029-9-9V53.474 c0-6.815,2.11-13.463,6.04-19.031l3.031-4.294c1.906-2.7,2.929-5.923,2.929-9.227V17.24c-1.205-0.807-2-2.18-2-3.74 c0-2.485,2.015-4.5,4.5-4.5H56.5 M56.5,6h-13C39.364,6,36,9.365,36,13.5c0,1.915,0.727,3.727,2,5.098v2.324 c0,2.699-0.823,5.292-2.379,7.497l-3.031,4.294C28.279,38.82,26,45.999,26,53.474V80c0,6.617,5.383,12,12,12h24 c6.617,0,12-5.383,12-12V53.474c0-7.475-2.279-14.654-6.589-20.761l-3.031-4.294C62.823,26.213,62,23.621,62,20.922v-2.324 c1.273-1.371,2-3.183,2-5.098C64,9.365,60.636,6,56.5,6L56.5,6z"/><path fill="#fff" d="M35.04,34.443C31.11,40.011,29,46.659,29,53.474V80c0,4.971,4.029,9,9,9h24c4.971,0,9-4.029,9-9V53.474 c0-6.815-2.11-13.463-6.04-19.031L64.647,34H35.353L35.04,34.443z"/></g></svg>