<svg xmlns="http://www.w3.org/2000/svg"  viewBox="0 0 100 100" width="100px" height="100px"><g id="Слой_2"><path d="M52,4C29.393,4,11,21.944,11,44c0,4.411,3.589,8,8,8h11.292L29.07,72.809c-0.341,6.358,1.884,12.404,6.264,17.025 C39.714,94.455,45.633,97,52,97s12.286-2.545,16.666-7.166c4.38-4.621,6.605-10.667,6.264-17.025L73.708,52H85 c4.411,0,8-3.589,8-8C93,21.944,74.607,4,52,4z" opacity=".35"/><path fill="#f2f2f2" d="M50,2C27.393,2,9,19.944,9,42c0,4.411,3.589,8,8,8h11.292L27.07,70.809 c-0.341,6.358,1.884,12.404,6.264,17.025C37.714,92.455,43.633,95,50,95s12.286-2.545,16.666-7.166 c4.38-4.621,6.605-10.667,6.264-17.025L71.708,50H83c4.411,0,8-3.589,8-8C91,19.944,72.607,2,50,2z"/><path fill="#fedeb3" d="M65,21l-31-1l1.059,51.237C34.6,79.803,41.422,87,50,87h0c8.578,0,15.4-7.197,14.941-15.763L65,21z"/><path fill="#d47f56" d="M50,10c-18.225,0-33,14.327-33,32h66C83,24.327,68.225,10,50,10z"/><path fill="#40396e" d="M50,90c-4.98,0-9.61-1.991-13.037-5.605c-3.426-3.615-5.166-8.346-4.9-13.321L33.516,45H17 c-1.654,0-3-1.346-3-3C14,22.701,30.149,7,50,7s36,15.701,36,35c0,1.654-1.346,3-3,3H66.484l1.453,26.073 c0.267,4.977-1.475,9.706-4.9,13.321C59.61,88.009,54.98,90,50,90z M50,10c-18.196,0-33,14.355-33,32h18.102 c0.412,0,0.807,0.17,1.09,0.47c0.283,0.299,0.431,0.702,0.408,1.113l-1.541,27.653c-0.222,4.142,1.228,8.083,4.082,11.094 C41.994,85.342,45.852,87,50,87s8.006-1.658,10.859-4.67c2.854-3.011,4.304-6.951,4.082-11.094L63.4,43.583 c-0.022-0.411,0.125-0.814,0.408-1.113c0.283-0.3,0.678-0.47,1.09-0.47H83C83,24.355,68.196,10,50,10z"/><circle cx="68.5" cy="33.5" r="3.5" fill="#40396e" opacity=".35"/><circle cx="58.5" cy="32.5" r="2.5" fill="#40396e" opacity=".35"/><circle cx="66.5" cy="23.5" r="2.5" fill="#40396e" opacity=".35"/><polygon fill="#40396e" points="36,47 63.536,47 66,42 35,42" opacity=".35"/></g></svg>