<svg xmlns="http://www.w3.org/2000/svg"  viewBox="0 0 100 100" width="100px" height="100px"><path d="M70.8,99.3c-1.6,0-3.2-0.3-4.7-0.8c-1.5,0.5-3.1,0.8-4.7,0.8c-1.6,0-3.2-0.3-4.7-0.8c-1.5,0.5-3.1,0.8-4.7,0.8	s-3.2-0.3-4.7-0.8c-1.5,0.5-3.1,0.8-4.7,0.8s-3.2-0.3-4.7-0.8c-1.5,0.5-3.1,0.8-4.7,0.8c-7,0-12.7-5.2-12.7-11.6V41	c-1.5-3.7-2.3-8.3-2.3-13.1c0-11.5,8.5-20,9.5-20.9c1.5-1.4,3.5-2.2,5.6-2.2s4.7,6.6,6.2,8.1c0.4,0.4,1.4-3.8,3.2-1.2	C44.4,9,46,7.3,46.4,6.9c1.5-1.5,3.5-2.2,5.6-2.2s3.5,3.2,5,4.6c0.4,0.4,2.6-0.3,4.3,2.2c1.8-2.6,3.4-4.2,3.8-4.6	c1.5-1.5,3.5-2.2,5.6-2.2s4.1,0.8,5.6,2.2c1,0.9,9.5,9.5,9.5,20.9c0,4.9-0.8,9.4-2.3,13.1v46.7c0,1.8-0.5,3.7-1.4,5.3	c-1.8,3.2-5.2,5.5-9.1,6.1C72.2,99.3,71.5,99.3,70.8,99.3z" opacity=".35"/><path fill="#f2f2f2" d="M68.8,97.3c-1.6,0-3.2-0.3-4.7-0.8c-1.5,0.5-3.1,0.8-4.7,0.8c-1.6,0-3.2-0.3-4.7-0.8c-1.5,0.5-3.1,0.8-4.7,0.8	s-3.2-0.3-4.7-0.8c-1.5,0.5-3.1,0.8-4.7,0.8s-3.2-0.3-4.7-0.8c-1.5,0.5-3.1,0.8-4.7,0.8c-7,0-12.7-5.2-12.7-11.6V39	c-1.5-3.7-2.3-8.3-2.3-13.1c0-11.5,8.5-20,9.5-20.9c1.5-1.4,3.5-2.2,5.6-2.2s4.1,0.8,5.6,2.2c0.4,0.4,2,2,3.8,4.6	C42.4,7,44,5.3,44.4,4.9c1.5-1.5,3.5-2.2,5.6-2.2s4.1,0.8,5.6,2.2c0.4,0.4,2,2,3.8,4.6c1.8-2.6,3.4-4.2,3.8-4.6	c1.5-1.5,3.5-2.2,5.6-2.2s4.1,0.8,5.6,2.2c1,0.9,9.5,9.5,9.5,20.9c0,4.9-0.8,9.4-2.3,13.1v46.7c0,1.8-0.5,3.7-1.4,5.3	c-1.8,3.2-5.2,5.5-9.1,6.1C70.2,97.3,69.5,97.3,68.8,97.3z"/><path fill="#407845" d="M47.7,32.9c0-8.4-7-15.2-7-15.2s-7,6.8-7,15.2c0,4.5,0.9,8.6,2.3,11.4v41.5c0,2,2.1,3.6,4.7,3.6	s4.7-1.6,4.7-3.6V44.3C46.8,41.5,47.7,37.4,47.7,32.9z"/><path fill="#407845" d="M66.4,32.9c0-8.4-7-15.2-7-15.2s-7,6.8-7,15.2c0,4.5,0.9,8.6,2.3,11.4v41.5c0,2,2.1,3.6,4.7,3.6	s4.7-1.6,4.7-3.6V44.3C65.5,41.5,66.4,37.4,66.4,32.9z"/><path fill="#96c362" d="M57,25.9c0-8.4-7-15.2-7-15.2s-7,6.8-7,15.2c0,4.5,0.9,8.6,2.3,11.4v48.5c0,2,2.1,3.6,4.7,3.6s4.7-1.6,4.7-3.6	V37.3C56.1,34.5,57,30.4,57,25.9z"/><path fill="#96c362" d="M38.3,25.9c0-8.4-7-15.2-7-15.2s-7,6.8-7,15.2c0,4.5,0.9,8.6,2.3,11.4v48.5c0,2,2.1,3.6,4.7,3.6	s4.7-1.6,4.7-3.6V37.3C37.4,34.5,38.3,30.4,38.3,25.9z"/><path fill="#96c362" d="M75.8,25.9c0-8.4-7-15.2-7-15.2s-7,6.8-7,15.2c0,4.5,0.9,8.6,2.3,11.4v48.5c0,2,2.1,3.6,4.7,3.6	s4.7-1.6,4.7-3.6V37.3C74.9,34.5,75.8,30.4,75.8,25.9z"/><path fill="#739f4d" d="M33.6,19.6c0,1.1-0.9,1.8-2.3,1.8c-1.4,0-2.3-0.7-2.3-1.8s2.3-5.4,2.3-5.4S33.6,18.5,33.6,19.6z"/><path fill="#739f4d" d="M26.5,19.6c0,0-2.3,4.3-2.3,5.4s0.9,1.8,2.3,1.8s2.3-0.7,2.3-1.8S26.5,19.6,26.5,19.6z"/><path fill="#739f4d" d="M35.9,19.6c0,0-2.3,4.3-2.3,5.4s0.9,1.8,2.3,1.8s2.3-0.7,2.3-1.8S35.9,19.6,35.9,19.6z"/><path fill="#739f4d" d="M31.2,25c0,0-2.3,4.3-2.3,5.4s0.9,1.8,2.3,1.8c1.4,0,2.3-0.7,2.3-1.8S31.2,25,31.2,25z"/><path fill="#739f4d" d="M24.9,33.2c0.5,1.6,0.9,3,1.6,4.1c1.2,0,2.3-0.9,2.3-1.8c0-1.1-2.3-5.4-2.3-5.4S25.6,31.8,24.9,33.2z"/><path fill="#739f4d" d="M36.2,30.1c0,0-2.3,4.3-2.3,5.4c0,0.9,0.9,1.6,2.1,1.8c0.7-1.3,1.2-2.7,1.6-4.3C37.1,31.5,36.2,30.1,36.2,30.1z"/><path fill="#739f4d" d="M31.2,35.7c0,0-2.3,4.3-2.3,5.4s0.9,1.8,2.3,1.8c1.4,0,2.3-0.7,2.3-1.8S31.2,35.7,31.2,35.7z"/><path fill="#739f4d" d="M50,14.3c0,0-2.3,4.3-2.3,5.4s0.9,1.8,2.3,1.8s2.3-0.7,2.3-1.8S50,14.3,50,14.3z"/><path fill="#739f4d" d="M45.3,19.6c0,0-2.3,4.3-2.3,5.4s0.9,1.8,2.3,1.8s2.3-0.7,2.3-1.8S45.3,19.6,45.3,19.6z"/><path fill="#739f4d" d="M54.7,19.6c0,0-2.3,4.3-2.3,5.4s0.9,1.8,2.3,1.8S57,26.1,57,25S54.7,19.6,54.7,19.6z"/><path fill="#739f4d" d="M50,25c0,0-2.3,4.3-2.3,5.4s0.9,1.8,2.3,1.8s2.3-0.7,2.3-1.8S50,25,50,25z"/><path fill="#739f4d" d="M43.6,33.2c0.5,1.6,0.9,3,1.6,4.1c1.2,0,2.3-0.9,2.3-1.8c0-1.1-2.3-5.4-2.3-5.4S44.3,31.8,43.6,33.2z"/><path fill="#739f4d" d="M55,30.2c0,0-2.3,4.3-2.3,5.4c0,0.9,0.9,1.6,2.1,1.8c0.7-1.3,1.2-2.7,1.6-4.3C55.9,31.6,55,30.2,55,30.2z"/><path fill="#739f4d" d="M50,35.7c0,0-2.3,4.3-2.3,5.4s0.9,1.8,2.3,1.8s2.3-0.7,2.3-1.8S50,35.7,50,35.7z"/><path fill="#739f4d" d="M68.8,14.3c0,0-2.3,4.3-2.3,5.4s0.9,1.8,2.3,1.8c1.4,0,2.3-0.7,2.3-1.8S68.8,14.3,68.8,14.3z"/><path fill="#739f4d" d="M64.1,19.6c0,0-2.3,4.3-2.3,5.4s0.9,1.8,2.3,1.8s2.3-0.7,2.3-1.8S64.1,19.6,64.1,19.6z"/><path fill="#739f4d" d="M73.5,19.6c0,0-2.3,4.3-2.3,5.4s0.9,1.8,2.3,1.8c1.4,0,2.3-0.7,2.3-1.8S73.5,19.6,73.5,19.6z"/><path fill="#739f4d" d="M68.8,25c0,0-2.3,4.3-2.3,5.4s0.9,1.8,2.3,1.8c1.4,0,2.3-0.7,2.3-1.8S68.8,25,68.8,25z"/><path fill="#739f4d" d="M62.4,33.2c0.5,1.6,0.9,3,1.6,4.1c1.2,0,2.3-0.9,2.3-1.8c0-1.1-2.3-5.4-2.3-5.4S63.1,31.8,62.4,33.2z"/><path fill="#739f4d" d="M73.8,30.1c0,0-2.3,4.3-2.3,5.4c0,0.9,0.9,1.6,2.1,1.8c0.7-1.3,1.2-2.7,1.6-4.3C74.7,31.6,73.8,30.1,73.8,30.1z"/><path fill="#739f4d" d="M68.8,35.7c0,0-2.3,4.3-2.3,5.4s0.9,1.8,2.3,1.8c1.4,0,2.3-0.7,2.3-1.8S68.8,35.7,68.8,35.7z"/><path fill="#739f4d" d="M33.6,53.6c0,1.1-0.9,1.8-2.3,1.8c-1.4,0-2.3-0.7-2.3-1.8s2.3-5.4,2.3-5.4S33.6,52.5,33.6,53.6z M50,48.2	c0,0-2.3,4.3-2.3,5.4s0.9,1.8,2.3,1.8s2.3-0.7,2.3-1.8S50,48.2,50,48.2z M68.8,48.2c0,0-2.3,4.3-2.3,5.4s0.9,1.8,2.3,1.8	c1.4,0,2.3-0.7,2.3-1.8S68.8,48.2,68.8,48.2z"/><path fill="#40396e" d="M68.8,10.7c0,0,7,6.8,7,15.2c0,4.5-0.9,8.6-2.3,11.4v48.5c0,0.5-0.1,1-0.4,1.4c-0.6,1.1-1.9,1.9-3.4,2.1	c-0.3,0-0.6,0.1-0.9,0.1c-2.6,0-4.7-1.6-4.7-3.6h0c0,2-2.1,3.6-4.7,3.6s-4.7-1.6-4.7-3.6c0,2-2.1,3.6-4.7,3.6s-4.7-1.6-4.7-3.6	c0,2-2.1,3.6-4.7,3.6s-4.7-1.6-4.7-3.6h0c0,2-2.1,3.6-4.7,3.6s-4.7-1.6-4.7-3.6V37.3c-1.4-2.8-2.3-6.8-2.3-11.4c0-8.4,7-15.2,7-15.2	s4.6,4.5,6.4,10.7c1.6-2.3,3-3.7,3-3.7s1.4,1.4,3,3.7c1.7-6.2,6.4-10.7,6.4-10.7s4.6,4.5,6.4,10.7c1.6-2.3,3-3.7,3-3.7	s1.4,1.4,3,3.7C64.1,15.2,68.8,10.7,68.8,10.7 M68.8,7.7c-0.8,0-1.5,0.3-2.1,0.8c-0.2,0.2-2.9,2.9-5.2,7c0,0,0,0,0,0	c-0.6-0.6-1.3-0.8-2.1-0.8c-0.8,0-1.5,0.3-2.1,0.8c0,0,0,0,0,0c-2.2-4.2-5-6.9-5.2-7C51.5,8,50.8,7.7,50,7.7S48.5,8,47.9,8.5	c-0.2,0.2-2.9,2.9-5.2,7c0,0,0,0,0,0c-0.6-0.6-1.3-0.8-2.1-0.8c-0.8,0-1.5,0.3-2.1,0.8c0,0,0,0,0,0c-2.2-4.2-5-6.9-5.2-7	C32.7,8,32,7.7,31.2,7.7S29.7,8,29.1,8.5c-0.3,0.3-8,7.8-8,17.3c0,4.6,0.8,8.8,2.3,12.1v47.8c0,3.6,3.5,6.6,7.7,6.6	c1.8,0,3.4-0.5,4.7-1.4c1.3,0.9,2.9,1.4,4.7,1.4c1.8,0,3.4-0.5,4.7-1.4c1.3,0.9,2.9,1.4,4.7,1.4s3.4-0.5,4.7-1.4	c1.3,0.9,2.9,1.4,4.7,1.4s3.4-0.5,4.7-1.4c1.3,0.9,2.9,1.4,4.7,1.4c0.5,0,0.9,0,1.4-0.1c2.4-0.4,4.5-1.7,5.5-3.6	c0.5-0.9,0.8-1.9,0.8-2.8V38c1.5-3.2,2.3-7.5,2.3-12.1c0-9.6-7.6-17-8-17.3C70.3,8,69.5,7.7,68.8,7.7L68.8,7.7z"/></svg>