<svg xmlns="http://www.w3.org/2000/svg"  viewBox="0 0 512 512" width="128px" height="128px"><path fill="#e5d8ba" d="M342.36,217.65c-8.36-6.26-31.74-27.16-31.74-27.16a100.861,100.861,0,0,1-35.28-76.63v-.39H255.13V471.73H256c83.13,0,150.52-62.53,150.52-139.67C406.52,284.74,379.43,245.39,342.36,217.65Z"/><path fill="#739937" d="M239.65,40.27h-21.7a19.071,19.071,0,0,0-19.07,18.65v.44a19.073,19.073,0,0,0,19.07,19.07h3.94A14.766,14.766,0,0,1,236.66,93.2v20.27h38.68V75.95A35.683,35.683,0,0,0,239.65,40.27Z"/><path fill="#8383ba" d="M236.66,113.47a100.861,100.861,0,0,1-35.78,77.05s-23.7,20.86-32.14,27.13c-37.15,27.62-63.26,67.09-63.26,114.41,0,76.87,66.92,139.23,149.65,139.67V113.47Z"/><path fill="#e5888c" d="M255.13,224.45a107.68,107.68,0,1,1,0,215.36Z"/><path fill="#ba6e74" d="M334.09,337.43a18.479,18.479,0,0,1,5.42,13.1A18.516,18.516,0,0,1,321,332.01,18.456,18.456,0,0,1,334.09,337.43Z"/><path fill="#ba6e74" d="M325.72,293.7a18.418,18.418,0,0,1,13.09,5.42,18.523,18.523,0,0,1-26.19,0A18.458,18.458,0,0,1,325.72,293.7Z"/><path fill="#ba6e74" d="M311.28,361.87a18.512,18.512,0,0,1-26.09-2.32A18.53,18.53,0,0,1,311.28,361.87Z"/><path fill="#ba6e74" d="M298.96,279.1c0,.52-.03,1.04-.07,1.56a18.517,18.517,0,0,1-16.91-20A18.535,18.535,0,0,1,298.96,279.1Z"/><path fill="#ba6e74" d="M292.1,403.1a18.746,18.746,0,0,1-.36,3.62,18.515,18.515,0,0,1-14.56-21.77A18.545,18.545,0,0,1,292.1,403.1Z"/><path fill="#ba6e74" d="M288.29,312.21a18.445,18.445,0,0,1,13.09,5.43,18.511,18.511,0,0,1-26.18,0A18.445,18.445,0,0,1,288.29,312.21Z"/><path fill="#62628e" d="M135.48,332.06c0-47.32,26.11-86.79,63.26-114.41,8.44-6.27,32.14-27.13,32.14-27.13a100.867,100.867,0,0,0,24.25-30.24V113.47H236.66a100.861,100.861,0,0,1-35.78,77.05s-23.7,20.86-32.14,27.13c-37.15,27.62-63.26,67.09-63.26,114.41,0,76.87,66.92,139.23,149.65,139.67v-2.942C186.808,455.571,135.48,399.381,135.48,332.06Z"/><path fill="#5b752a" d="M251.89,78.43h-3.94a19.073,19.073,0,0,1-19.07-19.07v-.44A19.065,19.065,0,0,1,244.459,40.6a35.817,35.817,0,0,0-4.809-.332h-21.7a19.071,19.071,0,0,0-19.07,18.65v.44a19.073,19.073,0,0,0,19.07,19.07h3.94A14.766,14.766,0,0,1,236.66,93.2v20.27h30V93.2A14.766,14.766,0,0,0,251.89,78.43Z"/><path fill="#284268" d="M298.392,286.643c.167.014.334.021.5.021a6,6,0,0,0,5.979-5.5,24.547,24.547,0,0,0-22.389-26.478A6,6,0,0,0,276,260.165a24.517,24.517,0,0,0,22.389,26.478Z"/><path fill="#284268" d="M299.243,349.331a24.355,24.355,0,0,0-17.9,5.62,6,6,0,0,0-.751,8.452,24.356,24.356,0,0,0,16.634,8.686q1.11.1,2.211.1a24.331,24.331,0,0,0,15.693-5.719,6,6,0,0,0,.751-8.451A24.353,24.353,0,0,0,299.243,349.331Z"/><path fill="#284268" d="M288.29,329.06a24.357,24.357,0,0,0,17.337-7.181,6,6,0,0,0,0-8.485,24.518,24.518,0,0,0-34.675,0,6,6,0,0,0,0,8.485A24.358,24.358,0,0,0,288.29,329.06Z"/><path fill="#284268" d="M321,326.008a6,6,0,0,0-6,6,24.546,24.546,0,0,0,24.519,24.518,6,6,0,0,0,6-6A24.546,24.546,0,0,0,321,326.008Z"/><path fill="#284268" d="M278.348,379.067a6,6,0,0,0-7.054,4.717,24.546,24.546,0,0,0,19.272,28.825,6.064,6.064,0,0,0,1.176.116,6,6,0,0,0,5.878-4.832,24.519,24.519,0,0,0-19.272-28.826Z"/><path fill="#284268" d="M325.716,310.545a24.357,24.357,0,0,0,17.337-7.181,6,6,0,0,0,0-8.485,24.52,24.52,0,0,0-34.675,0,6,6,0,0,0,0,8.485A24.358,24.358,0,0,0,325.716,310.545Z"/><path fill="#284268" d="M197.009,185.933c-.032.026-.063.053-.094.08-.235.207-23.606,20.772-31.75,26.825-42.358,31.488-65.686,73.828-65.686,119.223,0,80.324,70.215,145.673,156.521,145.673s156.521-65.349,156.521-145.673c0-44.749-23.639-87.086-66.562-119.211-8.059-6.031-31.108-26.626-31.341-26.833l-.1-.086a94.732,94.732,0,0,1-33.183-72.066V75.949a41.73,41.73,0,0,0-41.683-41.683h-21.7a25.228,25.228,0,0,0-25.076,24.525A25.083,25.083,0,0,0,217.953,84.43h3.937a8.784,8.784,0,0,1,8.773,8.773v20.262A94.668,94.668,0,0,1,197.009,185.933Zm109.66,9.073c1.5,1.343,23.735,21.191,32.1,27.451h0c39.822,29.8,61.752,68.729,61.752,109.6,0,72.119-62.071,131.072-139.394,133.58V445.648c59.949-3.129,107.76-52.849,107.76-113.52s-47.811-110.391-107.76-113.52V119.465h8.356A106.7,106.7,0,0,0,306.669,195.006ZM261.127,433.624V230.632a101.668,101.668,0,0,1,0,202.992ZM221.89,72.43h-3.937a13.082,13.082,0,0,1-13.078-13.372,13.156,13.156,0,0,1,13.078-12.792h21.7a29.717,29.717,0,0,1,29.683,29.683v31.516H242.663V93.2A20.8,20.8,0,0,0,221.89,72.43ZM242.5,119.465h6.63V465.579c-76.509-3.33-137.647-61.942-137.647-133.518,0-41.5,21.608-80.425,60.845-109.592,8.435-6.27,30.984-26.1,32.475-27.409A106.616,106.616,0,0,0,242.5,119.465Z"/><path fill="#284268" d="M155.945,383.191a6,6,0,0,0-9.979,6.664c1.459,2.186,3,4.359,4.573,6.459a6,6,0,1,0,9.6-7.2C158.7,387.189,157.284,385.2,155.945,383.191Z"/><path fill="#284268" d="M165.427,404.908a6,6,0,0,0,.088,8.485,158.821,158.821,0,0,0,55.251,34.925,6,6,0,1,0,4.2-11.242,146.733,146.733,0,0,1-51.049-32.257A6,6,0,0,0,165.427,404.908Z"/></svg>