<svg xmlns="http://www.w3.org/2000/svg"  viewBox="0 0 100 100" width="100px" height="100px"><path d="M49.5,98.9c-2.8,0-5.3-1.8-6.2-4.4c-0.8-2.3-0.2-4.7,1.3-6.5c-11.9-2.3-20-11.5-20-23c0-7.3,4-14.1,10.4-18.5	c-4.9-2.3-11.3-4.1-19.3-5.4c-3.5-0.4-6.3-2.8-7.3-6.1c-2.7-9,6.5-13.3,9.6-14.7l0.1,0c0.5-0.2,0.9-0.4,1.2-0.6	c0.4-0.2,0.7-0.4,1.1-0.7c1.8-1.2,4.4-2.8,7.9-2.9c0.1,0,0.3,0,0.4,0c1.7,0,3.3,0.4,4.6,0.9c0-0.9,0.1-1.8,0.4-2.8	c0.6-1.8,2.3-5.1,7.2-6.6c1.5-0.4,1.8-0.6,2.2-1l0.3-0.2c1.5-1.3,4.2-3.8,8.2-3.8l0.1,0c3.5,0.1,5.9,1.8,7.4,2.8	c0.2,0.2,0.5,0.4,0.7,0.5c0.2,0,0.6,0.1,0.9,0.2c2.1,0.4,5.7,1.1,7.9,4.4c1.8,2.7,1.6,5.4,1.4,7.2c0.2,0,0.5,0,0.7,0.1	c1.2,0.1,2.3,0.2,3.4,0.2c1.2,0,2.3-0.1,3.6-0.2c1.1-0.1,2.1-0.2,3.1-0.2c6.2,0,9.6,2.9,11.3,5.4c2.2,3.2,2.8,7.6,1.5,11.3	c-1.1,3.2-3.5,5.7-6.7,6.7c-2.7,0.9-5.3,1.7-7.7,2.6c-3.7,1.3-6.9,2.6-9.7,3.8c5.9,4.4,9.5,10.8,9.5,17.9c0,10.2-6.9,18.9-17.2,22.2	c-0.4,1.7-1.2,3.4-2.4,5C58.2,94.1,53.8,98.9,49.5,98.9z" opacity=".35"/><path fill="#f2f2f2" d="M47.5,96.9c-2.8,0-5.3-1.8-6.2-4.4c-0.8-2.3-0.2-4.7,1.3-6.5c-11.9-2.3-20-11.5-20-23c0-7.3,4-14.1,10.4-18.5	c-4.9-2.3-11.3-4.1-19.3-5.4c-3.5-0.4-6.3-2.8-7.3-6.1c-2.7-9,6.5-13.3,9.6-14.7l0.1,0c0.5-0.2,0.9-0.4,1.2-0.6	c0.4-0.2,0.7-0.4,1.1-0.7c1.8-1.2,4.4-2.8,7.9-2.9c0.1,0,0.3,0,0.4,0c1.7,0,3.3,0.4,4.6,0.9c0-0.9,0.1-1.8,0.4-2.8	c0.6-1.8,2.3-5.1,7.2-6.6c1.5-0.4,1.8-0.6,2.2-1l0.3-0.2c1.5-1.3,4.2-3.8,8.2-3.8l0.1,0c3.5,0.1,5.9,1.8,7.4,2.8	c0.2,0.2,0.5,0.4,0.7,0.5c0.2,0,0.6,0.1,0.9,0.2c2.1,0.4,5.7,1.1,7.9,4.4c1.8,2.7,1.6,5.4,1.4,7.2c0.2,0,0.5,0,0.7,0.1	c1.2,0.1,2.3,0.2,3.4,0.2c1.2,0,2.3-0.1,3.6-0.2c1.1-0.1,2.1-0.2,3.1-0.2c6.2,0,9.6,2.9,11.3,5.4c2.2,3.2,2.8,7.6,1.5,11.3	c-1.1,3.2-3.5,5.7-6.7,6.7c-2.7,0.9-5.3,1.7-7.7,2.6c-3.7,1.3-6.9,2.6-9.7,3.8c5.9,4.4,9.5,10.8,9.5,17.9c0,10.2-6.9,18.9-17.2,22.2	c-0.4,1.7-1.2,3.4-2.4,5C56.2,92.1,51.8,96.9,47.5,96.9z"/><path fill="#739f4d" d="M43.7,32.1c-0.2-2.4-0.2-5.4-2.1-7.2c-1.6-1.5-4.6-1.1-7.4-1.5c-2.6-0.8-5.1-3-7.7-2.9	c-2.9,0.1-5.1,2.5-7.3,3.5c-2.8,1.3-6.1,2.4-6.3,4.8c-0.1,1.2,0.7,2.5,1.6,3.8c9.1,1.3,17.6,4.2,25.2,9c1.2-0.5,2.4-1.1,3.1-2.1	C44.4,37.5,43.9,34.6,43.7,32.1z"/><path fill="#739f4d" d="M59.4,41.1c7.9-4.8,16.7-7.6,26.2-8.7c-0.1-1.2-0.4-2.5-0.5-3.7c-0.2-2.7-0.8-5.6-3.6-6.7	c-2.2-0.9-5.2,0.5-8.2,0.5c-2.5,0.1-6.7-1.2-9.3-0.4c-2.6,1.1-3.5,3.2-5.1,4.6c-2.1,1.8-3.8,3.6-4,5.8c-0.2,2.1,2.1,4,3.5,6.4	C58.8,39.6,59.1,40.3,59.4,41.1z"/><path fill="#96c362" d="M62,23.5c-0.4,1.2-1.6,2.1-2.4,3.2c-0.8,1.1-0.8,2.5-1.1,3.8c-0.2,1.2-0.7,2.3-1.7,3.1c-1.3,1-2.9,1.3-4,2.7	c-0.8,1.1-2,3.2-3.6,2.4c-0.6-0.3-1-0.8-1.4-1.2c-1.1-1-2.3-1.5-3.7-1.9c-1.5-0.5-2.2-2-2.5-3.4c-0.3-1.2-0.5-2.5-1.1-3.6	c-0.6-1.2-1.5-2.1-2.1-3.3c-0.1-0.2-0.1-0.3-0.2-0.5c-0.8-2,0.7-3.2,1.2-5c0.4-1.6-0.9-3.3-0.5-4.9c0.4-1.6,2.7-2.1,4.1-2.6	c0.8-0.3,1.7-0.6,2.4-1.1c0.8-0.5,1.4-1.2,2.1-1.8c1.4-1.1,3-1.5,4.5-0.6c1.3,0.7,2.4,2,3.9,2.3c1.3,0.3,3.1,0.2,4.2,0.9	c1.9,1.2,0.5,3.3,0.5,5.1C60.4,19.2,62.7,21.3,62,23.5z"/><line x1="49.9" x2="49.9" y1="15.4" y2="46.8" fill="none" stroke="#40396e" stroke-linecap="round" stroke-linejoin="round" stroke-miterlimit="10" stroke-width="3"/><path fill="none" stroke="#40396e" stroke-linecap="round" stroke-linejoin="round" stroke-miterlimit="10" stroke-width="3" d="M41.3,41c0.7-0.4,1.3-0.8,1.7-1.4c0.5-0.8,0.7-1.7,0.7-2.7c0.8,0.2,1.6,0.4,2.3,0.7c1.4,0.7,2.5,2.7,3.9,2.8	c1.4,0,2.5-2.4,3.9-3.6c0.6-0.5,1.4-0.8,2.2-1.1c0.7,1,1.6,2.1,2.3,3.3c0.4,0.7,0.7,1.4,0.9,2.2"/><path fill="none" stroke="#40396e" stroke-linecap="round" stroke-linejoin="round" stroke-miterlimit="10" stroke-width="3" d="M53.2,46.3c4.9-5.4,21.5-11.1,29.9-13.8c3.2-1,3.5-5.7,1.8-8.1c-1.8-2.6-5.2-2.8-8.1-2.4	c-2.9,0.4-5.7,0.4-8.6,0c-1.5-0.2-2.6,0-4.1,0.3c-0.9,0.2-0.9-0.4-1.1-1.1c-0.5-1.6-1.6-3.2-1.5-4.9c0.1-1.4,0.9-3.1,0-4.4	c-1.1-1.6-4.1-1.5-5.9-2.2C53.8,9.1,52.3,7,49.9,7c-1.7,0-3,1.3-4.2,2.4c-1.5,1.3-2.9,1.9-4.8,2.4c-1.2,0.4-2.4,1-2.8,2.3	c-0.4,1.3,0.1,2.6,0.1,3.9c0,1.6-0.5,4.6-1.9,5.6c-0.9,0.7-3.4-0.7-4.1-1.1c-1.7-0.9-3.6-2.1-5.6-2c-2.4,0.1-4.1,1.7-6.1,2.8	c-2.7,1.5-9.1,3.5-7.8,7.8c0.3,0.9,1.1,1.4,2,1.5C29.2,35,40,39,46.6,46.3"/><line x1="74.1" x2="76.6" y1="35.6" y2="28.8" fill="none" stroke="#40396e" stroke-linecap="round" stroke-linejoin="round" stroke-miterlimit="10" stroke-width="3"/><line x1="65.6" x2="67.7" y1="38.3" y2="31.7" fill="none" stroke="#40396e" stroke-linecap="round" stroke-linejoin="round" stroke-miterlimit="10" stroke-width="3"/><line x1="49.9" x2="54.5" y1="26.4" y2="21.7" fill="none" stroke="#40396e" stroke-linecap="round" stroke-linejoin="round" stroke-miterlimit="10" stroke-width="3"/><line x1="49.6" x2="43.7" y1="32.2" y2="26.2" fill="none" stroke="#40396e" stroke-linecap="round" stroke-linejoin="round" stroke-miterlimit="10" stroke-width="3"/><path fill="#d84178" d="M70.7,63c0-9.4-9.3-17.1-20.7-17.1S29.2,53.6,29.2,63c0,8.8,7.7,16,18,16.9c2,1.3,3.4,8.7,0.3,10.4	c4.5-0.7,7.2-4.7,5.2-10.5C62.9,78.8,70.7,71.7,70.7,63z"/><line x1="34.5" x2="39.5" y1="73.5" y2="73.5" fill="none" stroke="#b73b3b" stroke-linecap="round" stroke-linejoin="round" stroke-miterlimit="10" stroke-width="3"/><line x1="30.5" x2="43.5" y1="65.5" y2="65.5" fill="none" stroke="#b73b3b" stroke-linecap="round" stroke-linejoin="round" stroke-miterlimit="10" stroke-width="3"/><line x1="63.5" x2="69.5" y1="59.5" y2="59.5" fill="none" stroke="#b73b3b" stroke-linecap="round" stroke-linejoin="round" stroke-miterlimit="10" stroke-width="3"/><line x1="57.5" x2="60.5" y1="68.5" y2="68.5" fill="none" stroke="#b73b3b" stroke-linecap="round" stroke-linejoin="round" stroke-miterlimit="10" stroke-width="3"/><line x1="56.1" x2="66.2" y1="53.5" y2="53.5" fill="none" stroke="#b73b3b" stroke-linecap="round" stroke-linejoin="round" stroke-miterlimit="10" stroke-width="3"/><path fill="none" stroke="#40396e" stroke-linecap="round" stroke-linejoin="round" stroke-miterlimit="10" stroke-width="3" d="M70.7,63c0-9.4-9.3-17.1-20.7-17.1S29.2,53.6,29.2,63c0,8.8,6.6,16,16.9,16.9c2,1.3,5.5,7.2,1.4,10.4	c0.8,0,8-4.7,6-10.5C63.6,78.8,70.7,71.7,70.7,63z"/><line x1="44.8" x2="47.5" y1="53.5" y2="53.5" fill="none" stroke="#b73b3b" stroke-linecap="round" stroke-linejoin="round" stroke-miterlimit="10" stroke-width="3"/><line x1="28" x2="25.5" y1="35.6" y2="28.8" fill="none" stroke="#40396e" stroke-linecap="round" stroke-linejoin="round" stroke-miterlimit="10" stroke-width="3"/><line x1="36.6" x2="34.4" y1="38.3" y2="31.7" fill="none" stroke="#40396e" stroke-linecap="round" stroke-linejoin="round" stroke-miterlimit="10" stroke-width="3"/></svg>