<svg xmlns="http://www.w3.org/2000/svg"  viewBox="0 0 100 100" width="100px" height="100px"><path d="M39.5,96c-3.049,0-5.654-2.076-6.336-5.048C30.116,77.64,24.56,66.894,21.208,64.176 C20.759,64.046,20.447,62.161,20,62c-0.339-0.104-0.664-1.846-1-2c-7.809-3.291-13-7.522-13-16c0-8.67,5.283-16.262,13.048-19.427 C19.783,13.656,28.899,5,40,5c5.924,0,11.541,2.567,15.472,6.838C58.646,10.001,62.283,9,66,9c10.294,0,20,5,21,17 c6.884,3.558,11,11.05,11,19c0,10.606-7.92,19.473-18.29,20.809c-2.553,2.688-6.744,11.681-8.789,24.699 C70.423,93.689,67.722,96,64.5,96H39.5z" opacity=".35"/><path fill="#f2f2f2" d="M37.5,94c-3.049,0-5.654-2.076-6.336-5.048C28.116,75.64,22.56,64.894,19.208,62.176 c-0.449-0.13-0.899-0.277-1.347-0.438c-0.339-0.104-0.679-0.233-1.015-0.388C9.038,58.059,4,50.478,4,42 c0-8.67,5.283-16.262,13.048-19.427C17.783,11.656,26.899,3,38,3c5.924,0,11.541,2.567,15.472,6.838C56.646,8.001,60.283,7,64,7 c10.294,0,18.949,7.531,20.684,17.371C91.567,27.929,96,35.05,96,43c0,10.606-7.92,19.473-18.29,20.809 c-2.553,2.688-6.744,11.681-8.789,24.699C68.423,91.689,65.722,94,62.5,94H37.5z"/><path fill="#96c362" d="M77.112,57.157C67.725,57.157,62.5,87.5,62.5,87.5H50H37.5c0,0-8-32-18-32v-5l14.879,8.065 c0,0,6.396,12.211,8.621,21.435h2V53l9-8v35h2c3-19,16.326-31.169,16.326-31.169L77.112,57.157z"/><circle cx="38.75" cy="24.75" r="15.25" fill="#407845"/><circle cx="64" cy="28" r="14.5" fill="#407845"/><path fill="#739f4d" d="M38,42c0,6.667-5.019,12.162-11.485,12.913C26.018,54.97,24.512,57,24,57 c-0.975,0-0.924-2.107-1.837-2.311C16.347,53.395,12,48.205,12,42c0-7.18,5.82-13,13-13S38,34.82,38,42z"/><path fill="#739f4d" d="M88,43c0,7.18-5.82,14-13,14c-0.621,0-1.402,0.084-2,0c-6.313-0.89-11-7.442-11-14 c0-7.18,5.82-13,13-13S88,35.82,88,43z"/><rect width="12" height="11" x="44" y="33" fill="#407845"/><path fill="#739f4d" d="M66,37.5C66,46.06,59.56,49,51,49s-16-2.94-16-11.5S41.94,22,50.5,22S66,28.94,66,37.5z"/><g opacity=".35"><path fill="#40396e" d="M69,58c0,0-4.07-2.421-7.524,5.883C62.14,63.96,62.815,64,63.5,64c2.64,0,5.136-0.605,7.383-1.656 c1.807-3.112,3.888-5.186,6.229-5.186L69,58z"/><path fill="#40396e" d="M34.5,58.5c0,0-14.699-3.267-14.534-2.95c2.864,0.311,5.554,3.422,7.926,7.691 C30.194,64.356,32.764,65,35.488,65c0.659,0,1.308-0.043,1.948-0.114C35.811,61.024,34.5,58.5,34.5,58.5z"/><path fill="#40396e" d="M54,61.179V45l-9,8v9.168c1.911-1.246,3.569-2.848,4.868-4.721C51.037,58.9,52.433,60.16,54,61.179 z"/></g><circle cx="63.5" cy="46.5" r="14.5" fill="#96c362"/><circle cx="35.489" cy="47.5" r="14.5" fill="#96c362"/><path fill="none" stroke="#40396e" stroke-linecap="round" stroke-linejoin="round" stroke-miterlimit="10" stroke-width="3" d="M89.5,43c0-6.816-4.709-12.518-11.047-14.069C78.473,28.622,78.5,28.314,78.5,28c0-8.008-6.492-14.5-14.5-14.5 c-5.042,0-9.479,2.576-12.077,6.48C50.179,13.93,44.612,9.5,38,9.5c-8.008,0-14.5,6.492-14.5,14.5c0,1.228,0.169,2.414,0.457,3.553 C16.438,28.089,10.5,34.344,10.5,42c0,6.06,3.721,11.246,9,13.413c0,0,0.224,0.114,0.336,0.123 c0.643,0.245,1.304,0.451,1.987,0.604C30.71,60.823,37.5,87.5,37.5,87.5H50h12.5c0,0,4.662-26.722,13.087-30.03 C83.321,57.16,89.5,50.81,89.5,43z"/></svg>