<svg xmlns="http://www.w3.org/2000/svg"  viewBox="0 0 480.162 480.162" width="120px" height="120px"><path fill="#fe4f60" d="M185.048,73.681c97.14,0.11,175.8,59.37,175.8,169.16c0,109.99-78.95,229.16-176.33,229.16	c-97.39,0-176.33-119.17-176.33-229.16C8.188,135.889,83.719,73.566,185.048,73.681z"/><path fill="#ff6d7a" d="M186.976,73.693c31.445,0.327,35.434,45.652,4.56,51.628	c-82.074,15.886-135.994,75.762-135.342,167.164c0.182,25.511-36.381,29.573-41.899,4.666	C-15.017,164.858,61.781,72.392,186.976,73.693z"/><ellipse cx="324.848" cy="285.001" fill="#ffebd2" rx="120" ry="145"/><path fill="#befa91" d="M180.828,65.471c1.76,6.96-1.9,14.11-8.57,16.77c-32.6,12.99-59.68-0.18-62.88-1.82	C85.008,67.971,75.208,45,71.348,30.8c-1.92-7.06,1.84-14.41,8.68-16.99c13.77-5.19,38.12-10.7,62.49,1.76	C145.728,17.201,172.258,31.431,180.828,65.471z"/><path fill="#e84857" d="M205.328,297.88c-2.98,0.65-5.95,1.33-8.92,2.03c-11.847,2.795-19.744,14.007-18.39,26.17	c6.05,54.09,34.97,100.12,75.47,125.37c-4.958,3.05-10.031,5.797-15.208,8.214c-5.688,2.655-12.38,1.749-17.183-2.292	c-35.923-30.222-61.021-75.833-66.929-128.622c-2.29-20.59,8.81-39.91,26.74-48.64c1.02-42.48,15.35-82.43,40.6-112.94	c21.703-26.228,49.338-43.085,79.511-48.898c5.137-0.99,10.444,0.683,14.145,4.38c5.402,5.395,10.402,11.229,14.964,17.489	C252.963,136.158,199.167,216.252,205.328,297.88z"/><path fill="#daffbf" d="M122.975,61.132c10.793,9.019-0.029,25.944-12.661,19.758C89.986,70.934,77.149,52.142,71.348,30.8	c-1.92-7.06,1.84-14.41,8.68-16.99c1.057-0.399,2.176-0.8,3.352-1.194c6.941-2.326,14.229,2.212,15.392,9.439	C100.655,33.76,108.914,49.381,122.975,61.132z"/><path fill="#fff3e4" d="M325.897,140.006c19.826,0.205,23.353,28.23,4.268,33.606	c-51.327,14.457-93.317,69.209-93.317,141.389c0,37.78,11.96,72.19,31.57,98c-37.83-24.4-63.57-72.57-63.57-128	C204.848,207.747,256.504,139.288,325.897,140.006z"/><path fill="#fe4f60" d="M453.438,299.911c11.88,2.81,19.74,14.04,18.39,26.17c-9.21,82.38-71.47,146.08-146.9,146.08	c-75.44,0-137.69-63.7-146.91-146.08c-1.35-12.13,6.51-23.36,18.39-26.17C280.888,279.921,368.908,279.911,453.438,299.911z"/><path fill="#ff6d7a" d="M328.928,448.219c13.577,3.825,10.989,23.846-3.117,23.939	c-77.793,0.513-138.787-65.607-147.794-146.077c-1.35-12.13,6.51-23.36,18.39-26.17c1.707-0.404,3.416-0.8,5.127-1.187	c7.429-1.683,14.686,3.677,15.002,11.288C218.214,350.413,259.293,428.602,328.928,448.219z"/><path d="M455.278,292.128c-0.848-0.201-1.699-0.386-2.547-0.583c3.001-85.288-53.821-159.544-127.883-159.544 c-61.405,0-108.737,50.292-123.161,111.158c-1.019,4.299,1.64,8.61,5.939,9.629c4.299,1.021,8.61-1.641,9.629-5.939 c13.793-58.2,58.037-98.848,107.592-98.848c61.757,0,112,61.458,112,137c0,1.03-0.037,2.064-0.056,3.097 c-79.745-16.03-163.081-14.695-242.222,4.03c-15.77,3.731-26.301,18.711-24.498,34.845c5.811,51.969,31.74,96.33,68.328,123.738 C73.967,533.375-75.396,209.317,84.591,108.351c3.736-2.358,4.854-7.299,2.496-11.035c-2.358-3.736-7.299-4.853-11.035-2.496 C27.128,125.696,0.184,178.264,0.184,242.842c0,143.555,126.321,291.025,253.363,217.882 c21.492,12.444,45.799,19.438,71.376,19.438c78.514,0,145.086-65.857,154.853-153.189 C481.58,310.838,471.049,295.859,455.278,292.128z M463.875,325.195c-8.859,79.224-68.595,138.967-138.951,138.967 s-130.092-59.743-138.951-138.967c-0.906-8.104,4.373-15.626,12.28-17.497c82.866-19.607,170.475-19.607,253.341,0 C459.502,309.569,464.782,317.09,463.875,325.195z"/><path d="M292.855,199.161c2.455,0,3.812-0.99,5.263-1.82c3.833-2.198,5.159-7.087,2.961-10.92 c-2.197-3.832-7.085-5.157-10.919-2.961c-0.485,0.278-0.967,0.562-1.447,0.852c-3.783,2.283-4.998,7.2-2.715,10.983 C287.501,197.784,290.145,199.161,292.855,199.161z"/><path d="M257.291,242.452c3.113,0,6.073-1.828,7.367-4.874c3.365-7.922,7.55-15.146,12.438-21.474 c2.701-3.496,2.057-8.521-1.439-11.222c-3.496-2.704-8.52-2.056-11.222,1.438c-5.725,7.409-10.604,15.821-14.504,25.001 C247.683,236.614,251.596,242.452,257.291,242.452z"/><path d="M142.927,95.929c9.566,0,20.409-1.592,31.892-6.106c-0.409,5.428-0.538,10.89-0.376,16.371 c0.127,4.336,3.683,7.765,7.992,7.765c4.51,0,8.134-3.721,8.001-8.235c-0.236-8.033,0.213-16.019,1.339-23.903 c34.059,1.086,65.407,9.828,90.897,25.431c3.8,2.325,8.713,1.09,11-2.646c2.307-3.769,1.122-8.693-2.646-11 c-27.169-16.631-60.227-26.14-96.013-27.689c5.149-19.46,14.286-37.305,27.023-52.844c2.801-3.417,2.302-8.457-1.115-11.259 c-3.417-2.8-8.458-2.303-11.259,1.116c-11.337,13.83-20.101,29.3-26.112,46.036c-11.723-26.216-32.706-38.131-37.387-40.523 C118.621-5.632,91.139,1.076,77.21,6.326c-10.759,4.056-16.598,15.481-13.583,26.578C73.814,70.373,102.483,95.929,142.927,95.929z M82.854,21.297c18.546-6.989,38.23-7.703,56.028,1.393c2.693,1.376,26.536,14.322,34.191,44.73 c0.779,3.097-0.808,6.202-3.774,7.385c-29.129,11.609-53.588-0.129-56.283-1.508C92.065,62.59,82.991,43.139,79.068,28.708 C78.227,25.614,79.854,22.428,82.854,21.297z"/><path d="M107.505,187.658c3.124-3.124,3.125-8.189,0-11.313c-3.124-3.123-8.188-3.124-11.314-0.001 c-4.876,4.877-12.811,4.877-17.687,0c-3.124-3.123-8.19-3.124-11.314,0.001c-3.124,3.124-3.124,8.189,0,11.313 C78.305,198.771,96.39,198.771,107.505,187.658z"/><path d="M197.505,187.658c3.124-3.124,3.125-8.189,0-11.313c-3.124-3.123-8.188-3.124-11.314-0.001 c-4.876,4.877-12.811,4.877-17.687,0c-3.124-3.123-8.19-3.124-11.314,0.001c-3.124,3.124-3.124,8.189,0,11.313 C168.305,198.771,186.39,198.771,197.505,187.658z"/><path d="M147.505,247.658c3.124-3.124,3.125-8.189,0-11.313c-3.124-3.123-8.189-3.124-11.314-0.001 c-4.876,4.877-12.811,4.877-17.687,0c-3.124-3.123-8.19-3.124-11.314,0.001c-3.124,3.124-3.124,8.189,0,11.313 C118.305,258.771,136.39,258.771,147.505,247.658z"/><path d="M67.191,317.658c11.114,11.113,29.199,11.114,40.313,0c3.124-3.124,3.125-8.189,0-11.313 c-3.124-3.123-8.188-3.124-11.314-0.001c-4.876,4.877-12.811,4.877-17.687,0c-3.124-3.123-8.19-3.124-11.314,0.001 C64.067,309.468,64.067,314.534,67.191,317.658z"/><path d="M155.505,386.658c3.124-3.124,3.125-8.189,0-11.313s-8.189-3.124-11.314-0.001c-4.876,4.877-12.811,4.877-17.687,0 c-3.124-3.123-8.19-3.124-11.314,0.001c-3.124,3.124-3.124,8.189,0,11.313C126.305,397.771,144.39,397.771,155.505,386.658z"/><path d="M277.505,340.344c-3.124-3.123-8.188-3.124-11.314-0.001c-4.876,4.877-12.811,4.877-17.687,0 c-3.124-3.123-8.19-3.124-11.314,0.001c-3.124,3.124-3.124,8.189,0,11.313c11.114,11.113,29.199,11.114,40.313,0 C280.629,348.534,280.629,343.468,277.505,340.344z"/><path d="M356.191,340.343c-4.876,4.877-12.811,4.877-17.687,0c-3.124-3.123-8.19-3.124-11.314,0.001 c-3.124,3.124-3.124,8.189,0,11.313c11.114,11.113,29.199,11.114,40.313,0c3.124-3.124,3.125-8.189,0-11.313 C364.382,337.221,359.317,337.22,356.191,340.343z"/><path d="M310.191,396.343c-4.876,4.877-12.811,4.877-17.687,0c-3.124-3.123-8.19-3.124-11.314,0.001 c-3.124,3.124-3.124,8.189,0,11.313c11.114,11.113,29.199,11.114,40.313,0c3.124-3.124,3.125-8.189,0-11.313 C318.381,393.221,313.316,393.22,310.191,396.343z"/></svg>