<svg xmlns="http://www.w3.org/2000/svg"  viewBox="0 0 100 100" width="100px" height="100px"><path d="M41.5,98C35.71,98,31,93.29,31,87.5v-30c0-10.712,5.202-21.798,8.304-27.453 C39.76,29.216,40,28.273,40,27.32V10.5C40,6.916,42.916,4,46.5,4h10c3.584,0,6.5,2.916,6.5,6.5v16.817 c0,0.955,0.24,1.898,0.695,2.728C66.798,35.702,72,46.789,72,57.5v30C72,93.29,67.29,98,61.5,98H41.5z" opacity=".35"/><path fill="#f2f2f2" d="M39.5,96C33.71,96,29,91.29,29,85.5v-30c0-10.712,5.202-21.798,8.304-27.453 C37.76,27.216,38,26.273,38,25.32V8.5C38,4.916,40.916,2,44.5,2h10C58.084,2,61,4.916,61,8.5v16.817 c0,0.955,0.24,1.898,0.695,2.728C64.798,33.702,70,44.789,70,55.5v30C70,91.29,65.29,96,59.5,96H39.5z"/><path fill="#70bfff" d="M55,14V9L44.5,8.5h0c-0.5,0.5,0,6.5,0,6.5l0,14c-2.5,3-9,19-9,22v34.5c0,2.209,1.791,4,4,4h21 c2.209,0,4-1.791,4-4V55c0-6.075-5.5-18-9-26L55,14z"/><rect width="28" height="19" x="35" y="54" fill="#f2f2f2"/><rect width="11" height="17" x="44" y="9" fill="#ff7575"/><rect width="28" height="4" x="35" y="53" fill="#ff7575"/><rect width="28" height="4" x="35" y="69" fill="#ff7575"/><rect width="15" height="4" x="42" y="61" fill="#f9b84f"/><rect width="9" height="5" x="45" y="9" fill="#f2f2f2"/><path fill="none" stroke="#40396e" stroke-linecap="round" stroke-linejoin="round" stroke-miterlimit="10" stroke-width="3" d="M59.5,89.5c2.209,0,4-1.791,4-4v-30c0-9-4.495-18.843-7.503-24.328c-0.985-1.796-1.497-3.807-1.497-5.855V14.5l0-6h-10h0l0,5.039 V14.5c0,4.273,0,9.038,0,10.82c0,2.048-0.512,4.057-1.497,5.852C39.995,36.657,35.5,46.5,35.5,55.5v30c0,2.209,1.791,4,4,4H59.5z"/></svg>