<svg xmlns="http://www.w3.org/2000/svg"  viewBox="0 0 100 100" width="100px" height="100px"><path d="M48.7,96.6c-5.3,0-10.2-2.1-13.9-5.9c-3.6-3.7-5.6-8.6-5.5-13.7c0-1.1,0-2.1-0.1-3.2c-0.1-2.7-0.5-5.3-1.1-7.8	c-0.5-2.5-1.7-4.9-2.7-6.8c-2.6-5-3.6-10.5-3.1-16.2c1.2-12.9,11.1-23.5,23.8-25.8c2.1-3.8,5.3-6.9,9.2-8.7C56.2,8.2,57.2,8,58.2,8	c2.5,0,4.8,1.5,5.9,3.7c1.2,2.6,0.6,5.6-1.4,7.5c7.4,3.1,13.3,9.2,16.1,17c0.3,0.7,0.5,1.4,0.6,2c1.6,5.1,2.4,10.5,2.4,15.8	c0,23.5-14.7,42.7-32.8,42.7H48.7z" opacity=".35"/><path fill="#f2f2f2" d="M46.7,94.6c-5.3,0-10.2-2.1-13.9-5.9c-3.6-3.7-5.6-8.6-5.5-13.7c0-1.1,0-2.1-0.1-3.2c-0.1-2.7-0.5-5.3-1.1-7.8	c-0.5-2.5-1.7-4.9-2.7-6.8c-2.6-5-3.6-10.5-3.1-16.2c1.2-12.9,11.1-23.5,23.8-25.8c2.1-3.8,5.3-6.9,9.2-8.7C54.2,6.2,55.2,6,56.2,6	C58.7,6,61,7.4,62,9.6c1.2,2.6,0.6,5.6-1.4,7.5c7.4,3.1,13.3,9.2,16.1,17c0.3,0.7,0.5,1.4,0.6,2c1.6,5.1,2.4,10.5,2.4,15.8	c0,23.5-14.7,42.7-32.8,42.7H46.7z"/><path fill="none" stroke="#40396e" stroke-linecap="round" stroke-linejoin="round" stroke-miterlimit="10" stroke-width="3" d="M48.2,25.1c0-5.6,3.3-10.4,8-12.7"/><path fill="#f9b84f" stroke="#40396e" stroke-miterlimit="10" stroke-width="3" d="M71.1,38c-0.1-0.5-0.3-1-0.5-1.5c-3.4-9.6-13.1-16.2-24.1-14.9c-10.3,1.3-18.6,9.8-19.6,20.2	c-0.4,4.6,0.5,8.8,2.4,12.5c1.4,2.7,2.6,5.4,3.3,8.3c0.7,2.9,1.1,5.9,1.2,8.9c0.1,1.2,0.1,2.4,0.1,3.7c-0.1,6.9,5.6,12.9,12.9,12.9	c0.1,0,0.1,0,0.1,0c14.5,0,26.3-16.2,26.3-36.2C73.2,47,72.4,42.3,71.1,38z"/></svg>