<svg xmlns="http://www.w3.org/2000/svg"  viewBox="0 0 100 100" width="100px" height="100px"><path d="M34.65,98.471c-4.109,0-7.971-1.599-10.872-4.501L9.016,79.247 c-6.009-6.011-6.009-15.78-0.005-21.784l0.271-0.256c2.801-2.58,17.246-15.927,26.604-25.283 c4.941-4.942,14.693-7.663,24.258-10.027c0.985-0.242,2.574-0.634,3.181-0.816c3.561-1.801,5.618-3.375,6.665-4.307 c0.108-2.045,0.958-4.025,2.465-5.531l2.13-2.017c1.358-1.329,3.17-2.16,5.074-2.346l0.476-0.485 c0.214-0.219,0.442-0.422,0.687-0.608c1.447-1.127,3.3-1.763,5.181-1.763c2.427,0,4.736,1.034,6.348,2.842l4.442,4.82l0.109,0.126 c2.937,3.355,2.767,8.455-0.387,11.607l-0.335,0.325c-0.25,1.787-1.075,3.427-2.382,4.706l-2.477,2.329 c-1.358,1.33-3.214,2.135-5.204,2.236c-0.95,1.146-2.449,3.231-4.177,6.644c-0.182,0.606-0.573,2.194-0.815,3.177 c-2.364,9.566-5.085,19.318-10.027,24.26c-9.806,9.807-23.765,24.955-25.324,26.649l-0.169,0.178 C42.673,96.855,38.783,98.471,34.65,98.471z" opacity=".35"/><path fill="#f2f2f2" d="M32.65,96.471c-4.109,0-7.971-1.599-10.872-4.501L7.016,77.247 c-6.009-6.011-6.009-15.78-0.005-21.784l0.271-0.256c2.801-2.58,17.246-15.927,26.604-25.283 c4.941-4.942,14.693-7.663,24.258-10.027c0.985-0.242,2.574-0.634,3.181-0.816c3.561-1.801,5.618-3.375,6.665-4.307 c0.108-2.045,0.958-4.025,2.465-5.531l2.13-2.017c1.358-1.329,3.17-2.16,5.074-2.346l0.476-0.485 c0.214-0.219,0.442-0.422,0.687-0.608c1.447-1.127,3.3-1.763,5.181-1.763c2.427,0,4.736,1.034,6.348,2.842l4.442,4.82l0.109,0.126 c2.937,3.355,2.767,8.455-0.387,11.607l-0.335,0.325c-0.25,1.787-1.075,3.427-2.382,4.706l-2.477,2.329 c-1.358,1.33-3.214,2.135-5.204,2.236c-0.95,1.146-2.449,3.231-4.177,6.644c-0.182,0.606-0.573,2.194-0.815,3.177 c-2.364,9.566-5.085,19.318-10.027,24.26c-9.806,9.807-23.765,24.955-25.324,26.649l-0.169,0.178 C40.673,94.855,36.783,96.471,32.65,96.471z"/><path fill="#739f4d" d="M89.692,11.692c1.374,1.374,0.451,3.196-0.411,4.937l-1.154,5.17 c-0.675,1.363-2.866,2.914-4.387,2.914h-2.517C81.223,24.713,78,27,74,35c-1,2-4,20-9.5,25.5 C53.988,71.012,38.961,87.374,38.961,87.374c-3.476,3.476-9.111,3.476-12.586,0L11.607,72.645c-3.476-3.476-3.476-9.111,0-12.586 c0,0,16.362-15.027,26.874-25.539c5.5-5.5,23.5-8.5,25.5-9.5c8-4,10.174-7.336,10.174-7.336v-2.517 c0-1.521,1.664-3.599,3.027-4.273l4.987-1.005c1.742-0.862,3.746-1.935,5.121-0.56L89.692,11.692z"/><path fill="#ffc571" d="M76.161,15.595l6.977,7.003L72.348,39c0,0-6.511,2.775-13.348,0 c-2.517-7.034,0.517-12.393,0.517-12.393l9.697-5.404L76.161,15.595z"/><polygon fill="#ffe385" points="43.791,80.8 18.559,55.221 36,38 60.277,63.358"/><rect width="7" height="22.629" x="36.213" y="47.972" fill="#82792c" transform="rotate(-45.757 39.71 59.285)"/><path fill="none" stroke="#40396e" stroke-linecap="round" stroke-linejoin="round" stroke-miterlimit="10" stroke-width="3" d="M90.008,14.092l-4.5-4.886c-0.698-0.798-1.897-0.912-2.733-0.262l-2.916,2.976v0c-0.763-0.77-2.006-0.773-2.773-0.006l-2.038,1.924 c-0.764,0.764-0.764,2.002,0,2.766l0.075,0.075l-0.97,1.004c0,0-2.174,3.336-10.174,7.336c-2,1-20,4-25.5,9.5 C27.969,45.031,11.607,60.058,11.607,60.058c-3.476,3.476-3.476,9.111,0,12.586l14.767,14.729c3.476,3.476,9.111,3.476,12.586,0 c0,0,15.027-16.362,25.539-26.874C70,55,73,37,74,35c4-8,7.223-10.287,7.223-10.287l1.028-0.908l0.225,0.225 c0.66,0.66,1.727,0.665,2.393,0.012l2.38-2.235c0.673-0.66,0.681-1.742,0.018-2.412v0l2.651-2.572 C90.662,16.079,90.701,14.884,90.008,14.092z"/><polygon fill="#40396e" points="78.857,13.031 86.062,20.261 87.528,18.315 80.754,11.64" opacity=".35"/></svg>