<svg xmlns="http://www.w3.org/2000/svg"  viewBox="0 0 100 100" width="100px" height="100px"><path d="M52,98.2c-21,0-38.1-16.5-38.1-36.8c0-13,7.2-25.1,18.9-31.7c0.8-0.4,1.4-1.2,1.6-2c1.2-4.4,4.5-7.8,8.6-9.1	c-0.9-0.7-2-1.2-3.2-1.4c-1.7-0.3-3.2-1.2-4.2-2.6s-1.4-3.1-1.1-4.9c0.5-3.1,3.2-5.4,6.4-5.4c0.4,0,0.7,0,1.1,0.1	c3.4,0.6,6.6,2,9.2,4.1c0.1-0.1,0.2-0.2,0.3-0.3c3.5-3.5,8.2-5.4,13.4-5.4c1.3,0,2.7,0.1,4.1,0.4c2.6,0.5,4.7,2.6,5.2,5.2	c1.2,6.7-0.6,13-5,17.5c0.3,0.6,0.5,1.3,0.7,1.9c0.2,0.8,0.8,1.6,1.6,2c11.6,6.6,18.9,18.7,18.9,31.7C90.1,81.7,73,98.2,52,98.2z" opacity=".35"/><path fill="#f2f2f2" d="M50,96.2c-21,0-38.1-16.5-38.1-36.8c0-13,7.2-25.1,18.9-31.7c0.8-0.4,1.4-1.2,1.6-2c1.2-4.4,4.5-7.8,8.6-9.1	c-0.9-0.7-2-1.2-3.2-1.4c-1.7-0.3-3.2-1.2-4.2-2.6s-1.4-3.1-1.1-4.9c0.5-3.1,3.2-5.4,6.4-5.4c0.4,0,0.7,0,1.1,0.1	c3.4,0.6,6.6,2,9.2,4.1c0.1-0.1,0.2-0.2,0.3-0.3c3.5-3.5,8.2-5.4,13.4-5.4c1.3,0,2.7,0.1,4.1,0.4c2.6,0.5,4.7,2.6,5.2,5.2	c1.2,6.7-0.6,13-5,17.5c0.3,0.6,0.5,1.3,0.7,1.9c0.2,0.8,0.8,1.6,1.6,2c11.6,6.6,18.9,18.7,18.9,31.7C88.1,79.7,71,96.2,50,96.2z"/><ellipse cx="58.2" cy="15" fill="#96c362" rx="10.5" ry="6" transform="rotate(-45.001 58.164 14.977)"/><path fill="#739f4d" d="M65.4,7.5L50.7,22.3c0,0.1,0,0.1,0,0.2c4.4,0.8,8.7-0.2,11.7-3.2c3-3,4-7.3,3.2-11.7	C65.6,7.5,65.5,7.5,65.4,7.5z"/><path fill="none" stroke="#40396e" stroke-linecap="round" stroke-linejoin="bevel" stroke-miterlimit="10" stroke-width="3" d="M38.8,8.8C45.2,9.9,50,15.4,50,22.1"/><ellipse cx="58.2" cy="15" fill="none" stroke="#40396e" stroke-linecap="round" stroke-linejoin="round" stroke-miterlimit="10" stroke-width="3" rx="10.5" ry="6" transform="rotate(-45.001 58.164 14.977)"/><path fill="#f9b84f" d="M66,33.4c-2.3-1.3-4-3.4-4.6-6v0c-0.8-2.9-3.3-4.9-6.2-4.9H44.8c-2.9,0-5.5,2-6.2,4.9v0c-0.7,2.5-2.4,4.7-4.6,6	c-9.3,5.3-15.6,15-15.6,26.1c0,16.7,14.1,30.3,31.6,30.3s31.6-13.5,31.6-30.3C81.6,48.3,75.3,38.6,66,33.4z"/><path fill="#ffe385" d="M50,84.7c-14.7,0-26.6-11.3-26.6-25.3c0-8.9,5-17.2,13-21.7c3.5-2,6-5.3,7-9.1c0.2-0.7,0.8-1.2,1.4-1.2h10.3	c0.6,0,1.2,0.5,1.4,1.2c1,3.8,3.6,7.1,7,9.1c8,4.5,13,12.9,13,21.7C76.6,73.4,64.7,84.7,50,84.7z"/><path fill="#f9b84f" d="M66,33.4c-2.3-1.3-4-3.4-4.6-6c-0.8-2.9-3.3-4.9-6.2-4.9h-4.7v67.2C67.7,89.5,81.6,76,81.6,59.4	C81.6,48.3,75.3,38.6,66,33.4z"/><path fill="none" stroke="#40396e" stroke-linecap="round" stroke-linejoin="round" stroke-miterlimit="10" stroke-width="3" d="M66,33.4c-2.3-1.3-4-3.4-4.6-6v0c-0.8-2.9-3.3-4.9-6.2-4.9H44.8c-2.9,0-5.5,2-6.2,4.9v0c-0.7,2.5-2.4,4.7-4.6,6	c-9.3,5.3-15.6,15-15.6,26.1c0,16.7,14.1,30.3,31.6,30.3s31.6-13.5,31.6-30.3C81.6,48.3,75.3,38.6,66,33.4z"/><path fill="#f9b84f" d="M44.4,73.7c0,2.8-2.9,4.6-5.4,3.3c-6.6-3.3-11.1-10-11.1-17.6S32.4,45,39,41.7c2.5-1.2,5.4,0.6,5.4,3.3V73.7z"/></svg>