<svg xmlns="http://www.w3.org/2000/svg"  viewBox="0 0 483.16 483.16" width="120px" height="120px"><path fill="#ff6d7a" d="M241.578,84.867c10.76-3.18,21.962-4.86,33.452-4.86c83.15,0,150.55,87.78,150.55,196.06	c0,267.3-368,263.81-368,0c0-108.28,67.4-196.06,150.55-196.06C227.709,80.007,240.878,84.867,241.578,84.867z"/><path fill="#ff8c95" d="M294.159,109.912c-91.673-24.22-180.579,66.131-180.579,192.155c0,21.281,2.394,40.867,6.797,58.754	c6.267,25.462-29.22,38.86-40.923,15.395C65.672,348.579,57.58,315.185,57.58,276.067c0-128.061,91.324-218.556,183.998-191.2	c19.253-5.689,39.625-6.493,59.714-1.883C315.279,86.194,318.213,109.903,294.159,109.912z"/><path fill="#befa91" d="M232.64,46.537l4.193,11.898c1.468,4.166-0.718,8.733-4.883,10.203l-11.899,4.199	c-30.06,10.6-63.02-5.18-73.62-35.24l-4.191-11.892c-1.468-4.167,0.721-8.739,4.888-10.207l11.892-4.191	C189.08,0.707,222.04,16.487,232.64,46.537z"/><path fill="#ffbd7b" d="M234.094,87.781l0.004,0.009L234.094,87.781z"/><path fill="#ffbd7b" d="M234.094,87.781L234.094,87.781L234.094,87.781z"/><path fill="#ffbd7b" d="M233.73,86.55L233.73,86.55L233.73,86.55z"/><path fill="#daffbf" d="M176.582,42.312c9.143,12.733-8.988,27.29-19.083,15.297c-8.1-9.622-10.741-19.084-15.259-31.905	c-1.47-4.17,0.717-8.742,4.888-10.207c1.327-0.466,2.517-0.882,3.583-1.257c6.376-2.244,13.358,1.109,15.603,7.485	C168.827,28.87,171.234,34.864,176.582,42.312z"/><path d="M336.063,87.629c-3.894-2.087-8.743-0.622-10.83,3.273c-2.087,3.894-0.622,8.743,3.272,10.83 c54.111,28.997,89.075,97.425,89.075,174.329c0,131.347-90.763,191.17-175.093,191.17c-85.204,0-176.907-59.823-176.907-191.17 c0-103.693,63.946-188.055,142.545-188.055c53.258,0,96.311,38.494,119.66,85.936c1.392,2.828,4.231,4.47,7.184,4.47 c5.854,0,9.807-6.182,7.172-11.534c-21.674-44.038-54.825-75.186-93.715-88.231c-4.461-26.013,8.516-51.644,32.668-63.454 c3.969-1.94,5.613-6.731,3.673-10.7c-1.941-3.97-6.731-5.615-10.701-3.673c-23.999,11.734-39.29,34.243-42.064,59.315l-14.61,5.153 c-25.849,9.117-54.296-4.499-63.413-30.349l-4.194-11.894c12.856-4.533,20.975-8.343,34.495-6.664 c4.385,0.541,8.38-2.571,8.923-6.956s-2.571-8.38-6.956-8.923c-10.139-1.256-20.194-0.159-29.891,3.26l-19.438,6.854 c-4.167,1.47-6.354,6.039-4.884,10.205l6.854,19.438c5.938,16.838,18.079,29.748,32.957,37.071 c-28.827,8.611-55.217,27.486-76.518,55.227c-29.501,38.42-45.749,89.384-45.749,143.504c0,274.167,384,278.089,384,0 C433.58,193.339,395.302,119.375,336.063,87.629z"/><path d="M129.707,180.69c-6.86,12.398-12.327,26.114-16.249,40.765c-1.142,4.268,1.392,8.654,5.66,9.796 c4.292,1.149,8.66-1.415,9.796-5.659c3.585-13.394,8.562-25.895,14.792-37.155c2.139-3.866,0.739-8.733-3.127-10.873 C136.715,175.425,131.846,176.824,129.707,180.69z"/><path d="M160.781,142.145c-0.722,0.604-1.438,1.219-2.149,1.844c-3.319,2.916-3.645,7.972-0.728,11.29 c2.909,3.309,7.963,3.653,11.291,0.728c0.611-0.537,1.226-1.064,1.846-1.582c3.391-2.833,3.843-7.879,1.01-11.269 C169.216,139.764,164.172,139.313,160.781,142.145z"/></svg>