<svg xmlns="http://www.w3.org/2000/svg"  viewBox="0 0 100 100" width="100px" height="100px"><path d="M51.6,97.7c-1.2,0-2.4-0.3-3.4-0.9c-0.3,0-0.6,0.1-0.8,0.1c-1.2,0-2.3-0.3-3.3-0.9c-1.1-0.6-1.9-1.6-2.5-2.6	c-1.2-0.7-2.3-1.7-2.9-3.1c-0.1-0.1-0.1-0.2-0.2-0.4c-17.7-4.7-30-18.3-30-33.7c0-12.9,8.5-24.7,22.2-31c5.2-2.4,9.3-7,11.3-12.6	c0.6-1.7,1.9-3.1,3.6-3.8c0.8-0.3,1.6-0.5,2.5-0.5c1,0,1.9,0.2,2.8,0.6l1,0.5l1-0.5c0.9-0.4,1.8-0.6,2.8-0.6c0.9,0,1.7,0.2,2.5,0.5	c1.7,0.7,3,2.1,3.6,3.8c2,5.7,6.1,10.3,11.3,12.6c13.7,6.2,22.2,18.1,22.2,31c0,15.9-12.8,29.6-31.1,34c0,0,0,0.1,0,0.1	c-0.6,1.3-1.6,2.4-2.9,3.1c-0.6,1.1-1.4,2-2.5,2.7c-1,0.6-2.1,0.9-3.3,0.9c-0.3,0-0.5,0-0.8-0.1C53.9,97.3,52.8,97.7,51.6,97.7z" opacity=".35"/><path fill="#f2f2f2" d="M49.6,95.7c-1.2,0-2.4-0.3-3.4-0.9c-0.3,0-0.6,0.1-0.8,0.1c-1.2,0-2.3-0.3-3.3-0.9c-1.1-0.6-1.9-1.6-2.5-2.6	c-1.2-0.7-2.3-1.7-2.9-3.1c-0.1-0.1-0.1-0.2-0.2-0.4c-17.7-4.7-30-18.3-30-33.7c0-12.9,8.5-24.7,22.2-31c5.2-2.4,9.3-7,11.3-12.6	c0.6-1.7,1.9-3.1,3.6-3.8c0.8-0.3,1.6-0.5,2.5-0.5c1,0,1.9,0.2,2.8,0.6l1,0.5l1-0.5c0.9-0.4,1.8-0.6,2.8-0.6c0.9,0,1.7,0.2,2.5,0.5	c1.7,0.7,3,2.1,3.6,3.8c2,5.7,6.1,10.3,11.3,12.6c13.7,6.2,22.2,18.1,22.2,31c0,15.9-12.8,29.6-31.1,34c0,0,0,0.1,0,0.1	c-0.6,1.3-1.6,2.4-2.9,3.1c-0.6,1.1-1.4,2-2.5,2.7c-1,0.6-2.1,0.9-3.3,0.9c-0.3,0-0.5,0-0.8-0.1C51.9,95.3,50.8,95.7,49.6,95.7z"/><path fill="#ef8630" d="M53.8,12.6L53.8,12.6L50,14.4l-3.8-1.8l0,0c-2.6,7.2-7.8,13.2-14.8,16.4c-11,5-18.4,14.4-18.4,25.1	c0,16,16.6,29,37,29s37-13,37-29c0-10.7-7.4-20-18.4-25.1C61.6,25.8,56.4,19.8,53.8,12.6z"/><line x1="49.6" x2="49.6" y1="83.1" y2="89.2" fill="none" stroke="#40396e" stroke-linecap="round" stroke-linejoin="round" stroke-miterlimit="10" stroke-width="3"/><line x1="48.1" x2="45.4" y1="83.7" y2="88.3" fill="none" stroke="#40396e" stroke-linecap="round" stroke-linejoin="round" stroke-miterlimit="10" stroke-width="3"/><line x1="48.1" x2="42.6" y1="83.1" y2="85.5" fill="none" stroke="#40396e" stroke-linecap="round" stroke-linejoin="round" stroke-miterlimit="10" stroke-width="3"/><line x1="51" x2="53.7" y1="83.7" y2="88.3" fill="none" stroke="#40396e" stroke-linecap="round" stroke-linejoin="round" stroke-miterlimit="10" stroke-width="3"/><line x1="50.9" x2="56.4" y1="83.1" y2="85.5" fill="none" stroke="#40396e" stroke-linecap="round" stroke-linejoin="round" stroke-miterlimit="10" stroke-width="3"/><path fill="#ffe385" stroke="#f9b84f" stroke-linecap="round" stroke-linejoin="round" stroke-miterlimit="10" stroke-width="3" d="M50,80.8c-17.2,0-31.3-14.7-31.3-27.3c0-5.1,2.4-9.8,6-13.4c3.9-3.9,9-5.7,13.6-8.7c3.7-2.4,6.9-5.5,9.3-9.1	c0.9-1.2,2.6-5.3,2.6-5.3v0c0.7,2.4,1.7,4.8,3.3,6.8c1.5,1.9,3.2,3.7,5,5.3c4.3,3.6,9.9,5.3,14.3,8.8c3.8,3,6.9,7.1,8,11.8	c0.3,1.3,0.5,2.6,0.5,3.9C81.3,66.1,67.3,80.8,50,80.8z"/><path fill="#ffe385" stroke="#f9b84f" stroke-linecap="round" stroke-linejoin="round" stroke-miterlimit="10" stroke-width="3" d="M50,80.6c-12.7,0-27.2-11-25-24.3c0.8-4.6,2.9-8.9,6.1-12.4c3.5-3.8,7.9-6.6,10.8-10.8c2.7-3.8,5-8,7.1-12.1	c0,0,1.8-0.5,1.8-0.5c2.2,4.4,4.4,9,7.6,12.9c3.2,4,7.9,6.8,11.3,10.6c4.8,5.3,7.3,12.3,4.9,19.1c-2,5.8-6.5,10.8-11.9,13.9	C59,79.3,54.5,80.6,50,80.6z"/><path fill="#ffe385" stroke="#f9b84f" stroke-linecap="round" stroke-linejoin="round" stroke-miterlimit="10" stroke-width="3" d="M50,80.3c-8.8,0-14.8-8.1-15.6-13.7c-0.8-5.3,0.1-10.7,2.2-15.6c2.1-5,5.6-9.2,7.9-14.1	c0.9-1.9,1.7-3.8,2.5-5.7c1.4-3.5,2.5-7.2,3.1-10.9c0,0,2.9,8.5,4.6,12.9c3.7,9.9,12.6,18.9,11.7,29.9C65.9,69.3,59.9,80.3,50,80.3z"/><path fill="#ffe385" stroke="#f9b84f" stroke-linecap="round" stroke-linejoin="round" stroke-miterlimit="10" stroke-width="3" d="M50,80.1c-3,0-4.4-3.8-5-5.5c-2.2-6-1.9-12.1-0.2-18.2c1.4-4.9,3.4-9.7,4.7-14.6c0-0.1,0.3-1.2,0.3-1.2	c0,0,0.5,0,0.5,0c0.8,4.5,2.8,9,4.2,13.4c1.7,5.4,2.7,10.9,1.7,16.4C55.7,72.7,54.5,80.1,50,80.1z"/><path fill="none" stroke="#40396e" stroke-linecap="round" stroke-linejoin="round" stroke-miterlimit="10" stroke-width="3" d="M53.8,12.6L53.8,12.6L50,14.4l-3.8-1.8l0,0c-2.6,7.2-7.8,13.2-14.8,16.4c-11,5-18.4,14.4-18.4,25.1	c0,16,16.6,29,37,29s37-13,37-29c0-10.7-7.4-20-18.4-25.1C61.6,25.8,56.4,19.8,53.8,12.6z"/></svg>