<svg xmlns="http://www.w3.org/2000/svg"  viewBox="0 0 100 100" width="100px" height="100px"><path d="M32,93.3c-13.6,0-24.7-11.1-24.7-24.7c0-19,13.2-23.6,21.9-26.7l0.8-0.3c4.2-1.5,8.2-2.9,11.5-5.6l0.2-0.1 c2.9-2.1,5.6-4.8,8.1-7.5c-0.2-0.7-0.3-1.5-0.2-2.3c0.4-4.3,5.9-8.5,7.1-9.2c3.8-2.7,8.8-4.2,13.8-4.2c1.2,0,2.3,0.1,3.5,0.2 c1.8,0.2,3.6,0.7,5.3,1.4c0.4-0.8,0.6-1.3,0.6-1.3c0.9-2.4,3.4-4.1,6-4.1c0.8,0,1.6,0.1,2.3,0.4c3.3,1.3,5,5,3.8,8.4 c-0.1,0.3-0.8,2.1-2.2,4.5c3.3,4.4,4.9,9.7,4.7,15.2c0,0.1-0.6,10.8-4.7,13.8c-0.4,0.3-0.8,0.5-1.3,0.7 C80.7,72.3,57.7,93.3,32,93.3z M49.6,46.3c-5,3.9-10.6,5.9-15.1,7.5l-0.9,0.3c-9,3.2-13.3,5.1-13.3,14.5c0,6.4,5.2,11.7,11.7,11.7 c20.3,0,41.3-19.9,45.8-37.1c0.5-1.8,1.7-3.3,3.4-4.2c0.2-1,0.3-2,0.4-2.3c0.1-2.8-0.9-5.5-2.7-7.5c-1.7-1.9-4-3.1-6.5-3.4 c-0.6-0.1-1.1-0.1-1.7-0.1c-1.9,0-3.7,0.4-5.2,1.2c0.5,2.2-0.2,4.6-1.8,6.2c-1.4,1.3-2.6,2.6-3.8,3.9 C56.8,40.1,53.5,43.5,49.6,46.3z" opacity=".35"/><path fill="#f2f2f2" d="M30,91.3c-13.6,0-24.7-11.1-24.7-24.7c0-19,13.2-23.6,21.9-26.7l0.8-0.3c4.2-1.5,8.2-2.9,11.5-5.6l0.2-0.1 c2.9-2.1,5.6-4.8,8.1-7.5c-0.2-0.7-0.3-1.5-0.2-2.3c0.4-4.3,5.9-8.5,7.1-9.2c3.8-2.7,8.8-4.2,13.8-4.2c1.2,0,2.3,0.1,3.5,0.2 c1.8,0.2,3.6,0.7,5.3,1.4c0.4-0.8,0.6-1.3,0.6-1.3c0.9-2.4,3.4-4.1,6-4.1c0.8,0,1.6,0.1,2.3,0.4c3.3,1.3,5,5,3.8,8.4 c-0.1,0.3-0.8,2.1-2.2,4.5c3.3,4.4,4.9,9.7,4.7,15.2c0,0.1-0.6,10.8-4.7,13.8c-0.4,0.3-0.8,0.5-1.3,0.7 C78.7,70.3,55.7,91.3,30,91.3z M47.6,44.3c-5,3.9-10.6,5.9-15.1,7.5l-0.9,0.3c-9,3.2-13.3,5.1-13.3,14.5c0,6.4,5.2,11.7,11.7,11.7 c20.3,0,41.3-19.9,45.8-37.1c0.5-1.8,1.7-3.3,3.4-4.2c0.2-1,0.3-2,0.4-2.3c0.1-2.8-0.9-5.5-2.7-7.5c-1.7-1.9-4-3.1-6.5-3.4 c-0.6-0.1-1.1-0.1-1.7-0.1c-1.9,0-3.7,0.4-5.2,1.2c0.5,2.2-0.2,4.6-1.8,6.2c-1.4,1.3-2.6,2.6-3.8,3.9 C54.8,38.1,51.5,41.5,47.6,44.3z"/><path fill="#707cc0" d="M30,84.8c-10.1,0-18.2-8.2-18.2-18.2c0-14.2,8.6-17.4,17.6-20.6c4.7-1.7,9.7-3.4,14.2-6.9 c3.4-2.4,6.4-5.4,9.4-8.6c3.9-4.3,6.9-6.7,7.5-7.5c0.4-0.6,5.2-2.8,5.6-2.4c0,0,7.9-2.6,13.1,2.4s3.7,14.4,3.7,15 C81.2,57.4,56.8,84.8,30,84.8z"/><path fill="#96c362" d="M82.9,22c2.9,3.2,4.6,7.6,4.4,12.3c0,0.9-1.4,9-2.1,8.8c-4.5-1.3-8.5-10.6-8.5-10.6s-2.5,3.2-10.6,4.2 C65.4,28.8,68.2,26,68.2,26s-9.8,0.8-12.7-2.1c-0.5-0.5,4-4.4,4.3-4.6c3.6-2.5,8.3-3.4,12.6-2.8C76.6,17,80.2,19,82.9,22z"/><path fill="#40396e" d="M82.8,21.8L82.8,21.8c-0.4-0.4-0.8-0.9-1.2-1.2c2.5-3.3,3.8-6.5,3.9-6.8c0.3-0.8-0.1-1.6-0.9-1.9 c-0.8-0.3-1.6,0.1-1.9,0.9c0,0.1-1.2,3-3.5,6c-2.3-1.5-4.9-2.5-7.7-2.9c-4.9-0.7-10,0.5-13.7,3.1c0,0-4.8,3.8-5,5.6 c0,0.5,0.1,1,0.5,1.3c0.4,0.4,0.8,0.7,1.3,1c-0.9,0.9-1.7,1.8-2.5,2.7c-2.8,2.9-5.8,6-9.2,8.5c-4,3.2-8.6,4.8-13,6.4L29,44.6 c-8.7,3.1-18.6,6.6-18.6,22c0,10.8,8.8,19.7,19.7,19.7c24.1,0,46.8-21.3,53-41.2c0.2,0.1,0.4,0.1,0.6,0.2c0.4,0.1,1,0,1.4-0.2 c1.6-1.1,2.6-9.8,2.6-9.9C87.8,30.2,86.1,25.4,82.8,21.8z M83.3,41.8c-0.1-0.1-0.2-0.1-0.3-0.2c-0.4-0.3-0.9-0.4-1.4-0.2 c-0.5,0.2-0.8,0.6-1,1C75.6,61.7,52.9,83.3,30,83.3c-9.2,0-16.7-7.5-16.7-16.7c0-13.3,8.1-16.2,16.6-19.2l0.9-0.3 c4.4-1.6,9.4-3.4,13.7-6.8c3.6-2.6,6.7-5.7,9.6-8.8c1.3-1.4,2.6-2.8,4.1-4.2c0.4-0.4,0.5-0.9,0.4-1.4c-0.1-0.5-0.5-0.9-1-1.1 c-0.5-0.2-1-0.3-1.3-0.5c1-1,2.7-2.6,3.2-3c3.1-2.2,7.4-3.2,11.5-2.6c3.7,0.5,7.1,2.3,9.5,5.1c2.8,3.1,4.2,7,4,11.2 C84.6,35.8,83.9,39.8,83.3,41.8z"/><path fill="none" stroke="#f2f2f2" stroke-linecap="round" stroke-linejoin="round" stroke-miterlimit="10" stroke-width="3" d="M61.5,32c-1.2,1.1-2.6,2.5-4.1,4.2c-3,3.2-6,6.2-9.4,8.6c-4.5,3.6-9.5,5.2-14.2,6.9" opacity=".35"/></svg>