<svg xmlns="http://www.w3.org/2000/svg"  viewBox="0 0 100 100" width="100px" height="100px"><path d="M39.5,98C33.71,98,29,93.29,29,87.5v-42c0-7.296,4.5-13.653,11-16.252v-6.659 c-1.248-1.352-2-3.152-2-5.089v-6C38,7.364,41.364,4,45.5,4h13c4.136,0,7.5,3.364,7.5,7.5v6c0,1.937-0.752,3.737-2,5.089v6.659 c6.5,2.599,11,8.957,11,16.252v42C75,93.29,70.29,98,64.5,98H39.5z" opacity=".35"/><path fill="#f2f2f2" d="M37.5,96C31.71,96,27,91.29,27,85.5v-42c0-7.296,4.5-13.653,11-16.252v-6.659 c-1.248-1.352-2-3.152-2-5.089v-6C36,5.364,39.364,2,43.5,2h13C60.636,2,64,5.364,64,9.5v6c0,1.937-0.752,3.737-2,5.089v6.659 c6.5,2.599,11,8.957,11,16.252v42C73,91.29,68.29,96,62.5,96H37.5z"/><path fill="#96c362" d="M55.5,32.5v-16h2v-8h-2h-11h-2v8h2v16h0c-6.075,0-11,4.925-11,11v42c0,2.209,1.791,4,4,4h25 c2.209,0,4-1.791,4-4v-42C66.5,37.425,61.575,32.5,55.5,32.5L55.5,32.5z"/><rect width="14" height="9" x="43" y="8" fill="#ff7575"/><rect width="10" height="12" x="45" y="17" fill="#ff7575"/><rect width="12" height="3" x="44" y="15" fill="#40396e" opacity=".35"/><rect width="22" height="30" x="39" y="46" fill="#fedeb3"/><circle cx="50" cy="46" r="6" fill="#fedeb3"/><rect width="16" height="3" x="42" y="49" fill="#f9b84f"/><rect width="16" height="18" x="42" y="55" fill="#f9b84f"/><path fill="#40396e" d="M64.94,89c-3.227-4.819-8.705-8-14.94-8s-11.713,3.181-14.94,8H64.94z" opacity=".35"/><path fill="none" stroke="#40396e" stroke-linecap="round" stroke-linejoin="round" stroke-miterlimit="10" stroke-width="3" d="M55.5,32.5v-16h1c0.552,0,1-0.448,1-1v-6c0-0.552-0.448-1-1-1h-1h-11h-1c-0.552,0-1,0.448-1,1v6c0,0.552,0.448,1,1,1h1v16h0 c-6.075,0-11,4.925-11,11v42c0,2.209,1.791,4,4,4h25c2.209,0,4-1.791,4-4v-42C66.5,37.425,61.575,32.5,55.5,32.5L55.5,32.5z"/></svg>