<svg xmlns="http://www.w3.org/2000/svg"  viewBox="0 0 100 100" width="100px" height="100px"><g id="Слой_2"><path d="M80.262,29.331c-0.156-0.222-0.316-0.441-0.477-0.657c1.576-4.666,1.265-8.712,1.161-9.653l-0.293-2.673 C80.321,13.304,77.751,11,74.69,11H72c-0.888,0-1.762,0.017-2.619,0.052C67.48,7.07,63.409,4.5,58.998,4.5c0,0,0,0-0.001,0 c-1.709,0-3.361,0.37-4.909,1.101c-3.739,1.771-6.884,4.305-9.301,7.462C40.583,11.692,35.634,11,30,11h-2.69 c-3.061,0-5.631,2.304-5.964,5.347l-0.293,2.674c-0.097,0.881-0.376,4.486,0.885,8.774C11.763,34.407,6,44.411,6,55.69 c0,10.187,4.842,20.317,13.284,27.795C27.668,90.911,38.576,95,50,95s22.332-4.089,30.716-11.515C89.158,76.008,94,65.877,94,55.69 C94,45.292,89.131,35.972,80.262,29.331z" opacity=".35"/><path fill="#f2f2f2" d="M79.262,27.331c-0.156-0.222-0.316-0.441-0.477-0.657c1.576-4.666,1.265-8.712,1.161-9.653l-0.293-2.673 C79.321,11.304,76.751,9,73.69,9H71c-0.888,0-1.762,0.017-2.619,0.052C66.48,5.07,62.409,2.5,57.998,2.5c0,0,0,0-0.001,0 c-1.709,0-3.361,0.37-4.909,1.101c-3.739,1.771-6.884,4.305-9.301,7.462C39.583,9.692,34.634,9,29,9h-2.69 c-3.061,0-5.631,2.304-5.964,5.347l-0.293,2.674c-0.097,0.881-0.376,4.486,0.885,8.774C10.763,32.407,5,42.411,5,53.69 c0,10.187,4.842,20.317,13.284,27.795C26.668,88.911,37.576,93,49,93s22.332-4.089,30.716-11.515C88.158,74.008,93,63.877,93,53.69 C93,43.292,88.131,33.972,79.262,27.331z"/><path fill="#40396e" d="M74.878,31.56c-0.925-1.441-1.974-2.715-3.138-3.814c2.783-4.734,2.271-9.819,2.243-10.073L73.69,15H71 c-2.794,0-5.371,0.183-7.725,0.548c0.368-1.25,0.297-2.635-0.303-3.902C62.065,9.734,60.113,8.5,57.998,8.5c0,0,0,0,0,0 c-0.817,0-1.607,0.177-2.348,0.527c-4.297,2.036-7.54,5.374-9.422,9.618C42.01,16.224,36.24,15,29,15h-2.69l-0.293,2.674 c-0.028,0.253-0.539,5.338,2.242,10.071c-0.514,0.484-1.005,1.001-1.472,1.55C16.745,34.733,11,43.594,11,53.69 c0,8.47,4.105,16.964,11.262,23.303C29.548,83.446,39.043,87,49,87s19.452-3.554,26.738-10.006C82.895,70.654,87,62.161,87,53.69 C87,44.921,82.701,37.085,74.878,31.56z"/><path fill="#de5147" d="M84,53.69C84,69.431,68.33,84,49,84S14,69.431,14,53.69S29.67,27,49,27S84,37.95,84,53.69z"/><path d="M22.14,38.3L22.14,38.3c-0.522,1.647,0.452,3.393,2.127,3.815l0,0c0.173,0.044,4.293,1.067,9.243,1.067 c2.185,0,4.203-0.197,6.041-0.59c0.562,4.858,3.349,9.815,8.327,14.793l0,0c1.172,1.171,3.071,1.171,4.242,0l0,0 c4.979-4.979,7.765-9.936,8.327-14.793c1.837,0.392,3.856,0.59,6.041,0.59c4.951,0,9.07-1.023,9.243-1.067l0,0 c1.675-0.422,2.649-2.168,2.127-3.815l0,0c-0.063-0.109-0.16-0.276-0.223-0.385c-5.997-6.441-15.695-10.47-26.761-10.88 C50.254,27.014,49.629,27,49,27c-10.146,0-19.28,3.021-25.673,8.164C22.896,36.133,22.497,37.173,22.14,38.3z" opacity=".35"/><path fill="#689f38" d="M29,18c0,0-2,18,22,14C51,32,53,18,29,18z"/><path fill="#689f38" d="M71,18c0,0,2,18-22,14C49,32,47,18,71,18z"/><path fill="#96c362" d="M75,38.942c-4.977-15.711-18.199-13.576-22.568-12.39c0.154-2.815,1.238-7.734,6.639-10.292 c1.248-0.592,1.78-2.082,1.189-3.33c-0.592-1.247-2.082-1.779-3.33-1.189c-7.179,3.4-9.303,10.093-9.52,14.769 C42.885,25.317,29.917,23.42,25,38.942c0,0,10.554,2.658,17.665-0.799C41.844,42.512,43.193,48.193,50,55 c6.807-6.807,8.157-12.488,7.335-16.858C64.446,41.6,75,38.942,75,38.942z"/></g></svg>