<svg xmlns="http://www.w3.org/2000/svg"  viewBox="0 0 256 256" width="128px" height="128px"><path fill="#EEC21D" d="M227.947,211.706c-17.986,22.992-45.996,37.78-77.459,37.78h-43.411 c-27.144,0-51.716-11.006-69.51-28.787c-2.828-2.828-5.477-5.821-7.948-8.98c9.63,0.79,19.527-2.497,26.89-9.859l0.013-0.013 c13.26-13.273,34.825-13.324,48.162,0.013c13.311,13.298,34.889,13.298,48.175,0l0.025-0.013 c13.248-13.273,34.813-13.324,48.162,0.013C208.407,209.234,218.317,212.521,227.947,211.706z"/><path fill="#B55035" d="M248.786,151.188c0,22.826-7.783,43.831-20.839,60.518c-9.63,0.815-19.54-2.471-26.902-9.846 c-13.349-13.336-34.914-13.286-48.162-0.013l-0.025,0.013c-13.286,13.298-34.863,13.298-48.175,0 c-13.337-13.336-34.902-13.286-48.162-0.013l-0.013,0.013c-7.363,7.363-17.26,10.649-26.89,9.859 c-13.056-16.687-20.839-37.704-20.839-60.53c0-34.418,17.706-64.696,44.493-82.248c27.221-17.844,48.067-36.84,65.814-57.924 c5.055-6.005,14.339-6.002,19.393,0.003c17.657,20.976,38.481,40.005,65.812,57.921 C231.523,86.775,248.786,117.301,248.786,151.188z"/><path fill="#F0C020" d="M29.402,231.863c-3.764-1.244-7.651-2.331-9.833-11.731c-2.01,8.658-5.23,10.21-9.833,11.731 c7.507,2.481,8.64,6.588,9.833,11.731C21.626,234.729,25.029,233.308,29.402,231.863z"/><path fill="#F0C020" d="M212.444,32.216c-3.764-1.244-7.651-2.331-9.833-11.731c-2.01,8.658-5.23,10.21-9.833,11.731 c7.507,2.481,8.64,6.588,9.833,11.731C204.668,35.082,208.071,33.661,212.444,32.216z"/><path fill="#823A26" d="M57.689,165.02c1.37-0.1,2.41-1.29,2.32-2.67c-0.38-5.396-0.466-11.172-0.34-15.19 c0.74-31.01,10.41-59.62,25.87-76.54c6.05-6.64,11.79-13.7,17.06-20.96c0.811-1.12,0.561-2.69-0.56-3.49 c-1.08-0.79-2.71-0.52-3.49,0.55c-5.15,7.11-10.78,14.02-16.71,20.54c-18.584,20.441-26.485,52.174-27.17,79.77 c-0.119,5.128-0.026,10.328,0.35,15.67C55.103,163.911,56.051,165.02,57.689,165.02z"/><path fill="#823A26" d="M199.14,133.02c1.51,0,2.664-1.304,2.48-2.82c-0.17-1.35-1.431-2.33-2.801-2.16 c-1.433,0.195-2.32,1.478-2.159,2.78c0,0.01,0,0.01,0,0.02C196.819,132.08,197.89,133.02,199.14,133.02z"/><path fill="#823A26" d="M199.939,137.97c-1.38,0.09-2.43,1.28-2.34,2.66v0.01c0.521,7.884,0.451,16.398-0.26,24.58 c-0.127,1.408,0.987,2.71,2.49,2.71c1.31,0,2.38-0.98,2.489-2.28c0.742-8.357,0.801-17.436,0.271-25.34 C202.5,138.94,201.319,137.88,199.939,137.97z"/><path fill="#823A26" d="M198.03,123.1c1.35-0.26,2.239-1.58,1.97-2.93c-2.5-12.79-6.46-24.45-11.76-34.65 c-0.672-1.266-2.203-1.694-3.37-1.06c-1.231,0.615-1.697,2.155-1.07,3.37c5.09,9.78,8.89,20.98,11.29,33.3 C195.342,122.415,196.583,123.369,198.03,123.1z"/><path fill="#823A26" d="M145.64,62.44c-1.01-3.54-2.06-7.21-3.14-11.15c-0.351-1.3-1.76-2.11-3.061-1.76 c-1.287,0.357-2.127,1.675-1.76,3.06v0.01c1.13,4.16,2.22,7.97,3.271,11.65c6.479,22.73,11.159,39.15,11.189,86.94 c0,8.03-0.21,16.01-0.62,23.73c-0.086,1.433,1.028,2.571,2.36,2.63c0.962,0.246,2.546-0.781,2.63-2.36 c0.42-7.82,0.63-15.9,0.63-24C157.161,102.795,152.247,85.623,145.64,62.44z"/><path fill="#823A26" d="M114.2,63.56c-1.301-0.38-2.721,0.42-3.101,1.71c-6.234,21.692-10.712,38.81-10.67,85.92 c0,6.2,0.12,12.36,0.36,18.31c0.047,1.264,1.029,2.4,2.6,2.4c1.37-0.06,2.45-1.22,2.391-2.6c-0.23-5.93-0.36-12.02-0.36-18.11 c0.03-48.01,4.64-64.13,10.49-84.54C116.29,65.33,115.52,63.94,114.2,63.56z"/><path fill="#F8E5B2" d="M150.487,239.248h-43.41c-14.627,0-29.08-3.634-41.797-10.508c-1.215-0.657-1.667-2.173-1.011-3.388 c0.656-1.214,2.173-1.668,3.388-1.01c11.989,6.481,25.621,9.907,39.42,9.907h43.41c18.632,0,36.19-5.979,50.776-17.291 c1.093-0.846,2.661-0.647,3.508,0.443c0.846,1.091,0.647,2.662-0.443,3.508C188.857,232.906,170.239,239.248,150.487,239.248z M56.534,223.325c-1.112-0.783-2.221-1.602-3.294-2.433c-1.092-0.846-1.291-2.417-0.444-3.508c0.844-1.09,2.415-1.291,3.507-0.444 c1.013,0.785,2.059,1.557,3.108,2.295c1.129,0.794,1.4,2.354,0.606,3.483C59.224,223.848,57.663,224.119,56.534,223.325z"/><path fill="#FDCCC4" d="M198.68,77.502c-26.521-17.385-48.741-36.975-67.931-59.888c-0.888-1.06-2.463-1.197-3.522-0.312 c-1.059,0.886-1.197,2.463-0.312,3.521c19.51,23.294,42.088,43.202,69.024,60.86c23.559,15.431,37.623,41.459,37.623,69.626 c0,11.936-2.495,23.459-7.417,34.252c-0.573,1.256-0.02,2.739,1.237,3.312c1.246,0.57,2.736,0.026,3.312-1.237 c5.221-11.448,7.868-23.67,7.868-36.326C238.563,121.451,223.653,93.859,198.68,77.502z"/><path fill="#FDCCC4" d="M223.659,200.202c0.764-1.135,1.512-2.304,2.222-3.473c0.717-1.18,0.341-2.718-0.839-3.435 c-1.177-0.716-2.717-0.341-3.435,0.839c-0.67,1.104-1.376,2.206-2.097,3.277c-0.771,1.146-0.467,2.699,0.679,3.47 C221.331,201.65,222.885,201.35,223.659,200.202z"/><path fill="#CF941E" d="M88.17,212.62v-1.58c0-1.37-1.12-2.5-2.5-2.5s-2.5,1.13-2.5,2.5v1.58c0,1.38,1.12,2.5,2.5,2.5 S88.17,214,88.17,212.62z"/><path fill="#CF941E" d="M168.67,213.54c-1.38,0-2.5,1.12-2.5,2.49v1.58c0,1.38,1.12,2.5,2.5,2.5s2.5-1.12,2.5-2.5v-1.58 C171.17,214.66,170.05,213.54,168.67,213.54z"/><path d="M22.031,219.561c-0.603-2.601-4.322-2.594-4.923,0c-1.812,7.804-4.339,8.639-8.164,9.903c-2.303,0.761-2.309,4.037,0,4.799 c6.353,2.099,7.073,5.203,8.163,9.902c0.606,2.606,4.319,2.606,4.924,0c1.81-7.804,4.475-8.684,8.163-9.902 c2.303-0.761,2.309-4.037,0-4.8C26.652,228.296,23.884,227.542,22.031,219.561z M19.62,236.105 c-0.895-1.508-2.138-2.936-3.957-4.184c1.471-1.009,2.788-2.379,3.916-4.407c1.14,2.053,2.438,3.413,3.78,4.372 C21.96,232.87,20.704,234.189,19.62,236.105z"/><path d="M191.986,29.817c-2.303,0.761-2.309,4.037,0,4.799c6.353,2.099,7.073,5.203,8.163,9.902c0.605,2.606,4.319,2.606,4.924,0 c1.81-7.804,4.475-8.684,8.163-9.902c2.303-0.761,2.309-4.037,0-4.8c-3.543-1.167-6.311-1.922-8.164-9.903 c-0.603-2.601-4.322-2.594-4.923,0C198.338,27.718,195.811,28.553,191.986,29.817z M202.621,27.867 c1.14,2.053,2.438,3.413,3.78,4.372c-1.399,0.983-2.655,2.302-3.739,4.218c-0.895-1.508-2.138-2.936-3.957-4.184 C200.177,31.265,201.494,29.895,202.621,27.867z"/><path d="M61.53,235.82c-1.44,0-2.512,1.17-2.506,2.5c0.006,1.392,1.142,2.5,2.496,2.5c1.394,0,2.507-1.128,2.507-2.5 C64.026,237.005,62.975,235.82,61.53,235.82z"/><path d="M18.79,110.44c0.96,0,1.819-0.54,2.24-1.4c0.609-1.24,0.1-2.74-1.141-3.35c-1.927-0.948-4.18,0.918-3.47,3.05 C16.79,109.819,17.791,110.44,18.79,110.44z"/><path d="M12.5,116.26c-4.13,11.16-6.22,22.92-6.22,34.93c0,34.299,17.227,65.576,45.26,84.13c1.109,0.74,2.729,0.4,3.47-0.71 c0.75-1.15,0.44-2.7-0.71-3.46c-7.371-4.873-13.961-10.709-19.35-16.91c23.571-1.607,23.129-19.843,45.64-19.87 c22.872,0.028,22.952,19.96,48.18,19.96v-0.05l0.021,0.05c25.237,0,25.264-19.933,48.149-19.96 c22.571,0.027,22.029,18.286,45.66,19.87c-18.21,20.81-44.49,32.75-72.109,32.75h-43.41c-12.29,0-24.25-2.3-35.55-6.81 c-1.261-0.51-2.74,0.14-3.25,1.39c-0.513,1.325,0.138,2.742,1.399,3.25c11.89,4.75,24.48,7.17,37.4,7.17h43.41 c55.656,0,100.837-45.21,100.79-100.8c0-35.061-17.967-66.238-45.62-84.34c-25.761-16.89-46.5-35.14-65.271-57.44 c-6.018-7.167-17.126-7.232-23.22,0C69.999,65.422,44.243,61.508,21.53,97.88c-0.749,1.196-0.356,2.724,0.789,3.44 c1.141,0.71,2.73,0.34,3.44-0.78c0.01-0.01,0.01-0.01,0.01-0.01C47.135,66.324,74.25,68.112,121,12.63 c4.043-4.798,11.471-4.839,15.569,0c19.171,22.785,40.608,41.524,66.351,58.4c27.149,17.79,43.37,47.75,43.37,80.16 c-0.01,21.233-6.808,41.298-19.653,58.093c-24.215,1.279-23.631-19.914-49.677-19.914h-0.04c-25.369,0-25.006,19.96-48.14,19.96 c-23.18,0-22.741-19.96-48.171-19.96h-0.04c-25.655,0-25.494,20.98-49.645,19.925C18.078,192.49,11.28,172.424,11.28,151.19 c0-11.43,1.989-22.6,5.909-33.2c0.481-1.293-0.173-2.733-1.479-3.21C14.45,114.31,12.96,115,12.5,116.26z"/><path d="M172.75,88.25v-1.58c0-1.38-1.12-2.5-2.5-2.5s-2.5,1.12-2.5,2.5v1.58c0,1.38,1.12,2.5,2.5,2.5S172.75,89.63,172.75,88.25z"/><path d="M46.83,109.96v-1.57c0-1.38-1.12-2.5-2.5-2.5s-2.5,1.12-2.5,2.5v1.57c0,1.38,1.12,2.5,2.5,2.5S46.83,111.34,46.83,109.96z"/><path d="M218.83,166.22v-1.58c0-1.38-1.12-2.5-2.5-2.5s-2.5,1.12-2.5,2.5v1.58c0,1.38,1.12,2.5,2.5,2.5S218.83,167.6,218.83,166.22 z"/><path d="M83.83,140.25v-1.58c0-1.38-1.12-2.5-2.5-2.5s-2.5,1.12-2.5,2.5v1.58c0,1.37,1.12,2.49,2.5,2.49S83.83,141.62,83.83,140.25 z"/><path d="M74.5,156.33v-1.57c0-1.38-1.12-2.51-2.5-2.51s-2.5,1.13-2.5,2.51v1.57c0,1.38,1.12,2.5,2.5,2.5S74.5,157.71,74.5,156.33z"/></svg>