<svg xmlns="http://www.w3.org/2000/svg"  viewBox="0 0 64 64" width="128px" height="128px"><path fill="#aae1f9" d="M18,13l3,10.26A65.77,65.77,0,0,1,22,57H42a65.77,65.77,0,0,1,1-33.74L46,13Z"/><path fill="#57b7eb" d="M39.73,53a12,12,0,0,1-12-11.88A65.39,65.39,0,0,0,25,23.26L22,13H18l3,10.26A65.77,65.77,0,0,1,22,57H42c-.31-1.33-.58-2.66-.81-4Z"/><path fill="#57b7eb" d="M22,57H42a0,0,0,0,1,0,0v2a2,2,0,0,1-2,2H24a2,2,0,0,1-2-2V57A0,0,0,0,1,22,57Z"/><path fill="#f9e109" d="M52,7V3H45.14a4,4,0,0,0-3.46,2l-8.8,15.25,3.46,2L45.14,7Z"/><path fill="#fcbc04" d="M39,13.5a24.3,24.3,0,0,1,.46-4.66L32.88,20.25l3.46,2,2.94-5.09A24.23,24.23,0,0,1,39,13.5Z"/><path fill="#f8664f" d="M32,19.05a20.4,20.4,0,0,0-12.08-.26l-.19.05L21,23.26A65.77,65.77,0,0,1,22,57H42a65.77,65.77,0,0,1,1-33.74l1.17-4h-.05A20.48,20.48,0,0,1,32,19.05Z"/><path fill="#cc5144" d="M39.73,53a12,12,0,0,1-12-11.88A65.39,65.39,0,0,0,25,23.26l-1.52-5.15a20.05,20.05,0,0,0-3.6.68l-.19.05L21,23.26A65.77,65.77,0,0,1,22,57H42c-.31-1.33-.58-2.66-.81-4Z"/><circle cx="35" cy="51" r="2" fill="#f89c8d"/><path fill="#f8664f" d="M35,53a2,2,0,0,0,1.31-.5A11.8,11.8,0,0,1,33,50.93s0,0,0,.07A2,2,0,0,0,35,53Z"/><path fill="#f8664f" d="M20.54,47.05l-1.14.42a4,4,0,0,1-2.8,0l-1.14-.42A4,4,0,0,0,10,50.83v1.86A8.21,8.21,0,0,0,17.51,61,8,8,0,0,0,26,53V50.83A4,4,0,0,0,20.54,47.05Z"/><path fill="#cc5144" d="M13,49a12.38,12.38,0,0,1,.2-2.12A4.05,4.05,0,0,0,10,50.83v1.86A8.21,8.21,0,0,0,17.51,61a8.08,8.08,0,0,0,3.62-.64A12,12,0,0,1,13,49Z"/><ellipse cx="23.12" cy="49.71" fill="#f89c8d" rx="1" ry="2" transform="rotate(-45 23.122 49.713)"/><g data-name="Outline copy"><path fill="#39519d" d="M26,53.69a1,1,0,0,0-1.18.77A7,7,0,0,1,17.57,60,7.17,7.17,0,0,1,11,52.69V50.83A3,3,0,0,1,15.11,48l.28.11a5.14,5.14,0,0,1-1.71,1,1,1,0,0,0-.63,1.27A1,1,0,0,0,14,51a1.25,1.25,0,0,0,.32,0A7.28,7.28,0,0,0,17,49.33V51a1,1,0,0,0,2,0V49.33A7.28,7.28,0,0,0,21.68,51,1.25,1.25,0,0,0,22,51a1,1,0,0,0,.95-.68,1,1,0,0,0-.63-1.27,5.14,5.14,0,0,1-1.71-1l.28-.11A3,3,0,0,1,25,50.83a1,1,0,0,0,2,0,5,5,0,0,0-6.81-4.72l-.91.34c-.1-.21-.2-.42-.28-.64v0a3.42,3.42,0,0,1,.77-2.16,1,1,0,1,0-1.54-1.26A5.41,5.41,0,0,0,17,45.79v0c-.08.22-.18.43-.28.64l-.91-.34A5,5,0,0,0,9,50.83v1.86A9.17,9.17,0,0,0,17.45,62,5.15,5.15,0,0,0,18,62a8.94,8.94,0,0,0,8.79-7.12A1,1,0,0,0,26,53.69Z"/><path fill="#39519d" d="M18,56a3,3,0,0,1-2.12-.88,1,1,0,1,0-1.41,1.42A5,5,0,0,0,18,58a1,1,0,0,0,0-2Z"/><path fill="#39519d" d="M32,51a3,3,0,0,0,3,3,1,1,0,0,0,0-2,1,1,0,1,1,1-1,1,1,0,0,0,2,0,3,3,0,0,0-6,0Z"/><circle cx="30" cy="45" r="1" fill="#39519d"/><circle cx="36" cy="42" r="1" fill="#39519d"/><path fill="#39519d" d="M52,2H45.14a5,5,0,0,0-4.33,2.5L32.87,18.26l-.55-.16a21.24,21.24,0,0,0-11.9-.46L19.34,14H32a1,1,0,0,0,0-2H18a1,1,0,0,0-1,1.28l3,10.26A64.8,64.8,0,0,1,22.72,43a1,1,0,0,0,1,1h0a1,1,0,0,0,1-1A66.78,66.78,0,0,0,22,23l-1-3.42a19.38,19.38,0,0,1,10.7.45,21.89,21.89,0,0,0,5.91,1.07h0l.86,0a20.63,20.63,0,0,0,4.22-.43L42,23a67,67,0,0,0-1.24,33H29.31a1,1,0,0,0,0,2H41v1a1,1,0,0,1-1,1H26.93a1,1,0,0,0,0,2H40a3,3,0,0,0,3-3V57s0-.07,0-.11,0-.08,0-.12a64.9,64.9,0,0,1,1-33.23l3-10.26A1,1,0,0,0,45,12.72l-1.7,5.74a19.1,19.1,0,0,1-4,.62L45.72,8H52a1,1,0,0,0,1-1V3A1,1,0,0,0,52,2ZM51,6H45.14a1,1,0,0,0-.86.5L37,19c-.72-.06-1.44-.15-2.15-.28L42.55,5.5A3,3,0,0,1,45.14,4H51Z"/></g></svg>