<svg xmlns="http://www.w3.org/2000/svg"  viewBox="0 0 472.001 472.001" width="116px" height="116px"><path fill="#ffaa64" d="M364.39,30.358c-13.307-1.141-26.384-3.227-38.965-6.972c-0.204-0.061-0.409-0.116-0.616-0.169	c-18.129-4.632-35.33-12.399-51.736-22.102c-3.802-2.249-8.708-0.991-10.958,2.813c-2.25,3.803-0.99,8.709,2.813,10.958	c8.248,4.878,16.714,9.192,25.364,12.977c-43.872,10.408-83.021,35.846-110.436,72.531c-2.645,3.539-1.92,8.553,1.619,11.197	c3.541,2.646,8.553,1.92,11.197-1.619c29.218-39.099,72.959-64.283,121.153-70.088c-2.664,27.23,0.664,54.954,9.76,80.773	c1.158,3.288,4.247,5.344,7.545,5.344c5.488,0,9.385-5.44,7.545-10.66c-8.369-23.756-11.383-49.271-8.868-74.32	c10.854,2.54,21.933,4.311,33.215,5.277c4.459,0.375,8.281-2.934,8.654-7.287C372.055,34.61,368.793,30.735,364.39,30.358z"/><circle cx="143.001" cy="215.001" r="118" fill="#6c6ca6"/><path fill="#7d7db0" d="M150.771,141.115c-38.665,11.646-70.141,43.355-81.638,82.082	c-7.28,24.522-43.579,19.86-44.106-5.714C23.659,151.222,77.875,96.206,144.455,97.01	C170.317,97.323,175.536,133.656,150.771,141.115z"/><circle cx="329.001" cy="236.001" r="118" fill="#6c6ca6"/><path fill="#7d7db0" d="M336.771,162.115c-38.665,11.646-70.141,43.355-81.638,82.082	c-7.28,24.522-43.579,19.86-44.106-5.714c-1.367-66.261,52.849-121.277,119.429-120.473	C356.317,118.323,361.536,154.656,336.771,162.115z"/><circle cx="180.001" cy="354.001" r="118" fill="#6c6ca6"/><path fill="#7d7db0" d="M187.771,280.115c-38.665,11.646-70.141,43.355-81.638,82.082	c-7.28,24.522-43.579,19.86-44.106-5.714c-1.367-66.261,52.849-121.277,119.429-120.473	C207.317,236.323,212.536,272.656,187.771,280.115z"/><path fill="#484880" d="M85.385,184.615l1.825-5.838l-4.994-3.537c-6.309-4.47-3.195-14.438,4.531-14.527l6.121-0.072	l1.827-5.846c2.298-7.352,12.734-7.522,15.215-0.173l1.959,5.802c0,0,6.18-0.072,6.212-0.072c7.685,0,10.938,9.837,4.771,14.421	l-4.912,3.65l1.959,5.8c2.474,7.325-5.907,13.556-12.208,9.085l-4.989-3.538l-4.907,3.65	C91.634,198.005,83.073,192.011,85.385,184.615z"/><path fill="#484880" d="M275.911,210.141v-6.113l-5.817-1.886c-7.356-2.385-7.355-12.829-0.006-15.219l5.824-1.894v-6.118	c0-7.718,9.922-10.964,14.473-4.702l3.596,4.95l5.824-1.889c7.355-2.378,13.478,6.064,8.94,12.313l-3.595,4.948l3.594,4.947	c4.545,6.255-1.599,14.698-8.945,12.311l-5.821-1.893l-3.593,4.946C285.852,221.079,275.911,217.887,275.911,210.141z"/><path fill="#484880" d="M129.689,330.609l-1.513-5.93l-6.103-0.395c-7.711-0.499-10.288-10.613-3.761-14.743l5.174-3.275	l-1.509-5.933c-1.905-7.493,6.925-13.06,12.866-8.125l4.701,3.906l5.176-3.268c6.534-4.124,14.561,2.547,11.703,9.723l-2.263,5.687	l4.707,3.916c5.942,4.945,2.068,14.636-5.64,14.132l-6.093-0.399l-2.26,5.683C142.024,338.756,131.605,338.115,129.689,330.609z"/><path fill="#484880" d="M211.081,240.151c-56.333-15.43-116.849,12.983-140,68.39c-5.247-4.023-10.141-8.489-14.626-13.333	c-2.298-2.482-2.74-6.188-1.117-9.156c26.053-47.629,77.65-77.353,133.643-73.772c4.558-27.001,16.766-51.441,34.312-70.994	c3.296-3.673,9.127-3.436,12.195,0.429c3.118,3.928,5.989,8.058,8.594,12.365C220.586,178.439,209.792,210.506,211.081,240.151z"/><path fill="#484880" d="M312.582,353.025c-4.994-0.695-9.887-1.706-14.661-3.014c-1.81-52.58-38.03-96.42-86.84-109.7	c-0.197-4.541-0.071-9.687,0.415-14.977c0.466-5.072,5.522-8.372,10.389-6.867c55.016,17.013,95.842,66.633,99.801,126.182	C322.02,349.68,317.576,353.721,312.582,353.025z"/></svg>