<svg xmlns="http://www.w3.org/2000/svg"  viewBox="0 0 100 100" width="100px" height="100px"><path d="M36.7,97.5C22.5,97.5,11,85.9,11,71.8c0-4.8,1.4-9.6,4-13.7c-0.6-2.2-1-4.5-1-6.8c0-12.7,9.5-23.2,21.7-24.9	c1.7-7.2,5.5-13.7,10.8-18.3c1.2-1,2.7-1.6,4.2-1.6c1.4,0,2.7,0.4,3.8,1.2c5.4,3.9,9.6,9.6,11.9,16.1c5.5-3.3,11.7-5.2,17.9-5.2	c0.8,0,1.6,0,2.3,0.1c3,0.2,5.4,2.5,5.9,5.4c1.5,9.2-1.2,19.1-7.4,27c2.2,3.8,3.4,8.1,3.4,12.6C88.6,77.7,77.4,89,63.5,89	c-2.3,0-4.7-0.3-6.9-1C51.8,93.9,44.5,97.5,36.7,97.5z" opacity=".35"/><path fill="#f2f2f2" d="M34.7,95.5C20.5,95.5,9,83.9,9,69.8c0-4.8,1.4-9.6,4-13.7c-0.6-2.2-1-4.5-1-6.8c0-12.7,9.5-23.2,21.7-24.9	c1.7-7.2,5.5-13.7,10.8-18.3c1.2-1,2.7-1.6,4.2-1.6c1.4,0,2.7,0.4,3.8,1.2c5.4,3.9,9.6,9.6,11.9,16.1c5.5-3.3,11.7-5.2,17.9-5.2	c0.8,0,1.6,0,2.3,0.1c3,0.2,5.4,2.5,5.9,5.4c1.5,9.2-1.2,19.1-7.4,27c2.2,3.8,3.4,8.1,3.4,12.6C86.6,75.7,75.4,87,61.5,87	c-2.3,0-4.7-0.3-6.9-1C49.8,91.9,42.5,95.5,34.7,95.5z"/><ellipse cx="49.8" cy="34.1" fill="#96c362" rx="10.5" ry="23.1" transform="rotate(-2.498 49.768 34.078) scale(1.00005)"/><path fill="#739f4d" d="M59.9,33.5c-0.4-9.4-4.8-17.6-11.2-22.3l1.8,45.8C56.6,51.6,60.3,43,59.9,33.5z"/><ellipse cx="68.6" cy="40.3" fill="#96c362" rx="23.1" ry="10.5" transform="rotate(-47.491 68.617 40.294)"/><path fill="#739f4d" d="M53,57.2c0,0,0,0.1,0,0.1c8,0.6,16.8-2.8,23.3-9.9c6.5-7.1,9.1-16.1,7.8-24.1L53,57.2z"/><ellipse cx="49.8" cy="34.1" fill="none" rx="10.5" ry="23.1" transform="rotate(-2.498 49.768 34.078) scale(1.00005)"/><ellipse cx="68.6" cy="40.3" fill="none" rx="23.1" ry="10.5" transform="rotate(-47.491 68.617 40.294)"/><circle cx="36.4" cy="49.9" r="17.9" fill="#707cc0"/><circle cx="36.4" cy="49.9" r="17.9" fill="#40396e" opacity=".35"/><circle cx="61.1" cy="62.2" r="18.2" fill="#707cc0"/><circle cx="34.9" cy="70" r="18" fill="#9aa2e6"/><path fill="none" stroke="#40396e" stroke-linecap="round" stroke-linejoin="round" stroke-miterlimit="10" stroke-width="3" d="M76.4,47.4c6.5-7.1,9.1-16.1,7.8-24.1c-8-0.6-16.8,2.8-23.3,9.9c-0.2,0.2-0.4,0.5-0.6,0.7c0-0.1,0-0.2,0-0.3	c-0.4-9.6-5-17.9-11.5-22.6c-5.3,4.6-8.9,11.7-9.4,19.7c-0.7-0.1-1.5-0.1-2.2-0.1c-10.3,0-18.6,8.3-18.6,18.6c0,2.8,0.6,5.5,1.8,7.9	c-3,3.4-4.8,7.8-4.8,12.7c0,10.6,8.6,19.2,19.2,19.2c7.7,0,14.3-4.6,17.4-11.1c2.8,1.6,6,2.6,9.4,2.6c10.3,0,18.6-8.3,18.6-18.6	c0-5-2-9.6-5.3-12.9C75.4,48.4,75.9,47.9,76.4,47.4z"/><circle cx="31.3" cy="68.3" r="6.2" fill="none" stroke="#40396e" stroke-linecap="round" stroke-linejoin="round" stroke-miterlimit="10" stroke-width="3"/><ellipse cx="68.3" cy="59.3" fill="none" stroke="#40396e" stroke-linecap="round" stroke-linejoin="round" stroke-miterlimit="10" stroke-width="3" rx="4.2" ry="6.2" transform="rotate(-13.426 68.297 59.295)"/><ellipse cx="34.3" cy="41.3" fill="none" stroke="#40396e" stroke-linecap="round" stroke-linejoin="round" stroke-miterlimit="10" stroke-width="3" rx="6.2" ry="4.2" transform="rotate(-10.049 34.3 41.3)"/></svg>