<svg xmlns="http://www.w3.org/2000/svg"  viewBox="0 0 100 100" width="100px" height="100px"><path d="M49.3,94.8c-11.3,0-21.5-4-28.8-11.3C12.4,75.4,8.4,63.8,9.3,51c0.9-12,6-23.5,14.1-31.6	c4.6-4.6,9.7-7.7,15.3-9.2c0.3-0.1,0.7-0.2,1.1-0.3c0.4-0.1,0.9-0.2,1.4-0.3c0.3-0.1,0.7-0.1,1.1-0.2c0.5-0.1,0.9-0.1,1.3-0.2l0.2,0	c0.3,0,0.5,0,0.7-0.1c0.7-0.1,1.4-0.1,2.1-0.1l0.7,0l0.2,0c10.8,0.2,22.9,5.9,32.2,15.2c9,9,14.6,20.3,15.2,31c0,0.5,0,1,0,1.4	l0,0.5c0,0.5,0,1,0,1.4l0,0c0,0.1,0,0.3,0,0.4c-0.1,1.9-0.4,3.7-0.9,5.5l-0.1,0.3c-0.1,0.4-0.2,0.8-0.3,1.1	c-1.6,5.1-4.6,10-8.9,14.3C75.7,89.5,62.5,94.8,49.3,94.8z" opacity=".35"/><path fill="#f2f2f2" d="M47.3,92.8c-11.3,0-21.5-4-28.8-11.3C10.4,73.4,6.4,61.8,7.3,49c0.9-12,6-23.5,14.1-31.6	c4.6-4.6,9.7-7.7,15.3-9.2C37,8.1,37.4,8.1,37.8,8c0.4-0.1,0.9-0.2,1.4-0.3c0.3-0.1,0.7-0.1,1.1-0.2c0.5-0.1,0.9-0.1,1.3-0.2l0.2,0	c0.3,0,0.5,0,0.7-0.1c0.7-0.1,1.4-0.1,2.1-0.1l0.7,0l0.2,0c10.8,0.2,22.9,5.9,32.2,15.2c9,9,14.6,20.3,15.2,31c0,0.5,0,1,0,1.4	l0,0.5c0,0.5,0,1,0,1.4l0,0c0,0.1,0,0.3,0,0.4c-0.1,1.9-0.4,3.7-0.9,5.5l-0.1,0.3c-0.1,0.4-0.2,0.8-0.3,1.1	c-1.6,5.1-4.6,10-8.9,14.3C73.7,87.5,60.5,92.8,47.3,92.8z"/><path fill="#b35d26" d="M72.3,27.7C58,13.3,40.4,7.7,26,22S8.8,62.5,23.1,76.9S63.6,88.3,78,74S86.7,42,72.3,27.7z"/><path fill="#70bfff" d="M70.3,29.7c-7.6-7.6-17.2-12.2-25.7-12.2h0c-4.7,0-8.7,1.5-11.4,4.2c-7.9,7.9-4.2,24.9,8,37.1	C48.8,66.5,58.4,71,66.8,71c4.7,0,8.7-1.5,11.4-4.2C86.2,58.9,82.5,41.9,70.3,29.7z"/><path fill="#d47f56" d="M73,27c-8.7-8.7-19.3-13.3-28.4-13.3v3.8c8.4,0,18,4.6,25.7,12.2c12.2,12.2,15.9,29.2,8,37.1	c-2.8,2.8-6.7,4.2-11.4,4.2c-8.4,0-18-4.6-25.7-12.2c-12.2-12.2-15.9-29.2-8-37.1c2.8-2.8,6.7-4.2,11.4-4.2l0-3.8h0	c-5.5,0-10.5,1.7-14.1,5.3c-9.5,9.5-6,28.6,8,42.5c8.7,8.7,19.3,13.3,28.4,13.3c5.5,0,10.5-1.7,14.1-5.3C90.5,60,86.9,40.9,73,27z"/><path fill="#fafafa" d="M51.1,61.4l-3.1,7.7c-1.5,5.5-5.7,11.5-5.7,11.5l13.4-7.6l3.8-9.6L51.1,61.4z"/><path fill="#d47f56" d="M42.4,80.6c0,0,9-1.3,14.5-7.4l0.4-3.9C51,74.8,46.5,76,45,76.3L42.4,80.6z"/><path fill="#f2f2f2" d="M57.2,69.3l1.4-7.7c-2.7,2.3-8.3,6-10.5,7.5c-1,2.3-2.2,5.2-3.1,7.2C45,76.3,50.4,75.5,57.2,69.3z"/><path fill="none" stroke="#40396e" stroke-miterlimit="10" stroke-width="3" d="M85.6,61.2c0.4-1.4,0.6-2.8,0.7-4.3c0-0.1,0-0.2,0-0.4c0-0.3,0-0.7,0-1.1c0-0.2,0-0.3,0-0.5c0-0.4,0-0.7,0-1.1	c0,0,0,0,0,0C85.8,45.1,81.2,35.2,73,27c-8.5-8.5-18.9-13.1-27.8-13.3c-0.2,0-0.3,0-0.5,0c0,0,0,0,0,0v0l0,0v0h0c0,0-0.1,0-0.1,0	c-0.6,0-1.1,0-1.7,0.1c-0.2,0-0.5,0-0.7,0.1c-0.3,0-0.7,0.1-1,0.1c-0.3,0-0.6,0.1-0.9,0.1c-0.4,0.1-0.7,0.1-1.1,0.2	c-0.3,0.1-0.6,0.1-0.9,0.2c-4.3,1.2-8.4,3.6-12.4,7.5C11.7,36.4,8.8,62.5,23.1,76.9C37.5,91.2,63.6,88.3,78,74	c3.7-3.7,6.1-7.7,7.3-11.7c0.1-0.3,0.2-0.6,0.2-0.8C85.6,61.4,85.6,61.3,85.6,61.2z"/><path fill="#40396e" d="M42.4,80.6c0,0,9-1.3,14.5-7.4l0.4-3.9C51,74.8,46.5,76,45,76.3L42.4,80.6z" opacity=".35"/><path fill="#f2f2f2" d="M44.6,25.2c6.4,0,14.1,3.8,20.3,10c4.8,4.8,8.3,10.8,9.5,16.4c0.9,4.4,0.4,8-1.5,9.9c-1.6,1.6-4.2,2-6,2	c-6.4,0-14.1-3.8-20.3-10c-4.8-4.8-8.3-10.8-9.5-16.4c-0.9-4.4-0.4-8,1.5-9.9C40.2,25.5,42.8,25.2,44.6,25.2L44.6,25.2 M44.6,17.5	L44.6,17.5c-4.7,0-8.7,1.5-11.4,4.2c-7.9,7.9-4.2,24.9,8,37.1C48.8,66.5,58.4,71,66.8,71c4.7,0,8.7-1.5,11.4-4.2	c7.9-7.9,4.2-24.9-8-37.1C62.7,22.1,53.1,17.5,44.6,17.5L44.6,17.5z"/><path fill="#70bfff" d="M57.2,69.3l1.6-8.7l-4.9-1.5l-4.2,6.3c0,0-3.1,8.1-4.6,10.9C45,76.3,50.4,75.5,57.2,69.3z"/><path fill="#40396e" d="M57.2,69.3l1.4-7.7c-2.7,2.3-8.3,6-10.5,7.5c-1,2.3-2.2,5.2-3.1,7.2C45,76.3,50.4,75.5,57.2,69.3z" opacity=".35"/></svg>