<svg xmlns="http://www.w3.org/2000/svg"  viewBox="0 0 100 100" width="100px" height="100px"><path d="M47.6,96c-3.6,0-6.5-2.9-6.5-6.5l0-4.4c-1-1-2.6-2-3.8-2.7c-0.6-0.4-1.1-0.7-1.6-1c-3-2-4.9-5.1-6.7-8.2	c-0.9-1.5-2.3-3.8-3.1-4.4c-7.5-5.9-7.7-11.9-7.9-15.6c0-0.9-0.1-1.9-0.2-2.2c-7.5-12.3,1-21.6,3.8-24.6c0.3-0.3,0.6-0.6,0.7-0.8	c0.2-0.3,0.7-1.5,1-2.2c1.3-3.3,4-10.3,12.3-10.3c0.9,0,1.7,0.1,2.5,0.3c1.8-1.2,3.9-1.9,6.2-2c0,0,0,0,0.1,0C45.6,10.3,48,8,52,8	c4.1,0,6.6,2.2,7.9,3.5c2.1,0.3,4,0.9,5.6,2c0.9-0.2,1.8-0.4,2.8-0.4c8.4,0,11,7,12.3,10.3c0.3,0.8,0.7,1.9,1,2.2	c0.2,0.2,0.4,0.5,0.7,0.8c2.8,3.1,11.4,12.3,3.9,24.6c-0.2,0.3-0.2,1.3-0.2,2.2c-0.2,3.6-0.4,9.7-7.9,15.6c-0.8,0.6-2.2,2.9-3.1,4.4	c-1.8,3.1-3.7,6.2-6.7,8.2c-1.4,0.9-2.8,1.5-4.1,2c-3.2,1.3-4,1.6-4,6c0,3.6-2.9,6.5-6.5,6.5H47.6z" opacity=".35"/><path fill="#f2f2f2" d="M45.6,94c-3.6,0-6.5-2.9-6.5-6.5l0-4.4c-1-1-2.6-2-3.8-2.7c-0.6-0.4-1.1-0.7-1.6-1c-3-2-4.9-5.1-6.7-8.2	c-0.9-1.5-2.3-3.8-3.1-4.4c-7.5-5.9-7.7-11.9-7.9-15.6c0-0.9-0.1-1.9-0.2-2.2c-7.5-12.3,1-21.6,3.8-24.6c0.3-0.3,0.6-0.6,0.7-0.8	c0.2-0.3,0.7-1.5,1-2.2c1.3-3.3,4-10.3,12.3-10.3c0.9,0,1.7,0.1,2.5,0.3c1.8-1.2,3.9-1.9,6.2-2c0,0,0,0,0.1,0C43.6,8.3,46,6,50,6	c4.1,0,6.6,2.2,7.9,3.5c2.1,0.3,4,0.9,5.6,2c0.9-0.2,1.8-0.4,2.8-0.4c8.4,0,11,7,12.3,10.3c0.3,0.8,0.7,1.9,1,2.2	c0.2,0.2,0.4,0.5,0.7,0.8c2.8,3.1,11.4,12.3,3.9,24.6c-0.2,0.3-0.2,1.3-0.2,2.2c-0.2,3.6-0.4,9.7-7.9,15.6c-0.8,0.6-2.2,2.9-3.1,4.4	c-1.8,3.1-3.7,6.2-6.7,8.2c-1.4,0.9-2.8,1.5-4.1,2c-3.2,1.3-4,1.6-4,6c0,3.6-2.9,6.5-6.5,6.5H45.6z"/><path fill="#96c362" d="M74.4,27.5c-2.5-3.3-2.4-9.9-8.1-9.9c-1.6,0-2.9,0.9-3.7,2.6l0-0.2c-0.8-1.9-2.8-4.1-6.6-4.1	c-2.2,0-2.8-3.4-6.1-3.4c-2.9,0-3.3,3.4-6.8,3.4c-4.4,0-5.9,3.9-5.9,3.9l0,0.2c-0.8-1.6-2.1-2.4-3.6-2.4c-5.7,0-5.6,6.6-8.1,9.9	c-1.8,2.5-10.1,8.6-4.3,18.2c2.8,4.6-1.5,9.6,6.6,16c3.5,2.8,5.9,10,9.4,12.3c2.1,1.4,6.4,3.4,8.3,7l0.2-0.8	c-0.1,2.1-0.2,4.5-0.2,7.3h6.1c0-11.3,7.1-10.9,11-13.5c3.4-2.3,5.8-9.5,9.4-12.3c8.1-6.4,3.8-11.4,6.6-16	C84.5,36.2,76.2,30,74.4,27.5z"/><path fill="none" stroke="#407845" stroke-linecap="round" stroke-linejoin="round" stroke-miterlimit="10" stroke-width="3" d="M68.6,33.9c0,20.4-8.2,24.2-12.1,33.7"/><path fill="none" stroke="#407845" stroke-linecap="round" stroke-linejoin="round" stroke-miterlimit="10" stroke-width="3" d="M31.3,34.7c0,21,7.1,19.3,11.3,34.2"/><path fill="none" stroke="#40396e" stroke-linecap="round" stroke-linejoin="round" stroke-miterlimit="10" stroke-width="3" d="M74.4,27.5c-2.5-3.3-2.4-9.9-8.1-9.9c-1.6,0-2.9,0.9-3.7,2.6l0-0.2c-0.8-1.9-2.8-4.1-6.6-4.1	c-2.2,0-2.8-3.4-6.1-3.4c-2.9,0-3.3,3.4-6.8,3.4c-4.4,0-5.9,3.9-5.9,3.9l0,0.2c-0.8-1.6-2.1-2.4-3.6-2.4c-5.7,0-5.6,6.6-8.1,9.9	c-1.8,2.5-10.1,8.6-4.3,18.2c2.8,4.6-1.5,9.6,6.6,16c3.5,2.8,5.9,10,9.4,12.3c2.1,1.4,6.4,3.4,8.3,7c0,0,0,3.7,0,6.5h6.1	c0-11.3,7.1-10.9,11-13.5c3.4-2.3,5.8-9.5,9.4-12.3c8.1-6.4,3.8-11.4,6.6-16C84.5,36.2,76.2,30,74.4,27.5z"/><path fill="#40396e" d="M66.3,16.1c-1.6,0-5.4,0.7-6.1,7.6c-0.1,0.8-0.7,1.3-1.9,2.2c-2.1,1.6-5,3.7-4.4,9.6c0.3,3.3,0,4.8-0.6,7.2	c-0.5,2.1-1.1,4.7-1.4,9.3c-0.2,2.5-0.6,4.3-1.2,5.7c-1-2.1-1.7-3.7-1.4-7.9c0.3-3.3-0.8-5.6-1.7-7.7c-0.9-2.1-1.7-3.8-1.5-6.7	c0.6-5.9-2.3-8.1-4.4-9.6c-1.2-0.9-1.8-1.4-1.9-2.2c-0.7-6.9-4.5-7.6-6.1-7.6c-0.8,0-1.5,0.7-1.5,1.5s0.7,1.5,1.5,1.5	c2.2,0,2.9,2.7,3.2,4.9c0.2,2.1,1.7,3.3,3.1,4.3c1.9,1.4,3.6,2.7,3.2,6.9c-0.4,3.7,0.7,6.1,1.7,8.2c0.9,1.9,1.6,3.6,1.4,6.2	c-0.4,5.2,0.6,7.4,1.9,9.9c0.2,0.5,0.5,1,0.8,1.6c0,0,0,0,0,0.1c-0.3,0.5-0.5,0.9-0.8,1.4c-0.4,0.7-0.1,1.6,0.6,2	c0.2,0.1,0.5,0.2,0.7,0.2c0.5,0,1.1-0.3,1.3-0.8c0.3-0.6,0.6-1.1,0.9-1.6c1.4-2.6,2.8-5,3.2-10.1c0.3-4.4,0.9-6.9,1.4-8.9	c0.6-2.5,1-4.5,0.6-8.2c-0.4-4.2,1.3-5.5,3.2-6.9c1.3-1,2.9-2.2,3.1-4.3c0.2-2.2,1-4.9,3.2-4.9c0.8,0,1.5-0.7,1.5-1.5	S67.2,16.1,66.3,16.1z" opacity=".35"/></svg>