<svg xmlns="http://www.w3.org/2000/svg"  viewBox="0 0 100 100" width="100px" height="100px"><path d="M61.5,94c-3.2,0-6.5-1-9.5-2.7c-3,1.7-6.3,2.7-9.5,2.7c-6.5,0-10.2-2.2-13-4.4c-2.5-2-5-4.3-7.1-6.9	c-2.2-2.6-2-6.5,0.5-8.9c0.1-0.1,0.2-0.2,0.2-0.4c0-0.1,0-0.2-0.1-0.3c-1.4-1.5-2.1-3.6-1.7-5.6c0.4-2,1.7-3.8,3.6-4.7	c0.2-0.1,0.2-0.2,0.2-0.3c0-0.2-0.1-0.3-0.3-0.3c-1.7-0.4,1.6-2.6,0.7-4.1c-0.9-1.5-5.9-2.2-5.5-3.9c0.1-0.2,0.1-0.5,0.1-0.7	c0-1.2,0.8-5.3-0.4-5.4c-2-0.3-3.8-0.9-4.8-2.6c-1-1.7-2.9-1.2-2.2-3.1c3-8.2,9.9-14.2,18.3-16.4c-1.5-5.2-0.6-9.9-0.5-10.7	c0.6-3,3.3-5.2,6.4-5.2h0.1l0.2,0c7.1,0.4,12.6,2.9,16.3,7.4c0,0,0,0,0,0c1-0.8,2-1.5,3.1-2.2c1-0.6,2.1-0.9,3.2-0.9	c2.3,0,4.5,1.3,5.6,3.3c1.4,2.4,1,5.3-0.6,7.4c0.4,0,0.9,0,1.3,0C81,25,93,36.7,93,51.1c0,21.8-12.9,34.2-18.5,38.6	C71.7,91.8,68,94,61.5,94z" opacity=".35"/><path fill="#f2f2f2" d="M59.5,92c-3.2,0-6.5-1-9.5-2.7c-3,1.7-6.3,2.7-9.5,2.7c-6.5,0-10.2-2.2-13-4.4c-2.5-2-5-4.3-7.1-6.9	c-2.2-2.6-2-6.5,0.5-8.9c0.1-0.1,0.2-0.2,0.2-0.4c0-0.1,0-0.2-0.1-0.3c-1.4-1.5-2.1-3.6-1.7-5.6c0.4-2,1.7-3.8,3.6-4.7	c0.2-0.1,0.2-0.2,0.2-0.3c0-0.2-0.1-0.3-0.3-0.3c-1.7-0.4-3.2-1.5-4.1-3c-0.9-1.5-1.1-3.3-0.7-5c0.1-0.2,0.1-0.5,0.1-0.7	c0-1.2-0.9-2.3-2.2-2.5c-2-0.3-3.7-1.4-4.7-3.1c-1-1.7-1.2-3.7-0.5-5.6c3-8.2,9.9-14.2,18.3-16.4c-1.5-5.2-0.6-9.9-0.5-10.7	c0.6-3,3.3-5.2,6.4-5.2h0.1l0.2,0c7.1,0.4,12.6,2.9,16.3,7.4c0,0,0,0,0,0c1-0.8,2-1.5,3.1-2.2c1-0.6,2.1-0.9,3.2-0.9	c2.3,0,4.5,1.3,5.6,3.3c1.4,2.4,1,5.3-0.6,7.4c0.4,0,0.9,0,1.3,0C79,23,91,34.7,91,49.1c0,21.8-12.9,34.2-18.5,38.6	C69.7,89.8,66,92,59.5,92z"/><path fill="#40396e" d="M50.8,35.8c-0.7,0-1.3-0.5-1.5-1.2c-0.2-1-0.3-2-0.3-3.1c0-5.7,3.1-11,8.1-13.9c0.7-0.4,1.6-0.2,2,0.6	c0.4,0.7,0.2,1.6-0.6,2c-4,2.3-6.6,6.6-6.6,11.3c0,0.8,0.1,1.7,0.2,2.5c0.2,0.8-0.4,1.6-1.2,1.8C51,35.8,50.9,35.8,50.8,35.8z"/><path fill="#96c362" d="M49.5,31.4c0,0,2.4-16-14.7-16.9C34.7,14.5,31.5,31.2,49.5,31.4z"/><polygon fill="#739f4d" points="49.2,31 35.2,15 40.9,15 46.1,18.3 49.3,24.5 50.1,30.3"/><path fill="#40396e" d="M49.5,32.9C49.5,32.9,49.5,32.9,49.5,32.9c-6-0.1-10.4-1.9-13.2-5.3c-4.5-5.5-3-13.1-3-13.4	c0.1-0.7,0.8-1.2,1.5-1.2c5.6,0.3,9.9,2.2,12.7,5.6C52,24,51,31.3,51,31.6C50.8,32.4,50.2,32.9,49.5,32.9z M36.1,16.1	c-0.2,2.1-0.1,6.4,2.5,9.6c2,2.5,5.2,3.9,9.5,4.1c0-2.1-0.3-6.2-2.9-9.4C43.2,18,40.1,16.5,36.1,16.1z"/><path fill="#f4665c" stroke="#40396e" stroke-linecap="round" stroke-linejoin="round" stroke-miterlimit="10" stroke-width="3" d="M64.2,29.5c-5.7,0-10.5,2.3-14.2,5.9c-3.7-3.6-8.5-5.9-14.2-5.9c-8.9,0-16.4,5.5-19.2,13.1	c4.4,0.6,7.8,4.3,7.8,8.9c0,0.8-0.1,1.6-0.3,2.3c3,0.7,5.2,3.4,5.2,6.7c0,2.7-1.6,5.1-3.9,6.2c1.2,1.3,1.9,3,1.9,4.8	c0,2-0.8,3.8-2.1,5c2.7,3.2,5.1,5.2,6.1,6c2.2,1.8,4.6,3,9,3c3.7,0,7.2-1.9,9.5-4.4c2.3,2.5,5.8,4.4,9.5,4.4c4.4,0,6.8-1.2,9-3	c2.8-2.2,16-13,16-33.4C84.5,38.3,75.4,29.5,64.2,29.5z"/></svg>