<svg xmlns="http://www.w3.org/2000/svg"  viewBox="0 0 100 100" width="100px" height="100px"><path fill="#d1d1d1" d="M33,97c-3.354,0-6.134-2.517-6.468-5.854l-6.5-65c-0.182-1.823,0.418-3.647,1.646-5.006 C22.917,19.777,24.671,19,26.5,19h25.419C54.774,9.17,63.931,2,74.5,2C87.458,2,98,12.542,98,25.5 c0,11.209-7.729,20.551-18.259,22.92l-4.273,42.727C75.134,94.483,72.354,97,69,97H33z"/><path fill="#f2f2f2" d="M31,95c-3.354,0-6.134-2.517-6.468-5.854l-6.5-65c-0.182-1.823,0.418-3.647,1.646-5.006 C20.917,17.777,22.671,17,24.5,17h25.419C52.774,7.17,61.931,0,72.5,0C85.458,0,96,10.542,96,23.5 c0,11.209-7.729,20.551-18.259,22.92l-4.273,42.727C73.134,92.483,70.354,95,67,95H31z"/><path fill="#ef8630" d="M72.5,39c-1.083,0-2.479,2.213-3.5,2c-6.435-1.339-15.244-9.055-16-16c-0.07-0.648,4-0.863,4-1.5 C57,14.953,63.953,8,72.5,8S88,14.953,88,23.5S81.047,39,72.5,39z"/><circle cx="72.502" cy="23.5" r="11.501" fill="#ffc571"/><path fill="#fff6d9" d="M81.524,16.381l-7.52,4.517L73.999,12.1C73.506,12.031,73.012,12,72.5,12 c-0.509,0-1.012,0.031-1.502,0.098l0.007,8.805l-7.528-4.522c-0.613,0.788-1.158,1.633-1.539,2.572l7.563,4.545l-7.648,4.345 c0.382,0.938,0.878,1.821,1.493,2.607l7.66-4.357l-0.003,8.808C71.491,34.97,71.991,35,72.5,35c0.512,0,1.021-0.031,1.513-0.099 l-0.009-8.802l7.63,4.384c0.614-0.786,1.116-1.667,1.498-2.605l-7.633-4.38l7.566-4.545C82.686,18.015,82.137,17.169,81.524,16.381 z"/><polygon fill="#70bfff" points="32.357,87 26.158,25 71.842,25 65.643,87"/><polygon fill="#f9b84f" points="25.673,47 31,88.5 67,88.5 72.327,47"/><line x1="36.489" x2="31.058" y1="82.5" y2="29.5" fill="none" stroke="#fff" stroke-linecap="round" stroke-linejoin="round" stroke-miterlimit="10" stroke-width="3"/><path fill="none" stroke="#40396e" stroke-linecap="round" stroke-linejoin="round" stroke-miterlimit="10" stroke-width="3" d="M72.5,6.5c-9.374,0-17,7.626-17,17h-31l6.5,65h36l4.804-48.035c0.233,0.01,0.461,0.035,0.696,0.035c9.374,0,17-7.626,17-17 S81.874,6.5,72.5,6.5z"/><circle cx="49.5" cy="58.5" r="2.5" fill="#fedeb3"/><circle cx="57" cy="66" r="2.5" fill="#fedeb3"/><circle cx="49.5" cy="72.5" r="2.5" fill="#fedeb3"/><path fill="#40396e" d="M70.342,40l1.5-15H55.85C56.597,32.775,62.649,38.985,70.342,40z" opacity=".35"/></svg>