<svg xmlns="http://www.w3.org/2000/svg"  viewBox="0 0 100 100" width="100px" height="100px"><g id="Слой_2"><path d="M51,96.005c-1.688,0-3.368-0.413-4.862-1.193L15.64,78.884C12.161,77.067,10,73.501,10,69.577V32.423 c0-3.924,2.161-7.49,5.64-9.307L46.145,7.224c1.49-0.777,3.171-1.189,4.856-1.189c1.687,0,3.367,0.413,4.861,1.193l30.493,15.885 C89.839,24.933,92,28.499,92,32.423v37.153c0,3.924-2.161,7.49-5.64,9.307l-30.5,15.929C54.368,95.592,52.687,96.005,51,96.005z" opacity=".35"/><path fill="#f2f2f2" d="M49,94.005c-1.688,0-3.368-0.413-4.862-1.193L13.64,76.884C10.161,75.067,8,71.501,8,67.577V30.423 c0-3.924,2.161-7.49,5.64-9.307L44.145,5.224c1.49-0.777,3.171-1.189,4.856-1.189c1.687,0,3.367,0.413,4.861,1.193l30.493,15.885 C87.839,22.933,90,26.499,90,30.423v37.153c0,3.924-2.161,7.49-5.64,9.307l-30.5,15.929C52.368,93.592,50.687,94.005,49,94.005z"/><path fill="#70bfff" d="M81.352,26.878l-30.5-15.889c-1.16-0.606-2.543-0.606-3.704,0l-30.5,15.889 c-1.32,0.69-2.148,2.056-2.148,3.546v37.154c0,1.49,0.828,2.856,2.148,3.546l30.5,15.928c1.16,0.606,2.543,0.606,3.704,0 l30.5-15.928c1.32-0.69,2.148-2.056,2.148-3.546V30.423C83.5,28.934,82.672,27.567,81.352,26.878z"/><polygon fill="#2785bd" points="49.011,45.101 49.011,87.034 83.258,69.236 83.393,28.921"/><path fill="#d9eeff" d="M79.945,26.842L50.771,11.946c-1.11-0.567-2.433-0.567-3.543,0L18.055,26.842 C16.792,27.487,16,28.765,16,30.159v-0.34c0,1.394,0.792,2.672,2.055,3.317l29.174,14.43c1.11,0.567,2.433,0.567,3.543,0 l29.174-14.43C81.208,32.491,82,31.213,82,29.819v0.34C82,28.765,81.208,27.487,79.945,26.842z"/><path fill="none" stroke="#40396e" stroke-linecap="round" stroke-linejoin="round" stroke-miterlimit="10" stroke-width="3" d="M81.352,26.878l-30.5-15.889c-1.16-0.606-2.543-0.606-3.704,0l-30.5,15.889 c-1.32,0.69-2.148,2.056-2.148,3.546v37.154c0,1.49,0.828,2.856,2.148,3.546l30.5,15.928c1.16,0.606,2.543,0.606,3.704,0 l30.5-15.928c1.32-0.69,2.148-2.056,2.148-3.546V30.423C83.5,28.934,82.672,27.567,81.352,26.878z"/><ellipse cx="23.5" cy="65" fill="#d9eeff" rx="2.5" ry="3"/><ellipse cx="31.5" cy="60" fill="#d9eeff" rx="2.5" ry="3"/><ellipse cx="23.5" cy="53" fill="#d9eeff" rx="2.5" ry="3"/></g></svg>