<svg xmlns="http://www.w3.org/2000/svg"  viewBox="0 0 100 100" width="100px" height="100px"><path d="M22.8,94.9c-3.6,0-7-1.4-9.7-4.1C10.5,88.2,9,84.7,9,81s1.4-7.1,4.1-9.8c0.1-0.1,0.2-0.2,0.3-0.3L32,55.4	c6.8-14.8,6.9-24,6.2-30.4c-0.2-1.8,0.4-3.7,1.6-5.1c1.2-1.4,3-2.2,4.8-2.2h10.9c0.6,0,1.2,0.1,1.7,0.2c0.2-0.7,0.3-1.3,0.4-1.9	c0.5-2.7,2.7-4.8,5.5-5.2l10.7-1.6c0.3,0,0.6-0.1,0.9-0.1c1.6,0,3.2,0.6,4.4,1.7c1.5,1.4,2.2,3.2,2.1,5.2c-0.1,0.7-0.1,1.5-0.2,2.3	c2-0.7,4-1.3,5.9-1.7c0.5-0.1,1-0.2,1.5-0.2c1.6,0,3.1,0.6,4.3,1.7c1.6,1.4,2.4,3.5,2.1,5.6l-1.4,12.6c-0.1,1.2-0.6,2.3-1.3,3.2	c0.2,0.7,0.3,1.5,0.3,2.3l-0.7,12.1c-0.2,3.4-3,6.1-6.4,6.1c-12.3,0.1-21.9,4.4-34.2,9.8l-0.9,0.4L32.8,90.4	c-0.1,0.1-0.2,0.2-0.3,0.4C29.8,93.4,26.4,94.9,22.8,94.9z" opacity=".35"/><path fill="#f2f2f2" d="M20.8,92.9c-3.6,0-7-1.4-9.7-4.1C8.5,86.2,7,82.7,7,79s1.4-7.1,4.1-9.8c0.1-0.1,0.2-0.2,0.3-0.3L30,53.4	c6.8-14.8,6.9-24,6.2-30.4c-0.2-1.8,0.4-3.7,1.6-5.1c1.2-1.4,3-2.2,4.8-2.2h10.9c0.6,0,1.2,0.1,1.7,0.2c0.2-0.7,0.3-1.3,0.4-1.9	c0.5-2.7,2.7-4.8,5.5-5.2l10.7-1.6c0.3,0,0.6-0.1,0.9-0.1c1.6,0,3.2,0.6,4.4,1.7c1.5,1.4,2.2,3.2,2.1,5.2c-0.1,0.7-0.1,1.5-0.2,2.3	c2-0.7,4-1.3,5.9-1.7c0.5-0.1,1-0.2,1.5-0.2c1.6,0,3.1,0.6,4.3,1.7c1.6,1.4,2.4,3.5,2.1,5.6l-1.4,12.6c-0.1,1.2-0.6,2.3-1.3,3.2	c0.2,0.7,0.3,1.5,0.3,2.3l-0.7,12.1c-0.2,3.4-3,6.1-6.4,6.1c-12.3,0.1-21.9,4.4-34.2,9.8l-0.9,0.4L30.8,88.4	c-0.1,0.1-0.2,0.2-0.3,0.4C27.8,91.4,24.4,92.9,20.8,92.9z"/><path fill="#ffe8d9" d="M20.8,86.4c-1.8,0-3.6-0.7-5.1-2.2c-2.9-2.9-2.9-7.4,0-10.3l19.5-16.5c2.9-2.9,11.4-9.8,14.1-6.9	c2.9,2.9-2.4,9.6-5.1,12.3L25.9,84.2C24.4,85.6,22.6,86.4,20.8,86.4z"/><path fill="#285e2c" d="M62,15.2l10.7-1.6c-0.6,9-5.9,19.5-14,29.5l-10.7,1.6C54.6,34.3,60.4,24.1,62,15.2z"/><path fill="#407845" d="M84.2,34C73,38.1,59.8,46.3,49.8,53.9l-6.6-6.2c11.9-10.2,27.3-22.3,43.2-28.1L84.2,34z"/><path fill="#739f4d" d="M42.6,22.2h10.9c0.5,11.1-1.3,22.6-7.4,31.6l-10.9,3.6C42.8,41.7,43.6,31,42.6,22.2z"/><path fill="#96c362" d="M82.2,52.7l0.7-12.1C67,42,49.3,48.6,34.1,58.5c9.2,0,9,5.4,9,5.4C56.3,58.2,67.7,52.8,82.2,52.7z"/><path fill="none" stroke="#40396e" stroke-linecap="round" stroke-linejoin="round" stroke-miterlimit="10" stroke-width="3" d="M44.3,62.8L44.3,62.8c13.1-5.8,24.6-11.2,39-11.3L84,39.4c-7,0.7-14.4,2.3-21.8,4.8c8-5.2,16.5-9.7,22.8-10.7	l1.4-12.6c-5.9,1.4-12.1,4.2-18.1,7.7c2.6-5.2,4.2-10.3,4.5-15L62,15.2c-1.3,6.8-4.9,14.4-9.5,22.2c0.9-5,1.2-10.1,1-15.2H42.6	c1,8.7,0.1,19.5-7.4,35.2L15.7,73.9c-2.9,2.9-2.9,7.4,0,10.3c1.4,1.4,3.3,2.2,5.1,2.2c1.8,0,3.6-0.7,5.1-2.2L44.3,62.8L44.3,62.8z"/></svg>