<svg xmlns="http://www.w3.org/2000/svg"  viewBox="0 0 100 100" width="100px" height="100px"><path d="M44.3,95.2c-9.9,0-19-3.6-25.5-10.1C3.6,69.9,6,42.6,24.3,24.3C34.1,14.4,47,8.8,59.7,8.8	c9.9,0,19,3.6,25.5,10.1c15.3,15.3,12.8,42.6-5.4,60.9C69.9,89.6,57,95.2,44.3,95.2z" opacity=".35"/><path fill="#f2f2f2" d="M42.3,93.2c-9.9,0-19-3.6-25.5-10.1C1.6,67.9,4,40.6,22.3,22.3C32.1,12.4,45,6.8,57.7,6.8	c9.9,0,19,3.6,25.5,10.1C98.4,32.1,96,59.4,77.7,77.7C67.9,87.6,55,93.2,42.3,93.2z"/><path fill="#d47f56" stroke="#40396e" stroke-miterlimit="10" stroke-width="3" d="M78.6,21.4C65.8,8.7,42.7,11.1,26.9,26.9S8.7,65.8,21.4,78.6s35.9,10.3,51.7-5.4S91.3,34.2,78.6,21.4z"/><path fill="#96c362" d="M57.3,18.6L57.3,18.6c6.9,0,12.9,2.3,17.3,6.7c10.7,10.7,8.4,30.6-5.2,44.2c-7.6,7.6-17.4,11.9-26.8,11.9	c-6.9,0-12.9-2.3-17.3-6.7c-5.1-5.1-7.4-12.4-6.6-20.6c0.9-8.5,5.1-16.8,11.8-23.5C38.1,22.9,47.9,18.6,57.3,18.6"/><path fill="#40396e" d="M63.9,64c0.9-0.9,0.9-2.3,0.1-3.2c-0.5-0.5-2.7-1.4-5.4-2.3c0.8,2.7,1.7,5,2.2,5.5C61.6,64.9,63,64.9,63.9,64z M44.7,71.4c0.4,0.4,1.1,0.7,1.7,0.7c1.2-0.1,2.1-1.1,2.1-2.4c-0.1-0.9-0.7-3.4-1.5-5.9c-1.6,2.8-2.9,5.4-2.9,6.3	C44.1,70.5,44.3,71,44.7,71.4z M56,70c1.1-0.5,1.5-1.9,1-3c0-0.1-0.4-0.7-2.1-2.4c-0.6-0.6-1.3-1.2-1.9-1.8c-0.2,3-0.3,5.5,0,6.2	c0.1,0.2,0.3,0.4,0.4,0.6C54.1,70.2,55.1,70.4,56,70z M69.1,52.9c-0.7-0.3-3.1-0.4-6.1-0.2c0.8,1,1.7,2,2.6,2.9c1,1,1.5,1.3,1.6,1.3	c1.1,0.5,2.4,0.1,3-1c0.4-0.8,0.2-1.8-0.4-2.5C69.6,53.2,69.3,53,69.1,52.9z M41.4,62c-2.6,2.1-4.9,4.1-5.3,4.9	c-0.4,0.9-0.3,1.9,0.4,2.6c0.2,0.2,0.3,0.3,0.6,0.4l0,0c0.5,0.3,1.1,0.3,1.7,0.1c0.6-0.2,1-0.6,1.3-1.1C40.5,68.1,41,65.3,41.4,62z M68.4,39.9c1.1-0.5,1.5-1.9,0.9-3c-0.1-0.2-0.2-0.4-0.4-0.5c-0.7-0.7-1.7-0.8-2.6-0.4c-0.7,0.4-2.7,2.5-4.8,4.9	C64.9,40.6,67.7,40.3,68.4,39.9z M69.4,48.4c1.2-0.1,2.5-0.8,2.6-2.1c0-0.6-0.2-1.2-0.6-1.7c-0.4-0.4-0.9-0.6-1.4-0.6	c-0.8,0-3.4,1.2-6.2,2.6C66.3,47.6,68.6,48.4,69.4,48.4z M30.7,63.8c0.7,0.7,1.7,0.8,2.6,0.4c0.7-0.4,2.6-2.8,4.6-5.6	c-3.1,0.6-5.8,1.3-6.6,1.7c-0.5,0.3-0.9,0.7-1.1,1.3c-0.2,0.6-0.1,1.2,0.1,1.7C30.4,63.4,30.5,63.6,30.7,63.8z M36.2,39.6	c0.5,0.5,2.6,1.3,5.1,2c-0.7-2.5-1.5-4.6-2-5.1c-0.9-0.9-2.3-0.9-3.1,0S35.3,38.7,36.2,39.6z M31.5,47.8c0.6,0.2,3,0.2,5.9,0	c-0.8-0.9-1.6-1.9-2.4-2.7c-1.1-1.1-1.5-1.3-1.5-1.3c-0.6-0.3-1.2-0.3-1.7-0.1c-0.6,0.2-1,0.6-1.3,1.1c-0.4,0.9-0.2,1.9,0.4,2.5	C31,47.6,31.2,47.7,31.5,47.8z M58.9,36.9c2.6-1.8,4.9-3.5,5.3-4.2c0.4-0.8,0.3-1.9-0.4-2.6c-0.2-0.2-0.4-0.3-0.6-0.4	c-1.1-0.6-2.4-0.1-3,1C59.9,31.3,59.4,33.9,58.9,36.9z M43.1,33.4L43.1,33.4l0.1,0.1c0,0,0.2,0.4,1.1,1.3c0.8,0.8,1.8,1.7,2.7,2.4	c0.3-2.8,0.3-5.2,0.1-5.9c-0.1-0.2-0.2-0.4-0.4-0.6C46,30.2,45,30,44.1,30.4C43,31,42.5,32.3,43.1,33.4z M53.4,36	c1.4-2.6,2.5-5,2.5-5.8c0-0.7-0.4-1.1-0.6-1.4c-0.4-0.4-1.1-0.7-1.7-0.6l-0.3,0c-0.5,0.1-0.9,0.3-1.2,0.7c-0.4,0.4-0.6,1-0.5,1.5	C51.6,31.1,52.4,33.4,53.4,36z M30.6,51.9c-1.2-0.1-2.3,0.9-2.4,2.1c0,0.6,0.2,1.2,0.7,1.7c0.4,0.4,0.9,0.6,1.4,0.7	c0.8,0,3.3-1.2,6.1-2.8C33.9,52.6,31.5,51.9,30.6,51.9z"/><path fill="#ffe8d9" d="M60.9,39c-4.9-4.9-13.8-4-19.8,2.1S34.1,56,39,60.9l0,0c4.9,4.9,13.8,4,19.8-2.1S65.8,43.9,60.9,39z"/></svg>