<svg xmlns="http://www.w3.org/2000/svg"  viewBox="0 0 100 100" width="100px" height="100px"><path d="M36.156,100c-2.604,0-5.073-1.26-6.604-3.37c-1.559-2.15-1.975-4.842-1.146-7.386 c0.873-2.676,3.163-4.744,5.978-5.397l7.657-1.622l-0.017-7.809c-14.75-4.358-25.063-15.238-25.063-31.237 c0-14.014,6.954-28.071,7.747-29.629C25.827,11.358,28.045,10,30.5,10h43c2.45,0,4.667,1.354,5.784,3.534 C80.075,15.079,87,29.027,87,43.662c0,15.813-10.264,29.315-24.95,33.593l0.033,4.907l7.486,1.672 c2.863,0.665,5.159,2.735,6.031,5.413c0.83,2.541,0.413,5.231-1.144,7.38C72.924,98.74,70.455,100,67.851,100H36.156z" opacity=".35"/><path fill="#f2f2f2" d="M34.156,98c-2.604,0-5.073-1.26-6.604-3.37c-1.559-2.15-1.975-4.842-1.146-7.386 c0.873-2.676,3.163-4.744,5.978-5.397l7.657-1.622l-0.017-4.989c-14.75-4.358-25.063-18.058-25.063-34.057 c0-14.014,6.954-28.071,7.747-29.629C23.827,9.358,26.045,8,28.5,8h43c2.45,0,4.667,1.354,5.784,3.534 C78.075,13.079,85,27.027,85,41.662c0,15.813-10.264,29.315-24.95,33.593l0.033,4.907l7.486,1.672 c2.863,0.665,5.159,2.735,6.031,5.413c0.83,2.541,0.413,5.231-1.144,7.38C70.924,96.74,68.455,98,65.851,98H34.156z"/><path fill="#70bfff" d="M78.5,37c0-13.517-7-22.5-7-22.5h-43c0,0-7.039,9.152-7.039,22.017 c0,14.831,10.741,27.053,25.046,28.782l0.052,20.19l-12.704,2.689c-0.572,0.133-1.086,0.522-1.269,1.083 c-0.38,1.163,0.471,2.239,1.57,2.239h31.695c1.1,0,1.95-1.075,1.57-2.239c-0.183-0.561-0.697-0.95-1.269-1.083l-12.535-2.799 l-0.103-20.075C67.804,63.626,78.5,51.823,78.5,37z"/><path fill="#ff7575" d="M50,68.753C34.85,68.753,20.146,55.27,22.964,37h54.088C79.944,53,69.427,68.753,50,68.753z"/><path fill="none" stroke="#40396e" stroke-linecap="round" stroke-linejoin="round" stroke-miterlimit="10" stroke-width="3" d="M78.5,41.662c0-13.517-7-27.162-7-27.162h-43c0,0-7.039,13.814-7.039,26.679c0,14.831,10.741,27.053,25.046,28.782l0.052,15.527 l-12.704,2.689c-0.572,0.133-1.086,0.522-1.269,1.083c-0.38,1.163,0.471,2.239,1.57,2.239h31.695c1.1,0,1.95-1.075,1.57-2.239 c-0.183-0.561-0.697-0.95-1.269-1.083l-12.535-2.799l-0.103-15.413C67.804,68.289,78.5,56.485,78.5,41.662z"/><g><path fill="#fff" d="M31.496,53.968c-0.516,0-1.018-0.267-1.297-0.744c-2.118-3.634-3.238-7.798-3.238-12.045 c0-3.857,0.729-8.271,2.169-13.118c0.236-0.794,1.07-1.249,1.864-1.011c0.794,0.235,1.247,1.07,1.012,1.864 c-1.357,4.57-2.045,8.697-2.045,12.265c0,3.716,0.979,7.358,2.83,10.533c0.417,0.716,0.176,1.635-0.54,2.052 C32.013,53.902,31.753,53.968,31.496,53.968z"/></g></svg>