<svg xmlns="http://www.w3.org/2000/svg"  viewBox="0 0 100 100" width="100px" height="100px"><g id="Слой_2"><path d="M78.95,24.717l-0.514-0.176c-0.05-0.017-0.1-0.033-0.15-0.049c-0.236-0.073-0.479-0.142-0.859-0.245 c-0.225-0.06-0.423-0.111-0.599-0.152c-0.107-0.026-0.215-0.05-0.323-0.074c-1.32-1.364-2.815-2.529-4.429-3.469 c1.247-2.267,1.611-4.875,1.025-7.41c-0.628-2.733-2.287-5.061-4.669-6.549c-1.673-1.044-3.589-1.594-5.542-1.594 c-0.804,0-1.611,0.094-2.398,0.279c-7.282,1.678-12.587,5.39-15.748,11.029c-0.285,0.508-0.549,1.029-0.791,1.56 c-0.215-0.013-0.43-0.023-0.645-0.029c-0.168-0.005-0.363-0.009-0.558-0.009c-5.109,0-10.17,2.188-13.91,5.939 c-9.531,1.489-15.699,8.553-15.82,18.27c-0.082,6.58,3.311,21.944,3.345,22.098c1.746,7.868,7.054,31.785,26.646,31.866 c0.119,0.007,0.238,0.01,0.355,0.01c0.282,0,0.569-0.019,0.854-0.057l0.454-0.061c0.185-0.024,0.412-0.063,0.589-0.097 l0.122-0.021c0.163-0.027,0.373-0.066,0.575-0.11c0.206-0.044,0.45-0.098,0.721-0.164l0.323-0.08 c0.246-0.062,0.497-0.128,0.754-0.198c1.578,0.373,3.22,0.562,4.898,0.562c1.415,0,2.819-0.135,4.192-0.403 c0.724,0.186,1.368,0.325,1.971,0.427c0.038,0.006,0.075,0.012,0.113,0.018l0.481,0.07c0.036,0.005,0.072,0.01,0.107,0.015 c0.435,0.054,0.814,0.074,1.055,0.082c0.024,0.001,0.047,0.001,0.071,0.002L60.86,96c0.03,0.001,0.06,0.001,0.089,0.001 c0.004,0,0.009,0,0.013,0c0.479-0.001,0.965-0.021,1.575-0.063c0.029-0.002,0.057-0.004,0.086-0.007l0.554-0.048 c0.157-0.014,0.312-0.033,0.465-0.057c11.741-1.483,19.59-11.851,23.994-31.689c0.034-0.153,3.428-15.509,3.346-22.098 C90.881,33.816,86.383,27.34,78.95,24.717z" opacity=".35"/><path fill="#f2f2f2" d="M76.95,22.717l-0.514-0.176c-0.05-0.017-0.1-0.033-0.15-0.049c-0.236-0.073-0.479-0.142-0.859-0.245 c-0.225-0.06-0.423-0.111-0.599-0.152c-0.107-0.026-0.215-0.05-0.323-0.074c-1.32-1.364-2.815-2.529-4.429-3.469 c1.247-2.267,1.611-4.875,1.025-7.41c-0.628-2.733-2.287-5.061-4.669-6.549c-1.673-1.044-3.589-1.594-5.542-1.594 c-0.804,0-1.611,0.094-2.398,0.279c-7.282,1.678-12.587,5.39-15.748,11.029c-0.285,0.508-0.549,1.029-0.791,1.56 c-0.215-0.013-0.43-0.023-0.645-0.029c-0.168-0.005-0.363-0.009-0.558-0.009c-5.109,0-10.17,2.188-13.91,5.939 c-9.531,1.489-15.699,8.553-15.82,18.27c-0.082,6.58,3.311,21.944,3.345,22.098c1.746,7.868,7.054,31.785,26.646,31.866 c0.119,0.007,0.238,0.01,0.355,0.01c0.282,0,0.569-0.019,0.854-0.057l0.454-0.061c0.185-0.024,0.412-0.063,0.589-0.097 l0.122-0.021c0.163-0.027,0.373-0.066,0.575-0.11c0.206-0.044,0.45-0.098,0.721-0.164l0.323-0.08 c0.246-0.062,0.497-0.128,0.754-0.198c1.578,0.373,3.22,0.562,4.898,0.562c1.415,0,2.819-0.135,4.192-0.403 c0.724,0.186,1.368,0.325,1.971,0.427c0.038,0.006,0.075,0.012,0.113,0.018l0.481,0.07c0.036,0.005,0.072,0.01,0.107,0.015 c0.435,0.054,0.814,0.074,1.055,0.082c0.024,0.001,0.047,0.001,0.071,0.002L58.86,94c0.03,0.001,0.06,0.001,0.089,0.001 c0.004,0,0.009,0,0.013,0c0.479-0.001,0.965-0.021,1.575-0.063c0.029-0.002,0.057-0.004,0.086-0.007l0.554-0.048 c0.157-0.014,0.312-0.033,0.465-0.057c11.741-1.483,19.59-11.851,23.994-31.689c0.034-0.153,3.428-15.509,3.346-22.098 C88.881,31.816,84.383,25.34,76.95,22.717z"/><path fill="#b73b3b" d="M41.364,89.015c-0.059,0-0.117-0.004-0.176-0.011c-0.026,0.001-0.053,0.001-0.078,0.001 c-10.687,0-17.634-8.882-21.866-27.95c-0.856-3.858-3.288-15.99-3.227-20.952c0.094-7.513,4.873-12.688,12.473-13.509 l0.216-0.021c0.197-0.02,0.389-0.036,0.575-0.05c2.954-3.664,7.438-5.831,11.89-5.686c1.401,0.038,2.812,0.292,4.159,0.743 c0.348-1.726,0.942-3.344,1.774-4.828c2.443-4.358,6.659-7.254,12.529-8.606c1.427-0.335,2.9-0.09,4.148,0.688 c1.249,0.78,2.117,2,2.447,3.436c0.33,1.427,0.083,2.9-0.695,4.147c-0.779,1.248-1.996,2.116-3.426,2.445 c-2.083,0.481-3.637,1.237-4.639,2.254c0.805-0.163,1.624-0.257,2.455-0.279c4.579-0.09,9.07,2.126,11.987,5.803 c0.209,0.027,0.398,0.056,0.589,0.087l0.409,0.073c0.268,0.051,0.518,0.102,0.769,0.162c0.132,0.03,0.281,0.069,0.432,0.109 c0.312,0.085,0.51,0.141,0.703,0.2l0.473,0.162c5.456,1.925,8.621,6.541,8.696,12.669c0.062,4.96-2.37,17.093-3.228,20.952 C76.852,78.641,70.36,87.744,60.911,88.881c-0.054,0.011-0.108,0.019-0.164,0.023l-0.554,0.048 c-0.467,0.032-0.853,0.05-1.243,0.051l-0.216-0.004c-0.151-0.005-0.365-0.018-0.602-0.047l-0.481-0.07 c-0.743-0.126-1.619-0.339-2.693-0.651c-3.036,0.808-6.347,0.734-9.23-0.199c-0.687,0.208-1.333,0.39-1.928,0.54l-0.308,0.076 c-0.216,0.053-0.41,0.096-0.595,0.135c-0.126,0.027-0.257,0.051-0.385,0.072l-0.177,0.031c-0.082,0.018-0.216,0.041-0.328,0.056 l-0.444,0.06C41.497,89.01,41.431,89.015,41.364,89.015z"/><path fill="#96c362" d="M51.082,32.303c-1.046,0-2.019-0.659-2.367-1.705c-0.09-0.271-2.177-6.706,1.007-12.382 c2.012-3.589,5.574-5.995,10.587-7.151c1.352-0.314,2.688,0.528,2.998,1.873c0.311,1.346-0.528,2.688-1.873,2.998 c-3.567,0.824-6.035,2.403-7.334,4.695c-2.11,3.724-0.652,8.35-0.638,8.396c0.424,1.31-0.289,2.721-1.597,3.15 C51.605,32.262,51.341,32.303,51.082,32.303z"/><path fill="#b73b3b" d="M57.891,40.135c0.532-5.979,5.483-10.666,11.519-10.666s11.478,3.117,11.572,10.666 c0.053,4.267-2.046,15.262-3.156,20.266C73.734,78.841,67.306,86,58.89,86c-2.169,0-10.52-3.2-10.52-3.2V40.135H57.891z"/><path fill="#b73b3b" d="M42.109,40.135c-0.532-5.979-5.483-10.666-11.519-10.666s-11.478,3.117-11.572,10.666 c-0.053,4.267,2.046,15.262,3.156,20.266C26.266,78.841,32.694,86,41.11,86c2.169,0,10.52-3.2,10.52-3.2V40.135H42.109z"/><path fill="#40396e" d="M41.612,85.964c0.984-0.131,2.566-0.582,4.186-1.102c-8.729-3.594-12.956-16.933-14.82-27.751 c-0.862-5.006-1.956-15.141-2.174-20.224c-0.117-2.712,0.664-5.274,2.041-7.402c-0.084-0.002-0.167-0.012-0.252-0.012 c-1.144,0-2.266,0.113-3.335,0.346c-1.036,2.246-1.558,4.714-1.451,7.197c0.224,5.209,1.321,15.415,2.215,20.604 C30.465,71.806,35.169,81.488,41.612,85.964z" opacity=".35"/><path fill="#40396e" d="M72.304,36.883c-0.24,5.082-1.441,15.195-2.174,20.224c-1.887,12.947-6.196,25.022-15.15,27.99 C56.63,85.606,58.149,86,58.907,86c0.349,0,0.694-0.017,1.037-0.042c5.567-3.752,10.749-11.917,13.154-28.419 c0.745-5.114,1.959-15.363,2.202-20.515c0.112-2.36-0.353-4.706-1.287-6.865c-1.172-0.38-2.428-0.597-3.727-0.662 C71.658,31.622,72.432,34.178,72.304,36.883z" opacity=".35"/><path fill="#de5147" d="M60.008,23.832c-2.337,0.065-4.504,0.839-6.32,2.125c-1.92,1.359-4.369,1.359-6.289,0 c-1.816-1.286-3.983-2.06-6.32-2.125c-6.751-0.188-12.585,5.93-12.278,13.051c0.219,5.083,1.312,15.217,2.174,20.224 c2.174,12.623,7.56,28.689,19.569,28.689s17.394-13.771,19.569-28.689c0.733-5.029,1.934-15.142,2.174-20.224 C72.623,29.763,66.759,23.644,60.008,23.832z"/><g><path fill="#f4665c" d="M61.5,71c-0.157,0-0.317-0.024-0.475-0.077c-0.785-0.262-1.21-1.111-0.948-1.897 c2.276-6.831,3.887-21.395,4.473-27.339c0.082-0.825,0.83-1.427,1.641-1.346c0.824,0.082,1.427,0.816,1.346,1.641 c-0.597,6.045-2.24,20.873-4.613,27.993C62.714,70.603,62.128,71,61.5,71z"/></g><g><path fill="#f4665c" d="M66.325,36.698c-0.724,0-1.36-0.524-1.479-1.262c-0.84-5.213-4.898-5.429-5.358-5.437 c-0.823-0.014-1.488-0.688-1.481-1.512C58.013,27.664,58.677,27,59.5,27c2.431,0,7.295,1.664,8.308,7.96 c0.132,0.817-0.424,1.588-1.242,1.719C66.484,36.692,66.404,36.698,66.325,36.698z"/></g><g><path fill="#40396e" d="M41.364,89.01c-0.059,0-0.117-0.004-0.176-0.011C41.162,89,41.136,89,41.11,89 c-10.687,0-17.634-8.882-21.866-27.95c-0.856-3.858-3.288-15.99-3.227-20.952c0.094-7.513,4.873-12.688,12.473-13.509 l0.216-0.021c0.197-0.02,0.389-0.036,0.575-0.05c2.954-3.664,7.438-5.831,11.89-5.686c1.401,0.038,2.812,0.292,4.159,0.743 c0.348-1.726,0.942-3.344,1.774-4.828c2.443-4.358,6.659-7.254,12.529-8.606c1.427-0.335,2.9-0.09,4.148,0.688 c1.249,0.78,2.117,2,2.447,3.436c0.33,1.427,0.083,2.9-0.695,4.147c-0.779,1.248-1.996,2.116-3.426,2.445 c-2.083,0.481-3.637,1.237-4.639,2.254c0.805-0.163,1.624-0.257,2.455-0.279c4.579-0.09,9.07,2.126,11.987,5.803 c0.209,0.027,0.398,0.056,0.589,0.087l0.409,0.073c0.268,0.051,0.518,0.102,0.769,0.162c0.132,0.03,0.281,0.069,0.432,0.109 c0.312,0.085,0.51,0.141,0.703,0.2l0.473,0.162c5.456,1.925,8.621,6.541,8.696,12.669c0.062,4.96-2.37,17.093-3.228,20.952 C76.852,78.636,70.36,87.739,60.911,88.876c-0.054,0.011-0.108,0.019-0.164,0.023l-0.554,0.048 c-0.467,0.032-0.853,0.05-1.243,0.051l-0.216-0.004c-0.151-0.005-0.365-0.018-0.602-0.047l-0.481-0.07 c-0.743-0.126-1.619-0.339-2.693-0.651c-3.036,0.808-6.347,0.734-9.23-0.199c-0.687,0.208-1.333,0.39-1.928,0.54l-0.308,0.076 c-0.216,0.053-0.41,0.096-0.595,0.135c-0.126,0.027-0.257,0.051-0.385,0.072l-0.177,0.031c-0.082,0.018-0.216,0.041-0.328,0.056 l-0.444,0.06C41.497,89.005,41.431,89.01,41.364,89.01z M40.759,23.826c-3.597,0-7.208,1.909-9.497,5.038 c-0.271,0.371-0.698,0.597-1.157,0.613c-0.35,0.013-0.716,0.038-1.11,0.077l-0.201,0.019c-6.13,0.662-9.7,4.512-9.775,10.562 c-0.054,4.288,2.145,15.712,3.155,20.265C26.049,77.865,32.066,86,41.11,86l0.12-0.004c0.051-0.003,0.103-0.005,0.15-0.002 l0.229-0.03c0.048-0.007,0.105-0.017,0.156-0.027l0.231-0.042c0.099-0.018,0.183-0.031,0.269-0.05 c0.168-0.036,0.335-0.073,0.513-0.116l0.293-0.072c0.668-0.169,1.422-0.385,2.232-0.639c0.315-0.099,0.653-0.09,0.961,0.022 c2.541,0.925,5.559,0.991,8.278,0.187c0.279-0.084,0.578-0.082,0.857,0.002c1.134,0.341,2.049,0.571,2.72,0.686l0.419,0.061 c0.09,0.012,0.198,0.019,0.269,0.021l0.171,0.003c0.292-0.001,0.615-0.017,0.984-0.042l0.407-0.035 c0.028-0.005,0.057-0.009,0.086-0.012c8.081-0.913,13.763-9.257,17.371-25.509c1.011-4.554,3.209-15.979,3.155-20.265 c-0.061-4.938-2.371-8.352-6.682-9.873l-0.42-0.144c-0.124-0.038-0.291-0.084-0.552-0.155c-0.115-0.03-0.235-0.062-0.346-0.088 c-0.21-0.051-0.413-0.092-0.615-0.13l-0.372-0.066c-0.204-0.033-0.428-0.065-0.667-0.094l-0.368-0.035 c-0.428-0.042-0.817-0.266-1.069-0.614c-2.324-3.218-6.113-5.144-9.897-5.104c-1.637,0.045-3.231,0.443-4.725,1.182 c-0.509,0.251-1.111,0.193-1.563-0.144c-0.453-0.339-0.677-0.903-0.579-1.46c0.179-1.02,0.506-1.955,0.973-2.778 c1.298-2.292,3.766-3.872,7.334-4.697c0.649-0.149,1.202-0.544,1.556-1.11c0.354-0.567,0.467-1.236,0.317-1.885 c-0.151-0.655-0.546-1.21-1.112-1.563c-0.565-0.354-1.231-0.463-1.881-0.312c-5.018,1.156-8.579,3.562-10.592,7.151 c-0.937,1.671-1.506,3.56-1.691,5.615c-0.045,0.494-0.331,0.934-0.764,1.176c-0.433,0.241-0.957,0.253-1.401,0.031 c-1.487-0.743-3.142-1.16-4.783-1.206C40.975,23.828,40.866,23.826,40.759,23.826z"/></g></g></svg>