<svg xmlns="http://www.w3.org/2000/svg"  viewBox="0 0 512 512" width="128px" height="128px"><path fill="#9f3883" d="M386.81,240.62c-24.12-41.8-49.44-57.55-65.93-63.45L202.07,171.9c-15.9,3-37.57,11.33-56.37,33.4v.01c-10.54,12.36-20.17,29.03-27.38,51.49a141.574,141.574,0,0,0-6.1,27.77c-7.81,70.5,52.39,102.57,92.49,133.39,43.25,33.23,35.98,74.61,35.34,77.84,1.02-4.04,18.16-69.09,66.91-87.77a156.514,156.514,0,0,0,39-22.42l.01-.01a163.975,163.975,0,0,0,31.69-32.3,119.836,119.836,0,0,0,19.52-39.55C403.29,291.01,401.48,266.03,386.81,240.62Z"/><path fill="#772b65" d="M261.148,448.1c-5.435-9.971-13.766-20.407-26.438-30.143-40.1-30.82-100.3-62.89-92.49-133.39a142.54,142.54,0,0,1,6.25-27.77c7.21-22.46,16.53-39.13,27.53-51.49v-.01c17-19.8,35.9-28.541,51.146-32.294L202.3,171.9A94.516,94.516,0,0,0,146,205.3v.01c-11,12.36-20.32,29.03-27.53,51.49a142.055,142.055,0,0,0-6.175,27.77c-7.81,70.5,52.352,102.57,92.453,133.39,43.25,33.23,35.961,74.61,35.321,77.84A175.6,175.6,0,0,1,261.148,448.1Z"/><path fill="#852c73" d="M320.88,177.17c-10.89-3.9-17.94-3.51-18.28-3.49,0,0,0,.01-.01,0l-77.81-3.07c-.01.01-.01.01-.01,0-.41-.05-9.59-1.2-22.7,1.29,0,0-34.98,30.03,25.44,46.64S355.85,193.69,320.88,177.17Z"/><path fill="#662359" d="M257.51,218.54c-60.42-16.61-25.44-46.64-25.44-46.64,1.737-.33,3.4-.593,4.988-.806l-12.278-.484c-.01.01-.01.01-.01,0-.41-.05-9.59-1.2-22.7,1.29,0,0-34.98,30.03,25.44,46.64a115.824,115.824,0,0,0,44.606,2.912A106.349,106.349,0,0,1,257.51,218.54Z"/><path fill="#436f1e" d="M291.83,180.36l-28.83.59-26.91-2.42c-.34.42-8.15,10.65,7.76,19.36C266.87,210.48,301.8,195.74,291.83,180.36Z"/><path fill="#9be147" d="M261.7,109.58a98.2,98.2,0,0,0-10.39,32.6c-3.21-3.14-6.77-6.62-10.7-10.49a64.061,64.061,0,0,1-15.08-24.45s2.37-65.89,16.3-84.21a1.369,1.369,0,0,1,2.19.03l10.11,13.71a1.381,1.381,0,0,1,.15,1.36C242.35,65.73,261.7,109.58,261.7,109.58Z"/><path fill="#8dc63f" d="M310.98,26.66s3.89,73.09-14.26,93.1a146.534,146.534,0,0,0-31.09,36.9c-3.61-3.93-8.36-8.64-14.32-14.48a98.2,98.2,0,0,1,10.39-32.6A79.432,79.432,0,0,1,268,99.5C294.31,63.78,292.48,16,292.48,16Z"/><path fill="#689b2d" d="M337.91,21.98s-3.99,69.42-34.6,92.49c-2.3,1.74-4.5,3.51-6.59,5.29a146.534,146.534,0,0,0-31.09,36.9L263,182.95c10.86,2.35,20.42,1.19,28.83-2.59a48.778,48.778,0,0,0,10.76-6.68c.01.01.01,0,.01,0,44.42-35.82,49.93-151.1,49.93-151.1Z"/><path fill="#81c83d" d="M265.63,156.66c-3.61-3.93-8.36-8.64-14.32-14.48-3.21-3.14-6.77-6.62-10.7-10.49a64.061,64.061,0,0,1-15.08-24.45c-12.15-33.98-2.01-76.27-2.01-76.27l-19.61,1.32c-10.96,83.59,3.08,121.53,20.86,138.32,0,.01,0,.01.01,0a45.78,45.78,0,0,0,11.31,7.92A48.278,48.278,0,0,0,263,182.95a13.323,13.323,0,0,0,10.27-6.86C276.13,170.64,273.85,165.63,265.63,156.66Z"/><path fill="#284268" d="M238.863,500.867a4.992,4.992,0,0,0,6-3.687c.161-.662,16.657-66.387,63.892-84.477,33.976-13.012,75.206-45.732,90.727-89.5,10.151-28.63,7.269-58.051-8.335-85.081-29.475-51.057-60.918-64.678-77.381-68.235,38.315-42.734,43.543-142.53,43.759-147.066a5,5,0,0,0-4.788-5.234l-14.622-.6a5.019,5.019,0,0,0-5.2,4.708c-.034.572-3.083,49.123-21.563,76.7a200.942,200.942,0,0,0,4.3-32.365,381.611,381.611,0,0,0,.329-39.623,5,5,0,0,0-2.5-4.066l-18.5-10.664a5,5,0,0,0-7.493,4.523c.017.461,1.475,46.427-23.513,80.338-.418.567-.823,1.138-1.222,1.71-4.716-13.857-11.642-40.17-3.883-58.13a6.4,6.4,0,0,0-.716-6.31L248.044,20.1a6.422,6.422,0,0,0-5.1-2.6H242.9a6.367,6.367,0,0,0-5.048,2.5c-6.476,8.521-10.573,25.468-13.147,42.212a173.984,173.984,0,0,1,3.675-30.08,5,5,0,0,0-5.2-6.154L203.572,27.3a5,5,0,0,0-4.621,4.338c-8.33,63.51-3.361,108.429,14.754,133.8a99.032,99.032,0,0,0-32.484,7.521,103.541,103.541,0,0,0-38.756,28.534,5.021,5.021,0,0,0-1,1.193c-13.965,16.661-22.617,36.116-27.9,52.592-26.708,83.215,27.757,122.687,71.521,154.4,5.84,4.232,11.355,8.229,16.583,12.246,41.779,32.1,33.812,71.346,33.456,72.984A5,5,0,0,0,238.863,500.867ZM342.51,27.171l4.695.193a454.415,454.415,0,0,1-8.069,57.215c-9,42.74-23.051,72.463-40.623,85.954a39.563,39.563,0,0,1-21.162,8.493c.118-.2.238-.406.348-.615,3.955-7.529.469-13.948-3.009-18.7-.842-1.15-1.809-2.355-2.9-3.629a144.963,144.963,0,0,1,34.525-37.623C333.861,97.7,340.948,43.856,342.51,27.171ZM288.391,187a7.347,7.347,0,0,1-1.762,2.821c-6.316,6.805-25.641,11.744-40.378,3.681-4.213-2.305-6.724-4.838-7.261-7.324a4.941,4.941,0,0,1-.105-1.008,53,53,0,0,0,18.12,3.131,56.063,56.063,0,0,0,5.789-.3,56.416,56.416,0,0,0,11.169,1.17A48.384,48.384,0,0,0,288.391,187Zm-16.368-84.537c20.477-27.788,24.583-62.018,25.336-77.879l8.756,5.047c.873,21.534.06,71.873-12.955,86.594a155.379,155.379,0,0,0-28.4,32.275c-2.389-2.439-5.1-5.126-8.15-8.12C257.6,134.276,261.2,117.145,272.023,102.461ZM243.218,30.4l5.68,7.7c-9.723,25.816,3.494,61.891,7.285,71.26a105.421,105.421,0,0,0-8.114,22.654q-1.912-1.876-3.953-3.885a58.62,58.62,0,0,1-13.549-21.688C231.251,89.432,234.677,47.976,243.218,30.4ZM208.35,37l8.99-.6a188.524,188.524,0,0,0-2.784,32.637c.141,28.934,7.936,51.832,22.543,66.22q4.265,4.2,7.965,7.814c20.023,19.6,26.24,26.017,23.782,30.695a8.268,8.268,0,0,1-6.434,4.22,41.925,41.925,0,0,1-35.345-12.114C201.823,140.312,202.74,82.544,208.35,37Zm-3.944,139.573a79.46,79.46,0,0,1,18.244-1.13,51.849,51.849,0,0,0,6.9,5.173,15.239,15.239,0,0,0-.389,7.409c1.106,5.6,5.241,10.391,12.291,14.248a46.306,46.306,0,0,0,22.169,5.364c12.347,0,24.146-4.344,30.337-11.015,3.889-4.19,5.328-9.128,4.239-13.9a55.858,55.858,0,0,0,6.122-4.045,50.342,50.342,0,0,1,14.49,3.047c8.13,3.864,6.721,7.678,6.189,9.116-3.215,8.676-19.486,17.159-33.243,21.368-12.091,3.7-36.344,8.815-62.915,1.511-18.834-5.178-29.749-12.134-31.565-20.117C195.606,186.256,201.952,179.035,204.406,176.573Zm3.353,237.419c-5.339-4.1-10.909-8.139-16.807-12.413-34.14-24.741-71.861-52.091-74.279-99.971a74.442,74.442,0,0,0,51.394,29.05,5,5,0,0,0,1.156-9.933c-34.8-4.048-49.1-30.92-51.872-36.9a137.723,137.723,0,0,1,5.732-25.5Q131,233.66,143.533,216.1a65.167,65.167,0,0,0,9.075,16.038c16.925,22.093,44.358,30.59,64.391,33.828a5,5,0,0,0,1.595-9.872c-55.095-8.9-65.718-40.993-67.571-49.4a93.63,93.63,0,0,1,33.581-24.32c1.664-.707,3.306-1.337,4.924-1.913a23.6,23.6,0,0,0-2.018,15.287c2.691,12,15.705,21.288,38.68,27.6A115.735,115.735,0,0,0,256.9,227.42a131.176,131.176,0,0,0,37.78-5.651c20.537-6.285,35.747-16.806,39.694-27.457a17.012,17.012,0,0,0,.99-4.393c13.915,8.9,30.72,24.792,47.118,53.2,12.54,21.722,16.039,44.255,10.452,67.113-21.242,9.728-35.109,3.8-35.781,3.5a5,5,0,0,0-4.2,9.074c.439.2,6.517,2.954,16.553,2.954a62.588,62.588,0,0,0,19.565-3.281,119.978,119.978,0,0,1-14.787,26.943c-28.177,14.675-52.338,2.589-53.364,2.061a5,5,0,0,0-4.621,8.869c.763.4,12.371,6.312,29.112,6.312a70.567,70.567,0,0,0,16.069-1.856,166.966,166.966,0,0,1-18.348,16.59c-58.959,26.693-108.022,2.571-108.513,2.324a5,5,0,0,0-4.531,8.914c1.4.711,23.156,11.5,55.374,11.5a144.771,144.771,0,0,0,22.03-1.693c-.774.317-1.548.631-2.312.923-21.718,8.317-40.729,26.825-54.977,53.526-2.26,4.234-4.231,8.349-5.936,12.213C240.934,452.973,231.622,432.329,207.759,413.992Z"/></svg>