<svg xmlns="http://www.w3.org/2000/svg"  viewBox="0 0 100 100" width="100px" height="100px"><path d="M40.942,93C21.103,93,4.961,74.832,4.961,52.5S21.103,12,40.942,12h8.295 c19.303,0,39.377,11.36,43.01,30.663C95.604,44.839,97,47.874,97,52c0,3.949-1.985,7.615-5.147,9.831 C87.365,79.492,73.155,93,53.237,93H40.942z" opacity=".35"/><path fill="#f2f2f2" d="M38.942,91C19.103,91,2.961,72.832,2.961,50.5S19.103,10,38.942,10h8.295 c19.303,0,37.364,12.969,42.295,29.943C92.889,42.119,95,45.874,95,50c0,3.949-1.985,7.615-5.147,9.831 C85.365,77.492,67.155,91,47.237,91H38.942z"/><path fill="#ffc571" d="M83.952,44.593C81.134,28.633,61.118,16.5,44.238,16.5c-2.743,0-2.316,0-5.295,0 c-16.282,0-29.482,15.222-29.482,34c0,18.778,13.199,34,29.482,34c1.461,0,3.598,0,5.295,0c17.161,0,37.501-12.657,39.884-29.123 C86.623,54.847,88.5,52.642,88.5,50C88.5,47.299,86.537,45.057,83.952,44.593z"/><ellipse cx="39.198" cy="50.5" fill="#fff" rx="28.288" ry="32.5"/><ellipse cx="38.989" cy="50.5" fill="#ffc571" rx="21" ry="24.5"/><path fill="#fff" d="M58.462,59.671l-13.529-9.112l13.561-9.134c-0.357-1.044,1.73-3.693,1.259-4.66 c-0.515-1.056-3.6-0.423-4.239-1.373l-13.556,9.131V26.248c-0.97-0.16-1.926-1.316-2.934-1.316c-1.019,0-2.054,1.157-3.035,1.321 v18.28l-13.539-9.119c-0.639,0.952-2.665,1.203-3.179,2.26c-0.47,0.968,0.56,2.734,0.204,3.778l13.52,9.107l-13.488,9.085 c0.355,1.03-0.973,3.132-0.506,4.086c0.522,1.067,2.854,0.977,3.503,1.937l13.484-9.083v18.162 c0.981,0.164,1.948,2.062,2.967,2.062c1.008,0,2.032-1.897,3.002-2.057V56.596l13.502,9.094c0.724-1.067,3.357-0.894,3.923-2.095 C59.779,62.754,58.151,60.57,58.462,59.671z"/><path fill="none" stroke="#40396e" stroke-linecap="round" stroke-linejoin="round" stroke-miterlimit="10" stroke-width="3" d="M83.952,44.593C81.134,28.633,64.118,16.5,47.238,16.5c-4.395,0-6.834,0-8.295,0c-16.282,0-29.482,15.222-29.482,34 c0,18.778,13.199,34,29.482,34c1.461,0,3.294,0,8.295,0c17.242,0,34.501-12.657,36.884-29.123C86.623,54.847,88.5,52.642,88.5,50 C88.5,47.299,86.537,45.057,83.952,44.593z"/></svg>