<svg xmlns="http://www.w3.org/2000/svg"  viewBox="0 0 100 100" width="100px" height="100px"><path d="M95,16c-0.9-1.7-2.2-3.1-3.8-4.3C90.9,10.3,90.2,9,89,8c-1.2-1-2.7-1.6-4.3-1.6c-1.7,0-3.3,0.7-4.5,1.8 c-1.3,0-2.5,0.2-3.6,0.4c-3.4,0.9-6,2.9-7.5,5.7c-4.9,1.8-7,6.7-8.6,10.5c-0.3,0.8-0.7,1.7-1.1,2.6c-2,1.5-3.3,3.8-3.5,6.4 c-0.4,0.6-0.7,1.2-1.1,1.8c-2.8,1.4-4.8,4.2-4.9,7.4c-1.1,1.4-2.3,2.9-3.6,4.4c-2.5,1-4.4,3-5.2,5.5c-1.3,1.3-2.5,2.4-3.7,3.3 C35.6,56.8,34,58,33,59.5l-0.4,0.3c-0.9,0.6-1.8,1.3-2.6,1.8c-2.4,0.3-4.5,1.6-5.9,3.4c-0.6,0.3-1.2,0.7-1.8,1c-0.1,0-0.2,0-0.3,0 c-3,0-5.8,1.6-7.4,4.1c-4,2.2-9.3,5.7-9.3,12.2c0,4.7,2.8,8.7,7.6,11c1.7,1.5,3.7,2.2,5.8,2.2c0.6,0,1.3-0.1,1.9-0.2 c1.2,0.1,2.5,0.2,3.9,0.2c2.1,0,4.3-0.2,6.5-0.5c0.9,0.3,1.9,0.5,3,0.5c2.3,0,4.5-0.9,6.1-2.4c2.1-0.7,4.1-1.3,5.9-2.1 c0.1,0,0.2,0,0.2,0c2.7,0,5.3-1.2,6.9-3.3c0.7-0.4,1.4-0.8,2.1-1.2h0.1c3.6,0,6.8-2.3,8.1-5.5c0.3-0.2,0.5-0.4,0.8-0.6 c3.7-0.5,6.7-3.3,7.5-6.9c0.4-0.5,0.9-0.9,1.3-1.4c2.5-1.2,4.4-3.5,4.9-6.2c0.7-1,1.4-2.1,2-3.1c2.6-1.5,4.4-4.4,4.4-7.6 c0-0.4,0-0.8-0.1-1.2c0.5-1.2,0.8-2.5,1.2-3.7c1.3-1.5,2-3.4,2-5.5c0-0.9-0.1-1.8-0.4-2.6c0.1-1.8,0.2-3.7,0.2-5.6 c0-1.3,0-3.2-0.2-5.4h0.1c0.2,0,0.4,0,0.5,0c3.4-0.2,6.3-1.9,7.8-4.7C96.5,24.8,97.7,21.1,95,16z" opacity=".35"/><path fill="#f2f2f2" d="M93,14c-0.9-1.7-2.2-3.1-3.8-4.3C88.9,8.3,88.2,7,87,6c-1.2-1-2.7-1.6-4.3-1.6c-1.7,0-3.3,0.7-4.5,1.8 c-1.3,0-2.5,0.2-3.6,0.4c-3.4,0.9-6,2.9-7.5,5.7c-4.9,1.8-7,6.7-8.6,10.5c-0.3,0.8-0.7,1.7-1.1,2.6c-2,1.5-3.3,3.8-3.5,6.4 c-0.4,0.6-0.7,1.2-1.1,1.8c-2.8,1.4-4.8,4.2-4.9,7.4c-1.1,1.4-2.3,2.9-3.6,4.4c-2.5,1-4.4,3-5.2,5.5c-1.3,1.3-2.5,2.4-3.7,3.3 C33.6,54.8,32,56,31,57.5l-0.4,0.3c-0.9,0.6-1.8,1.3-2.6,1.8c-2.4,0.3-4.5,1.6-5.9,3.4c-0.6,0.3-1.2,0.7-1.8,1c-0.1,0-0.2,0-0.3,0 c-3,0-5.8,1.6-7.4,4.1c-4,2.2-9.3,5.7-9.3,12.2c0,4.7,2.8,8.7,7.6,11c1.7,1.5,3.7,2.2,5.8,2.2c0.6,0,1.3-0.1,1.9-0.2 c1.2,0.1,2.5,0.2,3.9,0.2c2.1,0,4.3-0.2,6.5-0.5c0.9,0.3,1.9,0.5,3,0.5c2.3,0,4.5-0.9,6.1-2.4c2.1-0.7,4.1-1.3,5.9-2.1 c0.1,0,0.2,0,0.2,0c2.7,0,5.3-1.2,6.9-3.3c0.7-0.4,1.4-0.8,2.1-1.2h0.1c3.6,0,6.8-2.3,8.1-5.5c0.3-0.2,0.5-0.4,0.8-0.6 c3.7-0.5,6.7-3.3,7.5-6.9c0.4-0.5,0.9-0.9,1.3-1.4c2.5-1.2,4.4-3.5,4.9-6.2c0.7-1,1.4-2.1,2-3.1c2.6-1.5,4.4-4.4,4.4-7.6 c0-0.4,0-0.8-0.1-1.2c0.5-1.2,0.8-2.5,1.2-3.7c1.3-1.5,2-3.4,2-5.5c0-0.9-0.1-1.8-0.4-2.6c0.1-1.8,0.2-3.7,0.2-5.6 c0-1.3,0-3.2-0.2-5.4h0.1c0.2,0,0.4,0,0.5,0c3.4-0.2,6.3-1.9,7.8-4.7C94.5,22.8,95.7,19.1,93,14z"/><path fill="#96c362" stroke="#40396e" stroke-linecap="round" stroke-linejoin="round" stroke-miterlimit="10" stroke-width="3" d="M78.5,41.5c0.2-2.2,0.3-4.5,0.3-6.9c0-10.7-2.2-16.6-7.4-16.6c-5,0-5.7,5.5-9.1,12.1c-1,0.2-1.9,1-1.9,2.2 c0,0.3,0,0.7,0.2,0.9c-1.2,2.1-2.4,4-3.6,5.9c-0.2,0-0.3,0-0.3,0c-1.2,0-2.2,1-2.2,2.2c0,0.5,0.2,0.9,0.3,1.2 c-2.2,3.1-4.7,6-6.9,8.6c-0.2,0-0.2,0-0.3,0c-1.2,0-2.2,1-2.2,2.2V54c-2.4,2.4-4.7,4.5-6.9,6.2c-1,0-2.1,0.7-2.2,1.7 c-2.2,1.6-4.3,3.1-6.4,4.3c-0.2,0-0.3-0.2-0.5-0.2c-1,0-2.1,0.7-2.2,1.7c-2.1,1.2-4,2.2-5.7,3.1c-0.3-0.2-0.9-0.3-1.2-0.3 c-1.2,0-2.2,1-2.2,2.2c-5,2.6-7.9,4.5-7.9,7.6c0,2.2,1.6,4.3,4.8,5.5c0.5,0.7,1.2,1.2,2.1,1.2c0.5,0,0.9-0.2,1.2-0.3 c1.4,0.2,2.9,0.3,4.7,0.3c2.4,0,5.2-0.3,7.8-0.7c0.3,0.5,1,0.7,1.7,0.7c1,0,1.9-0.7,2.2-1.6c2.9-0.9,6-1.9,9-3.1 c0.3,0.2,0.7,0.2,1,0.2c1,0,2.1-0.7,2.2-1.7c1.9-0.9,3.8-2.1,5.5-3.1c0.3,0.3,0.9,0.3,1.4,0.3c1.2,0,2.2-1,2.2-2.2v-0.5 c1.6-1,2.9-2.2,4.5-3.4c0.3,0.2,0.7,0.2,1,0.2c1.2,0,2.2-1,2.2-2.2c0-0.3,0-0.5-0.2-0.9c1.4-1.4,2.8-2.9,4.1-4.5 c1.2,0,2.2-1,2.2-2.2v-0.5c1.4-2.1,2.8-4.1,4-6.2c1.2,0,2.2-1,2.2-2.2c0-0.5-0.2-1-0.5-1.4c1-2.2,1.7-4.7,2.4-7.1 c0.7-0.3,1.2-1,1.2-1.9C79,42.4,78.8,41.9,78.5,41.5z"/><path fill="none" stroke="#40396e" stroke-linecap="round" stroke-linejoin="round" stroke-miterlimit="10" stroke-width="3" d="M72.4,17.7c0-7.3,12-5.8,14.8-0.6c2,3.6,0.5,5.5-1.9,5.7c-3.5,0.2-7.1-6.7-2.6-11.8"/><circle cx="56.4" cy="52.6" r="1.9" fill="#739f4d"/><circle cx="66.6" cy="46.7" r="1.9" fill="#739f4d"/><circle cx="68.5" cy="33.6" r="1.9" fill="#739f4d"/><circle cx="56.4" cy="64.8" r="1.9" fill="#739f4d"/><circle cx="44.4" cy="67.8" r="1.9" fill="#739f4d"/><circle cx="35.5" cy="77.6" r="1.9" fill="#739f4d"/><circle cx="21.7" cy="77.6" r="1.9" fill="#739f4d"/></svg>