<svg xmlns="http://www.w3.org/2000/svg"  viewBox="0 0 100 100" width="100px" height="100px"><g id="Слой_2"><path d="M88.392,27.459c-4.365-5.273-10.012-8.45-16.489-9.318c-0.025-0.169-0.054-0.337-0.087-0.505 C70.932,13.212,67.014,10,62.502,10c-0.622,0-1.247,0.062-1.858,0.183c-2.976,0.595-5.754,1.791-8.232,3.526 c-5.393-5.979-12.751-9.208-21.227-9.209c-0.001,0,0.001,0,0,0c-4.67,0-9.766,0.966-15.145,2.872 c-3.51,1.244-5.682,4.698-5.282,8.4l0.003,0.032l0.004,0.032l0.013,0.104c0.479,4.321,1.435,8.231,2.85,11.671 c-6.322,7.741-8.898,19.009-6.753,30.339c3.575,19.991,19.847,37.523,34.834,37.523c3.317,0,6.495-0.826,9.36-2.414 c2.865,1.588,6.043,2.414,9.36,2.414c14.987,0,31.261-17.546,34.84-37.555C97.407,46.63,94.837,35.244,88.392,27.459z" opacity=".35"/><path fill="#f2f2f2" d="M86.392,25.459c-4.365-5.273-10.012-8.45-16.489-9.318c-0.025-0.169-0.054-0.337-0.087-0.505 C68.932,11.212,65.014,8,60.502,8c-0.622,0-1.247,0.062-1.858,0.183c-2.976,0.595-5.754,1.791-8.232,3.526 c-5.393-5.979-12.751-9.208-21.227-9.209c-0.001,0,0.001,0,0,0c-4.67,0-9.766,0.966-15.145,2.872 c-3.51,1.244-5.682,4.698-5.282,8.4l0.003,0.032l0.004,0.032l0.013,0.104c0.479,4.321,1.435,8.231,2.85,11.671 c-6.322,7.741-8.898,19.009-6.753,30.339C8.45,75.945,24.721,93.476,39.708,93.476c3.317,0,6.495-0.826,9.36-2.414 c2.865,1.588,6.043,2.414,9.36,2.414c14.987,0,31.261-17.546,34.84-37.555C95.407,44.63,92.837,33.244,86.392,25.459z"/><path fill="#40396e" d="M82.543,28.157c-4.197-5.069-9.847-7.749-16.341-7.749c-4.422,0-9.077,1.256-13.879,3.739 C49.709,17.143,43.457,7.001,29.185,7c0,0-0.002,0-0.002,0c-4.099,0-8.632,0.87-13.474,2.585c-1.311,0.464-2.131,1.769-1.981,3.152 l0.016,0.128c0.568,5.148,1.862,9.56,3.854,13.159C10.8,32.407,7.686,43.466,9.792,54.547 c3.115,17.479,17.377,33.427,29.917,33.427c3.465,0,6.651-1.186,9.36-3.458c2.71,2.273,5.896,3.458,9.36,3.458 c12.539,0,26.802-15.949,29.923-33.461C90.221,44.676,88.052,34.81,82.543,28.157z"/><path fill="#40396e" d="M48.501,32.999c-0.076,0-0.153-0.006-0.231-0.018c-0.818-0.127-1.378-0.892-1.252-1.71 c0.088-0.572,2.285-14.062,13.188-16.242c0.814-0.163,1.602,0.365,1.765,1.177c0.163,0.812-0.364,1.603-1.177,1.765 c-8.836,1.768-10.793,13.64-10.812,13.759C49.867,32.47,49.228,32.999,48.501,32.999z"/><path fill="#739f4d" d="M51.277,31.666c0,0-3.21-30.862-34.566-19.752C20.167,44.011,51.277,31.666,51.277,31.666z"/><path fill="#96c362" d="M51.277,31.666c0,0-3.21-30.862-34.566-19.752c0.004,0.041,0.01,0.08,0.015,0.121l33.396,20.037 C50.859,31.831,51.277,31.666,51.277,31.666z"/><path fill="#de5147" d="M49.069,29.063c-24.836-16.831-40.229,3.9-36.33,24.425c3.695,20.731,24.836,40.229,36.33,26.272 c11.494,13.957,32.635-5.542,36.33-26.272C89.298,32.963,73.904,12.233,49.069,29.063z"/><path fill="#ffe8d9" d="M76.875,32.24c-2.665-3.219-6.089-4.851-10.177-4.851C57,27.389,50.832,33.46,50,33.532v40.753 c1,2.715,6.831,4.691,8.929,4.691c7.769,0,19.468-12.397,22.047-26.865c0.003-0.019,0.007-0.037,0.01-0.056 C82.402,44.605,80.826,37.012,76.875,32.24z"/><path fill="#d47f56" d="M68,53c0,2.209-1.791,3-4,3c-2.209,0-4-0.791-4-3s4-7,4-7S68,50.791,68,53z"/></g></svg>