<svg xmlns="http://www.w3.org/2000/svg"  viewBox="0 0 100 100" width="100px" height="100px"><path d="M33.877,96.03c-5.247,0-8.936-1.424-9.339-1.586c-0.991-0.402-1.869-1.041-2.549-1.852 c-3.824-4.546-8.726-15.557-3.415-27.761C9,54,5.001,40.508,5.015,40.332c0.075-1.049,0.41-2.078,0.969-2.973 c2.569-4.135,10.594-11.973,22.53-11.973c0.943,0,1.898,0.049,2.861,0.145C34.29,12.635,44.685,6.628,50.426,5.193 C50.946,5.064,51.473,5,52,5s1.054,0.064,1.564,0.19c5.75,1.438,16.146,7.443,19.062,20.339c0.963-0.096,1.917-0.144,2.86-0.144 c11.937,0,19.961,7.838,22.536,11.982c0.552,0.885,0.888,1.913,0.964,2.966c0.013,0.174,0.97,16.015-13.56,24.497 c5.312,12.205,0.409,23.217-3.42,27.768c-0.675,0.805-1.553,1.443-2.533,1.841c-0.426,0.171-4.126,1.59-9.349,1.59 c-4.999,0-11.824-1.31-18.125-6.914C45.7,94.72,38.876,96.03,33.877,96.03z" opacity=".35"/><path fill="#f2f2f2" d="M31.877,94.03c-5.247,0-8.936-1.424-9.339-1.586c-0.991-0.402-1.869-1.041-2.549-1.852 c-3.824-4.546-8.726-15.557-3.415-27.761c-14.537-8.485-13.573-24.324-13.56-24.5c0.075-1.049,0.41-2.078,0.969-2.973 c2.569-4.135,10.594-11.973,22.53-11.973c0.943,0,1.898,0.049,2.861,0.145C32.29,10.635,42.685,4.628,48.426,3.193 C48.946,3.064,49.473,3,50,3s1.054,0.064,1.564,0.19c5.75,1.438,16.146,7.443,19.062,20.339c0.963-0.096,1.917-0.144,2.86-0.144 c11.937,0,19.961,7.838,22.536,11.982c0.552,0.885,0.888,1.913,0.964,2.966c0.013,0.174,0.97,16.015-13.56,24.497 c5.312,12.205,0.409,23.217-3.42,27.768c-0.675,0.805-1.553,1.443-2.533,1.841c-0.426,0.171-4.126,1.59-9.349,1.59 c-4.999,0-11.824-1.31-18.125-6.914C43.7,92.72,36.876,94.03,31.877,94.03z"/><path fill="#d9eeff" d="M90.986,38.684c0,0-8.225-13.187-25.153-7.686c-0.264,0.086-0.51,0.18-0.766,0.271	c0.005-0.23,0.017-0.451,0.017-0.686C65.083,12.782,50,9.035,50,9.035s-15.083,3.747-15.083,21.547c0,0.235,0.013,0.457,0.017,0.688	c-0.256-0.09-0.502-0.185-0.767-0.271c-16.929-5.5-25.153,7.686-25.153,7.686S7.917,54.188,24.846,59.689	c0.266,0.086,0.522,0.155,0.783,0.233c-0.165,0.216-0.332,0.422-0.496,0.647c-10.462,14.4-0.463,26.298-0.463,26.298	S39.075,92.7,49.538,78.3c0.164-0.226,0.308-0.448,0.462-0.672c0.155,0.224,0.298,0.446,0.463,0.672	c10.463,14.4,24.868,8.566,24.868,8.566s10-11.897-0.463-26.298c-0.164-0.226-0.331-0.432-0.497-0.648	c0.261-0.078,0.517-0.146,0.783-0.233C92.083,54.187,90.986,38.684,90.986,38.684z"/><g opacity=".35"><path fill="#40396e" d="M25.31,58.262c1.1,0.263,2.184,0.603,3.28,0.86l1.66,0.269l0.829,0.146 c0.277,0.043,0.555,0.042,0.832,0.066l1.67,0.111c0.556,0.012,1.107-0.05,1.663-0.069l0.834-0.042l0.818-0.141 c0.541-0.11,1.106-0.14,1.638-0.297c2.169-0.494,4.231-1.443,6.112-2.698c1.877-1.281,3.574-2.792,5.354-4.467 c-0.688,2.384-2.303,4.4-4.217,5.971c-1.919,1.577-4.141,2.873-6.569,3.609c-0.596,0.218-1.222,0.32-1.836,0.476l-0.929,0.203 l-0.942,0.099c-0.628,0.055-1.26,0.151-1.889,0.169l-1.89-0.03c-0.635,0.011-1.258-0.053-1.875-0.159l-1.86-0.279 c-1.217-0.263-2.412-0.612-3.609-0.946L25.31,58.262z"/><path fill="#40396e" d="M36.417,30.456c0.09,1.128,0.102,2.263,0.195,3.386l0.257,1.662l0.117,0.834 c0.044,0.276,0.132,0.54,0.195,0.812l0.41,1.622c0.16,0.532,0.39,1.037,0.579,1.56l0.298,0.78l0.387,0.734 c0.272,0.481,0.475,1.008,0.788,1.466c1.14,1.91,2.68,3.578,4.455,4.979c1.798,1.39,3.76,2.537,5.903,3.711 c-2.48,0.082-4.896-0.831-6.982-2.165c-2.093-1.338-4.012-3.05-5.463-5.132c-0.392-0.499-0.682-1.063-1.02-1.6l-0.48-0.821 l-0.385-0.865c-0.247-0.581-0.533-1.151-0.744-1.745l-0.556-1.806c-0.207-0.6-0.338-1.213-0.428-1.833l-0.309-1.855 c-0.126-1.239-0.163-2.483-0.216-3.725L36.417,30.456z"/></g><path fill="#40396e" d="M66.383,32.497c-1.047,0.429-2.124,0.787-3.165,1.218l-1.505,0.751l-0.759,0.366 c-0.25,0.126-0.475,0.29-0.714,0.433l-1.42,0.885c-0.458,0.315-0.869,0.687-1.309,1.027l-0.652,0.521l-0.582,0.592 c-0.375,0.405-0.815,0.76-1.156,1.198c-1.471,1.668-2.591,3.643-3.385,5.76c-0.775,2.136-1.27,4.354-1.736,6.753 c-0.834-2.337-0.701-4.917-0.066-7.31c0.637-2.401,1.682-4.751,3.223-6.767c0.356-0.525,0.805-0.974,1.213-1.459l0.636-0.708 l0.707-0.631c0.478-0.412,0.934-0.858,1.435-1.241l1.551-1.08c0.509-0.38,1.052-0.692,1.615-0.967l1.672-0.86 c1.142-0.497,2.315-0.912,3.482-1.341L66.383,32.497z" opacity=".35"/><path fill="#40396e" d="M73.598,61.591c-0.73-0.864-1.402-1.779-2.132-2.637l-1.178-1.201l-0.581-0.609 c-0.197-0.199-0.422-0.362-0.632-0.546l-1.279-1.079c-0.441-0.339-0.921-0.616-1.38-0.93l-0.696-0.46l-0.742-0.371 c-0.501-0.232-0.974-0.542-1.495-0.731c-2.04-0.887-4.263-1.345-6.522-1.449c-2.271-0.081-4.534,0.131-6.959,0.425 c1.967-1.513,4.463-2.179,6.935-2.311c2.48-0.133,5.038,0.14,7.43,0.985c0.609,0.177,1.174,0.466,1.761,0.705l0.869,0.387 l0.817,0.479c0.539,0.328,1.104,0.625,1.622,0.984l1.505,1.144c0.518,0.367,0.982,0.788,1.416,1.24l1.332,1.327 c0.824,0.933,1.58,1.922,2.347,2.9L73.598,61.591z" opacity=".35"/><path fill="#40396e" d="M48.078,77.401c0.6-0.959,1.266-1.878,1.86-2.836l0.784-1.488l0.403-0.74 c0.129-0.248,0.216-0.513,0.327-0.768l0.637-1.548c0.188-0.523,0.305-1.065,0.464-1.598l0.225-0.804l0.127-0.82 c0.068-0.548,0.219-1.093,0.24-1.647c0.221-2.213-0.021-4.471-0.612-6.653c-0.617-2.187-1.509-4.277-2.531-6.497 c2.041,1.411,3.438,3.584,4.319,5.898c0.884,2.321,1.406,4.84,1.331,7.376c0.017,0.634-0.085,1.26-0.134,1.892l-0.103,0.946 l-0.206,0.924c-0.148,0.613-0.258,1.242-0.441,1.845l-0.63,1.782c-0.191,0.605-0.451,1.175-0.748,1.727l-0.857,1.674 c-0.637,1.07-1.348,2.091-2.045,3.121L48.078,77.401z" opacity=".35"/><path fill="none" stroke="#40396e" stroke-linecap="round" stroke-linejoin="round" stroke-miterlimit="10" stroke-width="3" d="M90.503,38.8c0,0-8.128-13.032-24.858-7.596c-0.261,0.085-0.504,0.178-0.757,0.267c0.005-0.227,0.017-0.446,0.017-0.678	C64.906,13.203,50,9.5,50,9.5s-14.906,3.703-14.906,21.294c0,0.233,0.013,0.452,0.017,0.68c-0.253-0.089-0.496-0.183-0.758-0.268	C17.625,25.77,9.497,38.801,9.497,38.801s-1.084,15.32,15.645,20.756c0.263,0.085,0.516,0.153,0.774,0.23	c-0.163,0.214-0.328,0.417-0.49,0.64c-10.339,14.231-0.457,25.988-0.457,25.988s14.236,5.765,24.575-8.466	c0.162-0.223,0.304-0.442,0.457-0.664c0.153,0.221,0.295,0.441,0.457,0.664c10.339,14.231,24.575,8.466,24.575,8.466	s9.882-11.757-0.457-25.988c-0.162-0.224-0.327-0.427-0.491-0.641c0.258-0.077,0.511-0.145,0.774-0.23	C91.587,54.121,90.503,38.8,90.503,38.8z"/><path fill="#ffc571" d="M61.82,48.553c-0.554-1.692-2.26-2.738-4.033-2.474l-3.575,0.533l-0.594-3.536	c-0.295-1.755-1.825-3.04-3.618-3.04c-1.793,0-3.323,1.286-3.618,3.04l-0.594,3.538l-3.576-0.533	c-1.773-0.264-3.478,0.782-4.033,2.474c-0.554,1.692,0.206,3.533,1.797,4.353l3.209,1.655l-1.615,3.208	c-0.801,1.591-0.325,3.524,1.125,4.57c1.45,1.046,3.45,0.897,4.728-0.35l2.576-2.515l2.576,2.515	c1.278,1.248,3.278,1.396,4.728,0.35c1.45-1.046,1.926-2.978,1.125-4.57l-1.616-3.21l3.208-1.654	C61.614,52.086,62.374,50.245,61.82,48.553z"/><circle cx="50" cy="52.035" r="3" fill="#ff7575"/></svg>