<svg xmlns="http://www.w3.org/2000/svg"  viewBox="0 0 100 100" width="100px" height="100px"><path d="M77.4,95.3c-4.1,0-8.1-2.6-12-7.6c-1.3-1.7-2.6-3.8-3.9-6c-2,9.6-6.7,12.1-10.2,12.6c-0.3,0-0.7,0.1-1.1,0.1	c-4.8,0-8.9-3.5-12-10.4l0-0.1c-0.9-2-1.7-4.1-2.4-6.6c-0.6-1.9-1.1-4-1.5-6.2c-3.4,6.3-8.2,12.2-14.4,12.2c-0.9,0-1.8-0.1-2.7-0.4	c-0.2-0.1-0.4-0.1-0.6-0.2c-7.5-2.8-7.3-12.4-7.2-15.6c0.1-3,0.4-6.3,1.1-9.8c0.7-3.3,1.5-6.9,2.9-10.3c0.8-1.9,1.7-3.7,2.6-5.4	l0.4-0.8c1.9-3.7,5.3-6.3,9.2-7.2c5.1-12.1,16.4-20.6,29.5-22.2c0.9-2.1,3.1-3.6,5.5-3.6h1.9c1.6,0,3.1,0.6,4.2,1.7	c0.5,0,1,0,1.6,0.1c10.4,0.8,17.7,10,17.7,22.3c0,2.4-0.5,6.5-1.5,12.1c-0.6,3.3-3.5,5.6-7,5.7c0.5,0.6,1,1.3,1.4,2l0.6,1	c1.4,2.5,2.9,5,4,8c2.5,6.8,3.9,13.7,4.1,19.2C88,89.9,84,93.5,80.5,94.8C79.5,95.1,78.5,95.3,77.4,95.3z" opacity=".35"/><path fill="#f2f2f2" d="M75.4,93.3c-4.1,0-8.1-2.6-12-7.6c-1.3-1.7-2.6-3.8-3.9-6c-2,9.6-6.7,12.1-10.2,12.6c-0.3,0-0.7,0.1-1.1,0.1	c-4.8,0-8.9-3.5-12-10.4l0-0.1c-0.9-2-1.7-4.1-2.4-6.6c-0.6-1.9-1.1-4-1.5-6.2c-3.4,6.3-8.2,12.2-14.4,12.2c-0.9,0-1.8-0.1-2.7-0.4	c-0.2-0.1-0.4-0.1-0.6-0.2c-7.5-2.8-7.3-12.4-7.2-15.6c0.1-3,0.4-6.3,1.1-9.8c0.7-3.3,1.5-6.9,2.9-10.3c0.8-1.9,1.7-3.7,2.6-5.4	l0.4-0.8c1.9-3.7,5.3-6.3,9.2-7.2c5.1-12.1,16.4-20.6,29.5-22.2c0.9-2.1,3.1-3.6,5.5-3.6h1.9c1.6,0,3.1,0.6,4.2,1.7	c0.5,0,1,0,1.6,0.1c10.4,0.8,17.7,10,17.7,22.3c0,2.4-0.5,6.5-1.5,12.1c-0.6,3.3-3.5,5.6-7,5.7c0.5,0.6,1,1.3,1.4,2l0.6,1	c1.4,2.5,2.9,5,4,8c2.5,6.8,3.9,13.7,4.1,19.2C86,87.9,82,91.5,78.5,92.8C77.5,93.1,76.5,93.3,75.4,93.3z"/><path fill="none" stroke="#40396e" stroke-linecap="round" stroke-linejoin="round" stroke-miterlimit="10" stroke-width="3" d="M28.2,38.5c3.2-13.2,15.2-23,29.6-23"/><path fill="none" stroke="#40396e" stroke-linecap="round" stroke-linejoin="round" stroke-miterlimit="10" stroke-width="3" d="M45.9,50.9c-4.5-12.8,0.2-27.6,12.3-35.4"/><path fill="none" stroke="#40396e" stroke-linecap="round" stroke-linejoin="round" stroke-miterlimit="10" stroke-width="3" d="M69.4,60c-10.7-8.4-17-31.7-11.1-44.8"/><path fill="#96c362" stroke="#40396e" stroke-miterlimit="10" stroke-width="3" d="M65.9,14c-3.8-0.3-5.8,0.8-6.1,1c0,0,0,0-0.1,0c-6.2,5.3,12.8,2.8,14.6,25.6c0,0.2,0.4,0.3,0.9,0.4	c0.4,0,0.9-0.1,0.9-0.3c0.6-3.3,1.4-8.3,1.4-10.9C77.6,20.6,72.5,14.5,65.9,14z"/><path fill="#40396e" d="M57.8,15.7c-0.2,0-0.5-0.1-0.7-0.3c-0.3-0.3-0.4-0.7-0.3-1.1c0.5-1.4,0.9-2.9,0.9-2.9c0.1-0.4,0.5-0.8,1-0.8	h1.9c0.3,0,0.6,0.2,0.8,0.4c0.2,0.3,0.2,0.6,0.1,0.9c0,0.1-1,2.4-3.3,3.5C58.1,15.7,58,15.7,57.8,15.7z"/><path fill="#f4665c" d="M74.5,58.4l-9-1.5l-5.9,6.8c0.2,0.8,0.5,1.6,0.8,2.3c4.6,12.9,11.7,22.1,15.8,20.6c4.1-1.5,3.7-13.1-0.9-26	C75.1,59.9,74.8,59.1,74.5,58.4z"/><path fill="#96c362" d="M74.6,58.3l-5.1-0.8l-2.6,3.1l-4-0.6l-3.3,3.8l-1-6.3c-0.6-3.5,1.2-6.9,4.3-8l0,0c3.1-1.1,6.6,0.3,8.4,3.4	L74.6,58.3z"/><path fill="#40396e" d="M80.6,77.9c-0.2-5.1-1.5-11.4-3.8-17.7c-1-2.9-2.6-5.5-4.2-8.1c-2.2-3.7-6.5-5.4-10.2-4.1	c-3.8,1.4-6,5.4-5.3,9.7c0.5,3.1,0.9,6,1.9,8.9c2.3,6.4,5.2,12.1,8.3,16.1c3.4,4.5,6.1,5.7,8,5.7c0.5,0,1-0.1,1.4-0.2	C78.7,87.4,80.9,85.1,80.6,77.9z M75.8,85.2c-1,0.3-3.1-0.6-6-4.4c-2.9-3.8-5.7-9.2-7.9-15.3c-1-2.7-1.3-5.6-1.8-8.4	c-0.5-2.8,1-5.5,3.4-6.3c2.4-0.9,5.2,0.3,6.6,2.8c1.5,2.5,2.9,4.8,3.9,7.6c2.2,6.1,3.5,12.1,3.6,16.8C77.8,82.8,76.8,84.9,75.8,85.2	z"/><path fill="#f4665c" d="M53.1,57.9l-8.4-3.5l-7.3,5.3c0.1,0.8,0.2,1.6,0.2,2.5c1.6,13.6,6.4,24.1,10.7,23.6s6.6-11.9,5-25.5	C53.4,59.5,53.3,58.7,53.1,57.9z"/><path fill="#96c362" d="M53.2,57.9l-4.7-2l-3.2,2.4l-3.8-1.5l-4,2.9l0.4-6.4c0.2-3.6,2.7-6.4,6-6.8l0,0c3.3-0.4,6.4,1.8,7.4,5.2	L53.2,57.9z"/><path fill="#40396e" d="M55,60.2c-0.4-3-1.3-5.9-2.2-8.8c-1.3-4.1-5.1-6.7-9-6.3c-4,0.5-7.1,3.9-7.3,8.2c-0.3,4.7-0.3,9.1,0.6,13.8	c0.4,2.3,0.9,4.6,1.6,6.9c0.6,2,1.3,4,2.1,5.9c0,0,0,0.1,0,0.1c2.7,6,5.5,7.4,7.5,7.4c0.2,0,0.3,0,0.5,0c2-0.2,4.6-2,6-9	C55.7,73.3,55.8,66.9,55,60.2z M51.8,77.7c-0.9,4.7-2.4,6.5-3.4,6.6c-1,0.1-2.9-1.3-4.9-5.7c-2-4.3-3.5-10.2-4.2-16.6	c-0.3-2.9-0.1-5.7,0.1-8.6c0.2-2.8,2.2-5.1,4.7-5.4c2.5-0.3,5,1.5,5.8,4.2c0.8,2.8,1.8,5.4,2.1,8.3C52.8,66.9,52.7,73,51.8,77.7z"/><path fill="#f4665c" d="M32.2,51.6L26,45.2l-8.5,1.9c-0.3,0.7-0.5,1.5-0.7,2.3c-3.9,12.7-3.7,24,0.4,25.2s10.5-8.1,14.4-20.8	C31.7,53.2,31.9,52.4,32.2,51.6z"/><path fill="#96c362" d="M32.2,51.7l-3.4-3.6L25,48.9l-2.8-2.8l-4.7,1.1l2.9-5.5c1.6-3.1,5-4.7,8-3.7l0,0c3.1,0.9,5,4.1,4.6,7.6	L32.2,51.7z"/><path fill="#40396e" d="M28.8,36.5c-3.7-1.1-7.9,0.7-9.8,4.5c-1,1.9-2,3.9-2.9,5.9c-1.2,3-2,6.2-2.6,9.4c-0.6,3-1,6-1,9	c-0.1,3.4,0.1,9.3,4,10.8c0.1,0,0.2,0.1,0.3,0.1c0.4,0.1,0.8,0.2,1.2,0.2c5.5,0,11.6-10.6,15-21.9c0.9-2.9,1.1-5.8,1.5-8.8	C34.9,41.5,32.5,37.6,28.8,36.5z M17.6,73.3c-1-0.3-1.4-1.6-1.6-2.5c-0.5-1.9-0.6-3.9-0.5-5.8c0.1-3.4,0.6-6.8,1.4-10.1	c0.7-3.2,1.6-6.3,3.1-9.3c0.5-1.1,1.1-2.2,1.7-3.3c1.3-2.4,3.9-3.7,6.2-3c2.4,0.7,3.8,3.2,3.5,5.9c-0.3,2.8-0.5,5.5-1.4,8.2	C26.1,66.7,20,74,17.6,73.3z"/></svg>