<svg xmlns="http://www.w3.org/2000/svg"  viewBox="0 0 100 100" width="100px" height="100px"><path d="M48.7,99.1c-16.4,0-28.9-10.9-29.1-25.4l0-0.4c0-5.5,1.5-10.8,4.2-15.5c4.5-7.7,6.9-16.2,6.9-24.7v-2.7	c0-6.9,4.4-13,10.7-15.4c0.4-0.7,0.9-1.3,1.5-1.9c1.2-2.9,3.2-5.5,6-7.4C50,5,51.3,4.6,52.7,4.6c1.9,0,3.7,0.8,4.9,2.2l3,3.4	c1.1,1.2,1.6,2.7,1.6,4.2c0.2,0.2,0.3,0.5,0.5,0.7c6.3,2.3,10.7,8.4,10.7,15.3v2.6c0,8.3,2.4,16.8,7.1,25.1c1.8,3.2,3,6.6,3.6,10.2	c0.3,2.2,0.5,4.4,0.3,6.6c-0.7,13.8-13.1,24.1-28.7,24.1L48.7,99.1z" opacity=".35"/><path fill="#f2f2f2" d="M46.7,97.1c-16.4,0-28.9-10.9-29.1-25.4l0-0.4c0-5.5,1.5-10.8,4.2-15.5c4.5-7.7,6.9-16.2,6.9-24.7v-2.7	c0-6.9,4.4-13,10.7-15.4c0.4-0.7,0.9-1.3,1.5-1.9c1.2-2.9,3.2-5.5,6-7.4C48,3,49.3,2.6,50.7,2.6c1.9,0,3.7,0.8,4.9,2.2l3,3.4	c1.1,1.2,1.6,2.7,1.6,4.2c0.2,0.2,0.3,0.5,0.5,0.7c6.3,2.3,10.7,8.4,10.7,15.3v2.6c0,8.3,2.4,16.8,7.1,25.1c1.8,3.2,3,6.6,3.6,10.2	c0.3,2.2,0.5,4.4,0.3,6.6c-0.7,13.8-13.1,24.1-28.7,24.1L46.7,97.1z"/><path fill="#96c362" d="M56.5,21.7l-0.9-3.4c0-1.7-1.1-3.1-2.6-3.5c0-0.7,0.2-1.5,0.7-2.3c-1-1.1-2-2.3-3-3.4c-2.2,1.6-3.6,3.7-4.2,6	c-1.2,0.6-2,1.8-2,3.3l0.1,3.5C46.6,22.7,55.1,22.7,56.5,21.7z"/><path fill="#f9b84f" d="M75.6,67.9c-0.4-2.8-1.4-5.4-2.8-7.8c-4.9-8.5-8-18-8-27.8v-2.6c0-5.4-4.4-9.7-9.9-9.7h-9.8	c-5.5,0-9.9,4.3-9.9,9.7v2.6c0,9.7-2.8,19.1-7.8,27.4c-2.1,3.5-3.3,7.6-3.3,11.9c0,0.1,0,0.2,0,0.3c0.1,11.1,10.3,18.6,22.6,18.6	c2.3,0,4.6,0,6.9,0c11.3,0,21.6-7,22.2-17.6C75.9,71.3,75.9,69.6,75.6,67.9z"/><path fill="#ef8630" d="M35.3,73.3V73c0-4.3,0.7-8.6,2-12.3c3.3-9.5,5.1-20,5.1-30.4v-2.8c0-3.3,1-5.9,2.3-7.4c-1.9,0.2-3.6,1-5,2.3	c-0.5,1.6-0.7,3.3-0.7,5.1v2.8c0,10-1.7,20.1-4.8,29.1c-1.4,4.1-2.2,8.8-2.2,13.6v0.3c0,5.6,1.4,10.5,3.8,14.3	c2.2,1.2,4.6,2.1,7.2,2.5C38.4,87.5,35.3,81.1,35.3,73.3z"/><path fill="#ef8630" d="M66.1,59.8c-3.3-9.8-5-19.7-5-29.5v-2.8c0-1.8-0.3-3.6-0.7-5.1c-1.4-1.3-3.1-2.1-5-2.3	c1.3,1.5,2.3,4.1,2.3,7.4v2.8c0,10.3,1.7,20.6,5.2,30.8c0.9,2.5,1.4,5.2,1.7,8c0.2,1.8,0.2,3.5,0.2,5.3c-0.2,7.3-3.2,13.3-7.5,15.9	c2.6-0.4,5-1.3,7.2-2.6c2.2-3.6,3.5-8.1,3.7-13.2c0.1-1.9,0-3.9-0.2-5.8C67.7,65.6,67,62.6,66.1,59.8z"/><path fill="#ef8630" d="M45.9,60.3c1.3-9.3,2-19.7,2-30v-2.8c0-3.5,0.4-6,0.8-7.5h-3.3c-0.1,0-0.2,0-0.3,0c-0.6,2.8-0.7,6-0.7,7.5v2.8	c0,10.1-0.7,20.3-2,29.5c-0.6,4-0.9,8.6-0.9,13.2v0.3c0,6,0.7,12.7,2.5,17.1c0.9,0.1,1.9,0.2,2.8,0.2c0.4,0,0.7,0,1.1,0	c-1.3-2.2-2.9-7.7-2.9-17.2V73C45.1,68.6,45.4,64.2,45.9,60.3z"/><path fill="#ef8630" d="M58.3,74.4c0-1.9,0-3.8-0.1-5.6c-0.1-3-0.4-5.9-0.7-8.7c-1.3-9.9-2-19.9-2-29.9v-2.8c0-1.5-0.1-4.7-0.7-7.5	c-0.1,0-0.2,0-0.3,0h-3.3c0.4,1.5,0.8,4,0.8,7.5v2.8c0,10.1,0.7,20.4,2,30.4c0.4,2.6,0.6,5.4,0.7,8.3c0.1,1.8,0.1,3.6,0.1,5.4	c-0.1,8.9-1.7,14.1-2.9,16.2c0.5,0,0.9,0,1.4,0c0.8,0,1.6-0.1,2.4-0.1C57.4,86.4,58.2,80.4,58.3,74.4z"/><path fill="none" stroke="#40396e" stroke-linecap="round" stroke-linejoin="round" stroke-miterlimit="10" stroke-width="3" d="M75.6,67.4c-0.4-2.8-1.4-5.5-2.8-8c-4.9-8.7-8-18.3-8-28.3v-2.6c0-5.2-4.1-9.5-9.2-9.9v-0.3	c0-1.7-1.1-3.1-2.6-3.5c0-0.7,0.2-1.5,0.7-2.3c-1-1.1-2-2.3-3-3.4c-2.2,1.6-3.6,3.7-4.2,6c-1.1,0.6-2.2,2.2-2.3,3.6	c-5,0.5-9,4.7-9,9.8v2.7c0,9.9-2.8,19.5-7.8,28c-2.1,3.6-3.3,7.8-3.3,12.2c0,0.1,0,0.2,0,0.3C24.2,83,34.4,90.6,46.7,90.6	c2.3,0,4.6,0,6.9,0c11.3,0,21.6-7.2,22.2-18C75.9,70.9,75.9,69.2,75.6,67.4z"/></svg>