<svg xmlns="http://www.w3.org/2000/svg"  viewBox="0 0 100 100" width="100px" height="100px"><path d="M39.804,98c-3.316,0-6.421-1.629-8.306-4.357c-1.882-2.727-2.305-6.202-1.131-9.295 c0.325-0.86,0.716-1.838,1.127-2.864c0.692-1.731,2.289-5.718,2.502-7.013c-0.075-1.615-0.855-5.15-1.547-8.281 C31.3,60.983,30,55.102,30,50.5c0-9.281,3.987-14.505,6.898-18.319c1.97-2.58,2.916-3.902,2.916-5.753 c0-1.113,0.041-2.316,0.086-3.607c0.004-0.11,0.008-0.221,0.012-0.331C38.717,21.148,38,19.387,38,17.5v-3C38,9.45,42.015,4,48.5,4 h6c2.409,0,4.629,0.77,6.447,2.229c0.916,0.627,1.676,1.465,2.204,2.432C64.33,10.44,65,12.544,65,14.5v3 c0,1.887-0.717,3.648-1.912,4.989c0.004,0.109,0.008,0.217,0.012,0.326c0.045,1.297,0.086,2.5,0.086,3.613 c0,1.851,0.946,3.173,2.916,5.753C69.013,35.995,73,41.219,73,50.5c0,4.602-1.3,10.483-2.446,15.673 c-0.694,3.148-1.475,6.685-1.55,8.298c0.213,1.295,1.81,5.282,2.5,7.008c0.412,1.029,0.803,2.005,1.131,2.87 c1.172,3.096,0.748,6.569-1.132,9.293C69.617,96.371,66.513,98,63.196,98H39.804z" opacity=".35"/><path fill="#f2f2f2" d="M37.804,96c-3.316,0-6.421-1.629-8.306-4.357c-1.882-2.727-2.305-6.202-1.131-9.295 c0.325-0.86,0.716-1.838,1.127-2.864c0.692-1.731,2.289-5.718,2.502-7.013c-0.075-1.615-0.855-5.15-1.547-8.281 C29.3,58.983,28,53.102,28,48.5c0-9.281,3.987-14.505,6.898-18.319c1.97-2.58,2.916-3.902,2.916-5.753 c0-1.113,0.041-2.316,0.086-3.607c0.004-0.11,0.008-0.221,0.012-0.331C36.717,19.148,36,17.387,36,15.5v-3C36,7.45,40.015,2,46.5,2 h6c2.409,0,4.629,0.77,6.447,2.229c0.916,0.627,1.676,1.465,2.204,2.432C62.33,8.44,63,10.544,63,12.5v3 c0,1.887-0.717,3.648-1.912,4.989c0.004,0.109,0.008,0.217,0.012,0.326c0.045,1.297,0.086,2.5,0.086,3.613 c0,1.851,0.946,3.173,2.916,5.753C67.013,33.995,71,39.219,71,48.5c0,4.602-1.3,10.483-2.446,15.673 c-0.694,3.148-1.475,6.685-1.55,8.298c0.213,1.295,1.81,5.282,2.5,7.008c0.412,1.029,0.803,2.005,1.131,2.87 c1.172,3.096,0.748,6.569-1.132,9.293C67.617,94.371,64.513,96,61.196,96H37.804z"/><path fill="#70bfff" d="M52.5,8.5c3,0,4,2.895,4,4v3c0,0.552-0.448,1-1,1h-1c0,3.029,0.186,5.675,0.186,7.928 C54.686,33.5,64.5,35.5,64.5,48.5c0,7-3.906,19.089-4,24c-0.046,2.422,2.632,8.391,4.056,12.152 c0.887,2.344-0.853,4.848-3.359,4.848H37.803c-2.506,0-4.247-2.504-3.359-4.848c1.424-3.761,4.102-9.73,4.056-12.152 c-0.094-4.911-4-17-4-24c0-13,9.814-15,9.814-24.072c0-2.252,0.186-4.899,0.186-7.928h-1c-0.552,0-1-0.448-1-1v-3c0-1.105,1-4,4-4 H52.5z"/><path fill="#ff7575" d="M57,15H43v-5c0-1.105,0.895-2,2-2h10c1.105,0,2,0.895,2,2V15z"/><rect width="12" height="3" x="44" y="15" fill="#40396e" opacity=".35"/><path fill="#ad5d3d" d="M60.5,72.5c0.094-4.911,4-17,4-24c0-8.538-7.594-18.332-10.5-22.5H44 c-2.906,4.168-9.5,13.962-9.5,22.5c0,7,3.906,19.089,4,24c0.046,2.422-2.632,8.391-4.056,12.152 c-0.887,2.344,0.853,4.848,3.359,4.848h23.393c2.506,0,4.247-2.504,3.359-4.848C63.132,80.891,60.454,74.922,60.5,72.5z"/><path fill="none" stroke="#40396e" stroke-linecap="round" stroke-linejoin="round" stroke-miterlimit="10" stroke-width="3" d="M46.5,36.5c-2.397,3.142-5,7.283-5,12c0,3.124,1.131,8.245,2.128,12.762c0.975,4.414,1.815,8.226,1.871,11.105 c0.051,2.692-0.958,5.745-2.678,10.133c0,0-2.191,5,0.744,7" opacity=".35"/><path fill="none" stroke="#40396e" stroke-linecap="round" stroke-linejoin="round" stroke-miterlimit="10" stroke-width="3" d="M52.5,36.5c2.397,3.142,5.13,7.283,5.13,12c0,3.124-1.131,8.245-2.128,12.762c-0.975,4.414-1.815,8.226-1.871,11.105 c-0.051,2.692,0.958,5.745,2.678,10.133c0,0,2.191,5-0.744,7" opacity=".35"/><rect width="29" height="16" x="35" y="44" fill="#ff7575"/><path fill="none" stroke="#40396e" stroke-linecap="round" stroke-linejoin="round" stroke-miterlimit="10" stroke-width="3" d="M52.5,8.5c3,0,4,2.895,4,4v3c0,0.552-0.448,1-1,1h-1c0,3.029,0.186,5.675,0.186,7.928C54.686,33.5,64.5,35.5,64.5,48.5 c0,7-3.906,19.089-4,24c-0.046,2.422,2.632,8.391,4.056,12.152c0.887,2.344-0.853,4.848-3.359,4.848H37.803 c-2.506,0-4.247-2.504-3.359-4.848c1.424-3.761,4.102-9.73,4.056-12.152c-0.094-4.911-4-17-4-24c0-13,9.814-15,9.814-24.072 c0-2.252,0.186-4.899,0.186-7.928h-1c-0.552,0-1-0.448-1-1v-3c0-1.105,1-4,4-4H52.5z"/></svg>