<svg xmlns="http://www.w3.org/2000/svg"  viewBox="0 0 256 256" width="128px" height="128px"><path fill="#A4D4A0" d="M119.948,193.711l-1.209-1.899c-2.255-3.542-4.741-10.87-5.707-16.822l-0.518-3.19l-1.138-1.458 c-2.124-2.722-4.735-9.703-5.993-16.024l-0.674-3.387l-1.045-0.991c-1.952-1.85-4.638-8.351-6.165-14.922l-0.817-3.518 l-0.934-0.506c-1.743-0.944-4.453-6.841-6.218-13.534l-0.945-3.584l-0.804-0.01c-1.501-0.02-4.182-5.198-6.153-11.887 l-1.056-3.582l-0.659,0.486c-1.23,0.907-3.83-3.454-5.969-10.009l-1.146-3.512l-0.501,0.973 c-0.935,1.816-3.406-1.644-5.672-7.941l-1.214-3.373l0,0.002c-0.378,1.983-1.547,1.498-2.975-0.767l3.608,0.729l0,0.017 c0.054,5.662,5.055,9.996,10.667,9.246l0.014-0.002c0.05,5.665,5.053,10.005,10.669,9.253l0.002,0l0.107,2.633 c0.2,4.916,4.15,8.849,9.066,9.029l2.634,0.096l-0.257,2.623c-0.48,4.896,2.888,9.337,7.732,10.194l2.596,0.459l-0.617,2.562 c-1.152,4.783,1.571,9.647,6.251,11.165l2.506,0.813l-0.964,2.451c-1.801,4.578,0.225,9.772,4.651,11.921l2.37,1.15 l-1.293,2.295c-2.415,4.287-1.123,9.71,2.965,12.448l2.189,1.466l-1.598,2.096c-2.982,3.913-2.451,9.461,1.22,12.737 l1.966,1.755l-1.872,1.856c-3.494,3.463-3.734,9.031-0.552,12.782l1.706,2.011l-2.11,1.579 c-2.118,1.585-3.379,3.904-3.691,6.354c-0.99-3.178-1.764-6.528-2.1-9.335L119.948,193.711z"/><path fill="#419B46" d="M92.847,169.817c7.523,19.63,15.262,34.364,21.685,41.882c-23.996-6.186-41.828-26.339-45.037-50.918 l-10.279-78.72L92.847,169.817z"/><path fill="#65BC49" d="M92.847,169.817L59.215,82.062l-1.134-8.686l4.355,0.881c1.428,2.265,2.597,2.749,2.975,0.767l0-0.002 l1.214,3.373c2.266,6.297,4.737,9.757,5.672,7.941l0.501-0.973l1.146,3.512c2.139,6.555,4.74,10.916,5.969,10.009l0.659-0.486 l1.056,3.582c1.971,6.689,4.652,11.867,6.153,11.887l0.804,0.01l0.945,3.584c1.766,6.694,4.475,12.59,6.218,13.534 l0.934,0.506l0.817,3.518c1.527,6.571,4.213,13.072,6.165,14.922l1.045,0.991l0.674,3.387 c1.259,6.322,3.87,13.302,5.993,16.024l1.138,1.458l0.518,3.19c0.966,5.951,3.452,13.279,5.707,16.822l1.209,1.899l0.35,2.928 c0.336,2.806,1.11,6.156,2.1,9.335c-0.269,2.107,0.162,4.31,1.38,6.231l1.411,2.225l-3.875-0.992l3.875,0.992l-10.563-2.705 c-0.032-0.008-0.063-0.018-0.095-0.026C108.109,204.182,100.37,189.447,92.847,169.817z"/><path fill="#1C2D6B" d="M125.192,217.431c-0.22,0-0.443-0.024-0.666-0.075c-0.001,0-0.001,0-0.001,0c-0.001,0-0.002,0-0.003,0 c-0.03-0.007-0.06-0.014-0.088-0.021l-10.552-2.702c-25.38-6.499-43.971-27.483-47.363-53.461L55.106,73.764 c-0.126-0.96,0.221-1.921,0.929-2.582s1.689-0.939,2.641-0.747l7.963,1.61c1.399,0.283,2.405,1.513,2.405,2.94 c0.018,1.854,0.804,3.555,2.214,4.777s3.203,1.76,5.056,1.512c0.854-0.111,1.72,0.143,2.37,0.707 c0.649,0.563,1.033,1.378,1.041,2.239c0.017,1.867,0.802,3.569,2.213,4.793c1.391,1.206,3.234,1.756,5.058,1.513 c0.84-0.11,1.685,0.134,2.329,0.676c0.646,0.543,1.036,1.333,1.069,2.176l0.106,2.633c0.136,3.328,2.85,6.03,6.18,6.152 l2.633,0.096c0.827,0.03,1.605,0.401,2.149,1.024c0.545,0.624,0.808,1.444,0.727,2.268l-0.258,2.623 c-0.324,3.314,1.99,6.366,5.27,6.947l2.596,0.459c0.814,0.144,1.534,0.618,1.987,1.311c0.453,0.692,0.601,1.541,0.407,2.346 l-0.617,2.562c-0.78,3.238,1.091,6.58,4.26,7.608l2.506,0.813c0.787,0.255,1.434,0.824,1.787,1.572s0.382,1.609,0.079,2.379 l-0.964,2.451c-1.221,3.101,0.172,6.669,3.17,8.125l2.369,1.15c0.744,0.361,1.306,1.014,1.553,1.804 c0.247,0.79,0.156,1.646-0.249,2.367l-1.293,2.295c-1.635,2.903-0.748,6.629,2.021,8.483l2.188,1.466 c0.688,0.46,1.154,1.185,1.289,2.001c0.136,0.816-0.071,1.652-0.573,2.31l-1.598,2.096c-2.02,2.649-1.654,6.462,0.832,8.68 l1.966,1.755c0.618,0.551,0.98,1.333,1.002,2.16c0.021,0.828-0.3,1.627-0.888,2.209l-1.873,1.856 c-2.364,2.344-2.529,6.171-0.375,8.711l1.705,2.01c0.536,0.631,0.787,1.455,0.694,2.277s-0.521,1.57-1.184,2.065l-2.109,1.579 c-2.668,1.996-3.36,5.763-1.576,8.577l1.406,2.216c0.01,0.017,0.021,0.033,0.03,0.05c0.001,0,0.001,0,0.001,0 c0,0.001,0.001,0.001,0.001,0.002c0.211,0.345,0.344,0.716,0.403,1.093c0.061,0.381,0.048,0.779-0.049,1.177 c-0.013,0.054-0.027,0.108-0.044,0.162c-0.1,0.333-0.254,0.636-0.449,0.902c-0.189,0.26-0.423,0.492-0.699,0.685 c-0.001,0.001-0.002,0.002-0.003,0.002h-0.001c-0.048,0.034-0.097,0.066-0.146,0.097c-0.002,0-0.003,0.001-0.005,0.002 c-0.346,0.212-0.719,0.346-1.098,0.406C125.507,217.418,125.351,217.431,125.192,217.431z M61.599,77.148l10.87,83.246 c3.073,23.531,19.913,42.54,42.902,48.426l4.26,1.091c-1.002-4.484,0.545-9.334,4.235-12.358 c-3.697-4.766-3.401-11.616,0.692-16.045c-4.32-4.211-4.974-11.035-1.53-15.987c-4.859-3.574-6.447-10.243-3.721-15.623 c-5.306-2.87-7.798-9.256-5.838-14.961c-5.65-2.111-9-8.092-7.846-14.013c-5.887-1.311-10.029-6.772-9.705-12.795 c-6.122-0.494-11.046-5.5-11.403-11.662c-2.406-0.315-4.664-1.32-6.51-2.92c-1.92-1.666-3.265-3.865-3.889-6.282 c-2.473-0.271-4.856-1.292-6.789-2.967c-2.058-1.784-3.455-4.181-4.013-6.803L61.599,77.148z"/><g><path fill="#A4D4A0" d="M136.052,193.711l1.209-1.899c2.255-3.542,4.741-10.87,5.707-16.822l0.518-3.19l1.138-1.458 c2.124-2.722,4.735-9.703,5.993-16.024l0.674-3.387l1.045-0.991c1.952-1.85,4.638-8.351,6.165-14.922l0.817-3.518l0.934-0.506 c1.743-0.944,4.453-6.841,6.218-13.534l0.945-3.584l0.804-0.01c1.501-0.02,4.182-5.198,6.153-11.887l1.056-3.582l0.659,0.486 c1.23,0.907,3.83-3.454,5.969-10.009l1.146-3.512l0.501,0.973c0.935,1.816,3.406-1.644,5.672-7.941l1.214-3.373l0,0.002 c0.378,1.983,1.547,1.498,2.975-0.767l-3.608,0.729l0,0.017c-0.054,5.662-5.055,9.996-10.667,9.246l-0.014-0.002 c-0.05,5.665-5.053,10.005-10.669,9.253l-0.002,0l-0.107,2.633c-0.2,4.916-4.15,8.849-9.066,9.029l-2.634,0.096l0.257,2.623 c0.48,4.896-2.888,9.337-7.732,10.194l-2.596,0.459l0.617,2.562c1.152,4.783-1.571,9.647-6.251,11.165l-2.506,0.813 l0.964,2.451c1.801,4.578-0.225,9.772-4.651,11.921l-2.37,1.15l1.293,2.295c2.415,4.287,1.123,9.71-2.965,12.448l-2.189,1.466 l1.598,2.096c2.982,3.913,2.451,9.461-1.219,12.737l-1.967,1.755l1.872,1.856c3.494,3.463,3.734,9.031,0.552,12.782 l-1.706,2.011l2.11,1.579c2.118,1.585,3.379,3.904,3.691,6.354c0.99-3.178,1.764-6.528,2.1-9.335L136.052,193.711z"/><path fill="#419B46" d="M163.153,169.817c-7.523,19.63-15.262,34.364-21.685,41.882c23.996-6.186,41.828-26.339,45.037-50.918 l10.279-78.72L163.153,169.817z"/><path fill="#65BC49" d="M163.153,169.817l33.632-87.756l1.134-8.686l-4.355,0.881c-1.428,2.265-2.597,2.749-2.975,0.767 l0-0.002l-1.214,3.373c-2.266,6.297-4.737,9.757-5.672,7.941l-0.501-0.973l-1.146,3.512 c-2.139,6.555-4.74,10.916-5.969,10.009l-0.659-0.486l-1.056,3.582c-1.971,6.689-4.652,11.867-6.153,11.887l-0.804,0.01 l-0.945,3.584c-1.766,6.694-4.475,12.59-6.218,13.534l-0.934,0.506l-0.817,3.518c-1.527,6.571-4.213,13.072-6.165,14.922 l-1.045,0.991l-0.674,3.387c-1.258,6.322-3.87,13.302-5.993,16.024l-1.138,1.458l-0.518,3.19 c-0.966,5.951-3.452,13.279-5.707,16.822l-1.209,1.899l-0.35,2.928c-0.336,2.806-1.11,6.156-2.1,9.335 c0.269,2.107-0.162,4.31-1.38,6.231l-1.411,2.225l3.875-0.992l-3.875,0.992l10.563-2.705c0.032-0.008,0.063-0.018,0.095-0.026 C147.891,204.182,155.63,189.447,163.153,169.817z"/><g><path fill="#1C2D6B" d="M130.808,217.431c-0.157,0-0.313-0.012-0.465-0.036c-0.354-0.056-0.703-0.176-1.03-0.364 c-0.001,0-0.002-0.001-0.003-0.002l-0.001,0c-0.111-0.064-0.218-0.135-0.32-0.213c-0.217-0.165-0.405-0.355-0.564-0.564 c-0.213-0.279-0.38-0.599-0.486-0.952c0-0.002-0.001-0.003-0.001-0.005c0,0,0,0-0.001,0c-0.015-0.051-0.029-0.103-0.041-0.155 c-0.097-0.397-0.109-0.796-0.049-1.177c0.06-0.377,0.192-0.748,0.403-1.093c0-0.001,0.001-0.001,0.001-0.002c0,0,0,0,0.001,0 c0.01-0.017,0.021-0.033,0.03-0.05l1.406-2.217c1.784-2.813,1.092-6.58-1.575-8.576l-2.11-1.579 c-0.662-0.496-1.09-1.243-1.184-2.065c-0.093-0.822,0.158-1.646,0.693-2.277l1.705-2.011c2.155-2.54,1.99-6.366-0.375-8.711 l-1.872-1.855c-0.588-0.583-0.909-1.382-0.888-2.209c0.021-0.827,0.384-1.609,1.002-2.16l1.967-1.755 c2.484-2.218,2.85-6.031,0.831-8.68l-1.598-2.096c-0.502-0.658-0.709-1.494-0.573-2.31c0.135-0.816,0.602-1.541,1.289-2.001 l2.188-1.466c2.769-1.854,3.655-5.58,2.021-8.483l-1.293-2.295c-0.405-0.721-0.496-1.577-0.249-2.367 c0.247-0.79,0.809-1.442,1.553-1.804l2.369-1.15c2.998-1.455,4.391-5.023,3.17-8.124l-0.964-2.452 c-0.303-0.77-0.274-1.631,0.079-2.379s1-1.317,1.787-1.572l2.506-0.813c3.169-1.028,5.04-4.37,4.26-7.608l-0.617-2.562 c-0.193-0.805-0.046-1.653,0.407-2.346c0.453-0.693,1.173-1.167,1.987-1.311l2.596-0.459c3.279-0.581,5.594-3.632,5.27-6.948 l-0.258-2.622c-0.081-0.824,0.182-1.644,0.727-2.268c0.544-0.623,1.322-0.994,2.149-1.024l2.634-0.096 c3.329-0.122,6.043-2.825,6.179-6.153l0.106-2.632c0.034-0.86,0.437-1.664,1.104-2.207c0.669-0.543,1.537-0.773,2.386-0.631 c1.735,0.229,3.575-0.321,4.966-1.527c1.411-1.224,2.196-2.925,2.213-4.792c0.008-0.847,0.372-1.651,1.005-2.214 c0.632-0.563,1.476-0.832,2.314-0.743c1.945,0.258,3.737-0.279,5.147-1.501c1.41-1.222,2.196-2.923,2.214-4.789 c0.014-1.417,1.017-2.648,2.405-2.929l7.963-1.61c0.948-0.193,1.932,0.085,2.641,0.747c0.708,0.661,1.055,1.622,0.929,2.582 L189.48,161.17c-3.393,25.978-21.983,46.963-47.363,53.461l-10.559,2.703c-0.015,0.004-0.03,0.008-0.045,0.011 C131.277,217.403,131.04,217.431,130.808,217.431z M132.133,197.552c3.691,3.023,5.238,7.873,4.236,12.357l4.26-1.09 c22.989-5.886,39.829-24.895,42.902-48.426l10.87-83.245l-1.721,0.348c-0.561,2.634-1.956,5.023-4.009,6.802 c-1.926,1.669-4.3,2.689-6.788,2.961c-0.623,2.419-1.969,4.621-3.89,6.288c-1.854,1.607-4.124,2.614-6.511,2.93 c-0.361,6.158-5.284,11.159-11.402,11.652c0.324,6.023-3.819,11.484-9.705,12.795c1.154,5.92-2.195,11.901-7.846,14.013 c1.96,5.704-0.531,12.09-5.838,14.961c2.727,5.381,1.139,12.049-3.721,15.623c3.442,4.953,2.789,11.777-1.53,15.987 C135.535,185.937,135.83,192.786,132.133,197.552z"/></g></g><g><path fill="#A4D4A0" d="M123.442,213.357l-0.058-6.015c-0.03-3.173-0.846-5.722-1.861-5.817l-1.925-0.18l-0.057-6.005 c-0.03-3.175-0.847-5.727-1.863-5.82l-1.92-0.175l-0.057-6.003c-0.03-3.175-0.847-5.727-1.863-5.821l-1.92-0.176l-0.056-6 c-0.03-3.176-0.847-5.728-1.863-5.821c0.986-1.169,1.182-6.698,0.816-9.788l-0.601-5.068l1.615-1.913 c0.986-1.168,1.486-4.605,1.12-7.696l-0.601-5.062l1.614-1.912c0.987-1.169,1.487-4.607,1.119-7.698l-0.6-5.057l1.614-1.911 c0.987-1.168,1.487-4.607,1.12-7.699l-0.6-5.056l1.613-1.908c0.987-1.168,1.487-4.606,1.12-7.698l-0.6-5.057l1.614-1.911 c0.987-1.169,1.487-4.607,1.12-7.699l-0.6-5.056l1.614-1.91c0.987-1.168,1.487-4.607,1.12-7.698l-0.6-5.056l1.613-1.91 c0.987-1.168,1.487-4.607,1.12-7.7l-0.6-5.052l1.613-1.91c0.707-0.837,1.163-2.841,1.23-5.047 c-0.008-0.033-0.012-0.053-0.012-0.053c-0.192,2.227-1.626,4.256-3.854,5.1l-5.041,1.91l1.876,5.052 c1.148,3.092-0.415,6.531-3.499,7.7l-5.042,1.91l1.876,5.057c1.147,3.092-0.416,6.53-3.5,7.698l-5.043,1.91l1.876,5.056 c1.147,3.092-0.415,6.53-3.499,7.699l-5.043,1.911l1.876,5.057c1.147,3.092-0.416,6.53-3.501,7.698l-5.04,1.908l1.876,5.056 c1.147,3.092-0.415,6.53-3.499,7.698l-5.043,1.911l1.877,5.057c1.147,3.091-0.415,6.529-3.499,7.698l-5.045,1.912l1.877,5.062 c1.146,3.091-0.416,6.528-3.499,7.696l-5.047,1.913l1.878,5.068c1.145,3.09,0.531,8.619-2.55,9.788 c3.176,0.093,5.728,2.646,5.821,5.821l0.176,6l6.001,0.176c3.175,0.093,5.728,2.645,5.821,5.821l0.177,6.003l6,0.175 c3.175,0.093,5.728,2.644,5.822,5.82l0.178,6.005l6.015,0.18c3.173,0.095,5.722,2.645,5.817,5.817l0.18,6.015L123.442,213.357z"/><path fill="#419B46" d="M181.703,155.735l1.878-5.068l-5.047-1.913c-3.083-1.168-4.645-4.605-3.499-7.696l1.877-5.062 l-5.045-1.912c-3.083-1.169-4.646-4.607-3.499-7.698l1.877-5.057l-5.043-1.911c-3.084-1.168-4.647-4.607-3.499-7.698 l1.876-5.056l-5.04-1.908c-3.084-1.168-4.648-4.606-3.501-7.698l1.876-5.057l-5.043-1.911c-3.084-1.169-4.646-4.607-3.499-7.699 l1.876-5.056l-5.043-1.91c-3.084-1.168-4.647-4.607-3.5-7.698l1.876-5.057l-5.042-1.91c-3.084-1.168-4.647-4.607-3.499-7.7 l1.876-5.052l-5.041-1.91c-2.818-1.068-3.738-4.434-3.876-5.008c0.044,0.575,0.339,3.94,1.24,5.007l1.613,1.91l-0.6,5.052 c-0.367,3.092,0.133,6.531,1.12,7.7l1.613,1.91l-0.6,5.056c-0.367,3.092,0.133,6.53,1.12,7.698l1.614,1.91l-0.6,5.056 c-0.367,3.092,0.133,6.53,1.12,7.699L137.252,92l-0.6,5.057c-0.367,3.092,0.133,6.531,1.12,7.698l1.613,1.908l-0.6,5.056 c-0.367,3.092,0.133,6.53,1.12,7.699l1.614,1.911l-0.6,5.057c-0.367,3.091,0.133,6.529,1.119,7.698l1.614,1.912l-0.601,5.062 c-0.367,3.091,0.133,6.528,1.12,7.696l1.615,1.913l-0.601,5.068c-0.366,3.09-0.17,8.619,0.816,9.788 c-1.016,0.093-1.833,2.646-1.863,5.821l-0.056,6l-1.92,0.176c-1.016,0.093-1.833,2.645-1.863,5.821l-0.057,6.003l-1.92,0.175 c-1.016,0.093-1.833,2.644-1.863,5.82l-0.057,6.005l-1.925,0.18c-1.015,0.095-1.831,2.645-1.861,5.817l-0.058,6.015l9.686,0 l0.18-6.015c0.095-3.173,2.645-5.722,5.817-5.817l6.015-0.18l0.178-6.005c0.094-3.175,2.647-5.727,5.822-5.82l6-0.175 l0.177-6.003c0.094-3.175,2.646-5.727,5.821-5.821l6.001-0.176l0.176-6c0.093-3.176,2.646-5.728,5.821-5.821 C181.172,164.354,180.557,158.825,181.703,155.735z"/><path fill="#65BC49" d="M127.993,40.998c0,0.018-0.002,0.035-0.003,0.053c0.002,0.01,0.007,0.027,0.01,0.039 C127.995,41.036,127.993,40.998,127.993,40.998z"/><path fill="#65BC49" d="M125.146,48.008l0.6,5.052c0.367,3.092-0.133,6.531-1.12,7.7l-1.613,1.91l0.6,5.056 c0.367,3.092-0.133,6.53-1.12,7.698l-1.614,1.91l0.6,5.056c0.367,3.092-0.133,6.53-1.12,7.699L118.748,92l0.6,5.057 c0.367,3.092-0.133,6.531-1.12,7.698l-1.613,1.908l0.6,5.056c0.367,3.092-0.133,6.53-1.12,7.699l-1.614,1.911l0.6,5.057 c0.367,3.091-0.133,6.529-1.119,7.698l-1.614,1.912l0.601,5.062c0.367,3.091-0.133,6.528-1.12,7.696l-1.615,1.913l0.601,5.068 c0.366,3.09,0.17,8.619-0.816,9.788c1.016,0.093,1.833,2.646,1.863,5.821l0.056,6l1.92,0.176 c1.016,0.093,1.833,2.645,1.863,5.821l0.057,6.003l1.92,0.175c1.016,0.093,1.833,2.644,1.863,5.82l0.057,6.005l1.925,0.18 c1.015,0.095,1.831,2.645,1.861,5.817l0.058,6.015h9.115l0.058-6.015c0.03-3.173,0.846-5.722,1.861-5.817l1.925-0.18 l0.057-6.005c0.03-3.175,0.847-5.727,1.863-5.82l1.92-0.175l0.057-6.003c0.03-3.175,0.847-5.727,1.863-5.821l1.92-0.176l0.056-6 c0.03-3.176,0.847-5.728,1.863-5.821c-0.986-1.169-1.182-6.698-0.816-9.788l0.601-5.068l-1.615-1.913 c-0.986-1.168-1.486-4.605-1.12-7.696l0.601-5.062l-1.614-1.912c-0.987-1.169-1.487-4.607-1.119-7.698l0.6-5.057l-1.614-1.911 c-0.987-1.168-1.487-4.607-1.12-7.699l0.6-5.056l-1.613-1.908c-0.987-1.168-1.487-4.606-1.12-7.698l0.6-5.057l-1.614-1.911 c-0.987-1.169-1.487-4.607-1.12-7.699l0.6-5.056l-1.614-1.91c-0.987-1.168-1.487-4.607-1.12-7.698l0.6-5.056l-1.613-1.91 c-0.987-1.168-1.487-4.607-1.12-7.7l0.6-5.052l-1.613-1.91c-0.902-1.068-1.196-4.432-1.24-5.007 c-0.003-0.012-0.007-0.03-0.01-0.039c-0.067,2.206-0.523,4.21-1.23,5.047L125.146,48.008z"/></g><g><path fill="#1C2D6B" d="M142.242,216.357h-28.484c-1.622,0-2.95-1.289-2.999-2.91l-0.181-6.016 c-0.048-1.583-1.325-2.861-2.908-2.909l-6.016-0.181c-1.587-0.047-2.862-1.323-2.909-2.91l-0.178-6.005 c-0.047-1.585-1.326-2.863-2.911-2.91l-6-0.175c-1.588-0.046-2.864-1.322-2.911-2.91l-0.177-6.003 c-0.047-1.585-1.325-2.863-2.91-2.91l-6.001-0.176c-1.588-0.046-2.864-1.323-2.911-2.91l-0.177-6 c-0.046-1.586-1.324-2.864-2.91-2.911c-1.432-0.042-2.633-1.089-2.87-2.501c-0.238-1.412,0.556-2.794,1.894-3.302 c0.87-0.331,1.626-3.717,0.802-5.941l-1.879-5.067c-0.572-1.545,0.209-3.264,1.75-3.848l5.047-1.913 c1.536-0.582,2.321-2.309,1.75-3.849l-1.877-5.062c-0.573-1.546,0.208-3.265,1.749-3.849l5.045-1.912 c1.537-0.582,2.321-2.309,1.75-3.849l-1.877-5.057c-0.574-1.546,0.208-3.265,1.75-3.85l5.043-1.91 c1.536-0.582,2.321-2.309,1.75-3.849l-1.877-5.056c-0.574-1.546,0.208-3.266,1.75-3.85l5.041-1.909 c1.537-0.582,2.321-2.308,1.75-3.849l-1.876-5.057c-0.573-1.546,0.208-3.265,1.75-3.849l5.044-1.911 c1.536-0.582,2.32-2.309,1.749-3.849l-1.877-5.056c-0.574-1.546,0.208-3.265,1.75-3.849l5.043-1.911 c1.536-0.582,2.321-2.309,1.75-3.85l-1.877-5.055c-0.574-1.546,0.208-3.265,1.75-3.849l5.042-1.911 c1.536-0.582,2.321-2.309,1.749-3.85l-1.876-5.052c-0.574-1.546,0.208-3.266,1.75-3.85l5.041-1.91 c1.089-0.412,1.827-1.39,1.927-2.552c0.128-1.484,1.325-2.65,2.812-2.738c1.504-0.081,2.813,0.928,3.115,2.386 c0.133,0.588,0.802,2.441,2.023,2.904l5.041,1.909c1.542,0.584,2.324,2.304,1.75,3.85l-1.876,5.052 c-0.572,1.541,0.213,3.268,1.749,3.85l5.042,1.91c1.542,0.584,2.324,2.303,1.75,3.849l-1.877,5.056 c-0.571,1.54,0.214,3.267,1.75,3.849l5.043,1.911c1.542,0.584,2.324,2.303,1.75,3.849l-1.877,5.056 c-0.571,1.54,0.213,3.267,1.749,3.849l5.044,1.911c1.542,0.584,2.323,2.303,1.75,3.849l-1.876,5.057 c-0.571,1.541,0.213,3.268,1.75,3.849l5.041,1.909c1.542,0.584,2.324,2.304,1.75,3.85l-1.877,5.056 c-0.571,1.54,0.214,3.267,1.75,3.85l5.043,1.91c1.542,0.584,2.324,2.304,1.75,3.85l-1.877,5.057 c-0.571,1.54,0.213,3.267,1.749,3.849l5.045,1.912c1.541,0.584,2.322,2.303,1.749,3.848l-1.877,5.063 c-0.57,1.54,0.215,3.266,1.751,3.848l5.046,1.913c1.541,0.584,2.322,2.302,1.75,3.848l-1.878,5.067 c-0.824,2.224-0.068,5.611,0.802,5.941c1.338,0.508,2.132,1.891,1.894,3.302c-0.237,1.412-1.438,2.459-2.87,2.501 c-1.586,0.047-2.864,1.325-2.91,2.91l-0.177,6.001c-0.047,1.587-1.323,2.864-2.911,2.91l-6.001,0.176 c-1.585,0.047-2.863,1.325-2.91,2.91l-0.177,6.003c-0.047,1.588-1.323,2.864-2.911,2.91l-6,0.175 c-1.585,0.046-2.864,1.325-2.911,2.91l-0.178,6.004c-0.047,1.586-1.322,2.862-2.909,2.91l-6.016,0.181 c-1.583,0.048-2.86,1.326-2.908,2.909l-0.181,6.015C145.192,215.068,143.864,216.357,142.242,216.357z M116.669,210.357h22.662 l0.093-3.105c0.144-4.751,3.977-8.583,8.727-8.726l3.19-0.096l0.094-3.18c0.143-4.756,3.979-8.59,8.733-8.729l3.173-0.093 l0.093-3.175c0.141-4.756,3.977-8.591,8.732-8.73l3.174-0.093l0.093-3.173c0.085-2.895,1.539-5.449,3.737-7.036 c-1.301-3.009-1.265-6.872-0.281-9.527l0.844-2.276l-2.262-0.857c-4.606-1.746-6.962-6.924-5.25-11.544l0.842-2.271l-2.26-0.856 c-4.608-1.747-6.962-6.927-5.247-11.547l0.84-2.263l-2.256-0.854c-4.61-1.747-6.965-6.927-5.25-11.548l0.84-2.262l-2.254-0.853 c-4.61-1.745-6.965-6.925-5.25-11.547l0.84-2.263l-2.258-0.856c-4.609-1.746-6.964-6.926-5.249-11.547l0.84-2.262l-2.256-0.855 c-4.61-1.746-6.965-6.926-5.25-11.547l0.84-2.263l-2.255-0.854c-4.61-1.747-6.965-6.928-5.249-11.55l0.839-2.258l-2.254-0.854 c-1.115-0.423-2.025-1.05-2.765-1.762c-0.823,0.752-1.79,1.356-2.862,1.762l-2.254,0.854l0.839,2.258 c1.716,4.622-0.639,9.803-5.249,11.549l-2.255,0.854l0.84,2.263c1.714,4.623-0.642,9.802-5.25,11.548l-2.256,0.854l0.84,2.262 c1.715,4.621-0.64,9.801-5.249,11.547l-2.258,0.856l0.84,2.263c1.715,4.622-0.64,9.802-5.25,11.547l-2.254,0.853l0.84,2.262 c1.715,4.621-0.64,9.802-5.25,11.548l-2.256,0.855l0.84,2.263c1.715,4.621-0.64,9.801-5.249,11.547l-2.259,0.856l0.842,2.27 c1.713,4.621-0.643,9.799-5.249,11.545l-2.263,0.857l0.844,2.275c0.983,2.655,1.021,6.518-0.28,9.527 c2.198,1.587,3.652,4.141,3.737,7.037l0.093,3.172l3.174,0.093c4.756,0.14,8.592,3.975,8.732,8.73l0.093,3.175l3.173,0.093 c4.755,0.139,8.591,3.973,8.733,8.729l0.094,3.181l3.19,0.096c4.75,0.143,8.583,3.975,8.727,8.726L116.669,210.357z"/></g><g><path fill="#A4D4A0" d="M138.393,196.231l1.642-1.54c3.063-2.872,7.289-9.355,9.701-14.88l1.293-2.962l1.464-1.13 c2.733-2.11,6.994-8.225,9.781-14.037l1.493-3.114l1.259-0.7c2.35-1.308,6.564-6.94,9.674-12.926l1.665-3.206l1.03-0.258 c1.923-0.482,6.01-5.522,9.381-11.569l1.805-3.237l0.781,0.189c1.459,0.353,5.34-3.998,8.909-9.989l1.911-3.208l0.518,0.634 c0.966,1.183,4.567-2.396,8.265-8.216l1.981-3.118l0.244,1.067c0.455,1.991,3.707-0.747,7.465-6.286l2.013-2.967l0,0.002 c-0.125,2.015,1.127,1.835,3.072-0.005l-3.676-0.188l-0.004,0.017c-1.457,5.471-7.377,8.43-12.627,6.311l-0.013-0.005 c-1.453,5.476-7.377,8.439-12.63,6.317l-0.002-0.001l-0.757,2.524c-1.413,4.712-6.215,7.543-11.022,6.498l-2.575-0.56 l-0.401,2.605c-0.749,4.862-5.114,8.329-10.019,7.958l-2.628-0.199l-0.037,2.635c-0.07,4.919-3.915,8.956-8.825,9.265 l-2.63,0.166l0.326,2.614c0.609,4.882-2.642,9.411-7.463,10.394l-2.581,0.527l0.683,2.544c1.276,4.752-1.32,9.685-5.96,11.323 l-2.484,0.877l1.028,2.427c1.919,4.53,0.028,9.773-4.341,12.036l-2.34,1.212l1.354,2.262c2.526,4.221,1.377,9.675-2.636,12.52 l-2.151,1.525l1.652,2.053c1.659,2.061,2.305,4.62,2,7.071c1.747-2.833,3.329-5.887,4.35-8.522L138.393,196.231z"/><path fill="#419B46" d="M170.574,179.806c-12.157,17.15-23.309,29.505-31.396,35.194c24.781-0.04,47.054-15.14,56.26-38.155 l29.484-73.71L170.574,179.806z"/><path fill="#65BC49" d="M170.574,179.806l54.348-76.671l3.253-8.133l-4.438-0.227c-1.945,1.84-3.198,2.019-3.072,0.005 l0-0.002l-2.013,2.967c-3.757,5.538-7.009,8.277-7.465,6.286l-0.244-1.067l-1.981,3.118c-3.698,5.82-7.299,9.399-8.265,8.216 l-0.518-0.634l-1.911,3.208c-3.569,5.991-7.45,10.342-8.909,9.989l-0.781-0.189l-1.805,3.237 c-3.371,6.047-7.458,11.087-9.381,11.569l-1.03,0.258l-1.665,3.206c-3.109,5.987-7.323,11.618-9.674,12.926l-1.259,0.7 l-1.493,3.114c-2.787,5.812-7.048,11.927-9.781,14.037l-1.464,1.13l-1.293,2.962c-2.412,5.526-6.638,12.008-9.701,14.88 l-1.642,1.54l-1.066,2.75c-1.021,2.635-2.603,5.689-4.35,8.522c-0.262,2.108-1.226,4.135-2.883,5.694l-1.919,1.805h4l-4,0 h10.904c0.033,0,0.066-0.002,0.099-0.002C147.265,209.311,158.417,196.956,170.574,179.806z"/><g><path fill="#1C2D6B" d="M128.176,218.002c-0.018,0-0.035,0-0.053,0c-0.399-0.007-0.78-0.092-1.127-0.24 c-0.369-0.158-0.712-0.392-1.005-0.703l-0.001,0c0,0,0.008-0.001-0.002-0.002c0-0.001-0.001-0.002-0.002-0.002c0,0,0,0,0,0 c-0.017-0.018-0.033-0.035-0.049-0.053l0,0c-0.001-0.001-0.004-0.004-0.004-0.004c0.001-0.002-0.003-0.003-0.003-0.004 c-0.001,0-0.001,0-0.001,0c-0.241-0.272-0.424-0.577-0.55-0.897c-0.116-0.297-0.187-0.616-0.202-0.95c0-0.002,0-0.002,0-0.003 c-0.003-0.061-0.004-0.122-0.003-0.183c0.006-0.409,0.094-0.798,0.248-1.152c0.148-0.343,0.363-0.663,0.645-0.94 c0.021-0.02,0.041-0.04,0.062-0.059l1.909-1.796c2.427-2.283,2.69-6.104,0.602-8.699l-1.652-2.052 c-0.519-0.645-0.748-1.475-0.635-2.294c0.114-0.82,0.562-1.556,1.237-2.035l2.151-1.525c2.718-1.926,3.507-5.673,1.797-8.532 l-1.354-2.262c-0.425-0.71-0.538-1.565-0.312-2.361c0.227-0.796,0.771-1.464,1.507-1.844l2.341-1.212 c2.957-1.532,4.257-5.135,2.957-8.202l-1.028-2.427c-0.322-0.762-0.316-1.624,0.018-2.381s0.966-1.343,1.746-1.619l2.484-0.877 c3.142-1.109,4.925-4.499,4.062-7.717l-0.684-2.543c-0.215-0.799-0.09-1.651,0.346-2.355c0.435-0.704,1.141-1.197,1.952-1.362 l2.581-0.527c3.265-0.667,5.498-3.778,5.086-7.083l-0.326-2.614c-0.103-0.821,0.139-1.648,0.666-2.285 c0.528-0.637,1.296-1.028,2.121-1.081l2.63-0.166c3.325-0.209,5.967-2.983,6.014-6.314l0.038-2.635 c0.013-0.827,0.365-1.613,0.977-2.171c0.61-0.559,1.42-0.841,2.25-0.777l2.628,0.199c3.301,0.239,6.321-2.131,6.828-5.423 l0.401-2.605c0.126-0.818,0.584-1.547,1.267-2.016c0.682-0.469,1.527-0.635,2.336-0.459l2.575,0.56 c3.252,0.709,6.555-1.237,7.511-4.428l0.757-2.524c0.255-0.849,0.871-1.541,1.684-1.893c0.749-0.323,1.593-0.327,2.34-0.017 c1.699,0.678,3.612,0.598,5.252-0.221c1.67-0.835,2.853-2.29,3.332-4.094c0.223-0.84,0.799-1.542,1.579-1.924 c0.781-0.383,1.689-0.408,2.489-0.069c1.697,0.685,3.568,0.61,5.238-0.224c1.667-0.833,2.85-2.283,3.331-4.082 c0.359-1.37,1.641-2.313,3.059-2.25l8.113,0.416c0.967,0.049,1.851,0.563,2.373,1.378s0.619,1.833,0.259,2.732l-32.737,81.843 c-9.729,24.325-32.944,40.042-59.144,40.042h-10.895C128.182,218.002,128.179,218.002,128.176,218.002z M134.683,212.002h4.396 c23.731,0,44.76-14.237,53.573-36.271l31.179-77.948l-1.748-0.089c-1.19,2.402-3.14,4.377-5.575,5.595 c-2.279,1.139-4.83,1.541-7.31,1.185c-1.204,2.19-3.053,3.988-5.328,5.126c-2.193,1.098-4.643,1.51-7.034,1.223 c-1.876,5.875-7.878,9.499-13.936,8.46c-1.179,5.915-6.533,10.171-12.576,9.987c-0.351,6.021-5.079,10.985-11.076,11.629 c0.483,6.012-3.515,11.581-9.366,13.045c1.306,5.889-1.887,11.956-7.479,14.212c2.106,5.652-0.219,12.101-5.448,15.108 c2.867,5.308,1.454,12.016-3.31,15.715C136.47,202.824,136.765,207.907,134.683,212.002z"/></g><g><path fill="#A4D4A0" d="M117.607,196.231l-1.642-1.54c-3.063-2.872-7.289-9.355-9.701-14.88l-1.293-2.962l-1.464-1.13 c-2.733-2.11-6.994-8.225-9.781-14.037l-1.493-3.114l-1.259-0.7c-2.35-1.308-6.564-6.94-9.674-12.926l-1.665-3.206 l-1.03-0.258c-1.923-0.482-6.01-5.522-9.381-11.569l-1.805-3.237l-0.781,0.189c-1.459,0.353-5.34-3.998-8.909-9.989 l-1.911-3.208l-0.518,0.634c-0.966,1.183-4.567-2.396-8.265-8.216l-1.981-3.118l-0.244,1.067 c-0.455,1.991-3.707-0.747-7.465-6.286l-2.013-2.967l0,0.002c0.125,2.015-1.127,1.835-3.072-0.005l3.676-0.188l0.004,0.017 c1.457,5.471,7.377,8.43,12.627,6.311l0.013-0.005c1.453,5.476,7.377,8.439,12.63,6.317l0.002-0.001l0.757,2.524 c1.413,4.712,6.215,7.543,11.022,6.498l2.575-0.56l0.401,2.605c0.749,4.862,5.114,8.329,10.019,7.958l2.628-0.199l0.037,2.635 c0.07,4.919,3.915,8.956,8.825,9.265l2.63,0.166l-0.326,2.614c-0.609,4.882,2.642,9.411,7.463,10.394l2.581,0.527 l-0.683,2.544c-1.276,4.752,1.32,9.685,5.96,11.323l2.484,0.877l-1.028,2.427c-1.919,4.53-0.028,9.773,4.341,12.036 l2.34,1.212l-1.354,2.262c-2.526,4.221-1.377,9.675,2.636,12.52l2.151,1.525l-1.652,2.053c-1.659,2.061-2.305,4.62-2,7.071 c-1.747-2.833-3.329-5.887-4.35-8.522L117.607,196.231z"/><path fill="#419B46" d="M85.426,179.806c12.157,17.15,23.309,29.505,31.396,35.194c-24.781-0.04-47.054-15.14-56.26-38.155 l-29.484-73.71L85.426,179.806z"/><path fill="#65BC49" d="M85.426,179.806l-54.348-76.671l-3.253-8.133l4.438-0.227c1.945,1.84,3.198,2.019,3.072,0.005l0-0.002 l2.013,2.967c3.757,5.538,7.009,8.277,7.465,6.286l0.244-1.067l1.981,3.118c3.698,5.82,7.299,9.399,8.265,8.216l0.518-0.634 l1.911,3.208c3.569,5.991,7.45,10.342,8.909,9.989l0.781-0.189l1.805,3.237c3.371,6.047,7.458,11.087,9.381,11.569l1.03,0.258 l1.665,3.206c3.109,5.987,7.323,11.618,9.674,12.926l1.259,0.7l1.493,3.114c2.787,5.812,7.048,11.927,9.781,14.037l1.464,1.13 l1.293,2.962c2.412,5.526,6.638,12.008,9.701,14.88l1.642,1.54l1.066,2.75c1.021,2.635,2.603,5.689,4.35,8.522 c0.262,2.108,1.226,4.135,2.883,5.694l1.919,1.805h-4l4,0h-10.904c-0.033,0-0.066-0.002-0.099-0.002 C108.735,209.311,97.583,196.956,85.426,179.806z"/><g><path fill="#1C2D6B" d="M127.824,218.002c-0.003,0-0.006,0-0.009,0h-10.895c-26.199,0-49.414-15.718-59.144-40.042 L25.04,96.116c-0.36-0.899-0.264-1.917,0.259-2.732s1.406-1.329,2.373-1.378l8.113-0.416c1.433-0.071,2.753,0.907,3.078,2.328 c0.458,1.717,1.643,3.169,3.312,4.004c1.668,0.833,3.542,0.909,5.271,0.21c0.799-0.322,1.702-0.289,2.472,0.096 c0.77,0.385,1.343,1.079,1.563,1.911c0.479,1.805,1.662,3.259,3.332,4.094c1.646,0.823,3.566,0.9,5.271,0.213 c0.742-0.303,1.58-0.295,2.32,0.025c0.813,0.352,1.43,1.043,1.685,1.892l0.757,2.524c0.957,3.19,4.253,5.136,7.511,4.428 l2.575-0.56c0.806-0.176,1.653-0.01,2.336,0.459c0.683,0.468,1.141,1.198,1.267,2.016l0.401,2.604 c0.507,3.292,3.505,5.663,6.828,5.423l2.628-0.199c0.832-0.065,1.64,0.218,2.25,0.777c0.611,0.558,0.964,1.344,0.977,2.171 l0.038,2.635c0.047,3.332,2.688,6.105,6.013,6.314l2.631,0.166c0.825,0.052,1.593,0.443,2.121,1.081 c0.527,0.637,0.769,1.464,0.666,2.285l-0.326,2.614c-0.412,3.306,1.821,6.417,5.086,7.083l2.581,0.527 c0.812,0.166,1.518,0.659,1.952,1.362c0.436,0.704,0.561,1.557,0.346,2.355l-0.684,2.544c-0.863,3.217,0.92,6.607,4.062,7.717 l2.484,0.876c0.78,0.276,1.412,0.861,1.746,1.619s0.34,1.619,0.018,2.381l-1.028,2.427c-1.3,3.067,0,6.669,2.958,8.202 l2.34,1.212c0.735,0.38,1.28,1.048,1.507,1.844c0.227,0.796,0.113,1.65-0.312,2.361l-1.354,2.263 c-1.71,2.857-0.921,6.605,1.797,8.531l2.151,1.525c0.676,0.479,1.123,1.215,1.237,2.035c0.113,0.819-0.116,1.65-0.635,2.294 l-1.652,2.052c-2.089,2.595-1.825,6.417,0.602,8.699l1.909,1.796c0.021,0.019,0.041,0.039,0.062,0.059 c0.281,0.277,0.496,0.597,0.645,0.94c0.154,0.354,0.242,0.743,0.248,1.152c0.001,0.061,0,0.122-0.003,0.183 c-0.001,0.001-0.001,0.001,0,0.003c-0.016,0.333-0.086,0.653-0.202,0.95c-0.126,0.321-0.309,0.625-0.55,0.897 c0,0,0,0.001-0.003,0.002c0,0-0.001,0.001-0.001,0.002c0.002,0-0.002,0.003-0.004,0.004l0,0 c-0.016,0.018-0.032,0.036-0.049,0.053c0,0,0,0,0,0c-0.001,0-0.004,0.002-0.003,0.003c-0.002,0-0.003,0.001-0.002,0.001 c-0.285,0.303-0.619,0.533-0.978,0.69c-0.354,0.156-0.744,0.245-1.154,0.252c-0.001,0-0.002,0-0.003,0 C127.873,217.997,127.842,218.001,127.824,218.002z M32.169,97.783l31.179,77.948c8.813,22.034,29.842,36.271,53.573,36.271 h4.396c-2.082-4.096-1.787-9.178,1.038-13.022c-4.764-3.699-6.177-10.408-3.31-15.715c-5.229-3.007-7.555-9.456-5.448-15.108 c-5.594-2.257-8.786-8.323-7.479-14.212c-5.852-1.465-9.85-7.033-9.366-13.045c-5.997-0.644-10.725-5.607-11.076-11.629 c-5.99,0.193-11.396-4.072-12.576-9.987c-6.055,1.038-12.059-2.584-13.936-8.46c-2.392,0.285-4.839-0.126-7.034-1.223 c-2.277-1.139-4.127-2.94-5.331-5.132c-2.489,0.357-5.033-0.043-7.307-1.179c-2.436-1.217-4.385-3.193-5.575-5.595 L32.169,97.783z"/></g></g></g></svg>