<svg xmlns="http://www.w3.org/2000/svg"  viewBox="0 0 100 100" width="100px" height="100px"><path d="M48.1,97.2c-4.1,0-8.2-1.5-11.3-4.1C30.9,93,26,90.7,23.2,86.7c-2.1-2.8-3.3-6-3.5-9.4	c-1.7-1.2-3.2-2.6-4.4-4.3l-0.1-0.1c-2.5-3.8-3.4-9-2.5-13.7C9.4,54.5,7.1,47.5,9.6,40c2.2-6.8,7.2-10.5,11.2-12.4	c0.8-3.5,2.5-6.6,5.1-9.2c3.6-3.8,7.9-5.2,11.2-5.7c3-2.4,7.5-3.9,11.8-3.9c1.3,0,2.5,0.1,3.7,0.4c3.8-2.1,7.7-2.5,9.8-2.5	c1.4,0,2.8,0.1,4,0.4l0.2,0c7.8,2.1,13.3,6.9,15.3,13.2c4.1,1.1,7.6,3.5,10,6.9c3.6,4.8,4.3,11.9,2,18.2c0.2,0.7,0.4,1.4,0.6,2.1	c0.8,3.4,0.9,8.1-0.7,12.1c1.5,3.2,2,7,1.3,10.5c0,0.2-0.1,0.3-0.1,0.5c-0.9,3.4-2.7,6.3-5.2,8.5c-0.6,5.2-3.7,10.2-7.8,12.7	c-3.4,2-7,2.4-9.4,2.4c-1.3,0-2.6-0.1-3.8-0.3c-2.2,0.9-4.7,1.4-7.1,1.4c-1.7,0-3.2-0.2-4.4-0.5c-2,1.1-4.3,1.8-6.7,2.1	C49.5,97.2,48.6,97.2,48.1,97.2z" opacity=".35"/><path fill="#f2f2f2" d="M46.1,95.2c-4.1,0-8.2-1.5-11.3-4.1C28.9,91,24,88.7,21.2,84.7c-2.1-2.8-3.3-6-3.5-9.4	c-1.7-1.2-3.2-2.6-4.4-4.3l-0.1-0.1c-2.5-3.8-3.4-9-2.5-13.7C7.4,52.5,5.1,45.5,7.6,38c2.2-6.8,7.2-10.5,11.2-12.4	c0.8-3.5,2.5-6.6,5.1-9.2c3.6-3.8,7.9-5.2,11.2-5.7c3-2.4,7.5-3.9,11.8-3.9c1.3,0,2.5,0.1,3.7,0.4c3.8-2.1,7.7-2.5,9.8-2.5	c1.4,0,2.8,0.1,4,0.4l0.2,0c7.8,2.1,13.3,6.9,15.3,13.2c4.1,1.1,7.6,3.5,10,6.9c3.6,4.8,4.3,11.9,2,18.2c0.2,0.7,0.4,1.4,0.6,2.1	c0.8,3.4,0.9,8.1-0.7,12.1c1.5,3.2,2,7,1.3,10.5c0,0.2-0.1,0.3-0.1,0.5c-0.9,3.4-2.7,6.3-5.2,8.5c-0.6,5.2-3.7,10.2-7.8,12.7	c-3.4,2-7,2.4-9.4,2.4c-1.3,0-2.6-0.1-3.8-0.3c-2.2,0.9-4.7,1.4-7.1,1.4c-1.7,0-3.2-0.2-4.4-0.5c-2,1.1-4.3,1.8-6.7,2.1	C47.5,95.2,46.6,95.2,46.1,95.2z"/><path fill="#739f4d" d="M85.9,65.9c0,4.6-2.6,4.4-4.5,8.4c-1.4,3-1.4,6.3-3.9,8.3c-4,3.1-9.7,4-15,4c-13.1,0-23.6-11.1-23.6-24.8	S49.5,37,62.5,37S85.9,52.2,85.9,65.9z"/><path fill="#739f4d" d="M46.1,88.7c-3.7,0-7-1.9-8.7-4.3c-3.9,0.6-8.7-0.4-10.9-3.5c-3.5-4.7-2.3-9.7-1.6-11.8c0-0.2,0.2-0.4,0.2-0.4	l5.4-8.1c0.4-0.8,1.4-1,2.1-0.8l23.8,9.3c1,0.2,1.4,1.2,1.4,2.1l-2.3,12.6c0,0.4-0.2,0.6-0.4,0.8c-0.2,0.2-2.7,3.5-7.9,3.9	C46.9,88.7,46.5,88.7,46.1,88.7z"/><path fill="#40396e" d="M50.9,82.9L50.9,82.9c-1-1.2-1.7-2.5-2.1-3.9l0,0l0,0c-0.2-0.4-0.2-0.8-0.4-1.2c-0.2-0.4-0.4-1.4-0.8-2.9	c-1.4-0.2-2.7-0.6-4.1-1.2l0,0c-0.4-0.2-0.6-0.2-1-0.4c-0.4-0.2-0.8-0.4-1.2-0.6c-0.4-0.2-0.6-0.2-1-0.4l0,0	c-1.4-0.6-2.5-1.4-3.7-2.1l0,0l0,0l0,0l0,0l0,0c-1.2,0.8-2.5,1.4-3.9,1.6c0,0-0.2,0-0.4,0l0,0l0,0l0,0l0,0c-0.6,0.2-1.9,0.4-3.5,0.4	c-1.4,0-3.1-0.2-4.7-0.8c3.5,4.3,7.6,4.5,9.3,4.1c1-0.2,1.9-0.4,2.9-1c2.3,1.6,5,2.7,7.9,3.5c0.2,0.4,0.2,0.6,0.2,1	c1.2,3.7,5.2,7,9.5,6.6C52.9,85,51.9,84.1,50.9,82.9z" opacity=".35"/><path fill="#96c362" d="M29,72c-3.1,0-7.6-0.8-10.5-4.8c-1.9-2.9-2.3-8.1-0.6-11.6c-3.3-2.9-6.4-9.1-4.3-15.5c1.9-6,7.4-8.7,11.1-9.7	c0-2.9,0.8-6.4,3.7-9.3c5-5.2,11.6-3.9,12-3.9c1,0.2,1.6,1.2,1.4,2.1l0.8,45.6c-0.2,0.8-5,6.2-9.7,7C32.9,71.7,31.2,72,29,72z"/><path fill="#40396e" d="M74.8,60.4L74.8,60.4c1.6-3.3,2.3-6.8,2.3-10.5c0-14-11.2-25.2-25.2-25.2c-5.6,0-10.7,1.7-14.7,4.8l0,0	c-1-1.2-1.6-3.1-1.7-4.5v-0.2c0-0.2,0-0.6,0-0.8c0-0.6,0-1.2,0.2-1.7v-0.2c0.2-0.6,0.2-1.2,0.4-1.6c0,0,0-0.2,0.2-0.2	c0.2-0.6,0.4-1,0.8-1.6c0,0,0,0,0-0.2c0.4-0.6,0.8-1,1.2-1.6l0,0c-2.1,1-6.2,3.5-6.8,7.2c0,1.9,0.2,3.5,0.6,4.7	c-5.6,5-9.1,12.6-9.1,20.9c0,8.7,3.9,16.5,9.9,21.7c0.2,0,0.4,0,0.4,0c1.4-0.2,2.5-0.8,3.9-1.6l0,0c3.1,2.3,6.8,3.9,10.9,4.7	C48.2,76.3,77.1,60.8,74.8,60.4z" opacity=".35"/><path fill="#40396e" d="M74.8,60.4c-3.1,6.8-9.3,12-16.7,14h-0.2c-1,0.2-1.7,0.4-2.7,0.6H55c-1.2,0.2-2.1,0.2-3.1,0.2l0,0l0,0	c-0.8,0-1.6,0-2.3-0.2c-0.4,0-1-0.2-1.4-0.2c-0.2,0-0.4,0-0.8,0c0.4,1.6,0.8,2.7,0.8,2.9c0.2,0.4,0.2,0.8,0.4,1.2	c1.2,0.2,2.1,0.2,3.3,0.2c10.7,0,20-5.8,25-14.3c2.7-0.2,6.2-2.7,7.2-6.8c-0.4,0.4-0.8,0.6-1.2,1C80.2,60.6,76.9,60.6,74.8,60.4z" opacity=".35"/><path fill="#96c362" d="M71.3,57.7c-1.9-0.8-6.8,0.2-8.9,4.7c-3.1-2.7-7.9-1-9.9,1.7c-0.8-2.5-2.9-10.9-12.2-8.5l-13.2-1.2	c2.1,11.8,12.4,20.7,24.8,20.7c11.4,0,20.9-7.6,24-18L71.3,57.7z"/><path fill="#40396e" d="M44.4,55.4c-0.4,1.7-1,3.3-2.1,4.3c-1.9,1.6-4.8,2.1-5.4,1.9c-1,1.2-2.3,2.1-3.7,2.5c-0.6,0.2-1.2,0.2-1.9,0.2	l0,0c-1-1.4-1.7-2.7-2.3-4.3c0.8,0.2,1.6,0.4,2.3,0.4c0.4,0,0.6,0,0.8-0.2c1.4-0.4,2.5-1.9,3.1-3.5c1,0.6,2.1,1.2,3.7,1.2	c0.8,0,1.6-0.2,2.5-0.6c0.8-0.4,1.6-1.2,2.1-2.1C43.6,55.4,44,55.4,44.4,55.4z M69.4,57.5c-0.6,0-1.2,0.2-1.7,0.4	c0.8,2.7,2.9,5.2,5.2,6c0.8-1.2,1.4-2.3,1.9-3.5C72.7,60,70.7,59.1,69.4,57.5z" opacity=".35"/><path fill="#96c362" d="M84.7,43.7c2.7-4.7,2.9-10.7,0-14.5c-2.3-3.3-6.2-5-10.5-4.8c0.2-5-2.7-10.5-11.2-12.8c-3.3-0.8-8.1,0-11.4,2.9	c-3.7-2.1-9.7-1-12.6,1.6c-2.5,2.3-3.9,5-3.7,8.1c0,1.4,0.6,4.1,1.7,5.4c-6.2,4.5-10.3,12-10.3,20.4c0,3.7,0.8,7,2.1,10.1	c1,0.4,2.3,0.6,3.3,0.4c1.4-0.4,2.5-1.9,3.1-3.5c1.4,0.8,3.5,1.7,6.2,0.6c1.7-0.8,3.3-3.7,2.9-5.4c4.3,3.3,12.8-1.6,9.7-9.7l3.9-9.7	L55,25.1c-0.4,0-0.8,0-1.2-0.2c13,1,23.3,11.8,23.3,25.2c0,3.7-0.8,7.4-2.3,10.5c2.7,0.2,7.4,0.2,10.3-3.9c1.6-2.1,1.9-6.4,1.2-9.5	C85.8,45.7,85.5,44.5,84.7,43.7z"/><path fill="#40396e" d="M51.9,20.9c-6,0-11.6,1.9-16.3,5c0.2,1.4,0.8,2.7,1.6,3.7c1.4-1,2.7-1.7,4.3-2.5c-0.6,2.9-0.2,5.8,1.2,8.3	c1.4,2.3,3.5,4.1,6,5c0,1-0.4,3.9,2.3,6.4c1,0.8,1.9,1.4,3.1,1.7c0.2-0.6,0.6-1.4,0.6-2.1c-0.2-0.2-0.6-0.6-0.8-0.8	c-1.7-2.3-1.7-5.6-0.6-8.3c-0.2,0-0.2,0-0.4,0c-5.8,0-10.3-5.8-6.8-12h-0.2c1.9-0.4,3.9-0.8,6-0.8c14,0,25.2,11.2,25.2,25.2	c0,3.7-0.8,7.4-2.3,10.5l0,0c1.2,0.2,2.7,0.2,4.3-0.2c1.2-3.3,1.9-6.8,1.9-10.5C81,33.9,67.8,20.9,51.9,20.9z" opacity=".35"/><path fill="#96c362" d="M77.1,49.9c0-14-11.2-25.2-25.2-25.2c-1.9,0-3.9,0.2-5.8,0.8c-3.5,6.2,1.2,12.2,7.2,12c-1.2,2.7-1.2,6,0.6,8.3	c1.7,2.3,5,2.5,7.9,2.3c-0.4,1.6-0.2,4.3,1,5.2c1.2,1,3.7,1,4.8,0.6c1,3.9,4.1,6,7.2,6.6C76.2,57.3,77.1,53.6,77.1,49.9z"/><path fill="none" stroke="#40396e" stroke-linecap="round" stroke-linejoin="round" stroke-miterlimit="10" stroke-width="3" d="M84.2,57.8c0.3-0.3,0.6-0.7,0.9-1.1c1.6-2.1,1.9-6.4,1.2-9.5c-0.4-1.6-0.8-2.7-1.6-3.5	c2.7-4.7,2.9-10.7,0-14.5c-2.3-3.3-6.2-5-10.5-4.8c0.2-5-2.7-10.5-11.2-12.8c-3.3-0.8-8.1,0-11.4,2.9c-3.7-2.1-9.7-1-12.6,1.6	c-0.4,0.3-0.7,0.7-1,1c-2.5,0-6.3,0.7-9.5,4c-2.9,2.9-3.7,6.4-3.7,9.3c-3.7,1-9.1,3.7-11.1,9.7c-2.1,6.4,1,12.6,4.3,15.5	c-1.7,3.5-1.4,8.7,0.6,11.6c1.6,2.3,3.7,3.5,5.8,4.2c-0.5,2.5-0.4,6.2,2.1,9.6c2.1,3.1,7,4.1,10.9,3.5c1.7,2.3,5,4.3,8.7,4.3	c0.4,0,0.8,0,1.2-0.2c3.7-0.3,6-2,7.1-3c0.6,0.4,1.3,0.7,2,0.9c1,0.2,2.1,0.4,3.3,0.4c2.1,0,4.7-0.6,6.4-1.7c2.7,1,7.4,1.2,10.7-0.8	c3.3-1.9,5.2-6.8,4.7-10.5c2.9-1.6,4.7-3.9,5.4-6.8C87.4,63.9,86.4,60.1,84.2,57.8z"/></svg>