<svg xmlns="http://www.w3.org/2000/svg"  viewBox="0 0 100 100" width="100px" height="100px"><g id="Слой_2"><path d="M76.927,41.532c-1.471-1.516-2.281-3.445-2.281-5.432c0-6.764-3.191-12.927-8.235-16.828 c1.128-0.56,2.069-1.438,2.715-2.552c0.87-1.5,1.103-3.248,0.655-4.922c-0.758-2.832-3.341-4.811-6.281-4.811 c-0.559,0-1.117,0.072-1.658,0.214c-1.947,0.518-3.725,1.243-5.325,2.17C52.341,4.578,46.578,2,39.815,2 c-3.506,0-7.304,0.714-11.287,2.122c-3.488,1.233-5.662,4.659-5.287,8.332c0.003,0.034,0.013,0.12,0.022,0.19 c0.006,0.054,0.013,0.107,0.02,0.161C24.45,22.905,28.417,25.986,33,29c-0.298,1.403,0,5.278,0,6.739V36.1 c0,1.987-0.81,3.916-2.281,5.432c-7.136,7.351-11.396,17.618-11.396,27.463c0,8.858,3.525,16.845,9.925,22.489 C35.474,96.976,44.201,100,53.823,100s18.349-3.024,24.575-8.515c6.4-5.644,9.925-13.631,9.925-22.489 C88.323,59.15,84.062,48.884,76.927,41.532z" opacity=".35"/><path fill="#f2f2f2" d="M74.927,39.63c-1.471-1.519-2.281-3.453-2.281-5.445c0-6.781-3.191-12.959-8.235-16.87 c1.128-0.562,2.069-1.441,2.715-2.558c0.87-1.503,1.103-3.256,0.655-4.934c-0.758-2.839-3.341-4.823-6.281-4.823 c-0.559,0-1.117,0.072-1.658,0.215c-1.947,0.519-3.725,1.246-5.325,2.176C50.341,2.585,44.578,0,37.815,0 c-3.506,0-7.304,0.716-11.287,2.127c-3.488,1.236-5.662,4.67-5.287,8.352c0.003,0.034,0.013,0.12,0.022,0.191 c0.006,0.054,0.013,0.108,0.02,0.161c1.168,10.125,5.583,15.659,10.165,18.681C31.15,30.918,31,32.358,31,33.823v0.362 c0,1.992-0.81,3.926-2.281,5.445c-7.136,7.369-11.396,17.661-11.396,27.531c0,8.88,3.525,16.886,9.925,22.545 c6.226,5.505,14.954,8.536,24.575,8.536s18.349-3.031,24.575-8.536c6.4-5.658,9.925-13.665,9.925-22.545 C86.323,57.291,82.062,46.999,74.927,39.63z"/><path fill="#40396e" d="M37.815,5c-2.936,0-6.171,0.619-9.617,1.84c-1.304,0.462-2.123,1.756-1.983,3.132 c0.003,0.028,0.011,0.1,0.015,0.128c0.004,0.036,0.008,0.073,0.014,0.109c1.211,10.627,6.505,15.032,11.298,16.814 C36.534,29.129,36,31.445,36,33.823v0.362c0,3.297-1.31,6.466-3.689,8.924c-6.254,6.459-9.988,15.451-9.988,24.053 c0,15.356,12.131,26.081,29.5,26.081s29.5-10.725,29.5-26.081c0-8.602-3.734-17.594-9.988-24.053 c-2.379-2.457-3.689-5.626-3.689-8.924c0-7.797-5.425-14.382-12.697-15.865C52.177,9.823,46.022,5,37.815,5L37.815,5z"/><path fill="#40396e" d="M52.499,36c-0.637,0-1.228-0.409-1.43-1.048c-0.135-0.427-3.253-10.538,0.856-18.022 c1.891-3.443,4.982-5.758,9.188-6.879c0.803-0.211,1.623,0.262,1.836,1.062c0.214,0.801-0.263,1.623-1.062,1.836 c-3.38,0.901-5.844,2.723-7.326,5.415c-3.494,6.35-0.659,15.593-0.63,15.686c0.248,0.79-0.19,1.632-0.98,1.88 C52.8,35.978,52.648,36,52.499,36z"/><path fill="#739f4d" d="M53.099,23.667c0,0-2.044-21.743-23.899-14C31.609,32.039,53.099,23.667,53.099,23.667z"/><path fill="#96c362" d="M53.099,23.667c0,0-2.044-21.743-23.899-14c0.003,0.029,0.007,0.056,0.01,0.084L53.099,23.667 C53.613,23.499,53.099,23.667,53.099,23.667z"/><path fill="#f9b84f" d="M69.179,45.195c-2.869-2.963-4.534-6.885-4.534-11.01c0-6.904-5.306-12.845-12.203-13.17 C45.079,20.668,39,26.535,39,33.823v0.362c0,4.125-1.665,8.047-4.534,11.01c-5.6,5.784-9.143,13.97-9.143,21.966 c0,14.636,11.864,23.081,26.5,23.081s26.5-8.445,26.5-23.081C78.323,59.165,74.78,50.979,69.179,45.195z"/><circle cx="33" cy="68" r="2" fill="#ef8630"/><circle cx="37.5" cy="75.5" r="3.5" fill="#ef8630"/><circle cx="40" cy="68" r="2" fill="#ef8630"/></g></svg>