<svg xmlns="http://www.w3.org/2000/svg"  viewBox="0 0 100 100" width="100px" height="100px"><path d="M87.8,94.2c-9.7,0-26.4-1.6-36.1-11.2c-7,3.7-16.8,5.5-29.8,5.5c-3.6,0-6.5-2.9-6.5-6.5c0-13,1.8-22.8,5.5-29.8 C11.3,42.6,9.8,26,9.8,16.2c0-3.6,2.9-6.5,6.5-6.5c9.7,0,26.4,1.6,36.1,11.2c7-3.7,16.8-5.5,29.8-5.5c3.6,0,6.5,2.9,6.5,6.5 c0,13-1.8,22.8-5.5,29.8c9.6,9.7,11.2,26.4,11.2,36.1C94.2,91.3,91.3,94.2,87.8,94.2z" opacity=".35"/><path fill="#f2f2f2" d="M85.8,92.2c-9.7,0-26.4-1.6-36.1-11.2c-7,3.7-16.8,5.5-29.8,5.5c-3.6,0-6.5-2.9-6.5-6.5 c0-13,1.8-22.8,5.5-29.8C9.3,40.6,7.8,24,7.8,14.2c0-3.6,2.9-6.5,6.5-6.5c9.7,0,26.4,1.6,36.1,11.2c7-3.7,16.8-5.5,29.8-5.5 c3.6,0,6.5,2.9,6.5,6.5c0,13-1.8,22.8-5.5,29.8c9.6,9.7,11.2,26.4,11.2,36.1C92.2,89.3,89.3,92.2,85.8,92.2z"/><path fill="#739f4d" d="M14.3,14.3c0,18.4,5.9,38,23.8,36.7L50,50l1-11.9C52.3,20.1,32.6,14.3,14.3,14.3z"/><path fill="#739f4d" d="M85.8,85.8c-18.4,0-38-5.9-36.7-23.8L50,50l11.9-1C79.9,47.7,85.8,67.4,85.8,85.8z"/><ellipse cx="50.4" cy="51" fill="#739f4d" rx="11.2" ry="8.7"/><path fill="#96c362" d="M78.6,21.4c0,29.4-10.8,33.6-19.1,31.9c-0.2,0-0.3-0.1-0.5-0.1c0,0,0,0-0.1,0c-2.3-0.8-5.4-4.5-3.2-8.9	c-4.4,2.2-8.1-0.9-8.9-3.2c0,0,0,0,0-0.1c0-0.2-0.1-0.3-0.1-0.5C45,32.2,49.3,21.4,78.6,21.4z"/><path fill="#96c362" d="M21.4,78.6c0-29.4,10.8-33.6,19.1-31.9c0.2,0,0.3,0.1,0.5,0.1c0,0,0,0,0.1,0c2.3,0.8,5.4,4.5,3.2,8.9	c4.4-2.2,8.1,0.9,8.9,3.2c0,0,0,0,0,0.1c0,0.2,0.1,0.3,0.1,0.5C55,67.8,50.7,78.6,21.4,78.6z"/><path fill="none" stroke="#40396e" stroke-linecap="round" stroke-linejoin="round" stroke-miterlimit="10" stroke-width="3" d="M85.8,85.8c0-14.3-3.6-29.3-13.6-34.7c4.5-4.6,7.9-13.9,7.9-31.1c-17.2,0-26.5,3.4-31.1,7.9	c-5.4-10-20.4-13.6-34.7-13.6c0,14.3,3.6,29.3,13.6,34.7c-4.5,4.6-7.9,13.9-7.9,31.1c17.2,0,26.5-3.4,31.1-7.9	C56.4,82.2,71.5,85.8,85.8,85.8z"/><path fill="#40396e" d="M80.1,80.1c0,0-1.2-2.2-9.7-11.5c2.4-0.5,4.8-0.9,9.7,0.2c-4.6-3.9-8.3-4.1-13.3-4.2c-1.2-1.3-2.5-2.7-3.9-4.2	c4.8-0.2,7.9-0.9,13.5,0.8c-3.5-3.5-12.5-4.4-17.2-4.8c-1.4-1.5-2.9-3.1-4.5-4.7c-0.3-0.5-0.6-1-0.8-1.6c4.5,0.4,11.6,0.4,13.1-4	c-4.2,2.8-7.4,0.8-9.2-0.9c1.3-1.3,2.4-2.7,3.5-3.9c2.6,0.2,6.7,0.1,9.5-2.7c-3.8,1.3-5.8,0.3-6.8-0.6c3.2-4.2,5-7.1,5-7.1	s-2.9,1.7-7.1,5c-0.9-1-1.9-2.9-0.6-6.8c-2.8,2.8-2.9,6.9-2.7,9.4c-1.2,1.1-2.6,2.2-3.9,3.5c-1.7-1.8-3.7-5-0.9-9.2	c-4.4,1.5-4.4,8.6-4,13.1c-0.6-0.2-1.1-0.5-1.6-0.8c-1.7-1.6-3.2-3.1-4.7-4.5c-0.3-4.7-1.2-13.7-4.8-17.2c1.7,5.6,1,8.6,0.8,13.5	c-1.5-1.4-2.9-2.7-4.2-3.9c-0.1-5-0.3-8.7-4.2-13.3c1.1,4.9,0.7,7.3,0.2,9.7c-9.3-8.5-11.5-9.7-11.5-9.7s1.2,2.2,9.7,11.5	c-2.4,0.5-4.8,0.9-9.7-0.2c4.6,3.9,8.3,4.1,13.3,4.2c1.2,1.3,2.5,2.7,3.9,4.2c-4.8,0.2-7.9,0.9-13.5-0.8c3.5,3.5,12.5,4.4,17.2,4.8	c1.4,1.5,2.9,3.1,4.5,4.7c0.3,0.5,0.6,1,0.8,1.6c-4.5-0.4-11.6-0.4-13.1,4c4.2-2.8,7.4-0.8,9.2,0.9c-1.3,1.3-2.4,2.7-3.5,3.9	c-2.6-0.2-6.7,0-9.4,2.7c3.8-1.3,5.8-0.3,6.8,0.6c-3.2,4.2-5,7.1-5,7.1s2.9-1.7,7.1-5c0.9,1,1.9,2.9,0.6,6.8	c2.8-2.8,2.9-6.9,2.7-9.4c1.2-1.1,2.6-2.2,3.9-3.5c1.7,1.8,3.7,5,0.9,9.2c4.4-1.5,4.4-8.6,4-13.1c0.6,0.2,1.1,0.5,1.6,0.8	c1.7,1.6,3.2,3.1,4.7,4.5c0.3,4.7,1.2,13.7,4.8,17.2c-1.7-5.6-1-8.6-0.8-13.5c1.5,1.4,2.9,2.7,4.2,3.9c0.1,5,0.3,8.7,4.2,13.3	c-1.1-4.9-0.7-7.3-0.2-9.7C77.9,78.9,80.1,80.1,80.1,80.1z" opacity=".35"/></svg>