<svg xmlns="http://www.w3.org/2000/svg"  viewBox="0 0 80 80" width="80px" height="80px"><path fill="#c2e8ff" d="M29.61,77.5c-1.642,0-3.045-1.116-3.411-2.714C24.393,66.894,18.5,40.627,18.5,34 c0-7.576,7.542-9.496,7.618-9.514l0.382-0.093V22.5h27v1.893l0.383,0.093C54.194,24.562,61.5,26.419,61.5,34 c0,6.656-5.893,32.901-7.699,40.787c-0.366,1.598-1.768,2.713-3.41,2.713H29.61z"/><path fill="#7496c4" d="M53,23v1l0.002,0.785l0.762,0.187C54.06,25.044,61,26.827,61,34c0,6.6-5.883,32.802-7.686,40.675 C53,76.044,51.798,77,50.39,77H29.61c-1.408,0-2.61-0.956-2.923-2.325C24.884,66.796,19,40.58,19,34 c0-7.152,6.943-8.956,7.236-9.028L27,24.786V24v-1H53 M54,22H26v2c0,0-8,1.943-8,10c0,6.611,5.676,32.001,7.712,40.898 C26.128,76.717,27.744,78,29.61,78h20.78c1.866,0,3.481-1.283,3.898-3.102C56.325,66.005,62,40.631,62,34c0-8.081-8-10-8-10V22 L54,22z"/><path fill="#dcd5f2" d="M36.5 23.5L36.5 2.809 43.5 6.309 43.5 23.5z"/><path fill="#8b75a1" d="M37,3.618l6,3V23h-6V3.618 M36,2v22h8V6L36,2L36,2z"/><path fill="#b8bcd4" d="M36.5 24.5H43.5V41.5H36.5z"/><path fill="#8183a1" d="M43,25v16h-6V25H43 M44,24h-8v18h8V24L44,24z"/><g><path fill="#dcd5f2" d="M26.5,24.5V22c0-3.033,2.467-5.5,5.5-5.5h16c3.033,0,5.5,2.467,5.5,5.5v2.5H26.5z"/><path fill="#8b75a1" d="M48,17c2.757,0,5,2.243,5,5v2H27v-2c0-2.757,2.243-5,5-5H48 M48,16H32c-3.314,0-6,2.686-6,6v3h28 v-3C54,18.686,51.314,16,48,16L48,16z"/></g><path fill="#fff" d="M19.343,37.986c1.278,9.809,5.802,29.951,7.344,36.689C27,76.044,28.202,77,29.61,77h20.78	c1.408,0,2.61-0.956,2.923-2.325c1.543-6.735,6.068-26.874,7.345-36.689c0,0-5.833,0.014-8.658,0.014s-12.854-2-17-2	c-4.666,0-8.099,2-12.579,2C21.088,38,19.343,37.986,19.343,37.986z"/></svg>