<svg fill="#000000" xmlns="http://www.w3.org/2000/svg"  viewBox="0 0 48 48" width="128px" height="128px"><path d="M 22 0 A 1 1 0 0 0 21 1 L 21 3 L 23 3 L 23 2 L 25 2 L 25 8.1191406 A 4.4 4.4 0 0 0 24.525391 8.0332031 A 4.4 4.4 0 0 0 24.509766 8.03125 C 24.505921 8.0307801 24.501894 8.0317094 24.498047 8.03125 A 4.4 4.4 0 0 0 24.025391 8.0019531 A 4.4 4.4 0 0 0 24 8 C 23.997369 8 23.994817 7.9999951 23.992188 8 A 4.4 4.4 0 0 0 23 8.1152344 L 23 5 L 22.089844 5 A 6.75 6.75 0 0 0 22.042969 4.9472656 C 20.621969 3.5282656 17.339141 2.7262656 15.994141 2.4472656 C 12.994141 1.8262656 11.144141 1.8422344 10.494141 2.4902344 C 9.5211745 3.4676774 10.177821 7.8738223 11.304688 11.015625 A 4.2 4.2 0 0 0 11 11 C 8.243 11 6 13.691 6 17 C 6 17.072 5.9997656 17.144844 6.0097656 17.214844 A 6 6 0 0 0 4.4003906 19.666016 A 6.939 6.939 0 0 0 4 22 A 6.628 6.628 0 0 0 5.2460938 25.945312 A 8.667 8.667 0 0 0 5.0722656 26.871094 L 7.0566406 27.128906 A 6.685 6.685 0 0 1 7.3007812 26.011719 A 1 1 0 0 0 7.0917969 25.048828 A 4.6 4.6 0 0 1 6 22 A 4.952 4.952 0 0 1 6.2792969 20.335938 A 3.83 3.83 0 0 1 7.6289062 18.476562 A 1 1 0 0 0 8.046875 17.550781 L 8.0332031 17.431641 A 3.815 3.815 0 0 1 8 17 C 8 16.72425 8.0205117 16.455488 8.0605469 16.195312 C 8.340793 14.374082 9.55275 13 11 13 C 11.184713 13 11.363478 13.031395 11.539062 13.074219 A 2.407 2.407 0 0 1 11.648438 13.099609 C 11.798044 13.143844 11.941681 13.206425 12.082031 13.279297 A 2.407 2.407 0 0 1 12.271484 13.390625 C 12.336683 13.431669 12.398402 13.480354 12.460938 13.527344 A 2.407 2.407 0 0 1 12.513672 13.568359 A 1 1 0 0 0 12.546875 13.591797 A 1 1 0 0 0 12.574219 13.609375 C 13.42649 14.315614 14 15.566138 14 17 L 16 17 C 16 15.183207 15.32005 13.556174 14.253906 12.455078 C 14.718423 10.988099 15.793166 10 17 10 A 3 3 0 0 1 19.410156 11.626953 C 19.147548 12.355508 19 13.156926 19 14 A 6.818 6.818 0 0 0 19.310547 16.0625 A 4.457 4.457 0 0 0 16.914062 17.271484 L 18.283203 18.728516 A 2.519 2.519 0 0 1 20 18 C 21.654 18 23 19.794 23 22 A 6.818 6.818 0 0 0 23.943359 25.515625 L 25.65625 24.484375 A 4.809 4.809 0 0 1 25 22 C 25 21.273939 24.887167 20.580201 24.689453 19.935547 C 26.045488 19.70936 27.218283 18.823061 28 17.5625 L 28 18 C 29.654 18 31 19.794 31 22 C 31 24.206 29.654 26 28 26 A 2.519 2.519 0 0 1 26.283203 25.271484 L 24.914062 26.728516 A 4.518 4.518 0 0 0 28 28 C 30.757 28 33 25.309 33 22 C 33 18.972718 31.120196 16.469903 28.689453 16.064453 C 28.887167 15.419799 29 14.726061 29 14 C 29 13.155971 28.851061 12.354212 28.587891 11.625 A 3 3 0 0 1 31 10 C 32.206217 10 33.279033 10.987389 33.746094 12.453125 C 32.679375 13.554233 32 15.182641 32 17 L 34 17 C 34 15.58325 34.55916 14.343625 35.394531 13.632812 A 1 1 0 0 0 35.488281 13.566406 A 2.407 2.407 0 0 1 35.525391 13.539062 C 35.586141 13.492823 35.645686 13.44491 35.708984 13.404297 A 2.407 2.407 0 0 1 35.927734 13.275391 C 36.059944 13.207435 36.195529 13.150065 36.335938 13.107422 A 2.407 2.407 0 0 1 36.462891 13.072266 C 36.637809 13.02978 36.816033 13 37 13 L 37 11 A 4.2 4.2 0 0 0 36.675781 11.013672 C 37.783619 7.9233681 38.534873 3.5241089 37.503906 2.4960938 C 36.856906 1.8470938 35.003906 1.832125 32.003906 2.453125 C 30.922888 2.675263 28.610321 3.2416156 27 4.1875 L 27 1 A 1 1 0 0 0 26 0 L 22 0 z M 28 28 L 28 30 C 29.654 30 31 31.794 31 34 A 5.052 5.052 0 0 1 30.722656 35.671875 L 32.609375 36.332031 A 7.033 7.033 0 0 0 33 34 A 4.521 4.521 0 0 1 34.285156 30.728516 L 32.917969 29.269531 A 6.46 6.46 0 0 0 31.994141 30.427734 C 31.081626 28.962439 29.638184 28 28 28 z M 34.501953 4.0839844 L 30.552734 8.0332031 A 4.582 4.582 0 0 0 27.503906 9.7265625 C 27.488939 9.7088881 27.472182 9.6932305 27.457031 9.6757812 A 4.4 4.4 0 0 0 27 9.1835938 L 27 6.7832031 A 4.711 4.711 0 0 1 27.365234 6.3691406 C 28.520109 5.2111152 32.202862 4.3477341 34.501953 4.0839844 z M 13.5 4.0859375 C 15.798374 4.3508108 19.478524 5.2124904 20.632812 6.3691406 A 4.875 4.875 0 0 1 21 6.7929688 L 21 9.1835938 A 4.4 4.4 0 0 0 20.576172 9.640625 C 20.550205 9.6700126 20.521533 9.6965223 20.496094 9.7265625 A 4.582 4.582 0 0 0 17.445312 8.03125 L 13.5 4.0859375 z M 12.070312 5.484375 L 15.074219 8.4882812 A 4.966 4.966 0 0 0 13.111328 10.189453 C 12.5832 8.6513875 12.219134 6.8360164 12.070312 5.484375 z M 35.929688 5.484375 C 35.781443 6.8364445 35.418759 8.6533543 34.890625 10.191406 A 4.966 4.966 0 0 0 32.927734 8.4863281 L 35.929688 5.484375 z M 24 10 C 24.079607 10 24.154358 10.023093 24.232422 10.03125 A 3 3 0 0 1 25.738281 10.751953 C 26.019556 11.02046 26.265565 11.34939 26.462891 11.728516 A 3 3 0 0 1 26.582031 12.025391 A 1 1 0 0 0 26.628906 12.113281 C 26.858079 12.6781 27 13.313896 27 14 C 27 16.206 25.654 18 24 18 L 24 18.4375 C 23.389692 17.453344 22.545785 16.691282 21.554688 16.300781 A 4.809 4.809 0 0 1 21 14 C 21 13.318527 21.140889 12.687097 21.367188 12.125 A 1 1 0 0 0 21.417969 12.025391 A 3 3 0 0 1 21.548828 11.707031 C 21.741112 11.342843 21.979535 11.026667 22.25 10.765625 A 3 3 0 0 1 23.703125 10.041016 A 3 3 0 0 1 24 10 z M 39.585938 11.857422 L 38.414062 13.478516 A 4.344 4.344 0 0 1 40 17 C 40 17.111129 39.981308 17.215358 39.974609 17.324219 A 3.815 3.815 0 0 1 39.966797 17.431641 L 39.953125 17.550781 A 1 1 0 0 0 39.949219 17.683594 C 39.704189 19.563226 38.478375 21 37 21 L 37 23 C 38.9378 23 40.604006 21.657759 41.433594 19.71875 A 4.3 4.3 0 0 1 42 22 A 4.606 4.606 0 0 1 40.910156 25.048828 A 1 1 0 0 0 40.699219 26.013672 A 6.67 6.67 0 0 1 41 28 C 41 29.23582 40.698486 30.256831 40.285156 30.957031 C 39.413083 29.19516 37.82805 28 36 28 L 36 30 C 37.374521 30 38.523571 31.246888 38.876953 32.931641 A 1 1 0 0 0 38.882812 32.964844 A 5.05 5.05 0 0 1 38.957031 33.417969 C 38.978265 33.609642 39 33.800571 39 34 C 39 36.206 37.654 38 36 38 A 1 1 0 0 0 35 39 C 35 41.2 33.659469 42.992187 31.980469 42.992188 L 31.970703 42.992188 C 31.906703 42.981187 31.844297 42.971844 31.779297 42.964844 A 1.01 1.01 0 0 0 30.732422 43.636719 A 3.111 3.111 0 0 1 28 46 A 2.5 2.5 0 0 1 27.09375 45.802734 C 27.654334 44.771843 28 43.463724 28 42 L 26 42 C 26 43.945875 25.236461 45.462527 24.427734 45.876953 A 1.377 1.377 0 0 1 24.271484 45.941406 A 1.377 1.377 0 0 1 24.269531 45.941406 C 24.179558 45.970849 24.088962 46 24 46 C 23.917462 46 23.83347 45.970716 23.75 45.945312 A 1.376 1.376 0 0 1 23.574219 45.878906 A 1.376 1.376 0 0 1 23.570312 45.876953 C 23.47556 45.828244 23.381398 45.775426 23.289062 45.697266 C 22.593812 45.10875 22 43.71675 22 42 L 20 42 C 20 43.464115 20.347348 44.771725 20.908203 45.802734 A 2.489 2.489 0 0 1 20 46 A 3.111 3.111 0 0 1 17.267578 43.636719 A 1.008 1.008 0 0 0 16.220703 42.964844 A 2.213 2.213 0 0 0 16 43 C 14.567248 43 13.368105 41.651436 13.072266 39.857422 C 15.315029 39.266352 17 36.866771 17 34 A 5.06 5.06 0 0 1 17.275391 32.330078 L 15.388672 31.671875 A 7.036 7.036 0 0 0 15 34 C 15 36.206 13.654 38 12 38 C 10.346 38 9 36.206 9 34 C 9 33.789157 9.0231899 33.586875 9.046875 33.384766 A 5.05 5.05 0 0 1 9.1171875 32.964844 A 1 1 0 0 0 9.125 32.919922 C 9.481295 31.241133 10.62866 30 12 30 L 12 28 C 10.17195 28 8.5869169 29.19516 7.7148438 30.957031 C 7.3015135 30.256831 7 29.23582 7 28 L 5 28 A 6.752 6.752 0 0 0 7.0449219 33.238281 C 7.0183616 33.488284 7 33.741463 7 34 C 7 36.921 8.7485937 39.360578 11.058594 39.892578 C 11.398594 42.646578 13.308203 44.796328 15.658203 44.986328 A 4.905 4.905 0 0 0 20 48 A 4.3 4.3 0 0 0 22.205078 47.384766 A 2.956 2.956 0 0 0 22.78125 47.724609 C 22.802008 47.734258 22.822838 47.742791 22.84375 47.751953 A 2.956 2.956 0 0 0 23.076172 47.839844 C 23.142065 47.862423 23.208198 47.882623 23.275391 47.900391 C 23.510168 47.962471 23.751572 48 24 48 C 24.052242 48 24.102599 47.991117 24.154297 47.988281 C 24.34302 47.977929 24.528497 47.950945 24.708984 47.904297 C 24.718608 47.90181 24.728683 47.901024 24.738281 47.898438 A 2.956 2.956 0 0 0 24.744141 47.896484 C 24.80225 47.88069 24.858884 47.861201 24.916016 47.841797 A 2.956 2.956 0 0 0 25.179688 47.742188 A 2.956 2.956 0 0 0 25.201172 47.734375 C 25.203794 47.733176 25.206364 47.731675 25.208984 47.730469 A 2.956 2.956 0 0 0 25.794922 47.384766 A 4.307 4.307 0 0 0 28 48 A 4.905 4.905 0 0 0 32.345703 44.986328 C 34.691703 44.793328 36.601312 42.646578 36.945312 39.892578 C 39.251312 39.360578 41 36.921 41 34 A 6.208 6.208 0 0 0 40.988281 33.734375 C 40.982145 33.567209 40.972435 33.401657 40.955078 33.238281 A 6.752 6.752 0 0 0 43 28 A 8.7 8.7 0 0 0 42.753906 25.945312 A 6.628 6.628 0 0 0 44 22 A 6.373 6.373 0 0 0 41.994141 17.212891 C 41.998141 17.142891 42 17.072 42 17 A 6.28 6.28 0 0 0 39.585938 11.857422 z M 15.943359 18.482422 A 6.824 6.824 0 0 0 15 22 L 17 22 A 4.82 4.82 0 0 1 17.65625 19.515625 L 15.943359 18.482422 z M 12 22 C 12 24.206 10.654 26 9 26 L 9 28 C 11.757 28 14 25.309 14 22 L 12 22 z M 17.277344 23.669922 L 15.388672 24.330078 A 5.058 5.058 0 0 0 20 28 L 20 26 A 3.106 3.106 0 0 1 17.277344 23.669922 z M 20 28 A 4.454 4.454 0 0 0 16.916016 29.271484 L 18.285156 30.728516 A 2.519 2.519 0 0 1 20 30 C 21.654 30 23 31.794 23 34 C 23 36.206 21.654 38 20 38 L 20 40 C 21.641821 40 23.087883 39.033339 24 37.5625 C 24.912117 39.033339 26.358179 40 28 40 A 4.519 4.519 0 0 0 31.087891 38.726562 L 29.716797 37.269531 A 2.522 2.522 0 0 1 28 38 C 26.346 38 25 36.206 25 34 C 25 30.691 22.757 28 20 28 z"/></svg>