<svg xmlns="http://www.w3.org/2000/svg"  viewBox="0 0 100 100" width="100px" height="100px"><path d="M44,96.2c-10.8,0-14.6-4.8-14.6-9.2V19.8c0-0.1,0-0.2,0-0.3c0.1-8.1,5.6-11.7,10.5-11.7c2.3,0,4.7,0.7,7,2.1	c6.7,4,11.7,12.9,11.7,20.7v2.7c1.9-5,2.5-8.5,2.5-8.6c0.4-2.9,2.8-5.2,5.7-5.5c0.2,0,0.5,0,0.7,0c2.7,0,5.1,1.7,6.1,4.2	c0.3,0.9,8.1,22.2-4.6,37.9c-2.6,3.2-4.6,5.3-6.1,6.8c-2.4,2.4-3.1,3.2-4.3,6.8V87C58.6,91.5,54.7,96.2,44,96.2z" opacity=".35"/><path fill="#f2f2f2" d="M42,94.2c-10.8,0-14.6-4.8-14.6-9.2V17.8c0-0.1,0-0.2,0-0.3c0.1-8.1,5.6-11.7,10.5-11.7c2.3,0,4.7,0.7,7,2.1	c6.7,4,11.7,12.9,11.7,20.7v2.7c1.9-5,2.5-8.5,2.5-8.6c0.4-2.9,2.8-5.2,5.7-5.5c0.2,0,0.5,0,0.7,0c2.7,0,5.1,1.7,6.1,4.2	c0.3,0.9,8.1,22.2-4.6,37.9c-2.6,3.2-4.6,5.3-6.1,6.8c-2.4,2.4-3.1,3.2-4.3,6.8V85C56.6,89.5,52.7,94.2,42,94.2z"/><path fill="#96c362" d="M42,87.7c-4.5,0-8.1-1.2-8.1-2.7V17.8l16.2,9.9V85C50.1,86.5,46.4,87.7,42,87.7z"/><path fill="#739f4d" d="M45.1,32.1c-0.9,0-2-0.3-3.1-1c-4-2.4-7.2-8.1-7.2-12.8c0-3,1.3-4.7,3.4-4.7c0.9,0,2,0.3,3.1,1	c4,2.4,7.2,8.1,7.2,12.8c0,1.5-0.3,2.7-1,3.6C47,31.7,46.1,32.1,45.1,32.1L45.1,32.1z"/><path fill="#88ae45" stroke="#40396e" stroke-linecap="round" stroke-linejoin="round" stroke-miterlimit="10" stroke-width="3" d="M57,45.1c7.1-11.5,8.5-21.4,8.5-21.4s7,18.5-3.6,31.5c-7.2,9-9.1,7.8-11.8,16.7C50.5,66.5,51.1,54.6,57,45.1z"/><path fill="none" stroke="#40396e" stroke-linecap="round" stroke-linejoin="round" stroke-miterlimit="10" stroke-width="3" d="M50.1,28.6c0-5.5-3.8-12.3-8.5-15.1c-1.3-0.8-2.5-1.2-3.6-1.2c-2.5,0-4,2.1-4,5.5l0,0V85	c0,1.5,3.6,2.7,8.1,2.7s8.1-1.2,8.1-2.7V29.6C50.1,29.6,50.1,28.9,50.1,28.6z"/><path fill="none" stroke="#40396e" stroke-linecap="round" stroke-linejoin="round" stroke-miterlimit="10" stroke-width="3" d="M33.9,57.2c0,1.5,3.6,2.7,8.1,2.7c4.1,0,7.5-1,8-2.4"/><ellipse cx="42" cy="22.3" fill="#ffe385" rx="2.4" ry="6.1" transform="rotate(-30.779 41.978 22.348)"/></svg>