<svg xmlns="http://www.w3.org/2000/svg"  viewBox="0 0 100 100" width="100px" height="100px"><path d="M48.2,96c-4,0-7.9-1.4-11-3.8c-8-0.7-14.6-6.8-15.9-14.7c-0.8-1.7-7.7-9.1-7.7-15.2c0-1,0.1-1.9,0.2-2.9	c-2.6-3.5-4-7.7-4-12.1c0-7.9,4.6-15.1,11.6-18.5c1.5-7.8,7.7-13.9,15.7-15c3.1-2.5,7.1-3.9,11.1-3.9c1.7,0,3.5,0.3,5.2,0.8	c3-1.7,6.4-2.7,9.8-2.7c8.9,0,16.4,5.8,18.8,14.1c7.1,2.4,12,9.1,12,16.8c0,2.5-0.5,4.9-1.5,7.1c1,2.2,1.5,4.5,1.5,6.9	c0,2.3-0.5,4.5-1.3,6.6c0.9,2.1,1.3,4.3,1.3,6.6c0,5-2.1,9.6-5.8,12.7c-1.2,7.6-7.8,13.5-15.7,13.5c-0.8,0-1.5-0.1-2.3-0.2	c-2.5,1.3-5.2,2-8,2c-1.6,0-3.3-0.2-4.8-0.7C54.7,95.1,51.5,96,48.2,96z" opacity=".35"/><path fill="#f2f2f2" d="M46.2,94c-4,0-7.9-1.4-11-3.8c-8-0.7-14.6-6.8-15.9-14.7c-4.8-3.5-7.7-9.1-7.7-15.2c0-1,0.1-1.9,0.2-2.9	c-2.6-3.5-4-7.7-4-12.1c0-7.9,4.6-15.1,11.6-18.5c1.5-7.8,7.7-13.9,15.7-15c3.1-2.5,7.1-3.9,11.1-3.9c1.7,0,3.5,0.3,5.2,0.8	c3-1.7,6.4-2.7,9.8-2.7c8.9,0,16.4,5.8,18.8,14.1c7.1,2.4,12,9.1,12,16.8c0,2.5-0.5,4.9-1.5,7.1c1,2.2,1.5,4.5,1.5,6.9	c0,2.3-0.5,4.5-1.3,6.6c0.9,2.1,1.3,4.3,1.3,6.6c0,5-2.1,9.6-5.8,12.7c-1.2,7.6-7.8,13.5-15.7,13.5c-0.8,0-1.5-0.1-2.3-0.2	c-2.5,1.3-5.2,2-8,2c-1.6,0-3.3-0.2-4.8-0.7C52.7,93.1,49.5,94,46.2,94z"/><path fill="#739f4d" d="M85.6,62.4c0-5.8-4.7-10.5-10.5-10.5c-5.8,0-10.5,4.7-10.5,10.5c0,0.8,0.1,1.5,0.2,2.2c-1.5-0.8-3.2-1.3-5-1.3	c-5.8,0-10.5,4.7-10.5,10.5c0,5.8,4.7,10.5,10.5,10.5c2.7,0,5.1-1,6.9-2.6c1.1,0.5,2.3,0.7,3.6,0.7c5.3,0,9.6-4.3,9.6-9.6	c0-0.4-0.1-0.7-0.1-1.1C83.2,70.1,85.6,66.6,85.6,62.4z"/><path fill="#739f4d" d="M49.1,30c0-6.6-5.3-11.9-11.9-11.9S25.3,23.4,25.3,30c0,0.4,0,0.8,0.1,1.2c-6.3,1.2-11,6.8-11,13.5	c0,4,1.8,7.7,4.5,10.2c-0.6,1.4-0.9,2.9-0.9,4.5c0,6.6,5.3,11.9,11.9,11.9s11.9-5.3,11.9-11.9c0-2.6-0.9-5.1-2.3-7	c1.5-2.2,2.3-4.8,2.3-7.6c0-1.2-0.2-2.4-0.5-3.5C45.9,39.5,49.1,35.1,49.1,30z"/><path fill="#96c362" d="M45.7,65.8c-0.3,0-0.6,0-0.9,0c-1.9-2.1-4.6-3.4-7.6-3.4c-5.6,0-10.2,4.6-10.2,10.2c0,5.6,4.6,10.2,10.2,10.2	c0.3,0,0.6,0,0.9,0c1.9,2.1,4.6,3.4,7.6,3.4c5.6,0,10.2-4.6,10.2-10.2S51.3,65.8,45.7,65.8z"/><path fill="#96c362" d="M84.6,37c0-5.9-4.8-10.7-10.7-10.7c0-6.9-5.6-12.5-12.5-12.5c-3.3,0-6.4,1.3-8.6,3.4c-1.7-1-3.6-1.7-5.7-1.7	c-5.9,0-10.7,4.8-10.7,10.7S41,37,47,37c2.1,0,4.1-0.6,5.7-1.7c2.2,2.1,5.3,3.4,8.6,3.4c0.7,0,1.3-0.1,1.9-0.2	c0.4,2.5,1.6,4.6,3.4,6.3c-1.1,1.6-1.7,3.5-1.7,5.5c0,5.4,4.4,9.8,9.8,9.8c5.4,0,9.8-4.4,9.8-9.8c0-2.5-1-4.8-2.5-6.5	C83.6,42,84.6,39.6,84.6,37z"/><path fill="#ffe8d9" d="M51.9,29.8c-11.2,0-20.2,9-20.2,20.2s9,20.2,20.2,20.2s20.2-9,20.2-20.2S63,29.8,51.9,29.8z"/><path fill="none" stroke="#40396e" stroke-linecap="round" stroke-linejoin="round" stroke-miterlimit="10" stroke-width="3" d="M83,44.1c1.6-2,2.6-4.5,2.6-7.2c0-6.2-5-11.2-11.2-11.2c0-7.2-5.9-13.1-13.1-13.1c-3.5,0-6.7,1.4-9,3.6	c-1.7-1.1-3.8-1.7-6-1.7c-3.3,0-6.3,1.5-8.4,3.8c0,0,0,0-0.1,0c-6.7,0-12.2,5.5-12.2,12.2c0,0.4,0,0.8,0.1,1.2	c-6.5,1.3-11.3,7-11.3,13.8c0,4.1,1.8,7.9,4.6,10.4c-0.6,1.4-0.9,3-0.9,4.6c0,5.1,3.1,9.4,7.5,11.3c0,0.3,0,0.6,0,0.9	c0,6.2,5,11.2,11.2,11.2c0.3,0,0.6,0,1,0c2.1,2.3,5.1,3.8,8.4,3.8c3.3,0,6.2-1.4,8.3-3.6c1.6,1.1,3.6,1.8,5.8,1.8c2.6,0,5-1,6.8-2.6	c1.1,0.4,2.3,0.7,3.5,0.7c5.2,0,9.4-4.2,9.4-9.4c0-0.4-0.1-0.7-0.1-1.1c3.4-1.7,5.7-5.2,5.7-9.2c0-2.5-0.9-4.8-2.4-6.6	c1.5-1.8,2.4-4.1,2.4-6.6C85.6,48.3,84.6,45.9,83,44.1z"/><path fill="#ffe8d9" d="M67.7,62.5c-2.1-3.6-6.7-4.8-10.2-2.7c0,0,0,0-0.1,0c-0.3-2.3-2.2-4.2-4.6-4.2c-1.2,0-2.3,0.5-3.1,1.2	c-0.7-1.8-2.4-3.1-4.4-3.1c-1.4,0-2.6,0.6-3.4,1.5c-2.2-3.3-6.5-4.4-10-2.4c-3.6,2.1-4.8,6.7-2.7,10.2c1.3,2.2,3.5,3.5,5.9,3.7	c0.2,2.4,1.5,4.6,3.7,5.9s4.8,1.3,7,0.3c1.4,2,3.6,3.2,6.2,3.2S56.7,75,58,73c2.2,1,4.7,1,7-0.3C68.6,70.7,69.8,66.1,67.7,62.5z"/><path fill="#ffe8d9" d="M49,30c-2.1-3.6-6.7-4.8-10.2-2.7c-2.2,1.3-3.5,3.5-3.7,5.9c-2.4,0.2-4.6,1.5-5.9,3.7c-1.3,2.2-1.3,4.8-0.3,7	c-2,1.4-3.2,3.6-3.2,6.2c0,4.1,3.4,7.5,7.5,7.5c0.9,0,1.8-0.2,2.6-0.5c0.6,0.3,1.3,0.5,2.1,0.5c1.5,0,2.9-0.7,3.7-1.9c0,0,0,0,0,0	c2.6,0,4.7-2.1,4.7-4.7c0-0.3,0-0.6-0.1-0.9c-0.1-0.3-0.1-0.5-0.2-0.8v0c1.1-0.7,1.9-1.8,2.1-3.1c0.3,0.1,0.7,0.1,1,0.1	c2.6,0,4.7-2.1,4.7-4.7C53.8,39.6,49.7,31.3,49,30z"/><path fill="#ffe8d9" d="M78.1,50c0-2.6-1.3-4.8-3.2-6.2c1-2.2,1-4.7-0.3-7c-1.3-2.2-3.5-3.5-5.9-3.7c-0.2-2.4-1.5-4.6-3.7-5.9 C62.8,26,60.2,26,58,27c-1.4-2-3.6-3.2-6.2-3.2c-4.1,0-7.5,3.4-7.5,7.5c0,3.5,2.5,6.5,5.8,7.3c-0.1,0.4-0.2,0.8-0.2,1.2 c0,2.6,2.1,4.7,4.7,4.7c0.6,0,1.1-0.1,1.7-0.3c0.8,1.3,2.3,2.2,4,2.2c0,0,0,0,0,0c-0.6,0.8-1,1.8-1,2.8c0,2.3,1.7,4.3,4,4.6 c-0.7,0.5-1.3,1.2-1.7,1.9c-2.1,3.6-0.8,8.2,2.7,10.2c3.6,2.1,8.2,0.8,10.2-2.7c1.3-2.2,1.3-4.8,0.3-7C76.8,54.8,78.1,52.6,78.1,50 z"/><path fill="#40396e" d="M65.6,65.7c-2.4-1.4-3.8-4-3.6-6.8c0,0,0,0,0,0c0.1-0.9,0.4-1.8,0.8-2.7c0.3-0.6,0.8-1.1,1.4-1.6	c0.5-0.4,0.6-1,0.5-1.6c-0.2-0.6-0.6-1-1.2-1.1c-1.7-0.3-2.9-1.7-2.9-3.3c0-0.7,0.2-1.4,0.7-2c0.3-0.5,0.4-1.1,0.1-1.6	c-0.3-0.5-0.8-0.8-1.4-0.8c-1.1,0-2.2-0.6-2.8-1.6c-0.4-0.6-1.1-0.9-1.8-0.6c-0.6,0.2-1.2,0.3-1.8,0.2c-0.2,0-0.4-0.1-0.6-0.2	c0,0,0,0,0,0c-0.4-0.1-0.7-0.3-1-0.6c0,0,0,0,0,0c-0.1-0.1-0.3-0.3-0.4-0.4c0,0,0,0,0,0c-0.1-0.1-0.2-0.3-0.3-0.4c0,0,0-0.1-0.1-0.1	c-0.1-0.2-0.2-0.3-0.2-0.5c0,0,0,0,0,0C51,39.8,51,39.7,51,39.5c0,0,0-0.1,0-0.1c0-0.2,0-0.4,0-0.5c0-0.2,0-0.5,0.1-0.8	c0.1-0.4,0-0.8-0.2-1.1c-0.2-0.3-0.5-0.6-0.9-0.7C47,35.5,45,32.9,45,30c0-0.3,0-0.6,0.1-0.8c0,0,0,0,0,0c0.1-0.8,0.3-1.5,0.7-2.2	c-0.9-0.4-1.9-0.7-3-0.7c-0.5,1.1-0.7,2.3-0.8,3.5c0,0,0,0,0,0c0,0.1,0,0.1,0,0.2c0,3.9,2.4,7.3,5.9,8.7c0,0.1,0,0.1,0,0.2	c0,0.3,0,0.6,0.1,1c0,0.1,0,0.2,0.1,0.3c0,0.2,0.1,0.4,0.2,0.6c0,0.1,0.1,0.2,0.1,0.3c0.1,0.2,0.1,0.4,0.2,0.6	c0,0.1,0.1,0.2,0.1,0.3c0.1,0.2,0.3,0.4,0.4,0.6c0.1,0.1,0.1,0.2,0.2,0.3c0.1,0.2,0.3,0.3,0.4,0.5c0.1,0.1,0.2,0.2,0.3,0.3	c0.1,0.1,0.3,0.2,0.4,0.3c0.1,0.1,0.2,0.2,0.3,0.2c0,0,0.1,0.1,0.1,0.1c-0.6,0.4-1.3,0.7-2.1,0.7c-0.2,0-0.5,0-0.8-0.1	c-0.4-0.1-0.8,0-1.2,0.2c-0.3,0.2-0.6,0.6-0.6,1c-0.2,1-0.7,1.8-1.6,2.3c-0.6,0.4-0.9,1.1-0.6,1.8c0.1,0.2,0.1,0.4,0.2,0.6	c0,0.2,0.1,0.4,0.1,0.6c0,1.7-1.2,3.1-2.8,3.4c-0.2,0-0.4,0.1-0.6,0.1c-0.5,0-1,0.2-1.3,0.6c0,0,0,0-0.1,0.1v0c-1,1.3-2.7,1.7-4.2,1	c-0.4-0.2-0.8-0.2-1.2-0.1c-0.8,0.3-1.5,0.4-2.3,0.4c-1.1,0-2.1-0.3-3-0.7c-0.4,0.9-0.7,1.9-0.7,3c1.1,0.5,2.4,0.8,3.7,0.8	c0.9,0,1.8-0.1,2.7-0.4c0.7,0.3,1.5,0.4,2.3,0.4c1.8,0,3.5-0.7,4.7-2c0.3,0,0.5-0.1,0.8-0.1c0.1,0,0.2,0,0.2-0.1	c0.2,0,0.4-0.1,0.5-0.2c0.1,0,0.2-0.1,0.2-0.1c0.2-0.1,0.4-0.2,0.6-0.3c0,0,0.1,0,0.1-0.1c0.2-0.1,0.4-0.3,0.6-0.4	c0,0,0.1-0.1,0.1-0.1c0.2-0.1,0.3-0.3,0.5-0.4c0.1,0,0.1-0.1,0.1-0.1c0.2-0.2,0.3-0.3,0.4-0.5c0,0,0-0.1,0.1-0.1c0,0,0,0,0.1-0.1	c1,0.2,1.9,1,2.3,2c0.2,0.5,0.6,0.8,1,0.9c0.5,0.1,1,0,1.4-0.3c0.6-0.5,1.3-0.8,2.1-0.8c1.6,0,3,1.2,3.1,2.8	c0.1,0.5,0.4,0.9,0.8,1.2c0.2,0.1,0.4,0.2,0.7,0.2c0.3,0,0.5-0.1,0.7-0.2c0,0,0.1,0,0.1-0.1c0.3-0.1,0.5-0.3,0.8-0.4	c0.4,3.1,2.2,6,5,7.6c1.2,0.7,2.6,1.1,3.9,1.3c0.5-0.9,0.7-1.9,0.8-2.9C67.6,66.6,66.5,66.2,65.6,65.7z M60.2,54.7	c-0.5,0.9-0.8,1.8-1,2.8c-0.3,0.1-0.5,0.1-0.8,0.2c-1-2.1-3.1-3.6-5.6-3.6c-0.9,0-1.8,0.2-2.6,0.6c-0.8-1-1.8-1.7-3-2.1	c0.1-0.4,0.1-0.8,0.1-1.2c0-0.4,0-0.8-0.1-1.2c0,0,0,0,0,0c0.7-0.6,1.2-1.4,1.6-2.3h0c2.1,0,4-1,5.2-2.7c0.1,0,0.2,0,0.2,0	c0.4,0,0.8,0,1.2-0.1c0.7,0.8,1.5,1.3,2.5,1.7c-0.2,0.6-0.3,1.2-0.3,1.8c0,2.3,1.2,4.3,3,5.4C60.5,54.3,60.4,54.5,60.2,54.7z" opacity=".35"/></svg>