<svg xmlns="http://www.w3.org/2000/svg"  viewBox="0 0 100 100" width="100px" height="100px"><g id="Слой_2"><path d="M95.156,65.284l-2.357-4.715c-1.364-2.729-4.105-4.423-7.155-4.423c-0.55,0-1.102,0.057-1.641,0.17 c-0.014,0.003-4.301,0.852-10.254,0.852c-5.251,0-13.018-0.671-20.203-3.867c-4.007-1.783-16.795-8.862-13.123-25.108 c0.093-0.412,0.188-0.891,0.29-1.414c0.29-1.484,0.518-2.366,0.691-2.889c1.86-1.092,3.205-2.893,3.715-5.052 c0.642-2.718-0.154-5.519-2.128-7.494c-0.895-0.896-5.695-5.361-12.294-5.361c-2.229,0-4.372,0.506-6.369,1.505 c-2.923,1.462-4.677,4.611-4.39,7.86c0.017,0.355,0.195,5.364-3.145,9.818c-2.53,3.375-5.805,10.332-6.709,18.833 c-0.777,7.304-0.029,18.188,7.947,28.559c8.766,11.399,21.261,17.424,36.134,17.424c17.292,0,34.349-8.473,40.235-16.323 C96.23,71.22,96.519,68.011,95.156,65.284z" opacity=".35"/><path fill="#f2f2f2" d="M93.156,63.284l-2.357-4.715c-1.364-2.729-4.105-4.423-7.155-4.423c-0.55,0-1.102,0.057-1.641,0.17 c-0.014,0.003-4.301,0.852-10.254,0.852c-5.251,0-13.018-0.671-20.203-3.867c-4.007-1.783-16.795-8.862-13.123-25.108 c0.093-0.412,0.188-0.891,0.29-1.414c0.29-1.484,0.518-2.366,0.691-2.889c1.86-1.092,3.205-2.893,3.715-5.052 c0.642-2.718-0.154-5.519-2.128-7.494c-0.895-0.896-5.695-5.361-12.294-5.361c-2.229,0-4.372,0.506-6.369,1.505 c-2.923,1.462-4.677,4.611-4.39,7.86c0.017,0.355,0.195,5.364-3.145,9.818c-2.53,3.375-5.805,10.332-6.709,18.833 c-0.777,7.304-0.029,18.188,7.947,28.559c8.766,11.399,21.261,17.424,36.134,17.424c17.292,0,34.349-8.473,40.235-16.323 C94.23,69.22,94.519,66.011,93.156,63.284z"/><path fill="#40396e" d="M88.683,65.519l-2.357-4.715c-0.515-1.031-1.564-1.659-2.683-1.659c-0.204,0-0.41,0.021-0.615,0.064 c-0.043,0.009-4.706,0.958-11.279,0.958c-5.735,0-14.249-0.746-22.235-4.299c-3.478-1.548-20.596-10.305-15.967-30.778 c0.084-0.37,0.168-0.8,0.26-1.27c0.322-1.648,1.075-5.508,2.476-5.975c0.986-0.329,1.732-1.145,1.971-2.157 c0.239-1.012-0.063-2.075-0.798-2.81c-0.399-0.399-4.032-3.896-8.758-3.896c-1.446,0-2.836,0.329-4.132,0.977 c-1.115,0.558-1.769,1.746-1.643,2.986c0.005,0.054,0.574,6.947-4.129,13.219c-2.319,3.093-4.992,9.352-5.738,16.363 c-0.68,6.396-0.029,15.922,6.938,24.982c7.784,10.122,18.908,15.472,32.171,15.472c16.635,0,31.732-8.318,36.234-14.323 C89.082,67.751,89.191,66.535,88.683,65.519z"/><path fill="#f9b84f" d="M25.908,12.643c0,0,0.808,7.958-4.713,15.322c-3.535,4.715-10.604,22.394,1.178,37.717 C42.244,91.521,78.93,76.29,86,66.86l-2.357-4.715c0,0-18.635,3.9-35.348-3.536c-8.788-3.91-22.03-14.91-17.674-34.181 c0.581-2.571,1.178-8.251,4.713-9.429C35.335,15,30.621,10.285,25.908,12.643z"/><path fill="#ffe385" d="M83.643,62.146c0,0-18.635,3.9-35.348-3.536c-8.788-3.91-22.03-14.91-17.674-34.181 c0.581-2.571,1.178-8.251,4.713-9.429c0,0-2.177-2.171-5.049-2.828c-2.793,6.042-18.516,45.259,21.545,55.867 c14.076,3.727,25.083,0.225,32.983-3.552L83.643,62.146z"/><path fill="#d47f56" d="M86,66.86l-2.357-4.715c0,0-0.114,0.023-0.31,0.06l-0.869,3.476l3.388,1.356 C85.899,66.979,85.957,66.918,86,66.86z"/><path fill="#f9b84f" d="M30.621,24.429c0.581-2.571,1.178-8.251,4.713-9.429c0,0-4.713-4.715-9.426-2.357 c0,0,0.539,5.384-2.339,11.393c1.192,0.81-0.27,5.275-0.017,6.286c0,0,4.713-10.608,6.685-3.928 C30.346,25.748,30.471,25.095,30.621,24.429z"/><path fill="#d47f56" d="M25.908,12.643L29.443,15h5.891C35.335,15,30.621,10.285,25.908,12.643z"/></g></svg>