<svg xmlns="http://www.w3.org/2000/svg"  viewBox="0 0 512 512" width="128px" height="128px"><path fill="#83a64a" d="M489.38,136.76a12.114,12.114,0,0,0-16.26,5.23C354.97,368.64,162.77,439.23,111.48,454.5c-8.76,2.61-11.99,13.53-5.79,20.23,5.44,5.88,15.02,10.77,31.9,9.57,38.57-2.76,184.37-73.54,270.74-172.62,64.24-73.7,83.56-139.41,87.49-162.11A12.049,12.049,0,0,0,489.38,136.76Z"/><path fill="#83a64a" d="M52.55,337.81l-27.7,14.67c-7.68,4.06-8.1,15.25-.45,19.37.27.15.55.28.83.41,6.82,3.01,21.34-2.32,27.96-4.9,13.41-5.22,68.4-37.23,70.12-38.23-28.3,5.71-52.57,8.34-70.75,8.68Z"/><path fill="#83a64a" d="M305.18,56.5c-.03-.17-.07-.34-.1-.51a11.437,11.437,0,0,0-9.06-9.26,11.8,11.8,0,0,0-14.08,8.39C229.59,239.48,97.03,305.71,97.03,305.71a663.733,663.733,0,0,0,99.91-32.8C268.51,212.36,308.23,73.79,305.18,56.5Z"/><path fill="#99b756" d="M490.8,77.04a14.384,14.384,0,0,0-6.39-9.64,15.005,15.005,0,0,0-19.71,2.86c-28.71,34.23-72.01,68.49-75.82,71.48-16.95,42.22-47.47,92.94-69.44,117.27C386.87,210.2,475.4,114.77,489.37,87.59A16.253,16.253,0,0,0,490.8,77.04Z"/><path fill="#6d8739" d="M52.55,338l-27.7,14.575c-7.68,4.06-8.1,15.2-.45,19.322.27.15.55.257.83.387a12.273,12.273,0,0,0,4.575.922,11.177,11.177,0,0,1,5.939-10.631L80.525,335.8c-10.42,1.1-19.81,1.756-27.965,2.2Z"/><path fill="#6d8739" d="M292.834,65.12A11.687,11.687,0,0,1,305.18,56.5c-.03-.17-.07-.339-.1-.508a11.437,11.437,0,0,0-9.06-9.26,11.8,11.8,0,0,0-14.08,8.39C229.59,239.48,97.03,305.71,97.03,305.71c13.835-3.328,29.16-7.532,45.654-12.817C185.681,260.117,257.512,189.513,292.834,65.12Z"/><path fill="#99b756" d="M97.03,305.71c-36.6,8.8-62.8,11.52-72.88,12.16a8.709,8.709,0,0,0-7.1,4.55,8.669,8.669,0,0,0,4.39,12.17c5.69,2.28,16.41,3.5,31.11,3.22h.01c18.18-.34,42.45-2.97,70.75-8.68a.037.037,0,0,1,.03-.01,651.056,651.056,0,0,0,112.32-33.89h.01a498.951,498.951,0,0,0,75.5-82.98,699.34,699.34,0,0,1-114.23,60.66A663.733,663.733,0,0,1,97.03,305.71Z"/><path fill="#798c45" d="M484.41,67.4a15.005,15.005,0,0,0-19.71,2.86c-28.71,34.23-72.01,68.49-75.82,71.48l-17.547,32.927c3.81-2.99,75.551-60.177,104.261-94.407a14.8,14.8,0,0,1,14.788-4.925A14.326,14.326,0,0,0,484.41,67.4Z"/><path fill="#798c45" d="M27.944,332.42a8.709,8.709,0,0,1,7.1-4.55c10.08-.64,36.28-3.36,72.88-12.16a663.733,663.733,0,0,0,99.91-32.8,697.308,697.308,0,0,0,78-38.435c8.717-10.162,17.208-20.889,25.34-32.225a699.34,699.34,0,0,1-114.23,60.66,663.733,663.733,0,0,1-99.91,32.8c-36.6,8.8-62.8,11.52-72.88,12.16a8.709,8.709,0,0,0-7.1,4.55,8.669,8.669,0,0,0,4.39,12.17,32.677,32.677,0,0,0,5.473,1.559A8.621,8.621,0,0,1,27.944,332.42Z"/><path fill="#699231" d="M402.42,75.83c-1.3-7.35-4.87-11.44-8.72-13.7a18.613,18.613,0,0,0-4.52-1.89,7.757,7.757,0,0,0-9.59,5.55,430.972,430.972,0,0,1-68.41,146.45.01.01,0,0,1-.01.01,498.951,498.951,0,0,1-75.5,82.98h-.01C159.6,362.34,83.23,391.88,76.52,394.12c-12.03,4.02-10.76,18.42-10.76,18.42s16.3,26.96,70.69.38c48.05-23.48,75.68-35.06,182.99-153.91,21.97-24.33,52.49-75.05,69.44-117.27,5.8-14.44,10.02-27.89,11.76-38.95C402.45,91.31,403.38,81.28,402.42,75.83Z"/><path fill="#284268" d="M19.576,339.227a53.658,53.658,0,0,0,14.044,2.95l-11.108,5.882a16.262,16.262,0,0,0-8.639,14.35,15.4,15.4,0,0,0,8.145,13.84c.388.209.788.406,1.2.586a17.582,17.582,0,0,0,7.159,1.312c6.024,0,14.078-2.018,24.63-6.127,13.141-5.116,63.2-34.128,70.139-38.162A639.12,639.12,0,0,0,209.821,310.3c-.853.675-1.695,1.359-2.553,2.03-70.081,54.814-131.744,76.852-132.335,77.05-12.474,4.172-14.712,17.263-14.153,23.6a5,5,0,0,0,.7,2.148c.516.854,9.185,14.542,32.667,14.542,11.213,0,25.809-3.125,44.5-12.258l3.946-1.926c45.457-22.164,75.508-36.82,180.215-152.739,66.365-48.18,156.289-144.23,171.008-172.869a21.145,21.145,0,0,0,1.907-13.723,19.515,19.515,0,0,0-4.67-9.591c3.261-5.491,7.5-15.809,2.217-26.78a5,5,0,0,0-9.011,4.336c3.192,6.634.6,13.213-1.545,16.939q-.686-.235-1.4-.424a19.8,19.8,0,0,0-20.449,6.417c-19.148,22.835-45.179,45.923-61.09,59.315a149.161,149.161,0,0,0,5.8-22.8c2.161-13.727,2.737-23.084,1.762-28.606A24.9,24.9,0,0,0,399.7,60.37c1.3-4.548,2.512-12.808.5-25.808a5,5,0,1,0-9.883,1.527c1.456,9.419.977,15.677.273,19.36-.027-.007-.054-.017-.081-.025a12.753,12.753,0,0,0-15.77,9.141,426.813,426.813,0,0,1-67.08,144,698.163,698.163,0,0,1-87.77,48.8c19.254-21.54,42.17-55.144,63.767-106.961,18.142-43.528,28.318-84.147,26.44-94.782-.037-.2-.074-.4-.113-.6a16.592,16.592,0,0,0-7.972-11.3,85.964,85.964,0,0,0,1.622-16.115,5,5,0,1,0-10-.182,77.133,77.133,0,0,1-1.38,14.071,16.633,16.633,0,0,0-15.131,12.251c-26.688,94-74.815,156.26-110.489,191.941-36.791,36.8-68.248,53.672-71.544,55.389-39.041,9.311-65.3,11.42-71.267,11.8a13.679,13.679,0,0,0-4.251,26.345Zm31.8,23.475c-16.984,6.612-22.526,5.69-24.125,4.984-.164-.072-.323-.15-.48-.236a5.526,5.526,0,0,1-2.9-5,6.2,6.2,0,0,1,3.319-5.551l26.667-14.123a360.981,360.981,0,0,0,42.331-3.85C79.3,348.478,58.69,359.854,51.375,362.7ZM468.53,73.475A9.763,9.763,0,0,1,478.75,70.3a9.526,9.526,0,0,1,7.131,7.631,11.226,11.226,0,0,1-.96,7.377c-11.051,21.5-76.121,94.135-138.283,146.069,17.082-25.6,34.623-57.888,46.256-86.431C400.531,138.906,440.844,106.492,468.53,73.475ZM313,218.26A437.31,437.31,0,0,0,384.437,67.015a2.7,2.7,0,0,1,1.27-1.677,2.757,2.757,0,0,1,2.137-.276c5.372,1.487,8.529,5.293,9.649,11.635.529,2.993.647,9.814-1.792,25.311-6.569,41.717-50.191,120.672-79.969,153.65C212.04,370.5,184.25,384.046,138.209,406.5l-3.953,1.929C90.41,429.852,74.1,414.9,70.719,410.852c.063-2.864.9-9.825,7.386-11.994.608-.2,63.945-22.828,135.323-78.656C252.335,289.771,285.836,255.472,313,218.26ZM173.384,253.087c36.628-36.553,86.029-100.334,113.364-196.6a6.686,6.686,0,0,1,6.979-5.023,6.593,6.593,0,0,1,6.447,5.495l.078.418c1.179,6.674-6.651,43.188-25.824,89.189-13,31.178-40.671,88.394-80.277,122.149a666.413,666.413,0,0,1-66.837,23.754A380.239,380.239,0,0,0,173.384,253.087ZM21.446,324.793a3.677,3.677,0,0,1,3.019-1.931c13.634-.871,131.147-10.6,265.944-91.674a504.518,504.518,0,0,1-57.433,59.73c-57.639,23.018-105.9,33.277-136.3,37.828C58.25,334.5,32.136,333.5,23.3,329.948a3.67,3.67,0,0,1-1.857-5.155Z"/><path fill="#284268" d="M495.826,116.773a5,5,0,0,0-9.755,2.2c.8,3.553.334,8.084-.327,11.6a17.214,17.214,0,0,0-17.061,9.11h0C418.7,235.566,349.962,314.2,264.382,373.4c-69.538,48.1-131.091,69.39-154.328,76.31a17.5,17.5,0,0,0-11.949,12.224,17.056,17.056,0,0,0,3.913,16.192c6.977,7.549,17.224,11.358,30.515,11.358q2.628,0,5.416-.2c21.853-1.561,71.039-22.474,119.612-50.856,61.666-36.034,116.549-79.88,154.539-123.461,71.434-81.947,86.379-151.44,88.649-164.539a16.963,16.963,0,0,0-5.639-15.807C496.084,130.348,497.248,123.08,495.826,116.773Zm-4.93,31.946c-1.061,6.12-5.691,28.581-20.731,60.662-15.99,34.106-38.062,67.42-65.6,99.014-37.3,42.785-91.293,85.9-152.046,121.4-55.3,32.313-98.522,48.318-115.28,49.516-12.759.911-22.142-1.771-27.875-7.973a7.022,7.022,0,0,1-1.611-6.759,7.56,7.56,0,0,1,5.158-5.285c23.7-7.057,86.443-28.752,157.163-77.669C357,321.491,426.808,241.645,477.55,144.3h0a7.163,7.163,0,0,1,9.562-3.088A7.038,7.038,0,0,1,490.9,148.719Z"/></svg>