<svg xmlns="http://www.w3.org/2000/svg"  viewBox="0 0 100 100" width="100px" height="100px"><path d="M36.156,96c-2.604,0-5.073-1.26-6.604-3.37c-1.558-2.146-1.977-4.837-1.146-7.383 c0.874-2.676,3.163-4.744,5.975-5.399l7.671-1.625L42,55c-10.192-4.009-17-10.737-17-22V14.5c0-3.584,2.916-6.5,6.5-6.5h41 c3.584,0,6.5,2.916,6.5,6.5V33c0,11.237-6.802,21.038-16.964,25.062l0.066,20.105l7.466,1.667c2.866,0.667,5.16,2.737,6.033,5.412 c0.831,2.545,0.413,5.238-1.147,7.386C72.924,94.74,70.456,96,67.851,96H36.156z" opacity=".35"/><path fill="#f2f2f2" d="M34.156,94c-2.604,0-5.073-1.26-6.604-3.37c-1.558-2.146-1.977-4.837-1.146-7.383 c0.874-2.676,3.163-4.744,5.975-5.399l7.671-1.625l-0.033-20.14C29.825,52.073,23,42.263,23,31V12.5C23,8.916,25.916,6,29.5,6h41 c3.584,0,6.5,2.916,6.5,6.5V31c0,11.237-6.802,21.038-16.964,25.062l0.066,20.105l7.466,1.667c2.866,0.667,5.16,2.737,6.033,5.412 c0.831,2.545,0.413,5.238-1.147,7.386C70.924,92.74,68.456,94,65.851,94H34.156z"/><path fill="#70bfff" d="M46.507,51.299l0.052,30.19l-12.704,2.689c-0.572,0.133-1.086,0.522-1.269,1.083 c-0.38,1.163,0.471,2.239,1.57,2.239h31.695c1.1,0,1.95-1.075,1.57-2.239c-0.183-0.561-0.697-0.95-1.269-1.083l-12.535-2.799 l-0.103-30.075c7.145-0.839,1.817-2.296-3.51-2.304C44.678,48.992,39.354,50.434,46.507,51.299z"/><path fill="#fedeb3" d="M50,50c-10.477,0-19-8.523-19-19V14h38v17C69,41.477,60.477,50,50,50z"/><rect width="40" height="16" x="30" y="12" fill="#70bfff"/><path fill="#fff" d="M40.036,43.037c-0.369,0-0.739-0.135-1.029-0.409C35.825,39.628,34,35.39,34,31V18.5 c0-0.829,0.671-1.5,1.5-1.5s1.5,0.671,1.5,1.5V31c0,3.567,1.482,7.01,4.065,9.446c0.603,0.568,0.63,1.518,0.062,2.121 C40.833,42.879,40.435,43.037,40.036,43.037z"/><rect width="40" height="16" x="30" y="12" fill="#70bfff"/><path fill="#fff" d="M40.036,43.037c-0.369,0-0.739-0.135-1.029-0.409C35.825,39.628,34,35.39,34,31V18.5 c0-0.829,0.671-1.5,1.5-1.5s1.5,0.671,1.5,1.5V31c0,3.567,1.482,7.01,4.065,9.446c0.603,0.568,0.63,1.518,0.062,2.121 C40.833,42.879,40.435,43.037,40.036,43.037z"/><path fill="none" stroke="#40396e" stroke-linecap="round" stroke-linejoin="round" stroke-miterlimit="10" stroke-width="3" d="M70.5,31V12.5h-41V31c0,10.13,7.354,18.522,17.01,20.181l0.048,30.307l-12.704,2.689c-0.572,0.133-1.086,0.522-1.269,1.083 c-0.38,1.163,0.471,2.239,1.57,2.239h31.695c1.1,0,1.95-1.075,1.57-2.239c-0.183-0.561-0.697-0.95-1.269-1.083l-12.535-2.799 l-0.096-30.202C63.162,49.504,70.5,41.119,70.5,31z"/></svg>