<svg xmlns="http://www.w3.org/2000/svg"  viewBox="0 0 100 100" width="100px" height="100px"><path d="M69.026,25.979c-1.568,0-3.033,0.205-4.373,0.609c1.282-3.385,0.37-7.36-2.471-9.766c-2.434-2.058-6.031-2.677-9.11-1.585 c-2.062,0.733-7.107,3.184-10.305,10.266c-0.966,0.373-1.904,0.812-2.803,1.311c-1.519-0.555-3.215-0.835-5.054-0.835 c-13.836,0-25.974,14.953-25.974,32s12.138,32,25.974,32c1.834,0,3.526-0.279,5.042-0.832c3.514,1.962,7.562,2.957,12.047,2.957 c4.474,0,8.514-0.99,12.022-2.943c1.505,0.543,3.185,0.818,5.004,0.818c13.836,0,25.974-14.953,25.974-32 S82.862,25.979,69.026,25.979z" opacity=".35"/><path fill="#f2f2f2" d="M67.026,23.979c-1.568,0-3.033,0.205-4.373,0.609c1.282-3.385,0.37-7.36-2.471-9.766 c-2.434-2.058-6.031-2.677-9.11-1.585c-2.062,0.733-7.107,3.184-10.305,10.266c-0.966,0.373-1.904,0.812-2.803,1.311 c-1.519-0.555-3.215-0.835-5.054-0.835c-13.836,0-25.974,14.953-25.974,32s12.138,32,25.974,32c1.834,0,3.526-0.279,5.042-0.832 c3.514,1.962,7.562,2.957,12.047,2.957c4.474,0,8.514-0.99,12.022-2.943c1.505,0.543,3.185,0.818,5.004,0.818 c13.836,0,25.974-14.953,25.974-32S80.862,23.979,67.026,23.979z"/><path fill="#96c362" d="M44.883,30.202c2.074-7.26,7.06-10.376,8.367-10.84c0.895-0.318,1.995-0.203,2.734,0.422 c0.89,0.753,0.985,2.149,0.276,3.061c-0.635,0.817-2.835,4.609-2.835,7.634L44.883,30.202z"/><path fill="#e66f2e" d="M38.753,55.979c0,14.084,3.895,25.5-5.842,25.5s-19.474-11.416-19.474-25.5 c0-14.085,9.737-25.5,19.474-25.5S38.753,41.894,38.753,55.979z"/><path fill="#e66f2e" d="M61.184,55.979c0,14.084-3.895,25.5,5.842,25.5S86.5,70.063,86.5,55.979 c0-14.085-9.737-25.5-19.474-25.5S61.184,41.894,61.184,55.979z"/><path fill="#ef8630" d="M68.489,55.979c0,14.428-5.283,26.122-18.489,26.122S31.511,70.408,31.511,55.979 c0-14.427,5.283-26.122,18.489-26.122S68.489,41.553,68.489,55.979z"/><path fill="#40396e" d="M50,85.104c-4.608,0-8.568-1.269-11.795-3.774c-1.307,1.096-3.079,1.649-5.294,1.649 c-11.173,0-20.974-12.617-20.974-27s9.801-27,20.974-27c2.215,0,3.988,0.554,5.295,1.651c1.866-1.446,3.992-2.485,6.344-3.1 c2.4-7.026,6.851-9.103,8.198-9.582c1.449-0.515,3.101-0.244,4.205,0.691c1.488,1.26,1.709,3.56,0.492,5.126 c-0.288,0.37-1.259,1.953-1.911,3.78c2.303,0.614,4.388,1.638,6.228,3.059c1.303-1.079,3.066-1.625,5.265-1.625 c11.173,0,20.974,12.617,20.974,27s-9.801,27-20.974,27c-2.197,0-3.961-0.545-5.265-1.624C58.542,83.844,54.593,85.104,50,85.104z M38.08,77.76c0.374,0,0.737,0.14,1.016,0.396c2.846,2.62,6.514,3.948,10.904,3.948c4.373,0,8.029-1.317,10.869-3.916 c0.318-0.291,0.743-0.428,1.171-0.385c0.428,0.045,0.815,0.272,1.064,0.622c0.474,0.667,1.396,1.554,3.922,1.554 c8.484,0,17.974-10.264,17.974-24s-9.489-24-17.974-24c-2.525,0-3.448,0.887-3.922,1.553c-0.249,0.351-0.637,0.578-1.064,0.623 c-0.428,0.045-0.853-0.095-1.171-0.385c-2.074-1.898-4.592-3.119-7.483-3.63c-0.403-0.071-0.76-0.304-0.987-0.645 s-0.305-0.759-0.216-1.159c0.597-2.672,2.18-5.495,2.895-6.413c0.227-0.291,0.196-0.775-0.062-0.995 c-0.29-0.246-0.82-0.31-1.263-0.153c-1.063,0.378-4.682,2.104-6.597,8.452c-0.158,0.524-0.589,0.92-1.124,1.034 c-2.667,0.568-5,1.76-6.936,3.542c-0.318,0.293-0.751,0.433-1.178,0.388c-0.431-0.047-0.819-0.277-1.067-0.632 c-0.474-0.678-1.397-1.579-3.939-1.579c-8.484,0-17.974,10.264-17.974,24s9.489,24,17.974,24c2.542,0,3.466-0.901,3.939-1.579 c0.248-0.355,0.638-0.585,1.067-0.632C37.973,77.763,38.026,77.76,38.08,77.76z"/></svg>