<svg xmlns="http://www.w3.org/2000/svg"  viewBox="0 0 64 64" width="128px" height="128px"><g data-name="25-syrup"><path fill="#714226" d="M62.312,1.69c1.14,1.14.83,3.3-.69,4.82L51.291,15.47l-2.76-2.76L57.492,2.38C59.012.86,61.172.55,62.312,1.69Z"/><polygon fill="#af7a58" points="56.002 39 54.002 43 38 43 36 39 41.001 39 45.001 39 56.002 39"/><path fill="#ffce54" d="M54,43l2,14a6,6,0,0,1-6,6H42a6,6,0,0,1-6-6l2-14Z"/><path fill="#d99c64" d="M51.971,16.16a1.936,1.936,0,0,1,0,2.76,1.98,1.98,0,0,1-.97.53V18a3,3,0,0,0-3-3h-.68a2.375,2.375,0,0,0-1.49.53l-.75-.75a1.943,1.943,0,0,1,0-2.75,1.932,1.932,0,0,1,2.76,0Z"/><path fill="#ffce54" d="M51,34.5v1a1.5,1.5,0,0,1-3,0v-1a1.5,1.5,0,0,1,3,0Z"/><path fill="#ffce54" d="M45.831,15.53a2.375,2.375,0,0,1,1.49-.53H48a3,3,0,0,1,3,3V29.5a1.5,1.5,0,1,1-3,0v-2a1.5,1.5,0,0,0-3,0V39H41V26.65a4.122,4.122,0,0,0-.58-1.74A3.989,3.989,0,0,1,40,23.12V22a1.991,1.991,0,0,1,2-2h1.32c.93,0,1.68-1.75,1.68-2.68a2.313,2.313,0,0,1,.68-1.64Z"/><path fill="#d99c64" d="M42.331,17.54a1.948,1.948,0,1,1,2.75-2.76l.75.75-.15.15A2.313,2.313,0,0,0,45,17.32c0,.93-.75,2.68-1.68,2.68H42a2.021,2.021,0,0,0-1.73.99l-.7-.7a1.948,1.948,0,0,1,2.76-2.75Z"/><path fill="#ffce54" d="M10,13V5H22V8h2A6.993,6.993,0,0,1,27.52,21.04a10.02,10.02,0,0,1,3.36,9.11L26,63H6L1.118,30.15a10.033,10.033,0,0,1,4.1-9.72l3.11-2.23A3.991,3.991,0,0,0,10,14.95Zm6,28s1,2,6,2l-1-4,4-2-2-1,2-3H22V31l-3,2V28l-2,1-1-4-1,4-2-1v5l-3-2v2H7l2,3L7,37l4,2-1,4C15,43,16,41,16,41Zm6-28v1.95a3.991,3.991,0,0,0,1.67,3.25l1.02.73A3.993,3.993,0,1,0,22,11.55Z"/><path fill="#fffbf3" d="M28,15a4,4,0,0,1-3.311,3.93l-1.02-.73A3.991,3.991,0,0,1,22,14.95v-3.4A3.982,3.982,0,0,1,28,15Z"/><path fill="#ff942c" d="M25,33l-2,3,2,1-4,2,1,4c-5,0-6-2-6-2V25l1,4,2-1v5l3-2v2Z"/><path fill="#d6cec1" d="M23,1a2.006,2.006,0,0,1,2,2,1.955,1.955,0,0,1-.59,1.41A1.955,1.955,0,0,1,23,5H9A2.006,2.006,0,0,1,7,3a1.955,1.955,0,0,1,.59-1.41A1.955,1.955,0,0,1,9,1Z"/><path fill="#f4700c" d="M16,25V41s-1,2-6,2l1-4L7,37l2-1L7,33h3V31l3,2V28l2,1Z"/><path fill="#f7f3eb" d="M22,11.55A3.95,3.95,0,0,1,27.445,13h3.262A7,7,0,0,0,24,8H22V5H10v8H22Z"/><path fill="#ffb844" d="M49,27.5v-2a1.5,1.5,0,0,0-3,0v.591A1.488,1.488,0,0,1,48,27.5v2a1.5,1.5,0,1,0,3,0v-.591A1.488,1.488,0,0,1,49,27.5Z"/><path fill="#afa59b" d="M24.409,2.41A1.955,1.955,0,0,1,23,3H9A2,2,0,0,1,7.277,2,1.963,1.963,0,0,0,7,3,2.006,2.006,0,0,0,9,5H23a1.955,1.955,0,0,0,1.41-.59A1.959,1.959,0,0,0,24.72,2,1.905,1.905,0,0,1,24.409,2.41Z"/><path fill="#845335" d="M39.545,39.632,39.334,39H36l2,4H54l1-2H41.442A2,2,0,0,1,39.545,39.632Z"/><path fill="#fea740" d="M39,57l.834-9.181A2,2,0,0,1,41.827,46h12.6L54,43H38L36,57a6,6,0,0,0,6,6h8a6,6,0,0,0,5.19-3H42A3,3,0,0,1,39,57Z"/><path fill="#ded9d0" d="M15,8h7V5H10v8h3V10A2,2,0,0,1,15,8Z"/><path fill="#fea740" d="M11.705,60a4,4,0,0,1-3.956-3.412L4.118,32.15a10.033,10.033,0,0,1,4.1-9.72L11.33,20.2A4,4,0,0,0,13,16.95V13H10v1.948A4,4,0,0,1,8.328,18.2l-3.11,2.23a10.033,10.033,0,0,0-4.1,9.72L5.552,60,6,63H26l.445-3Z"/><path fill="#5e3117" d="M52.709,11.293l9.6-9.6c-1.14-1.14-3.3-.83-4.82.69L48.531,12.71l2.76,2.76,2.239-1.942-.821-.821A1,1,0,0,1,52.709,11.293Z"/><path fill="#ffb844" d="M48,15h-.68a2.375,2.375,0,0,0-1.49.53l-.15.15a2.306,2.306,0,0,0-.674,1.585c0,.019-.006.036-.006.055,0,.93-.75,2.68-1.68,2.68H42a1.991,1.991,0,0,0-2,2v1.12a4.035,4.035,0,0,0,.437,1.825A4.03,4.03,0,0,1,41,26.65V39h4V37H44a1,1,0,0,1-1-1V28.65a4.03,4.03,0,0,0-.563-1.7A4.035,4.035,0,0,1,42,25.12V24a1.991,1.991,0,0,1,2-2h1.32a1.778,1.778,0,0,0,1.737-2.158,2.324,2.324,0,0,1,.623-2.162l.15-.15a2.375,2.375,0,0,1,1.49-.53H50a2.951,2.951,0,0,1,.861.14A2.987,2.987,0,0,0,48,15Z"/><circle cx="47.001" cy="58" r="1" fill="#ffdf64"/><circle cx="43.001" cy="56" r="1" fill="#fff978"/><circle cx="46.501" cy="47.5" r=".5" fill="#ffdf64"/><circle cx="42.501" cy="51.5" r=".5" fill="#ffdf64"/><circle cx="42.501" cy="48.5" r=".5" fill="#fff978"/><circle cx="51.501" cy="50.5" r=".5" fill="#fff978"/><circle cx="46.501" cy="51.5" r=".5" fill="#ffdf64"/><circle cx="10.998" cy="26" r="1" fill="#fff978"/><circle cx="19.999" cy="46" r="1" fill="#ffdf64"/><circle cx="25.5" cy="51.5" r=".5" fill="#fff978"/><circle cx="19.499" cy="49.5" r=".5" fill="#ffdf64"/><circle cx="14.499" cy="21.5" r=".5" fill="#ffdf64"/><circle cx="24.499" cy="49.5" r=".5" fill="#fff978"/><circle cx="19.499" cy="57.5" r=".5" fill="#fff978"/><circle cx="12.499" cy="51.5" r=".5" fill="#ffdf64"/><circle cx="16.499" cy="55.5" r="1.5" fill="#fff978"/><circle cx="23.999" cy="46" r="2" fill="#ffdf64"/><circle cx="6.998" cy="28" r="2" fill="#ffdf64"/><rect width="5" height="2" x="47.501" y="23.5" fill="#ffdf64" rx="1" ry="1" transform="rotate(-90 50.001 24.5)"/><rect width="3" height="2" x="48.501" y="19" fill="#ffdf64" rx=".977" ry=".977" transform="rotate(-90 50.001 20)"/><rect width="3" height="2" x="42.501" y="29.5" fill="#ffdf64" rx=".977" ry=".977" transform="rotate(-90 44.001 30.5)"/><path d="M32,15a8.009,8.009,0,0,0-8-8H23V6a3,3,0,0,0,0-6H9A3,3,0,0,0,9,6v8.947a3.009,3.009,0,0,1-1.25,2.438L4.64,19.617A10.981,10.981,0,0,0,.126,30.293L.4,32.146l1.979-.292L2.1,30a8.993,8.993,0,0,1,3.7-8.75L8.917,19.01A5.016,5.016,0,0,0,11,14.947V14H21v.947a5.014,5.014,0,0,0,2.084,4.063l1.022.733a1,1,0,0,0,.755.173A4.995,4.995,0,0,0,24,10a4.923,4.923,0,0,0-2.5.69,1,1,0,0,0-.5.865V12H11V6h2V4H9A1,1,0,0,1,9,2H23a1,1,0,0,1,0,2H15V6h6V8a1,1,0,0,0,1,1h2a6,6,0,0,1,3.019,11.178,1,1,0,0,0-.15,1.62A9,9,0,0,1,29.9,30l-3.25,21.854,1.979.294L31.874,30.3a10.975,10.975,0,0,0-2.788-9.132A8.026,8.026,0,0,0,32,15Zm-5,0a2.97,2.97,0,0,1-.046.511c-.009.056-.027.109-.04.164a2.866,2.866,0,0,1-.088.321c-.022.062-.051.121-.077.181a2.855,2.855,0,0,1-.127.268c-.033.061-.072.118-.11.176-.052.08-.105.158-.164.232-.043.055-.091.108-.138.16-.063.069-.129.135-.2.2-.052.047-.107.093-.162.137-.075.058-.153.112-.233.163-.06.038-.119.075-.181.109-.087.047-.177.087-.269.126-.063.027-.126.055-.191.077-.027.009-.056.014-.084.022l-.641-.46A3.009,3.009,0,0,1,23,14.947v-2.74c.053-.02.1-.051.158-.068s.11-.032.165-.046A2.825,2.825,0,0,1,24,12,3,3,0,0,1,27,15Z"/><rect width="2.023" height="2" x="26.178" y="54" transform="rotate(-81.522 27.19 55)"/><path d="M25.138,62H6.862L2.677,33.853.7,34.147l4.312,29A1,1,0,0,0,6,64H26a1,1,0,0,0,.989-.853l.743-5-1.978-.294Z"/><path d="M6,37a1,1,0,0,0,.553.9l3.282,1.641L9.03,42.758A1,1,0,0,0,10,44a11.335,11.335,0,0,0,5-.945V47h2V43.055A11.335,11.335,0,0,0,22,44a1,1,0,0,0,.97-1.242l-.8-3.222L25.447,37.9a1,1,0,0,0,0-1.79l-.987-.493,1.372-2.057A1,1,0,0,0,25,32H23V31a1,1,0,0,0-1.555-.832L20,31.132V28a1,1,0,0,0-1.447-.895l-.885.443-.7-2.79a1,1,0,0,0-1.94,0l-.7,2.79-.885-.443A1,1,0,0,0,12,28v3.132l-1.445-.964A1,1,0,0,0,9,31v1H7a1,1,0,0,0-.832,1.555L7.54,35.612l-.987.493A1,1,0,0,0,6,37Zm11.447-7.1L18,29.618V33a1,1,0,0,0,1.555.832L21,32.868V33a1,1,0,0,0,1,1h1.131l-.963,1.445a1,1,0,0,0,.385,1.45l.211.1-2.211,1.1a1,1,0,0,0-.523,1.137l.676,2.706c-2.472-.21-3.427-.988-3.706-1.278V30A1,1,0,0,0,17.447,29.9ZM10,34a1,1,0,0,0,1-1v-.132l1.445.964A1,1,0,0,0,14,33V29.618l.553.277A1,1,0,0,0,15,30V40.661c-.3.317-1.267,1.08-3.706,1.287l.676-2.706a1,1,0,0,0-.523-1.137L9.236,37l.211-.1a1,1,0,0,0,.385-1.45L8.869,34Z"/><path d="M20,20v2a6.006,6.006,0,0,1,6,6h2A8.009,8.009,0,0,0,20,20Z"/><rect width="2" height="2" x="26" y="29"/><rect width="2" height="2" x="21" y="56"/><rect width="2" height="2" x="21" y="52"/><rect width="2" height="2" x="7" y="47"/><path d="M63.018.982c-1.529-1.529-4.328-1.22-6.287.741L51.244,8.055l1.511,1.31,5.439-6.28c1.111-1.11,2.671-1.428,3.41-.689s.421,2.3-.637,3.361l-9.633,8.348L49.9,12.666l1.743-2.011-1.512-1.31L48.47,11.256a2.928,2.928,0,0,0-4.941,2,2.851,2.851,0,0,0-2.755,2.73A2.936,2.936,0,0,0,38.864,21l.244.244A2.934,2.934,0,0,0,39,22v1.12a5.026,5.026,0,0,0,.528,2.237A3.7,3.7,0,0,1,40,26.648V38H36a1,1,0,0,0-.9,1.447l1.861,3.721L35.01,56.858A.969.969,0,0,0,35,57a7.008,7.008,0,0,0,7,7h8a7.008,7.008,0,0,0,7-7,.969.969,0,0,0-.01-.142l-1.956-13.69L56.9,39.447A1,1,0,0,0,56,38H42V26.648a4.991,4.991,0,0,0-.684-2.187A3.008,3.008,0,0,1,41,23.12V22a1,1,0,0,1,1-1h1.323C45.055,21,46,18.571,46,17.323A1.325,1.325,0,0,1,47.323,16H48a2,2,0,0,1,2,2v3h2v-.868a2.95,2.95,0,0,0,1.545-2.594,2.918,2.918,0,0,0-.8-2.009L62.329,7.22C64.238,5.31,64.548,2.512,63.018.982ZM54.382,40l-1,2H43v2H53.133L55,57.068A5.007,5.007,0,0,1,50,62H42a5.007,5.007,0,0,1-5-4.932L38.867,44H41V42H38.618l-1-2ZM43.035,15.489a.968.968,0,0,1,1.34,0h0l.117.117A3.283,3.283,0,0,0,44,17.323a1.811,1.811,0,0,1-.061.413l-.905-.905A.951.951,0,0,1,43.035,15.489Zm-2.773,4.075a.947.947,0,0,1,1.358-1.319l.755.755H42A2.975,2.975,0,0,0,40.262,19.564ZM47.323,14A3.3,3.3,0,0,0,46,14.28l-.205-.205a.949.949,0,0,1,1.342-1.343l1.312,1.313A3.832,3.832,0,0,0,48,14Z"/><path d="M52,29.5V23H50v6.5a.5.5,0,0,1-1,0v-2a2.5,2.5,0,0,0-5,0V36h2V27.5a.5.5,0,0,1,1,0v2a2.5,2.5,0,0,0,5,0Z"/><path d="M52,35.5v-1a2.5,2.5,0,0,0-5,0v1a2.5,2.5,0,0,0,5,0Zm-2,0a.5.5,0,0,1-1,0v-1a.5.5,0,0,1,1,0Z"/><path d="M53,55H51c0,2.206-1.346,4-3,4v2C50.757,61,53,58.309,53,55Z"/><rect width="2" height="2" x="51" y="52"/><rect width="2" height="2" x="39" y="57"/><rect width="2" height="2" x="39" y="53"/></g></svg>