<svg xmlns="http://www.w3.org/2000/svg"  viewBox="0 0 100 100" width="100px" height="100px"><path d="M55.8,97.1c-2.7,0-5.2-1.5-6.6-3.8l-0.1-0.1c-1.9-3.3-4.9-6.1-8.6-8c-8.3-4.4-13.2-11.9-13.2-20.1	c0-9.6,7-18,17-21.7c-0.4-0.2-0.9-0.5-1.3-0.7c-0.9,0.1-1.8,0.2-2.6,0.2c-3,0-5.8-0.8-8.2-2.3c-0.4-0.2-0.7-0.5-1.1-0.8	c-0.8,0.1-1.6,0.2-2.3,0.2c-1.6,0-3.1-0.3-4.4-0.9c-3.3-1.4-5.6-4.3-6.3-8.1C13,27.2,11.6,20.5,14.8,14c2.7-5.5,8.2-9,14-9	c1.4,0,2.8,0.2,4.1,0.6c1.4-0.5,2.9-0.7,4.3-0.7c2.7,0,5.2,0.8,7.3,2.5c2.2,1.7,3.7,4,4.5,6.8c0.8,0.5,1.5,1.1,2.2,1.8	c2,1.9,3.4,4.4,4.2,7.2c0.5-0.8,1.1-1.5,1.7-2.1c0.3-2.5,1.4-4.8,3-6.6c2.1-2.4,5.1-3.7,8.3-3.7c0.6,0,1.3,0.1,1.9,0.2	c1.4-0.5,2.8-0.8,4.3-0.8c5,0,9.8,3.1,12.3,8.1c3.1,6.2,2.1,11.2-0.6,14.3C86,36,84.2,38.7,81.1,40c-1.2,0.5-2.6,0.8-4.1,0.8	c-0.3,0-0.6,0-0.9,0c-0.1,0.1-0.1,0.1-0.2,0.2c-1.8,1.5-4.2,2.6-6.9,3.1c9.2,4,15.3,11.9,15.3,21.1c0,8.2-4.9,15.7-13.2,20.1	c-3.7,2-6.7,4.7-8.6,8l-0.1,0.1C61,95.7,58.5,97.1,55.8,97.1z" opacity=".35"/><path fill="#f2f2f2" d="M53.8,95.1c-2.7,0-5.2-1.5-6.6-3.8l-0.1-0.1c-1.9-3.3-4.9-6.1-8.6-8c-8.3-4.4-13.2-11.9-13.2-20.1	c0-9.6,7-18,17-21.7c-0.4-0.2-0.9-0.5-1.3-0.7c-0.9,0.1-1.8,0.2-2.6,0.2c-3,0-5.8-0.8-8.2-2.3c-0.4-0.2-0.7-0.5-1.1-0.8	c-0.8,0.1-1.6,0.2-2.3,0.2c-1.6,0-3.1-0.3-4.4-0.9c-3.3-1.4-5.6-4.3-6.3-8.1C11,25.2,9.6,18.5,12.8,12c2.7-5.5,8.2-9,14-9	c1.4,0,2.8,0.2,4.1,0.6c1.4-0.5,2.9-0.7,4.3-0.7c2.7,0,5.2,0.8,7.3,2.5c2.2,1.7,3.7,4,4.5,6.8c0.8,0.5,1.5,1.1,2.2,1.8	c2,1.9,3.4,4.4,4.2,7.2c0.5-0.8,1.1-1.5,1.7-2.1c0.3-2.5,1.4-4.8,3-6.6c2.1-2.4,5.1-3.7,8.3-3.7c0.6,0,1.3,0.1,1.9,0.2	C69.7,8.3,71.2,8,72.6,8c5,0,9.8,3.1,12.3,8.1c3.1,6.2,2.1,11.2-0.6,14.3C84,34,82.2,36.7,79.1,38c-1.2,0.5-2.6,0.8-4.1,0.8	c-0.3,0-0.6,0-0.9,0c-0.1,0.1-0.1,0.1-0.2,0.2c-1.8,1.5-4.2,2.6-6.9,3.1c9.2,4,15.3,11.9,15.3,21.1c0,8.2-4.9,15.7-13.2,20.1	c-3.7,2-6.7,4.7-8.6,8l-0.1,0.1C59,93.7,56.5,95.1,53.8,95.1z"/><path fill="#d84178" d="M75.8,63.1c0-9.5-9.8-17.2-22-17.2s-22,7.7-22,17.2c0,6,3.9,11.2,9.7,14.3c4.6,2.4,8.6,6,11.2,10.5l0.1,0.1	c0.4,0.7,1.5,0.7,1.9,0l0.1-0.1c2.6-4.5,6.6-8.1,11.2-10.5C71.9,74.3,75.8,69.1,75.8,63.1z"/><path fill="#f4a3be" d="M53.8,75.4c-4.5,0-8.5,1-11.1,2.6c4.2,2.4,7.7,5.7,10.1,9.9l0.1,0.1c0.4,0.7,1.5,0.7,1.9,0l0.1-0.1	c2.4-4.2,5.9-7.5,10.1-9.9C62.3,76.5,58.3,75.4,53.8,75.4z"/><path fill="none" stroke="#40396e" stroke-miterlimit="10" stroke-width="3" d="M75.8,63.1c0-9.5-9.8-17.2-22-17.2s-22,7.7-22,17.2c0,6,3.9,11.2,9.7,14.3c4.6,2.4,8.6,6,11.2,10.5l0.1,0.1	c0.4,0.7,1.5,0.7,1.9,0l0.1-0.1c2.6-4.5,6.6-8.1,11.2-10.5C71.9,74.3,75.8,69.1,75.8,63.1z"/><path fill="#96c362" d="M38.5,10.5c-1.6-1.3-3.8-1.4-6-0.6c-1,0.4-2.1,0.4-3.1,0c-4.3-1.5-8.9,0.8-10.9,4.9c-2,4.1-1,7.9,2.4,9.7 c0.8,0.4,1.3,1.2,1.3,2.2c0.1,2.2,0.9,3.8,2.5,4.5c1.2,0.5,2.6,0.4,4.1,0c1.3-0.4,2.7,0.1,3.6,1c0.3,0.3,0.7,0.6,1.1,0.9 c2,1.3,4.5,1.5,6.9,1c0.9-0.2,2-0.1,2.9,0.5c3.4,1.9,6,3,7,1.9c1-1.1,0.2-4.1-2-7.8c-0.6-1-0.9-2.1-0.9-3.1c0-2.5-1-5.2-2.9-7.1 c-0.4-0.4-0.8-0.7-1.3-1c-1.3-0.8-2.3-2-2.6-3.3C40.5,12.7,39.7,11.4,38.5,10.5z"/><path fill="none" stroke="#40396e" stroke-linecap="round" stroke-linejoin="round" stroke-miterlimit="10" stroke-width="3" d="M38.5,10.5c-1.6-1.3-3.8-1.4-6-0.6c-1,0.4-2.1,0.4-3.1,0c-4.3-1.5-8.9,0.8-10.9,4.9c-2,4.1-1,7.9,2.4,9.7 c0.8,0.4,1.3,1.2,1.3,2.2c0.1,2.2,0.9,3.8,2.5,4.5c1.2,0.5,2.6,0.4,4.1,0c1.3-0.4,2.7,0.1,3.6,1c0.3,0.3,0.7,0.6,1.1,0.9 c2,1.3,4.5,1.5,6.9,1c0.9-0.2,2-0.1,2.9,0.5c3.4,1.9,6,3,7,1.9c1-1.1,0.2-4.1-2-7.8c-0.6-1-0.9-2.1-0.9-3.1c0-2.5-1-5.2-2.9-7.1 c-0.4-0.4-0.8-0.7-1.3-1c-1.3-0.8-2.3-2-2.6-3.3C40.5,12.7,39.7,11.4,38.5,10.5z"/><path fill="none" stroke="#40396e" stroke-linecap="round" stroke-linejoin="round" stroke-miterlimit="10" stroke-width="3" d="M27.9,18.2c12.8,6.5,24.3,15.5,25.7,27.5"/><path fill="#96c362" d="M63,16.7c1.2-1.3,2.9-1.8,4.8-1.4c0.9,0.2,1.8,0.1,2.5-0.3c3.3-1.6,7.1,0.5,8.9,4c1.8,3.6,1.5,6.6-0.6,7.7 c-0.5,0.3-0.8,0.9-0.7,1.7c0.2,1.8-0.2,3-1.3,3.5c-0.8,0.4-1.9,0.3-3.2,0.1c-1.1-0.2-2.1,0.2-2.8,1c-0.2,0.3-0.5,0.6-0.8,0.8 c-1.5,1.2-3.6,1.8-5.6,1.9c-0.8,0-1.7,0.4-2.4,1c-2.6,2.3-4.6,4.1-5.5,3.7c-0.9-0.4-0.6-3.1,0.7-6.8c0.4-1,0.5-1.9,0.4-2.7 c-0.3-2,0.2-4.4,1.5-6.5c0.3-0.4,0.6-0.8,0.9-1.2c0.9-1,1.6-2.1,1.7-3.3C61.6,18.9,62.1,17.7,63,16.7z"/><path fill="none" stroke="#40396e" stroke-linecap="round" stroke-linejoin="round" stroke-miterlimit="10" stroke-width="3" d="M63,16.7c1.2-1.3,2.9-1.8,4.8-1.4c0.9,0.2,1.8,0.1,2.5-0.3c3.3-1.6,7.1,0.5,8.9,4c1.8,3.6,1.5,6.6-0.6,7.7 c-0.5,0.3-0.8,0.9-0.7,1.7c0.2,1.8-0.2,3-1.3,3.5c-0.8,0.4-1.9,0.3-3.2,0.1c-1.1-0.2-2.1,0.2-2.8,1c-0.2,0.3-0.5,0.6-0.8,0.8 c-1.5,1.2-3.6,1.8-5.6,1.9c-0.8,0-1.7,0.4-2.4,1c-2.6,2.3-4.6,4.1-5.5,3.7c-0.9-0.4-0.6-3.1,0.7-6.8c0.4-1,0.5-1.9,0.4-2.7 c-0.3-2,0.2-4.4,1.5-6.5c0.3-0.4,0.6-0.8,0.9-1.2c0.9-1,1.6-2.1,1.7-3.3C61.6,18.9,62.1,17.7,63,16.7z"/><path fill="none" stroke="#40396e" stroke-linecap="round" stroke-linejoin="round" stroke-miterlimit="10" stroke-width="3" d="M68.6,25.9c-6.8,5.2-13.2,13.8-14.5,20"/></svg>