<svg xmlns="http://www.w3.org/2000/svg"  viewBox="0 0 100 100" width="100px" height="100px"><path d="M52,99C27.738,99,8,78.362,8,52.994c0-3.436,0.389-8.852,1.245-14.02 c-2.75-3.746-4.24-8.262-4.24-12.962c0-12.121,9.861-21.982,21.982-21.982c6.736,0,13.064,3.126,17.203,8.337 C46.756,12.123,49.371,12,52,12c4.566,0,9.002,0.364,13.234,1.085l1.218-2.298c0.974-1.843,2.793-3.114,4.863-3.397l18.65-2.538 c0.274-0.039,0.58-0.061,0.883-0.061c3.23,0,5.996,2.417,6.435,5.621c0.233,1.725-0.216,3.432-1.266,4.813 c-1.052,1.384-2.579,2.274-4.301,2.508l-9.045,1.23c4.738,2.762,8.001,6.198,9.487,10.091C94.809,35.278,96,46.773,96,52.994 C96,78.362,76.262,99,52,99z" opacity=".35"/><path fill="#f2f2f2" d="M50,97C25.738,97,6,76.362,6,50.994c0-3.436,0.389-8.852,1.245-14.02 c-2.75-3.746-4.24-8.262-4.24-12.962c0-12.121,9.861-21.982,21.982-21.982c6.736,0,13.064,3.126,17.203,8.337 C44.756,10.123,47.371,10,50,10c4.566,0,9.002,0.364,13.234,1.085l1.218-2.298c0.974-1.843,2.793-3.114,4.863-3.397l18.65-2.538 c0.274-0.039,0.58-0.061,0.883-0.061c3.23,0,5.996,2.417,6.435,5.621c0.233,1.725-0.216,3.432-1.266,4.813 c-1.052,1.384-2.579,2.274-4.301,2.508l-9.045,1.23c4.738,2.762,8.001,6.198,9.487,10.091C92.809,33.278,94,44.773,94,50.994 C94,76.362,74.262,97,50,97z"/><path fill="#d9eeff" d="M64.766,63.805c-0.559-6.925-2.016-13.087-3.281-17.395l-0.364-1.237l-1.842,0.251 C56.273,45.807,53.152,46,50,46c-17.933,0-33.082-6.411-33.082-14S32.067,18,50,18s33.082,6.411,33.082,14 c0,4.475-5.592,8.895-14.593,11.536l-1.095,0.321l0.017,1.141C67.544,54.063,66.131,60.113,64.766,63.805z"/><path fill="#d47f56" d="M84.136,29.5l-1.618,0C79.64,23.055,65.922,18,50,18c-6.172,0-11.301-3.075-13,1 c-1.32,3.167,0.647,13.425-2,15c-2.738,1.629-19.138-4.487-19.138-4.487C13.684,34.519,12.5,45.127,12.5,50.994 C12.5,72.812,29.289,90.5,50,90.5s37.5-17.687,37.5-39.506C87.5,45.129,86.313,34.505,84.136,29.5z"/><path fill="#81504f" d="M64.766,63.805c-0.159-4.979-2.259-13.268-3.281-17.395l-0.364-1.237l-1.842,0.251 C56.273,45.807,53.152,46,50,46c-17.933,0-33.082-6.411-33.082-14c0-3.391,13.136,2.454,18.082,0c3.527-1.75-2.081-12.143,3-13.009 C41.74,18.353,45.794,18,50,18c17.933,0,33.082,6.411,33.082,14c0,4.475-5.592,8.895-14.593,11.536l-1.095,0.321l0.017,1.141 C67.544,54.063,66.131,60.113,64.766,63.805z"/><path fill="#d9eeff" d="M61.12,45.173l-2.084-2.636l-3.408,0.254l-0.008,0.01C54.777,42.879,52.457,43,50,43 c-18.363,0-30.082-6.515-30.082-11c0,0,13.161,0.998,17.082-1c0,0-3.372-8.303,2-9.161C42.317,21.309,46.001,21,50,21 c18.363,0,30.082,6.515,30.082,11c0,2.488-4.272,6.261-12.438,8.657l-3.399,0.998l0.141,0.871c0.01,0.058,1.805,17.474,0.38,21.278 C64.169,56.416,61.12,45.173,61.12,45.173z"/><circle cx="25" cy="24" r="14" fill="#ef8630"/><circle cx="25" cy="24" r="11" fill="#ffc571"/><path fill="#fff6d9" d="M35.092,28.127l-7.105-4.102l7.112-4.106c-0.38-0.939-0.89-1.809-1.503-2.596l-7.105,4.102v-8.21 c-0.493-0.068-0.993-0.116-1.504-0.116c-0.509,0-1.005,0.047-1.496,0.114v8.216l-7.114-4.107c-0.613,0.788-1.122,1.658-1.503,2.596 l7.112,4.106l-7.105,4.102c0.382,0.938,0.894,1.807,1.508,2.593l7.101-4.1v8.264C23.986,34.953,24.487,35,25,35 c0.507,0,1.003-0.046,1.492-0.113v-8.261l7.092,4.095C34.198,29.934,34.71,29.065,35.092,28.127z"/><path fill="#d47f56" d="M14,34h3.652c0,0,1.517,2.545,1.348,3l-2,1l-3-2V34z"/><path fill="none" stroke="#40396e" stroke-linecap="round" stroke-linejoin="round" stroke-miterlimit="10" stroke-width="3" d="M84.136,29.5l-0.002,0.001C81.468,22.129,67.2,16.5,50,16.5c-3.874,0-7.598,0.288-11.075,0.815 c-2.504-5.188-7.802-8.785-13.937-8.785c-8.537,0-15.483,6.946-15.483,15.483c0,4.349,1.809,8.278,4.706,11.093 c-1.116,5.232-1.71,11.741-1.71,15.888C12.5,72.812,29.289,90.5,50,90.5s37.5-17.687,37.5-39.506 C87.5,45.129,86.313,34.505,84.136,29.5z"/><path fill="#81504f" d="M17.652,34h3.463c0,0,0.379,2,4.453,4H20.23C20.23,38,17.652,36,17.652,34z"/><path fill="#40396e" d="M90.329,9.09c-0.112-0.821-0.876-1.4-1.688-1.284l-18.647,2.538 c-0.479,0.065-0.897,0.357-1.123,0.784L51.997,42.975c1.532-0.037,2.821-0.107,3.48-0.162L71.16,13.213l17.885-2.435 C89.866,10.667,90.44,9.91,90.329,9.09z"/><path fill="none" stroke="#40396e" stroke-linecap="round" stroke-linejoin="round" stroke-miterlimit="10" stroke-width="3" d="M84.136,29.5l-0.002,0.001C81.468,22.129,67.2,16.5,50,16.5c-3.874,0-7.598,0.288-11.075,0.815 c-2.504-5.188-7.802-8.785-13.937-8.785c-8.537,0-15.483,6.946-15.483,15.483c0,4.349,1.809,8.278,4.706,11.093 c-1.116,5.232-1.71,11.741-1.71,15.888C12.5,72.812,29.289,90.5,50,90.5s37.5-17.687,37.5-39.506 C87.5,45.129,86.313,34.505,84.136,29.5z"/><path fill="#40396e" d="M90.329,9.09c-0.112-0.821-0.876-1.4-1.688-1.284l-18.647,2.538 c-0.479,0.065-0.897,0.357-1.123,0.784L51.997,42.975c1.532-0.037,2.821-0.107,3.48-0.162L71.16,13.213l17.885-2.435 C89.866,10.667,90.44,9.91,90.329,9.09z"/></svg>